<?xml version="1.0" encoding="UTF-8" standalone="no"?>
<svg xmlns:svg="http://www.w3.org/2000/svg" xmlns="http://www.w3.org/2000/svg" width="1204" height="1599">
	<rect width = "1204" height="1599" fill="rgb(0%, 0%, 0%)"/>
	<g id="G0">
		<polygon points="955,313 1197,265 1018,256 1022,287 849,279 830,387" fill="rgb(70.5822%, 81.0733%, 57.2403%)" fill-rule="evenodd" fill-opacity="0.220388"/>
		<polygon points="1200,853 1085,837 1075,794 1019,754 939,747 867,709 883,629 824,582 819,489 1125,452 1195,413" fill="rgb(50.6519%, 72.3422%, 85.3821%)" fill-rule="evenodd" fill-opacity="0.236140"/>
		<polygon points="1027,388 946,373 908,343 1001,336 941,320 1043,325" fill="rgb(35.5713%, 50.2871%, 75.4447%)" fill-rule="evenodd" fill-opacity="0.100000"/>
		<polygon points="159,648 279,675 389,762 404,695 447,665 547,701 547,801 632,789 655,742 659,656 692,653 707,618 611,462 357,473 328,451 202,486 0,615 0,701" fill="rgb(30.2353%, 54.2264%, 65.4671%)" fill-rule="evenodd" fill-opacity="0.282965"/>
		<polygon points="329,556 199,483 351,441 348,464 470,393 718,380 709,364 772,341 801,363" fill="rgb(54.4943%, 54.889%, 41.756%)" fill-rule="evenodd" fill-opacity="0.149458"/>
		<polygon points="940,294 1021,276 1200,247 1200,288 1005,327 985,358 1038,343 865,334 854,291" fill="rgb(58.9945%, 55.5823%, 33.2871%)" fill-rule="evenodd" fill-opacity="0.374270"/>
		<polygon points="738,406 712,385 483,396 299,475 608,462 708,616 694,568 719,496 765,444" fill="rgb(44.867%, 64.9056%, 72.5565%)" fill-rule="evenodd" fill-opacity="0.275515"/>
		<polygon points="64,560 63,617 117,601 242,594 290,536 336,507 372,456 237,502 272,528 319,460 217,469" fill="rgb(65.4135%, 63.3677%, 69.1988%)" fill-rule="evenodd" fill-opacity="0.100000"/>
		<polygon points="728,351 766,331 845,315 853,287 938,284 1184,243 1200,243 1198,408 1134,450 810,490 708,378" fill="rgb(33.5716%, 46.6752%, 51.5512%)" fill-rule="evenodd" fill-opacity="0.437397"/>
		<polygon points="1193,784 1158,773 1163,796 1200,815" fill="rgb(70.5702%, 40.6064%, 79.6826%)" fill-rule="evenodd" fill-opacity="0.142496"/>
	</g>
	<g id="G1">
		<polygon points="375,6 0,1 0,244 207,246 289,227 533,233 707,143 508,154 358,155 543,124 521,116 550,112 1015,6" fill="rgb(56.1439%, 64.3569%, 73.054%)" fill-rule="evenodd" fill-opacity="0.360211"/>
		<polygon points="827,151 939,160 1069,167 1109,197 1187,230 1190,5 916,67 876,72 793,61 1015,4 325,4 289,15 294,56 309,31 260,29 618,69 660,133" fill="rgb(46.9717%, 49.7936%, 100%)" fill-rule="evenodd" fill-opacity="0.212023"/>
		<polygon points="76,75 125,45 241,32 259,47 164,48 166,33 210,81 189,95" fill="rgb(52.9426%, 59.2374%, 80.2985%)" fill-rule="evenodd" fill-opacity="0.509581"/>
		<polygon points="682,293 673,297 0,303 0,157 214,101 313,34 630,70 651,134 846,121 940,133 1070,119 1105,79 1200,51 1200,242 935,280" fill="rgb(57.3979%, 67.7498%, 96.6771%)" fill-rule="evenodd" fill-opacity="0.533938"/>
		<polygon points="1200,0 1200,234 951,272 582,293 463,292 229,300 240,304 0,313 0,0" fill="rgb(76.0181%, 89.1586%, 100%)" fill-rule="evenodd" fill-opacity="0.574125"/>
		<polygon points="137,241 642,245 665,209 715,221 670,241 773,258 909,264 923,300 994,284 1075,235 1078,271 1182,253 1200,223 1194,120 1131,137 1027,143 1098,106 1081,86 871,88 802,108 444,135 324,161 117,216 46,201 0,209 0,231" fill="rgb(100%, 90.6516%, 87.1404%)" fill-rule="evenodd" fill-opacity="0.475850"/>
		<polygon points="1083,275 1131,262 1200,233 1200,5 1018,5 566,108 356,108 196,100 211,247 474,256 622,283 691,300" fill="rgb(93.2943%, 100%, 97.9665%)" fill-rule="evenodd" fill-opacity="0.411574"/>
		<polygon points="1196,61 1085,111 1022,143 961,142 865,82 847,112 672,153 764,162 165,205 358,154 182,132 56,132 17,120 154,2 659,3 1200,3" fill="rgb(57.8851%, 78.7308%, 98.3075%)" fill-rule="evenodd" fill-opacity="0.449862"/>
		<polygon points="970,272 941,291 876,293 882,277 909,270" fill="rgb(62.9188%, 79.1349%, 99.4272%)" fill-rule="evenodd" fill-opacity="0.239620"/>
		<polygon points="173,279 217,277 270,286 255,257 99,252 85,234 94,214 46,200 8,202 49,255" fill="rgb(31.7579%, 49.546%, 73.3269%)" fill-rule="evenodd" fill-opacity="0.159375"/>
		<polygon points="977,297 999,285 1025,285 1016,260 938,266 877,274 538,254 457,278 168,302 174,309" fill="rgb(32.1836%, 55.3853%, 78.7044%)" fill-rule="evenodd" fill-opacity="0.263016"/>
		<polygon points="211,47 182,3 536,1 664,6 530,69" fill="rgb(44.397%, 67.6979%, 91.0716%)" fill-rule="evenodd" fill-opacity="0.224682"/>
		<polygon points="79,263 178,214 234,201 207,177 296,166 260,155 208,149 204,114 190,100 133,83 69,74 61,84 0,122 0,209" fill="rgb(83.6354%, 68.5007%, 56.792%)" fill-rule="evenodd" fill-opacity="0.215043"/>
		<polygon points="753,181 721,195 715,172 689,167 680,159 731,141" fill="rgb(4.57068%, 4.65406%, 52.9305%)" fill-rule="evenodd" fill-opacity="0.120934"/>
		<polygon points="825,166 106,117 101,57 203,69 269,69 431,83 535,83 638,76 476,49 901,31 637,95 801,93" fill="rgb(66.131%, 80.0481%, 91.0137%)" fill-rule="evenodd" fill-opacity="0.269081"/>
		<polygon points="598,208 471,209 454,197 450,187 502,181 652,188" fill="rgb(39.7976%, 54.9924%, 82.8944%)" fill-rule="evenodd" fill-opacity="0.162690"/>
		<polygon points="945,316 952,285 916,293 917,314" fill="rgb(28.0846%, 38.3304%, 50.1974%)" fill-rule="evenodd" fill-opacity="0.426947"/>
		<polygon points="33,304 251,294 332,297 263,309 118,310 139,316 0,316" fill="rgb(43.4397%, 47.7106%, 56.599%)" fill-rule="evenodd" fill-opacity="0.371853"/>
		<polygon points="897,161 888,157 705,144 638,203 773,196 857,201 833,182 799,184 740,180 762,166 1015,187" fill="rgb(59.098%, 67.4356%, 81.653%)" fill-rule="evenodd" fill-opacity="0.180581"/>
		<polygon points="599,245 537,242 599,205 632,200" fill="rgb(41.458%, 36.1986%, 75.2952%)" fill-rule="evenodd" fill-opacity="0.100717"/>
		<polygon points="1062,281 1112,278 1188,252 1192,249" fill="rgb(78.5588%, 53.4027%, 52.1841%)" fill-rule="evenodd" fill-opacity="0.225600"/>
	</g>
	<g id="G2">
		<polygon points="274,1238 290,1265 200,1183 312,1054 340,1038 333,1079" fill="rgb(48.8154%, 49.8915%, 65.2597%)" fill-rule="evenodd" fill-opacity="0.211467"/>
		<polygon points="91,973 102,965 89,955 87,927 102,899 79,898 58,1048 58,1033 109,1001" fill="rgb(33.6212%, 34.3723%, 44.1972%)" fill-rule="evenodd" fill-opacity="0.108085"/>
		<polygon points="263,968 324,938 350,906 309,875 294,870 261,870 216,898 181,879 54,917 16,1023 37,1025 65,955 78,966 91,949 89,966 82,1053 119,1058 200,1184 303,1064 324,1062 335,1010" fill="rgb(44.6245%, 43.628%, 58.7941%)" fill-rule="evenodd" fill-opacity="0.267866"/>
		<polygon points="176,1264 180,1272 202,1257 237,1254 218,1212" fill="rgb(91.5336%, 75.7834%, 80.9325%)" fill-rule="evenodd" fill-opacity="0.100000"/>
		<polygon points="360,895 344,918 329,1118 281,1189 202,1204 75,1160 76,1146 97,1108 124,1081 103,1058 78,1080 89,963 43,968 54,933 20,919 262,870" fill="rgb(43.67%, 51.5502%, 56.9891%)" fill-rule="evenodd" fill-opacity="0.320656"/>
		<polygon points="31,1349 22,1400 67,1420 38,1436 17,1436 14,1456 4,1461 1,1372" fill="rgb(29.0265%, 33.1965%, 55.8284%)" fill-rule="evenodd" fill-opacity="0.145041"/>
		<polygon points="97,1522 141,1516 105,1438 128,1424 130,1417 95,1414 60,1430 0,1439 0,1482 24,1447 27,1511" fill="rgb(47.284%, 53.4269%, 67.1888%)" fill-rule="evenodd" fill-opacity="0.299240"/>
		<polygon points="0,896 69,918 41,965 39,927 56,926 91,946 69,1183 40,1209 28,1214 36,1323 0,1434" fill="rgb(66.1327%, 72.9142%, 82.9629%)" fill-rule="evenodd" fill-opacity="0.323933"/>
		<polygon points="411,1280 412,1229 407,1248 395,1250 371,1312 383,1358 377,1358 414,1334" fill="rgb(37.1936%, 34.4949%, 46.4929%)" fill-rule="evenodd" fill-opacity="0.153587"/>
		<polygon points="129,1286 97,1295 45,1293 0,1431 1,1518 71,1519 188,1501 280,1471 411,1465 410,1226 384,1244 349,1312 329,1313 225,1194" fill="rgb(49.0602%, 56.621%, 61.2876%)" fill-rule="evenodd" fill-opacity="0.274579"/>
		<polygon points="160,1439 177,1258 205,1192 153,1111 133,1051 151,1021 129,1008 3,1141 0,1215 6,1228 26,1174 36,1322 0,1432 14,1522 63,1512 71,1467 95,1456 125,1475" fill="rgb(45.1929%, 50.966%, 56.8909%)" fill-rule="evenodd" fill-opacity="0.281160"/>
		<polygon points="0,930 15,965 12,986 53,981 88,943 84,938 55,936 61,919 0,899" fill="rgb(100%, 81.3518%, 65.8768%)" fill-rule="evenodd" fill-opacity="0.410758"/>
		<polygon points="316,902 287,870 263,870 250,891 187,883 78,911 147,906 134,937" fill="rgb(100%, 83.9705%, 63.1731%)" fill-rule="evenodd" fill-opacity="0.438099"/>
		<polygon points="239,881 134,896 192,903 236,919 264,917 320,919 320,903 351,899 279,870" fill="rgb(100%, 90.4978%, 80.3222%)" fill-rule="evenodd" fill-opacity="0.575665"/>
		<polygon points="130,946 123,928 109,943 101,938 86,942 93,956" fill="rgb(74.3977%, 70.211%, 43.7674%)" fill-rule="evenodd" fill-opacity="0.181684"/>
		<polygon points="300,1376 192,1489 130,1494 79,1381 141,1380 141,1365 103,1371 163,1412 174,1287 244,1282" fill="rgb(40.3289%, 43.6399%, 55.7735%)" fill-rule="evenodd" fill-opacity="0.268838"/>
	</g>
	<g id="G3">
		<polygon points="887,1563 867,1526 872,1594" fill="rgb(66.736%, 73.0688%, 71.0913%)" fill-rule="evenodd" fill-opacity="0.245561"/>
		<polygon points="921,1538 815,1476 816,1461 891,1455 902,1462 929,1399 937,1520" fill="rgb(74.834%, 54.1451%, 42.9492%)" fill-rule="evenodd" fill-opacity="0.471388"/>
		<polygon points="742,1469 677,1474 647,1455 576,1599 640,1557 683,1532" fill="rgb(61.081%, 54.5552%, 61.8209%)" fill-rule="evenodd" fill-opacity="0.308100"/>
		<polygon points="1038,1386 1029,1428 1003,1369" fill="rgb(93.6858%, 79.4043%, 23.8608%)" fill-rule="evenodd" fill-opacity="0.248816"/>
		<polygon points="872,1494 847,1496 855,1455 892,1494 878,1554" fill="rgb(90.9707%, 88.4473%, 77.3525%)" fill-rule="evenodd" fill-opacity="0.354318"/>
		<polygon points="741,1498 878,1458 718,1469 678,1474 651,1458 607,1529 579,1585 576,1599 639,1598" fill="rgb(89.3211%, 59.5567%, 31.5968%)" fill-rule="evenodd" fill-opacity="0.212629"/>
		<polygon points="856,1311 904,1278 899,1261 878,1245 915,1239 958,1257 1030,1291 1049,1298 1009,1291 1032,1286 938,1284 923,1293 945,1299 953,1290 919,1316" fill="rgb(69.1294%, 93.2714%, 60.1704%)" fill-rule="evenodd" fill-opacity="0.429315"/>
		<polygon points="807,1462 842,1493 868,1485 886,1477 910,1511 908,1460 855,1458 904,1346 1017,1371 1059,1393 1107,1401 1170,1383 1199,1388 1200,1537 1059,1555 827,1529 909,1599 576,1597 683,1531 745,1468" fill="rgb(74.8166%, 62.7601%, 71.943%)" fill-rule="evenodd" fill-opacity="0.182507"/>
		<polygon points="979,1331 935,1359 939,1370 957,1375 942,1384 915,1378 895,1392 796,1354 742,1330 815,1270 862,1257 885,1239 935,1240 1070,1306" fill="rgb(100%, 69.8075%, 52.5744%)" fill-rule="evenodd" fill-opacity="0.346780"/>
		<polygon points="739,1327 702,1349 648,1455 679,1474 937,1451 927,1431 942,1383 958,1379 934,1355 905,1355 930,1339 918,1334 890,1340 902,1319 909,1394 829,1368" fill="rgb(100%, 80.7038%, 69.113%)" fill-rule="evenodd" fill-opacity="0.316564"/>
		<polygon points="741,1497 826,1473 863,1482 798,1593 801,1596 670,1599 660,1578" fill="rgb(100%, 71.5124%, 45.0757%)" fill-rule="evenodd" fill-opacity="0.165875"/>
		<polygon points="827,1265 780,1300 793,1306 871,1283 918,1341 969,1325 959,1305 1066,1320 952,1288 1028,1289 993,1271 925,1242 897,1239" fill="rgb(100%, 82.3753%, 56.209%)" fill-rule="evenodd" fill-opacity="0.600000"/>
		<polygon points="723,1359 732,1333 819,1264 886,1239 892,1239 864,1260 903,1277 888,1303 888,1342 878,1355 878,1365 709,1388" fill="rgb(30.6692%, 28.7691%, 29.3513%)" fill-rule="evenodd" fill-opacity="0.472398"/>
		<polygon points="1196,1468 1176,1442 1082,1401 1074,1344 1099,1383 1074,1432 1013,1417 1028,1467 999,1480 993,1505 1012,1556 1162,1543 1188,1547" fill="rgb(19.7086%, 56.0317%, 95.9619%)" fill-rule="evenodd" fill-opacity="0.120768"/>
		<polygon points="1004,1407 1070,1425 1197,1380 1191,1411 1147,1409 1078,1425 1033,1446 1032,1455" fill="rgb(84.3147%, 76.636%, 80.2166%)" fill-rule="evenodd" fill-opacity="0.452689"/>
		<polygon points="1048,1505 1044,1496 1022,1476 1007,1446 1060,1430 1062,1404 1050,1358 1068,1324 1080,1323 1079,1335 1100,1388 1100,1416 1155,1469 1142,1472 1142,1467 1044,1511" fill="rgb(23.6823%, 26.0624%, 36.3629%)" fill-rule="evenodd" fill-opacity="0.272485"/>
		<polygon points="881,1512 880,1521 916,1478 913,1442 926,1420 933,1530" fill="rgb(100%, 82.1925%, 45.6408%)" fill-rule="evenodd" fill-opacity="0.600000"/>
		<polygon points="1071,1306 987,1328 957,1346 1035,1379 1088,1407 1098,1408 1085,1338" fill="rgb(70.3089%, 47.5359%, 43.3705%)" fill-rule="evenodd" fill-opacity="0.241535"/>
		<polygon points="1006,1557 1172,1542 1159,1505 1196,1515 1196,1599 1046,1597" fill="rgb(60.052%, 65.4776%, 87.7832%)" fill-rule="evenodd" fill-opacity="0.254198"/>
		<polygon points="905,1403 902,1412 900,1443 904,1419 857,1474 870,1411 889,1375" fill="rgb(100%, 83.797%, 50.6868%)" fill-rule="evenodd" fill-opacity="0.600000"/>
		<polygon points="888,1300 845,1352 828,1378 849,1364 895,1331 881,1358 755,1452 710,1442 710,1429 759,1404 766,1406 821,1348 872,1291" fill="rgb(39.4807%, 33.3208%, 32.4679%)" fill-rule="evenodd" fill-opacity="0.368068"/>
		<polygon points="1137,1409 1184,1419 1188,1424 1204,1414 1197,1411" fill="rgb(75.0438%, 85.9359%, 79.6986%)" fill-rule="evenodd" fill-opacity="0.155619"/>
		<polygon points="1009,1384 1049,1413 1068,1380 1063,1369 1066,1328 1092,1369 1105,1415 1072,1429 1030,1455 1018,1455" fill="rgb(84.1226%, 36.6415%, 2.0134%)" fill-rule="evenodd" fill-opacity="0.224954"/>
		<polygon points="812,1358 827,1347 814,1344 782,1348 770,1367 787,1370" fill="rgb(21.1943%, 15.9269%, 19.182%)" fill-rule="evenodd" fill-opacity="0.369718"/>
		<polygon points="1031,1391 1033,1426 1027,1407 1011,1388" fill="rgb(48.0472%, 99.5445%, 79.3981%)" fill-rule="evenodd" fill-opacity="0.189898"/>
		<polygon points="826,1529 924,1539 1036,1553 1008,1558 1046,1598 908,1599" fill="rgb(55.054%, 53.6284%, 64.6388%)" fill-rule="evenodd" fill-opacity="0.240319"/>
		<polygon points="974,1445 955,1463 989,1465 988,1458" fill="rgb(54.9082%, 15.0333%, 17.218%)" fill-rule="evenodd" fill-opacity="0.192337"/>
	</g>
	<g id="G4">
		<polygon points="154,510 151,521 116,517 90,519 92,524 37,529 168,495" fill="rgb(41.5899%, 65.4477%, 94.5796%)" fill-rule="evenodd" fill-opacity="0.526195"/>
		<polygon points="277,311 325,311 351,298 525,313 131,327 88,341 158,351 123,363 26,362 2,331 0,308 119,311 70,309 249,304" fill="rgb(98.3466%, 86.5617%, 79.05%)" fill-rule="evenodd" fill-opacity="0.240973"/>
		<polygon points="0,318 123,311 271,311 357,354 430,385 494,392 416,419 389,446 308,460 47,526 36,529 0,531" fill="rgb(48.6569%, 66.0503%, 96.9282%)" fill-rule="evenodd" fill-opacity="0.543099"/>
		<polygon points="503,393 502,396 417,425 441,430 446,418 552,389 589,392 781,346 792,326 843,293 238,298 141,304 8,304 9,411 192,398" fill="rgb(62.4138%, 82.9294%, 56.5693%)" fill-rule="evenodd" fill-opacity="0.243888"/>
		<polygon points="548,303 727,298 746,292 848,292 838,301 844,320 732,349 690,400 668,385 662,376 650,387 606,382" fill="rgb(58.7322%, 87.7039%, 100%)" fill-rule="evenodd" fill-opacity="0.600000"/>
		<polygon points="495,298 251,303 339,345 429,385 473,393 533,396 601,404 617,390 699,386 715,357 748,349 754,333 845,310 848,295" fill="rgb(70.8018%, 90.101%, 100%)" fill-rule="evenodd" fill-opacity="0.409683"/>
		<polygon points="317,452 347,447 550,381 581,414 612,389 545,300 381,302 197,308 0,310 0,535 133,522 196,492 204,480" fill="rgb(58.538%, 85.4757%, 100%)" fill-rule="evenodd" fill-opacity="0.600000"/>
		<polygon points="302,458 304,446 310,466 380,451 404,444 415,426" fill="rgb(64.6207%, 87.3384%, 100%)" fill-rule="evenodd" fill-opacity="0.220377"/>
		<polygon points="202,397 681,392 676,370 713,367 792,340 816,323 815,292 610,292 453,292 0,312 0,412" fill="rgb(19.3046%, 35.4866%, 77.8151%)" fill-rule="evenodd" fill-opacity="0.285464"/>
		<polygon points="0,312 63,312 118,309 127,306 0,307" fill="rgb(20.7814%, 30.5152%, 45.4955%)" fill-rule="evenodd" fill-opacity="0.495742"/>
		<polygon points="166,502 228,475 82,476 41,468 0,455 0,513 5,536 71,532 71,524 117,519" fill="rgb(35.2732%, 66.8207%, 78.9765%)" fill-rule="evenodd" fill-opacity="0.278671"/>
		<polygon points="573,416 609,406 569,399 560,399" fill="rgb(48.8517%, 69.4588%, 87.7937%)" fill-rule="evenodd" fill-opacity="0.273355"/>
		<polygon points="570,410 588,417 613,404 619,388" fill="rgb(17.5812%, 29.1097%, 37.4554%)" fill-rule="evenodd" fill-opacity="0.264804"/>
		<polygon points="5,525 57,525 170,512 146,526 84,531 77,536 2,536" fill="rgb(30.7621%, 40.2702%, 48.598%)" fill-rule="evenodd" fill-opacity="0.351790"/>
		<polygon points="653,381 611,380 637,390 657,402" fill="rgb(41.3833%, 53.3988%, 65.6875%)" fill-rule="evenodd" fill-opacity="0.301362"/>
		<polygon points="150,511 223,470 330,458 277,472 270,478 233,483 216,488 173,514" fill="rgb(32.6357%, 39.8618%, 43.2195%)" fill-rule="evenodd" fill-opacity="0.282602"/>
		<polygon points="779,339 751,339 755,325" fill="rgb(31.1452%, 3.44585%, 1.69614%)" fill-rule="evenodd" fill-opacity="0.277677"/>
	</g>
	<g id="G5">
		<polygon points="1167,922 1174,917 1173,902 1140,883 1170,857 1142,857 1170,845 1202,859 1201,955" fill="rgb(88.5491%, 80.9507%, 68.9944%)" fill-rule="evenodd" fill-opacity="0.326304"/>
		<polygon points="934,776 976,800 969,787 984,775 969,780 941,765 859,730 885,724 929,739 1041,761 1088,849 1048,850 1065,882 1055,883 1010,911 1009,855 941,830 936,812" fill="rgb(74.6361%, 54.0225%, 49.6014%)" fill-rule="evenodd" fill-opacity="0.436660"/>
		<polygon points="916,1085 940,1062 937,1078 948,1098 908,1099" fill="rgb(82.4691%, 16.9227%, 50.729%)" fill-rule="evenodd" fill-opacity="0.320123"/>
		<polygon points="930,763 990,769 903,728 930,760 910,774 916,783 884,798 851,830 801,889 855,868 863,866 914,845 944,828" fill="rgb(62.4482%, 52.9141%, 67.6413%)" fill-rule="evenodd" fill-opacity="0.290672"/>
		<polygon points="992,878 1008,903 1004,831 1034,885 1026,902 1052,931 1042,836 1090,849 1138,843 1186,850 1202,866 1158,865 1131,894 1124,908 1116,915 1042,977 963,838" fill="rgb(99.0117%, 91.5732%, 80.8483%)" fill-rule="evenodd" fill-opacity="0.349450"/>
		<polygon points="1093,841 1198,861 1197,948 1165,938 1062,942 1052,910 1081,913" fill="rgb(66.6819%, 53.4852%, 40.051%)" fill-rule="evenodd" fill-opacity="0.295747"/>
		<polygon points="1072,796 1066,796 1022,758 993,754 986,806 1054,836 960,837 1003,931 1028,938 1030,949 1044,963 1102,930 1063,860 1193,853 1044,832 1030,794 1083,815" fill="rgb(100%, 92.7106%, 83.2168%)" fill-rule="evenodd" fill-opacity="0.597055"/>
		<polygon points="878,724 998,762 1050,775 1061,805 1077,810 1052,911 974,892 955,858 938,838 915,845 896,855 843,858 844,816 855,786 854,731" fill="rgb(85.8408%, 84.4377%, 66.3705%)" fill-rule="evenodd" fill-opacity="0.272839"/>
		<polygon points="1011,960 1014,1006 985,1008 965,1038 958,1072 985,1101 988,1078 1014,1115 1059,1039 1038,969" fill="rgb(81.3482%, 84.289%, 69.3107%)" fill-rule="evenodd" fill-opacity="0.147111"/>
		<polygon points="1004,998 873,863 950,827 1013,832 1032,819 1047,829 1068,809 1089,870 1033,918 1095,936" fill="rgb(71.5189%, 64.9125%, 61.1085%)" fill-rule="evenodd" fill-opacity="0.337577"/>
		<polygon points="1071,958 1079,945 1068,948 1021,917 1040,927 1042,953" fill="rgb(28.5454%, 21.4854%, 20.4219%)" fill-rule="evenodd" fill-opacity="0.538375"/>
		<polygon points="779,1123 764,1013 797,1025 859,1037 894,1064 942,1059 994,1045 983,1072 941,1098 894,1124" fill="rgb(35.5228%, 42.881%, 35.4446%)" fill-rule="evenodd" fill-opacity="0.198594"/>
		<polygon points="870,852 840,856 873,859 930,924 914,932 883,951 854,955 807,989 817,1010 776,1013 750,934 811,873 870,823" fill="rgb(65.5044%, 56.6046%, 66.9771%)" fill-rule="evenodd" fill-opacity="0.195673"/>
		<polygon points="750,940 756,966 774,1022 822,1031 862,1036 889,1060 915,1087 946,1094 965,1038 991,1002 992,984 880,872 843,842" fill="rgb(57.5818%, 63.5427%, 52.1281%)" fill-rule="evenodd" fill-opacity="0.164527"/>
		<polygon points="1007,1083 1004,1100 1011,1110 990,1115 965,1091 924,1108 869,1102 882,1082 1003,1069" fill="rgb(100%, 73.0224%, 55.4226%)" fill-rule="evenodd" fill-opacity="0.343553"/>
		<polygon points="1040,884 1045,837 1008,834 1006,841" fill="rgb(34.2365%, 18.7023%, 21.267%)" fill-rule="evenodd" fill-opacity="0.567010"/>
		<polygon points="1039,901 1055,927 1020,931 1027,938 1012,941 996,927" fill="rgb(26.1961%, 21.2707%, 20.8886%)" fill-rule="evenodd" fill-opacity="0.246202"/>
		<polygon points="1038,819 1029,811 1020,826 1051,764 1048,779 1053,794" fill="rgb(63.9904%, 45.3501%, 46.2756%)" fill-rule="evenodd" fill-opacity="0.351365"/>
		<polygon points="961,1093 952,1091 940,1076 903,1098" fill="rgb(98.9894%, 88.8786%, 61.0005%)" fill-rule="evenodd" fill-opacity="0.482521"/>
		<polygon points="1048,943 1041,970 1057,971 1066,959 1057,938 1047,930" fill="rgb(0%, 2.00502%, 7.23174%)" fill-rule="evenodd" fill-opacity="0.304264"/>
		<polygon points="1043,980 982,982 986,972 1042,956 1073,942 1069,956" fill="rgb(55.5017%, 46.6391%, 44.6587%)" fill-rule="evenodd" fill-opacity="0.319285"/>
		<polygon points="1198,917 1197,926 1175,943 1161,917" fill="rgb(67.5858%, 66.8828%, 52.0135%)" fill-rule="evenodd" fill-opacity="0.222905"/>
		<polygon points="902,1121 947,1101 912,1090 915,1068 855,1079 843,1084 849,1095 850,1124" fill="rgb(27.4212%, 24.4079%, 11.7318%)" fill-rule="evenodd" fill-opacity="0.389334"/>
		<polygon points="932,1000 960,1029 917,1036 899,987" fill="rgb(84.4759%, 53.2635%, 28.5661%)" fill-rule="evenodd" fill-opacity="0.125264"/>
		<polygon points="971,834 960,845 950,850 929,840" fill="rgb(81.1689%, 59.4506%, 54.7888%)" fill-rule="evenodd" fill-opacity="0.378872"/>
		<polygon points="929,957 934,966 915,965 926,931" fill="rgb(49.6578%, 48.0373%, 35.4162%)" fill-rule="evenodd" fill-opacity="0.282646"/>
		<polygon points="896,741 903,726 883,724 870,764 902,751" fill="rgb(93.4196%, 91.9646%, 55.3338%)" fill-rule="evenodd" fill-opacity="0.351480"/>
		<polygon points="927,1096 923,1098 920,1109 896,1091 894,1086 902,1069 870,1107" fill="rgb(59.0383%, 72.0663%, 35.0134%)" fill-rule="evenodd" fill-opacity="0.352085"/>
		<polygon points="917,823 929,833 916,837 906,828 896,835 892,828 905,819" fill="rgb(97.3159%, 94.8158%, 85.4576%)" fill-rule="evenodd" fill-opacity="0.412992"/>
		<polygon points="1077,909 1064,880 1072,891 1077,884 1057,886 1014,840 1028,876" fill="rgb(0%, 23.26%, 18.7286%)" fill-rule="evenodd" fill-opacity="0.285803"/>
		<polygon points="1155,919 1145,923 1133,910 1101,929 1136,893 1142,882 1158,892" fill="rgb(55.8004%, 61.8327%, 42.9242%)" fill-rule="evenodd" fill-opacity="0.279994"/>
		<polygon points="916,932 913,945 853,947 856,934" fill="rgb(67.5036%, 51.2901%, 48.8505%)" fill-rule="evenodd" fill-opacity="0.159479"/>
		<polygon points="1056,1013 1038,1003 1030,1010 994,990 989,1006 1002,1009 1002,1020 1054,1035" fill="rgb(73.8544%, 65.7254%, 54.7977%)" fill-rule="evenodd" fill-opacity="0.171813"/>
		<polygon points="927,950 935,976 923,969 912,942" fill="rgb(75.6977%, 61.4701%, 64.603%)" fill-rule="evenodd" fill-opacity="0.212648"/>
		<polygon points="909,737 894,749 875,728 885,724 900,726 915,737 923,735 958,753 920,765" fill="rgb(100%, 91.14%, 87.0681%)" fill-rule="evenodd" fill-opacity="0.388797"/>
		<polygon points="986,782 994,782 995,794 966,784 1004,821 989,826 968,817 957,805 976,766" fill="rgb(14.3939%, 19.2622%, 0.32462%)" fill-rule="evenodd" fill-opacity="0.361491"/>
		<polygon points="1020,923 1040,966 1015,964 984,987" fill="rgb(23.6735%, 18.7187%, 11.8258%)" fill-rule="evenodd" fill-opacity="0.149139"/>
		<polygon points="837,933 839,945 850,948 855,940" fill="rgb(47.7434%, 63.0821%, 39.9511%)" fill-rule="evenodd" fill-opacity="0.205263"/>
		<polygon points="990,1054 953,1059 1017,1059 1017,1053 1000,1069" fill="rgb(34.0446%, 4.54527%, 25.6778%)" fill-rule="evenodd" fill-opacity="0.203673"/>
		<polygon points="969,825 939,783 957,778" fill="rgb(94.7728%, 57.2129%, 85.0317%)" fill-rule="evenodd" fill-opacity="0.222878"/>
		<polygon points="1082,866 1093,857 1078,849 1073,852 1053,850" fill="rgb(3.23139%, 75.1504%, 13.5006%)" fill-rule="evenodd" fill-opacity="0.282255"/>
		<polygon points="816,980 829,967 837,975" fill="rgb(66.5372%, 83.1787%, 73.5118%)" fill-rule="evenodd" fill-opacity="0.166019"/>
		<polygon points="1079,811 1065,814 1065,802" fill="rgb(25.2545%, 29.9323%, 65.8427%)" fill-rule="evenodd" fill-opacity="0.185909"/>
		<polygon points="861,746 869,735 860,726" fill="rgb(67.6468%, 91.7719%, 24.7239%)" fill-rule="evenodd" fill-opacity="0.106799"/>
		<polygon points="935,821 924,807 924,820" fill="rgb(96.3659%, 63.5552%, 71.6056%)" fill-rule="evenodd" fill-opacity="0.324076"/>
	</g>
	<g id="G6">
		<polygon points="1077,1072 1037,1062 1039,1077 1035,1097 1084,1076" fill="rgb(42.8579%, 45.0688%, 18.0139%)" fill-rule="evenodd" fill-opacity="0.254431"/>
		<polygon points="1162,1355 1192,1297 1202,1227 1178,1210 1097,1247 1099,1193 1078,1179 1068,1211 1042,1175 1033,1185 1053,1220 1054,1215 1070,1244 1061,1248 1049,1262 988,1267" fill="rgb(60.3862%, 51.8533%, 49.6161%)" fill-rule="evenodd" fill-opacity="0.434355"/>
		<polygon points="1022,1107 966,1122 967,1226 947,1222 898,1222 965,1261 981,1245 983,1208 1013,1184 1037,1193 1119,1293 1182,1287 1152,1284 1146,1260 1163,1259 1200,1262 1201,977 1059,1030" fill="rgb(78.0712%, 75.2205%, 62.2945%)" fill-rule="evenodd" fill-opacity="0.236470"/>
		<polygon points="1100,1414 1201,1376 1202,1293 1197,1163 1158,1174 1084,1165 1175,1205 1119,1234 1095,1267 1071,1303" fill="rgb(51.6533%, 56.7443%, 46.7362%)" fill-rule="evenodd" fill-opacity="0.192137"/>
		<polygon points="959,1255 976,1218 967,1175 969,1094 998,1120 995,1127 1093,1183 1070,1203 1082,1186 1021,1180 996,1274" fill="rgb(100%, 84.2135%, 62.5628%)" fill-rule="evenodd" fill-opacity="0.391565"/>
		<polygon points="1113,1037 1138,1043 1192,1048 1199,1128 1181,1135 1061,1139 1028,1127 1080,1051 1051,1054 1056,1057 1055,998" fill="rgb(96.6555%, 91.8894%, 47.5696%)" fill-rule="evenodd" fill-opacity="0.236218"/>
		<polygon points="1192,1144 1201,1117 1194,1042 1107,1039 1128,1060 1147,1107 1124,1083 1106,1067 1091,1076 1076,1075 1088,1105 1077,1120 1082,1131" fill="rgb(92.6123%, 79.4879%, 87.7736%)" fill-rule="evenodd" fill-opacity="0.293443"/>
		<polygon points="1061,1160 1016,1144 993,1128 963,1132 963,1164 913,1238 990,1266 1012,1288 1018,1289 1097,1251 1120,1277 1163,1249 1103,1218 1144,1200 1151,1175" fill="rgb(87.1195%, 79.8814%, 82.194%)" fill-rule="evenodd" fill-opacity="0.267649"/>
		<polygon points="1051,970 1043,979 1042,1004 1066,1001 1098,1000 1101,996 1117,1013 1133,1013 1118,1000 1066,962" fill="rgb(84.1005%, 82.0318%, 53.3684%)" fill-rule="evenodd" fill-opacity="0.284428"/>
		<polygon points="1169,943 1178,938 1201,954 1200,978 1082,1022 1062,997 1045,995 1056,984 1087,938" fill="rgb(96.7111%, 84.6562%, 64.0437%)" fill-rule="evenodd" fill-opacity="0.561646"/>
		<polygon points="1144,1186 1139,1160 1172,1141 1152,1142 1195,1136" fill="rgb(0%, 4.25359%, 0%)" fill-rule="evenodd" fill-opacity="0.357077"/>
		<polygon points="927,1195 926,1199 942,1205 949,1244 939,1246 927,1157" fill="rgb(83.3896%, 74.991%, 52.0409%)" fill-rule="evenodd" fill-opacity="0.399112"/>
		<polygon points="1130,1029 1198,1013 1189,989 1142,985 1137,993 1102,997 1100,1028" fill="rgb(7.18559%, 9.63761%, 3.51392%)" fill-rule="evenodd" fill-opacity="0.470236"/>
		<polygon points="944,1252 941,1236 951,1240 954,1220 936,1210 926,1225" fill="rgb(97.0034%, 100%, 81.7418%)" fill-rule="evenodd" fill-opacity="0.363504"/>
		<polygon points="1119,1324 1143,1326 1133,1345 1140,1356 1070,1316 1091,1306 1094,1293" fill="rgb(16.7795%, 15.661%, 12.2256%)" fill-rule="evenodd" fill-opacity="0.413061"/>
		<polygon points="798,1131 809,1140 840,1139 841,1167 888,1145 906,1167 913,1156 909,1153 933,1157 917,1146 898,1141 887,1122 798,1123" fill="rgb(98.8889%, 86.1199%, 66.674%)" fill-rule="evenodd" fill-opacity="0.545786"/>
		<polygon points="1043,1179 1053,1186 1068,1209 1091,1195 1073,1190 1064,1169 1066,1181 1030,1155 1012,1147" fill="rgb(14.0062%, 10.97%, 17.76%)" fill-rule="evenodd" fill-opacity="0.272395"/>
		<polygon points="1159,1369 1162,1354 1153,1346 1133,1343 1130,1357 1135,1363" fill="rgb(54.7695%, 49.781%, 48.3539%)" fill-rule="evenodd" fill-opacity="0.432981"/>
		<polygon points="972,1129 985,1112 962,1085" fill="rgb(100%, 93.8405%, 73.3128%)" fill-rule="evenodd" fill-opacity="0.512017"/>
		<polygon points="1050,1094 1123,1133 1106,1143 1097,1142 1062,1125" fill="rgb(78.9696%, 79.0847%, 8.51428%)" fill-rule="evenodd" fill-opacity="0.309937"/>
		<polygon points="1114,1079 1106,1099 1138,1106 1146,1129 1146,1093 1134,1070" fill="rgb(18.9364%, 24.1364%, 45.6422%)" fill-rule="evenodd" fill-opacity="0.264647"/>
		<polygon points="1001,1264 1025,1238 947,1220 962,1235 996,1275" fill="rgb(12.5392%, 12.367%, 26.1578%)" fill-rule="evenodd" fill-opacity="0.174788"/>
		<polygon points="1158,1125 1145,1104 1155,1099 1163,1117 1132,1139 1152,1155 1161,1138" fill="rgb(25.4971%, 24.6511%, 30.7475%)" fill-rule="evenodd" fill-opacity="0.249373"/>
		<polygon points="1040,1274 1024,1268 995,1271 1062,1301 1076,1267 1055,1255" fill="rgb(67.3489%, 73.4917%, 80.0286%)" fill-rule="evenodd" fill-opacity="0.163829"/>
		<polygon points="1070,972 1119,999 1126,975 1081,956 1086,938 1047,972" fill="rgb(13.5295%, 16.4378%, 24.8352%)" fill-rule="evenodd" fill-opacity="0.398988"/>
		<polygon points="1024,1163 1003,1215 966,1188 955,1165 940,1201 934,1205 955,1230 939,1247 928,1226 912,1222 913,1191 909,1179 884,1152 871,1155 853,1164 766,1120 897,1118 964,1089" fill="rgb(100%, 93.5228%, 96.0353%)" fill-rule="evenodd" fill-opacity="0.241461"/>
		<polygon points="985,1113 1017,1139 982,1125 1026,1133 1038,1109" fill="rgb(44.6614%, 65.6919%, 20.6156%)" fill-rule="evenodd" fill-opacity="0.245832"/>
		<polygon points="1038,1058 1065,1061 1074,1057 1096,1011 1056,1048" fill="rgb(90.3037%, 85.6994%, 73.1094%)" fill-rule="evenodd" fill-opacity="0.121866"/>
		<polygon points="1186,1017 1197,1029 1177,1028 1177,1019" fill="rgb(82.3129%, 38.2535%, 49.6591%)" fill-rule="evenodd" fill-opacity="0.240831"/>
		<polygon points="1191,1109 1189,1093 1142,1093 1202,1122" fill="rgb(97.2478%, 83.4155%, 74.5505%)" fill-rule="evenodd" fill-opacity="0.406440"/>
		<polygon points="832,1122 840,1132 846,1120 845,1152 830,1138 815,1146 770,1124" fill="rgb(30.4699%, 27.93%, 25.7651%)" fill-rule="evenodd" fill-opacity="0.472880"/>
		<polygon points="1176,1030 1174,1011 1202,1010 1200,1006 1186,1076 1124,1053 1056,1038 1090,1021 1123,1041" fill="rgb(100%, 87.7386%, 71.2284%)" fill-rule="evenodd" fill-opacity="0.166576"/>
		<polygon points="1134,977 1145,998 1171,966 1152,965 1143,984" fill="rgb(29.635%, 22.8678%, 0%)" fill-rule="evenodd" fill-opacity="0.161846"/>
		<polygon points="1099,1414 1092,1414 1095,1396" fill="rgb(37.0777%, 65.4368%, 91.8408%)" fill-rule="evenodd" fill-opacity="0.114010"/>
	</g>
	<g id="G7">
		<polygon points="252,749 299,778 309,759 348,750 343,728 263,670 247,667 246,660 233,672 165,650 139,665 162,699 145,723 158,747 176,734 181,709" fill="rgb(80.538%, 79.9828%, 77.9165%)" fill-rule="evenodd" fill-opacity="0.291295"/>
		<polygon points="188,884 242,882 253,877 246,863 231,854 231,828 236,833 214,827 198,770 186,769 188,790 148,849 76,854 63,786 2,801 0,892 21,909 61,914" fill="rgb(97.513%, 79.9604%, 57.8993%)" fill-rule="evenodd" fill-opacity="0.376774"/>
		<polygon points="316,788 381,858 364,875 353,891 315,887 276,869 227,880 183,879 119,900 97,902 51,918 0,898 1,761 64,780 86,815 85,819 119,787 155,824 125,830 149,752 121,694 151,691" fill="rgb(98.3964%, 83.1168%, 53.0583%)" fill-rule="evenodd" fill-opacity="0.359286"/>
		<polygon points="373,869 383,861 395,831 422,815 393,794 388,771 353,750 304,759 308,842 276,867 349,898" fill="rgb(84.7537%, 79.1741%, 67.9854%)" fill-rule="evenodd" fill-opacity="0.441522"/>
		<polygon points="101,692 134,704 120,729 126,734 112,742 114,738" fill="rgb(95.5115%, 91.7022%, 69.0783%)" fill-rule="evenodd" fill-opacity="0.225020"/>
		<polygon points="0,898 57,918 143,891 228,883 293,859 301,842 315,833 299,808 302,804 309,726 260,710 256,695 246,679 214,693 185,663 173,691 147,658 137,657 90,682 18,685 0,701" fill="rgb(79.425%, 74.3979%, 66.2962%)" fill-rule="evenodd" fill-opacity="0.398548"/>
		<polygon points="218,749 128,733 62,700 95,696 102,691 167,651 198,641 134,647 127,657 170,660 203,672 238,675 277,678" fill="rgb(61.9065%, 53.7064%, 39.8989%)" fill-rule="evenodd" fill-opacity="0.310771"/>
		<polygon points="216,805 201,840 141,811 165,847 176,840 174,828 163,821 219,788" fill="rgb(50.4879%, 41.6443%, 28.0618%)" fill-rule="evenodd" fill-opacity="0.268731"/>
		<polygon points="394,840 394,847 384,860 352,832 376,802 418,808" fill="rgb(76.7154%, 65.7408%, 50.6274%)" fill-rule="evenodd" fill-opacity="0.467205"/>
		<polygon points="380,802 363,817 379,819 388,815 375,785" fill="rgb(0%, 13.7893%, 7.53058%)" fill-rule="evenodd" fill-opacity="0.205765"/>
		<polygon points="358,870 358,851 375,852 387,839 305,829 266,803 308,875 354,875" fill="rgb(35.2477%, 30.6452%, 25.117%)" fill-rule="evenodd" fill-opacity="0.236180"/>
		<polygon points="153,642 176,652 183,666 189,644 186,637 164,645" fill="rgb(33.1822%, 68.9572%, 73.3373%)" fill-rule="evenodd" fill-opacity="0.139556"/>
		<polygon points="306,752 321,734 309,720 312,759" fill="rgb(24.399%, 61.2762%, 87.8131%)" fill-rule="evenodd" fill-opacity="0.100000"/>
		<polygon points="169,772 163,773 136,786 131,757 164,755 187,719 185,769 188,764 198,767 185,778" fill="rgb(14.0606%, 11.9689%, 17.006%)" fill-rule="evenodd" fill-opacity="0.299232"/>
		<polygon points="375,752 336,738 369,763" fill="rgb(29.9943%, 48.0585%, 51.6604%)" fill-rule="evenodd" fill-opacity="0.296355"/>
		<polygon points="63,686 62,678 114,673" fill="rgb(51.6997%, 63.4474%, 86.0783%)" fill-rule="evenodd" fill-opacity="0.208387"/>
		<polygon points="245,744 234,749 207,731 200,717 205,718 303,716 305,740 321,742 318,758 259,762" fill="rgb(84.3557%, 66.5024%, 42.6828%)" fill-rule="evenodd" fill-opacity="0.280095"/>
		<polygon points="118,750 108,750 118,752 142,763 142,797 131,794 96,778 90,763" fill="rgb(96.0355%, 87.7621%, 74.1195%)" fill-rule="evenodd" fill-opacity="0.174341"/>
		<polygon points="218,719 227,718 223,698 205,702 190,691 187,682 176,687 151,692 208,710" fill="rgb(99.462%, 90.0372%, 61.5821%)" fill-rule="evenodd" fill-opacity="0.116548"/>
		<polygon points="270,707 286,704 303,715 319,736 317,737 292,727 281,717 269,726 247,768 216,721 225,708" fill="rgb(42.9891%, 40.4902%, 30.027%)" fill-rule="evenodd" fill-opacity="0.568402"/>
		<polygon points="112,765 105,781 121,767" fill="rgb(15.5764%, 23.4762%, 10.9399%)" fill-rule="evenodd" fill-opacity="0.182743"/>
		<polygon points="256,729 248,721 246,728" fill="rgb(2.2747%, 59.7897%, 30.7378%)" fill-rule="evenodd" fill-opacity="0.132706"/>
	</g>
	<g id="G8">
		<polygon points="516,1109 499,1144 440,1116 417,1094 441,1066 466,1067" fill="rgb(83.8686%, 93.3652%, 98.3226%)" fill-rule="evenodd" fill-opacity="0.588261"/>
		<polygon points="730,1125 719,1116 634,1088 637,1087 621,1066 575,1047 631,1048 673,1080 679,1076 759,1119" fill="rgb(76.1339%, 78.6025%, 79.6785%)" fill-rule="evenodd" fill-opacity="0.546027"/>
		<polygon points="634,1251 572,1299 559,1292 552,1252 536,1245 510,1329 463,1359 497,1251 563,1231 607,1199 631,1170" fill="rgb(20.1382%, 39.86%, 61.3619%)" fill-rule="evenodd" fill-opacity="0.249842"/>
		<polygon points="501,1112 516,1107 512,1092 542,1075 560,1076 564,1044 550,1054 512,1076 466,1075 447,1070 432,1085 439,1120 442,1112 482,1131 495,1152" fill="rgb(97.315%, 100%, 99.9928%)" fill-rule="evenodd" fill-opacity="0.439008"/>
		<polygon points="709,1149 748,1109 597,1035 568,1034 540,1057 520,1068 496,1051 460,1060 468,1075 486,1101 467,1130 522,1168 554,1144 586,1133 633,1165 633,1241" fill="rgb(13.3768%, 28.4942%, 45.3148%)" fill-rule="evenodd" fill-opacity="0.281913"/>
		<polygon points="490,1334 487,1299 484,1253 488,1214 441,1235 457,1291 473,1336" fill="rgb(81.0432%, 85.1294%, 81.9324%)" fill-rule="evenodd" fill-opacity="0.467857"/>
		<polygon points="414,1447 406,1434 412,1334 409,1262 414,1157 459,1220 487,1207 492,1417 513,1529 464,1571 434,1572 420,1557" fill="rgb(22.1464%, 39.3656%, 55.5348%)" fill-rule="evenodd" fill-opacity="0.392703"/>
		<polygon points="487,1424 461,1414 478,1404 438,1386 434,1362 446,1367 445,1307 438,1225 476,1221 496,1254" fill="rgb(78.9111%, 85.7582%, 95.8709%)" fill-rule="evenodd" fill-opacity="0.383156"/>
		<polygon points="648,1061 744,1114 649,1082 534,1066 533,1059 560,1061 569,1034 581,1034" fill="rgb(81.0155%, 82.0141%, 85.9241%)" fill-rule="evenodd" fill-opacity="0.579551"/>
		<polygon points="442,1472 419,1483 418,1464 444,1436 502,1431 500,1460 511,1500 465,1512" fill="rgb(100%, 87.6149%, 90.5185%)" fill-rule="evenodd" fill-opacity="0.383963"/>
		<polygon points="462,1445 458,1457 413,1478 427,1495 420,1537 469,1525 513,1485 496,1464" fill="rgb(100%, 97.7226%, 85.1638%)" fill-rule="evenodd" fill-opacity="0.341547"/>
		<polygon points="419,1513 440,1461 451,1456 465,1465 452,1474 457,1491 510,1497 518,1512 497,1552 459,1568 427,1572" fill="rgb(18.2895%, 15.2518%, 13.471%)" fill-rule="evenodd" fill-opacity="0.535674"/>
		<polygon points="558,1080 581,1034 606,1044 640,1048 701,1103 648,1098 617,1094 611,1079" fill="rgb(65.4873%, 71.8265%, 72.8793%)" fill-rule="evenodd" fill-opacity="0.278147"/>
		<polygon points="440,1073 426,1088 426,1106 403,1090 407,1076 417,1066 470,1061" fill="rgb(22.5895%, 29.2807%, 41.8841%)" fill-rule="evenodd" fill-opacity="0.575445"/>
		<polygon points="539,1055 483,1084 525,1111 520,1092 646,1080" fill="rgb(20.4067%, 25.5616%, 37.0365%)" fill-rule="evenodd" fill-opacity="0.438184"/>
		<polygon points="451,1536 427,1536 425,1516 410,1536 426,1554" fill="rgb(49.6594%, 43.8056%, 43.7071%)" fill-rule="evenodd" fill-opacity="0.224527"/>
		<polygon points="508,1517 504,1540 482,1550 492,1532" fill="rgb(94.8723%, 72.4012%, 58.254%)" fill-rule="evenodd" fill-opacity="0.413724"/>
		<polygon points="635,1119 658,1091 727,1103 735,1122 732,1132 716,1135" fill="rgb(28.1046%, 34.88%, 53.9215%)" fill-rule="evenodd" fill-opacity="0.158217"/>
		<polygon points="599,1111 588,1106 586,1087 637,1089" fill="rgb(67.18%, 50.9099%, 66.5959%)" fill-rule="evenodd" fill-opacity="0.103635"/>
		<polygon points="606,1089 598,1110 635,1125 643,1106 683,1105 669,1085 646,1075" fill="rgb(16.6373%, 25.2134%, 40.0585%)" fill-rule="evenodd" fill-opacity="0.219901"/>
		<polygon points="448,1332 444,1311 441,1369 447,1351" fill="rgb(47.4892%, 85.1607%, 64.4324%)" fill-rule="evenodd" fill-opacity="0.294721"/>
		<polygon points="648,1173 658,1177 668,1160 654,1160" fill="rgb(56.3136%, 61.8868%, 18.177%)" fill-rule="evenodd" fill-opacity="0.100000"/>
	</g>
	<g id="G9">
		<polygon points="559,1530 576,1528 582,1541 597,1554 620,1510 515,1527 485,1559" fill="rgb(85.39%, 87.5205%, 95.478%)" fill-rule="evenodd" fill-opacity="0.259814"/>
		<polygon points="115,1517 98,1525 42,1512 30,1517 41,1540 131,1534" fill="rgb(85.7308%, 62.3328%, 41.6235%)" fill-rule="evenodd" fill-opacity="0.534253"/>
		<polygon points="5,1599 575,1599 597,1556 571,1526 456,1571 375,1570 372,1559 351,1554 369,1504 342,1503 333,1501 332,1476 269,1468 289,1479 278,1483 298,1498 279,1518 218,1509 195,1528 185,1582" fill="rgb(54.8441%, 56.1837%, 60.5785%)" fill-rule="evenodd" fill-opacity="0.468006"/>
		<polygon points="371,1474 383,1463 403,1473 395,1491 366,1502" fill="rgb(100%, 94.5923%, 100%)" fill-rule="evenodd" fill-opacity="0.493124"/>
		<polygon points="0,1599 4,1553 0,1534 0,1525 7,1520 34,1520 36,1515 108,1518 135,1512 173,1498 211,1495 268,1477 286,1469 370,1498 422,1558 362,1577 303,1578 265,1577 258,1594 247,1599 213,1589 168,1584 65,1593 56,1593 90,1572 71,1570 54,1567" fill="rgb(80.2084%, 75.8474%, 70.5562%)" fill-rule="evenodd" fill-opacity="0.418677"/>
		<polygon points="0,1598 0,1565 17,1566 40,1550 33,1573" fill="rgb(97.0195%, 80.1078%, 57.8196%)" fill-rule="evenodd" fill-opacity="0.386868"/>
		<polygon points="414,1497 390,1518 381,1529 389,1529 363,1526 360,1538 295,1536 281,1517 254,1531 239,1575 198,1566 193,1547 236,1507 262,1488 276,1466 315,1470 330,1478 349,1471 362,1468 385,1459 398,1459 409,1466 416,1464" fill="rgb(100%, 88.9177%, 73.1882%)" fill-rule="evenodd" fill-opacity="0.445628"/>
		<polygon points="156,1595 161,1559 144,1558 145,1563 131,1571 125,1585 75,1595 61,1588 22,1598" fill="rgb(51.9429%, 59.8118%, 64.1644%)" fill-rule="evenodd" fill-opacity="0.202435"/>
		<polygon points="218,1514 223,1511 254,1505 253,1500 289,1495 327,1495 252,1481 226,1485" fill="rgb(72.168%, 64.2574%, 62.3944%)" fill-rule="evenodd" fill-opacity="0.357391"/>
		<polygon points="95,1579 103,1574 110,1524 47,1511 22,1517 0,1519 0,1598 54,1598 87,1594" fill="rgb(100%, 88.1079%, 76.7562%)" fill-rule="evenodd" fill-opacity="0.410138"/>
		<polygon points="250,1530 280,1535 293,1522 310,1539 337,1535 322,1521 297,1503 293,1498 274,1499 276,1510 287,1513 246,1520" fill="rgb(21.8362%, 4.92981%, 7.19094%)" fill-rule="evenodd" fill-opacity="0.195567"/>
		<polygon points="439,1571 450,1574 465,1567 523,1568 520,1555 525,1554 494,1551 499,1544 470,1562" fill="rgb(31.8831%, 36.2696%, 48.8528%)" fill-rule="evenodd" fill-opacity="0.265183"/>
		<polygon points="403,1520 414,1515 393,1507 384,1516 394,1520" fill="rgb(79.6698%, 61.5827%, 46.2066%)" fill-rule="evenodd" fill-opacity="0.152748"/>
		<polygon points="512,1553 493,1569 476,1575 389,1587 387,1576 431,1566 214,1548 254,1567 279,1570 287,1596 400,1596 480,1574 483,1596 514,1597" fill="rgb(32.258%, 33.9159%, 38.8884%)" fill-rule="evenodd" fill-opacity="0.590590"/>
		<polygon points="120,1530 74,1517 4,1515 10,1524 9,1530 22,1523 34,1515 16,1516 41,1508 99,1516" fill="rgb(28.8102%, 31.5578%, 29.2429%)" fill-rule="evenodd" fill-opacity="0.251785"/>
		<polygon points="416,1539 422,1493 415,1479 422,1468 404,1459 391,1484 384,1489 374,1483 366,1467 324,1474 348,1512 358,1516 350,1521 372,1539 376,1546 329,1555 421,1576 432,1568" fill="rgb(13.3345%, 21.2272%, 33.7414%)" fill-rule="evenodd" fill-opacity="0.550442"/>
		<polygon points="251,1482 309,1464 340,1477 315,1478 294,1475 300,1466 306,1464 272,1466" fill="rgb(53.0397%, 58.438%, 55.2775%)" fill-rule="evenodd" fill-opacity="0.218519"/>
		<polygon points="613,1529 575,1533 561,1550 511,1551 513,1530 561,1523 575,1523 563,1516 600,1511 611,1510" fill="rgb(37.8217%, 39.7744%, 47.6219%)" fill-rule="evenodd" fill-opacity="0.342927"/>
		<polygon points="286,1557 325,1560 324,1570 350,1544 346,1533 333,1545 313,1544 317,1550 296,1543" fill="rgb(87.9566%, 75.6772%, 61.3941%)" fill-rule="evenodd" fill-opacity="0.494601"/>
		<polygon points="359,1470 378,1476 380,1481 375,1483 335,1476 334,1470 371,1464" fill="rgb(58.2147%, 54.1695%, 57.3759%)" fill-rule="evenodd" fill-opacity="0.280363"/>
		<polygon points="99,1549 65,1534 64,1521 94,1532" fill="rgb(45.7175%, 39.8042%, 30.8901%)" fill-rule="evenodd" fill-opacity="0.320636"/>
		<polygon points="141,1544 173,1547 208,1512 142,1525 134,1530 126,1528 117,1530" fill="rgb(0%, 9.29964%, 32.1218%)" fill-rule="evenodd" fill-opacity="0.225648"/>
		<polygon points="372,1546 374,1530 364,1529 373,1516 397,1524" fill="rgb(34.2433%, 39.4659%, 50.1287%)" fill-rule="evenodd" fill-opacity="0.315276"/>
		<polygon points="10,1599 18,1592 0,1593" fill="rgb(100%, 17.313%, 60.1122%)" fill-rule="evenodd" fill-opacity="0.331052"/>
		<polygon points="228,1567 231,1585 258,1571 230,1559 203,1559" fill="rgb(100%, 91.8166%, 51.1482%)" fill-rule="evenodd" fill-opacity="0.188348"/>
	</g>
	<g id="G10">
		<polygon points="342,935 366,951 382,930 369,918 396,913 377,897 365,894 414,891 431,915 469,933 446,930 427,943 401,939 396,1001 388,1011 391,1080 420,1099 405,1129 399,1151 359,1137 341,1128 334,1111 330,1098" fill="rgb(54.1911%, 57.4989%, 70.9699%)" fill-rule="evenodd" fill-opacity="0.355351"/>
		<polygon points="493,820 508,878 521,910 516,906 513,918 494,930 493,947 486,964 531,995 551,990 566,966 562,953 566,942 560,893 564,880 546,843 554,835 538,805" fill="rgb(89.567%, 77.4002%, 67.0448%)" fill-rule="evenodd" fill-opacity="0.561826"/>
		<polygon points="547,906 504,924 498,936 456,845 512,890 502,863 487,831 544,795 552,858 564,874" fill="rgb(100%, 100%, 90.0852%)" fill-rule="evenodd" fill-opacity="0.560340"/>
		<polygon points="354,1057 358,1062 365,1046 372,960 389,915 368,896 381,895 418,907 388,1017 390,1098 350,1066" fill="rgb(100%, 95.8726%, 88.518%)" fill-rule="evenodd" fill-opacity="0.600000"/>
		<polygon points="373,1048 377,1000 390,962 397,916 380,907 384,897 423,909 533,795 537,796 550,822 568,973 546,999 517,985 517,974 510,969 538,951 541,936 508,951 481,918 434,958 411,946 391,1007 383,1063" fill="rgb(100%, 91.9633%, 78.9291%)" fill-rule="evenodd" fill-opacity="0.372736"/>
		<polygon points="616,863 589,897 570,901 570,897 550,857 576,849 624,822 642,850" fill="rgb(66.5777%, 70.2993%, 68.5318%)" fill-rule="evenodd" fill-opacity="0.304417"/>
		<polygon points="360,880 384,858 399,829 425,811 428,824 437,835 456,844 485,841 497,819 516,817 536,795 569,900 553,994 513,991 430,989 364,950 339,931" fill="rgb(80.0457%, 77.528%, 96.6003%)" fill-rule="evenodd" fill-opacity="0.250257"/>
		<polygon points="552,919 543,953 523,966 494,965 524,928 535,938 541,929 556,895" fill="rgb(0%, 2.41649%, 6.4917%)" fill-rule="evenodd" fill-opacity="0.582191"/>
		<polygon points="641,846 626,821 561,852 555,859 569,897 561,911 566,910" fill="rgb(20.8995%, 15.2344%, 32.1476%)" fill-rule="evenodd" fill-opacity="0.316122"/>
		<polygon points="353,1079 347,1060 368,1081 357,1060 367,961 382,918 390,908 394,923 381,962 373,995 367,1091" fill="rgb(47.9824%, 43.662%, 46.2349%)" fill-rule="evenodd" fill-opacity="0.561298"/>
		<polygon points="437,1112 376,1097 365,1084 359,1067 369,1069 397,1088 428,1104" fill="rgb(87.1173%, 82.9417%, 80.2108%)" fill-rule="evenodd" fill-opacity="0.600000"/>
		<polygon points="553,908 558,905 567,876 558,878 549,894" fill="rgb(38.9436%, 42.9254%, 44.1229%)" fill-rule="evenodd" fill-opacity="0.307704"/>
		<polygon points="473,855 473,847 463,856 468,849 477,876 491,851 500,828 486,866 499,843 494,823 499,814" fill="rgb(50.1364%, 43.6709%, 41.3508%)" fill-rule="evenodd" fill-opacity="0.520487"/>
		<polygon points="417,1006 452,996 417,982 397,971 397,988 391,998 404,1004" fill="rgb(48.8153%, 50.4291%, 55.7792%)" fill-rule="evenodd" fill-opacity="0.256522"/>
		<polygon points="510,942 545,940 532,953 534,963 542,966 562,944 557,933 553,936 548,955 532,918" fill="rgb(48.9566%, 44.23%, 43.5173%)" fill-rule="evenodd" fill-opacity="0.460466"/>
		<polygon points="490,829 484,844 494,852" fill="rgb(93.7131%, 95.6217%, 86.1161%)" fill-rule="evenodd" fill-opacity="0.473364"/>
		<polygon points="451,946 479,985 498,950 468,923" fill="rgb(76.7497%, 58.3347%, 82.5289%)" fill-rule="evenodd" fill-opacity="0.170267"/>
		<polygon points="364,872 347,906 402,939 408,945 428,959 396,902 393,880 381,880 385,877 397,858 398,848" fill="rgb(47.6618%, 53.2756%, 59.1256%)" fill-rule="evenodd" fill-opacity="0.211864"/>
		<polygon points="510,907 522,905 516,875 515,843 534,892 545,908 512,920" fill="rgb(60.0539%, 47.7692%, 47.604%)" fill-rule="evenodd" fill-opacity="0.182858"/>
		<polygon points="427,813 395,829 390,846 403,843 412,832 432,821" fill="rgb(62.1443%, 70.8633%, 77.2967%)" fill-rule="evenodd" fill-opacity="0.252536"/>
		<polygon points="439,995 471,991 484,997 495,989 480,958 492,960 486,953 483,943 436,971 401,980 417,981" fill="rgb(23.0768%, 5.82915%, 4.99712%)" fill-rule="evenodd" fill-opacity="0.337745"/>
		<polygon points="465,952 439,946 453,960 468,955" fill="rgb(56.8941%, 42.9825%, 20.0533%)" fill-rule="evenodd" fill-opacity="0.135023"/>
		<polygon points="532,953 546,933 549,924 538,929 515,961" fill="rgb(3.88648%, 3.80172%, 10.8279%)" fill-rule="evenodd" fill-opacity="0.256683"/>
		<polygon points="376,889 387,893 449,895 456,893 442,875 412,824" fill="rgb(4.25739%, 14.7181%, 33.1024%)" fill-rule="evenodd" fill-opacity="0.190446"/>
		<polygon points="551,880 539,895 535,895 536,880 528,875 531,857 541,859" fill="rgb(100%, 44.1521%, 39.6414%)" fill-rule="evenodd" fill-opacity="0.333326"/>
		<polygon points="371,961 359,962 375,981 376,973 385,968" fill="rgb(20.446%, 17.3262%, 26.7696%)" fill-rule="evenodd" fill-opacity="0.169115"/>
		<polygon points="394,981 396,1003 398,976" fill="rgb(23.0485%, 0%, 7.9997%)" fill-rule="evenodd" fill-opacity="0.212608"/>
		<polygon points="486,962 503,982 503,964" fill="rgb(76.92%, 26.5607%, 52.1939%)" fill-rule="evenodd" fill-opacity="0.171044"/>
	</g>
	<g id="G11">
		<polygon points="631,1363 627,1378 628,1392 647,1377" fill="rgb(60.233%, 48.3806%, 52.0795%)" fill-rule="evenodd" fill-opacity="0.262007"/>
		<polygon points="595,1358 582,1345 588,1316 599,1317 626,1294 624,1319" fill="rgb(76.0288%, 63.8598%, 44.7888%)" fill-rule="evenodd" fill-opacity="0.215968"/>
		<polygon points="717,1343 668,1336 655,1296 655,1261 673,1214 688,1192 711,1166 717,1178" fill="rgb(23.2883%, 61.6971%, 82.0684%)" fill-rule="evenodd" fill-opacity="0.115107"/>
		<polygon points="690,1253 687,1254 682,1246 680,1233 689,1231 714,1212 716,1265 683,1267" fill="rgb(98.8302%, 80.5183%, 65.4625%)" fill-rule="evenodd" fill-opacity="0.562013"/>
		<polygon points="590,1354 622,1369 601,1462 563,1444 531,1383 554,1378 564,1368 568,1301 609,1272" fill="rgb(59.4614%, 66.485%, 71.5228%)" fill-rule="evenodd" fill-opacity="0.253302"/>
		<polygon points="703,1236 707,1264 693,1267 681,1260 688,1255 677,1231" fill="rgb(100%, 96.1654%, 68.2324%)" fill-rule="evenodd" fill-opacity="0.508900"/>
		<polygon points="667,1347 661,1354 640,1333 629,1383 648,1428 657,1440 688,1381 691,1367 700,1350" fill="rgb(36.7806%, 57.2261%, 74.0283%)" fill-rule="evenodd" fill-opacity="0.157382"/>
		<polygon points="634,1482 608,1452 638,1415 649,1404 657,1404 664,1387 681,1389" fill="rgb(45.4427%, 43.0278%, 45.2082%)" fill-rule="evenodd" fill-opacity="0.214082"/>
		<polygon points="631,1317 642,1337 629,1354 625,1371 590,1353 608,1277 631,1265" fill="rgb(61.9252%, 66.2026%, 61.5773%)" fill-rule="evenodd" fill-opacity="0.264139"/>
		<polygon points="620,1512 661,1433 653,1405 644,1412 635,1400 654,1374 619,1317 595,1351 582,1333 573,1387 562,1379 548,1376 550,1401 558,1403 613,1412 567,1459 572,1503 552,1482 540,1495 538,1517 545,1521" fill="rgb(23.1258%, 24.3954%, 27.124%)" fill-rule="evenodd" fill-opacity="0.392674"/>
		<polygon points="541,1526 510,1530 512,1494 498,1462 503,1429 496,1430 486,1414 491,1348 528,1379 560,1439 585,1456 605,1452 612,1466 637,1471 637,1460 624,1506" fill="rgb(57.7607%, 61.3416%, 71.4509%)" fill-rule="evenodd" fill-opacity="0.255270"/>
		<polygon points="506,1326 520,1311 515,1325 532,1331" fill="rgb(1.64907%, 7.56932%, 3.47069%)" fill-rule="evenodd" fill-opacity="0.128611"/>
		<polygon points="678,1383 694,1370 695,1352 672,1348 662,1358" fill="rgb(31.141%, 30.2997%, 29.0803%)" fill-rule="evenodd" fill-opacity="0.293233"/>
		<polygon points="516,1371 517,1332 516,1329 505,1330 500,1318 493,1333 492,1346" fill="rgb(30.1937%, 44.219%, 60.3876%)" fill-rule="evenodd" fill-opacity="0.219048"/>
		<polygon points="577,1460 564,1471 602,1476 602,1490 597,1475 599,1460 632,1474 624,1506 649,1447 635,1430 629,1466 620,1427 598,1430 598,1451" fill="rgb(33.7303%, 36.4173%, 42.1045%)" fill-rule="evenodd" fill-opacity="0.265137"/>
		<polygon points="668,1328 680,1326 683,1337 712,1341 693,1328 708,1318 708,1307 711,1310 688,1274 717,1266 717,1208 699,1219 683,1227 658,1258 656,1307" fill="rgb(70.3803%, 54.421%, 47.9835%)" fill-rule="evenodd" fill-opacity="0.133119"/>
		<polygon points="543,1479 558,1473 552,1457 567,1466 573,1437 546,1419 557,1413 562,1404 535,1405 514,1480" fill="rgb(62.7498%, 63.4267%, 65.0138%)" fill-rule="evenodd" fill-opacity="0.100000"/>
		<polygon points="692,1271 687,1251 683,1242 678,1228 680,1253 670,1262 673,1270" fill="rgb(47.7549%, 34.2692%, 27.4912%)" fill-rule="evenodd" fill-opacity="0.319834"/>
		<polygon points="635,1420 635,1429 649,1447 662,1422 655,1408" fill="rgb(49.2877%, 48.274%, 48.9066%)" fill-rule="evenodd" fill-opacity="0.125267"/>
	</g>
	<g id="G12">
		<polygon points="453,1033 457,994 507,989 500,1020 503,1033 460,1064 424,1059 391,1086 388,1039 385,1043" fill="rgb(96.9907%, 19.3922%, 41.0195%)" fill-rule="evenodd" fill-opacity="0.271664"/>
		<polygon points="592,1209 567,1177 571,1168 586,1163 589,1136 565,1140 532,1159 502,1189 485,1218 486,1236 496,1251 548,1233" fill="rgb(100%, 20.2462%, 38.7162%)" fill-rule="evenodd" fill-opacity="0.290516"/>
		<polygon points="594,1209 570,1186 567,1140 592,1134 621,1160 621,1184" fill="rgb(43.2657%, 43.8013%, 69.8047%)" fill-rule="evenodd" fill-opacity="0.223326"/>
		<polygon points="624,1045 590,1026 579,968 574,976 561,981 559,1000 513,993 461,994 472,1000 490,1015 489,1019 506,1006 521,1013 550,1016 629,1052" fill="rgb(100%, 61.7448%, 61.1158%)" fill-rule="evenodd" fill-opacity="0.600000"/>
		<polygon points="364,1241 385,1160 389,1149 407,1158 412,1201 412,1221 385,1244 361,1281 350,1312 326,1311" fill="rgb(44.3241%, 42.9472%, 62.7205%)" fill-rule="evenodd" fill-opacity="0.148399"/>
		<polygon points="334,1110 314,1142 282,1205 279,1217 277,1251 327,1310 364,1241 387,1152 341,1127" fill="rgb(96.7223%, 24.9778%, 48.12%)" fill-rule="evenodd" fill-opacity="0.271091"/>
		<polygon points="576,968 550,993 455,992 474,1003 472,1024 496,1040 504,1015 523,1022 528,1019 527,1055 553,1050 552,1055 571,1031 596,1033" fill="rgb(100%, 25.6063%, 37.8836%)" fill-rule="evenodd" fill-opacity="0.600000"/>
		<polygon points="462,1056 495,1046 517,1064 551,1052 575,1034 594,1039 622,1051 627,1045 591,1023 588,989 573,968 569,968 554,987 568,992 549,1001 535,992 504,992 457,996 412,1007 398,1000 386,1009 389,1042 447,1035" fill="rgb(100%, 13.8979%, 30.5519%)" fill-rule="evenodd" fill-opacity="0.360671"/>
		<polygon points="531,1013 479,1055 460,1065 434,1034" fill="rgb(99.3603%, 6.19889%, 5.4623%)" fill-rule="evenodd" fill-opacity="0.146885"/>
		<polygon points="569,1174 571,1148 577,1139 590,1149 588,1152 582,1179" fill="rgb(46.7923%, 99.9227%, 72.7738%)" fill-rule="evenodd" fill-opacity="0.383332"/>
	</g>
	<g id="G13">
		<polygon points="777,1123 823,1144 840,1168 850,1163 883,1153 908,1177 914,1226 898,1190 874,1157 874,1189 850,1191 853,1199 876,1204 892,1209 913,1233 849,1258 833,1236 759,1224 761,1230 742,1232 719,1216 711,1147 739,1120" fill="rgb(38.5148%, 60.9813%, 64.6021%)" fill-rule="evenodd" fill-opacity="0.202644"/>
		<polygon points="817,1247 839,1243 838,1233 824,1214 806,1239" fill="rgb(87.6292%, 66.8761%, 78.8321%)" fill-rule="evenodd" fill-opacity="0.327665"/>
		<polygon points="514,1311 528,1275 540,1279 559,1277 568,1312 567,1328 558,1375 519,1379" fill="rgb(47.9453%, 51.1138%, 55.694%)" fill-rule="evenodd" fill-opacity="0.491559"/>
		<polygon points="527,1303 543,1305 562,1299 549,1247 532,1251 527,1270 532,1278 525,1277 519,1289" fill="rgb(19.526%, 100%, 95.234%)" fill-rule="evenodd" fill-opacity="0.263195"/>
		<polygon points="517,1299 518,1341 533,1345 554,1341 549,1356 564,1371 568,1330 552,1250 552,1272 538,1274 528,1269" fill="rgb(87.9514%, 86.9974%, 92.9948%)" fill-rule="evenodd" fill-opacity="0.214239"/>
		<polygon points="868,1166 859,1157 838,1182 869,1211 876,1193 896,1230 911,1236" fill="rgb(72.9305%, 75.0879%, 63.3508%)" fill-rule="evenodd" fill-opacity="0.430361"/>
		<polygon points="781,1184 752,1165 747,1164 753,1220 759,1226 792,1198" fill="rgb(100%, 100%, 100%)" fill-rule="evenodd" fill-opacity="0.600000"/>
		<polygon points="914,1237 892,1239 844,1203 843,1213 813,1196 835,1172 882,1148 893,1156 914,1196" fill="rgb(95.0699%, 100%, 82.1033%)" fill-rule="evenodd" fill-opacity="0.340482"/>
		<polygon points="797,1144 785,1140 778,1127 805,1139" fill="rgb(71.384%, 67.4069%, 61.1275%)" fill-rule="evenodd" fill-opacity="0.419208"/>
		<polygon points="636,1251 672,1192 704,1152 734,1145 781,1125 737,1127 672,1216 659,1261 659,1296 664,1333 718,1342 701,1351 651,1345 628,1314" fill="rgb(44.6187%, 83.6057%, 95.7173%)" fill-rule="evenodd" fill-opacity="0.118130"/>
		<polygon points="709,1148 720,1146 725,1135 759,1124 776,1124 771,1131 769,1141 763,1151 712,1156" fill="rgb(80.8462%, 78.2889%, 71.6842%)" fill-rule="evenodd" fill-opacity="0.315997"/>
		<polygon points="791,1229 801,1231 811,1227 839,1237 845,1257 718,1340 717,1274 714,1215" fill="rgb(18.8823%, 32.9747%, 38.4535%)" fill-rule="evenodd" fill-opacity="0.319902"/>
		<polygon points="515,1324 570,1324 560,1342 531,1352 544,1380 514,1367" fill="rgb(37.6815%, 34.7052%, 30.6847%)" fill-rule="evenodd" fill-opacity="0.285486"/>
		<polygon points="751,1227 741,1235 735,1217" fill="rgb(99.2559%, 97.8963%, 80.9482%)" fill-rule="evenodd" fill-opacity="0.266799"/>
		<polygon points="882,1238 891,1239 839,1198 874,1252" fill="rgb(76.2362%, 63.5517%, 45.7815%)" fill-rule="evenodd" fill-opacity="0.154636"/>
		<polygon points="744,1181 745,1175 733,1174 717,1154 747,1123 772,1124 822,1144 772,1144" fill="rgb(86.493%, 90.3624%, 72.5678%)" fill-rule="evenodd" fill-opacity="0.401204"/>
		<polygon points="865,1160 884,1155 880,1148 848,1160 819,1183 838,1178 838,1188 850,1170" fill="rgb(35.4544%, 16.7723%, 23.5353%)" fill-rule="evenodd" fill-opacity="0.242247"/>
		<polygon points="821,1146 767,1146 777,1142 782,1132 796,1135" fill="rgb(86.1074%, 93.4377%, 95.834%)" fill-rule="evenodd" fill-opacity="0.172278"/>
		<polygon points="541,1275 528,1272 521,1298 521,1315 527,1307 543,1307 559,1302 554,1269" fill="rgb(84.9324%, 56.1857%, 52.2425%)" fill-rule="evenodd" fill-opacity="0.336550"/>
		<polygon points="761,1126 758,1135 744,1130" fill="rgb(100%, 54.5296%, 76.248%)" fill-rule="evenodd" fill-opacity="0.234758"/>
	</g>
	<g id="G14">
		<polygon points="588,1022 614,1038 648,959 651,928 662,921 664,924 669,894 673,890 663,877 648,876 633,884 652,826 618,905 615,917" fill="rgb(36.5877%, 29.3677%, 41.3601%)" fill-rule="evenodd" fill-opacity="0.331464"/>
		<polygon points="753,874 773,849 800,818 820,806 845,806 848,826 843,846 734,951 718,943 724,924" fill="rgb(81.9152%, 73.3576%, 75.2282%)" fill-rule="evenodd" fill-opacity="0.409293"/>
		<polygon points="755,869 757,878 749,901 720,946 733,955 740,965 768,906 798,883 805,842 800,844 786,862 765,841" fill="rgb(85.7928%, 75.6376%, 74.4865%)" fill-rule="evenodd" fill-opacity="0.473478"/>
		<polygon points="769,843 817,812 844,806 848,812 842,845 739,943 757,884 747,858" fill="rgb(98.6139%, 94.5946%, 95.7406%)" fill-rule="evenodd" fill-opacity="0.490446"/>
		<polygon points="623,905 635,892 651,890 657,886 646,898 615,906" fill="rgb(100%, 54.6695%, 61.6094%)" fill-rule="evenodd" fill-opacity="0.399785"/>
		<polygon points="665,925 630,906 651,891 622,896 608,941 623,935 651,956" fill="rgb(53.6161%, 41.7504%, 50.301%)" fill-rule="evenodd" fill-opacity="0.439754"/>
		<polygon points="672,888 661,877 659,889 640,904 667,940 628,923 605,950 612,919 643,838 654,822 681,788 708,760 716,770 709,778 723,796 718,828 704,838 705,854" fill="rgb(49.8038%, 53.1736%, 72.6034%)" fill-rule="evenodd" fill-opacity="0.301630"/>
		<polygon points="752,938 754,913 776,898 795,894" fill="rgb(38.1534%, 32.5331%, 24.7581%)" fill-rule="evenodd" fill-opacity="0.191918"/>
		<polygon points="718,835 722,799 708,796 662,817 685,785 704,766 721,770 745,785 769,792" fill="rgb(45.0341%, 67.9148%, 95.6911%)" fill-rule="evenodd" fill-opacity="0.142011"/>
		<polygon points="709,786 707,786 705,766 669,804" fill="rgb(61.4066%, 72.9944%, 91.2633%)" fill-rule="evenodd" fill-opacity="0.434701"/>
		<polygon points="737,1068 699,936 713,889 723,871 765,838 749,951 767,989 771,1021 759,1047 761,1076 750,1083" fill="rgb(44.7672%, 44.3074%, 53.5394%)" fill-rule="evenodd" fill-opacity="0.364092"/>
		<polygon points="635,896 631,903 629,892 617,908 609,949 623,931" fill="rgb(66.9089%, 50.2661%, 59.8589%)" fill-rule="evenodd" fill-opacity="0.408531"/>
		<polygon points="822,852 832,860 845,833 844,811 823,846 807,849" fill="rgb(100%, 100%, 96.1478%)" fill-rule="evenodd" fill-opacity="0.403829"/>
		<polygon points="792,877 778,842 768,845 778,854 772,860 776,883 762,898 765,909 799,886" fill="rgb(100%, 97.0444%, 95.0309%)" fill-rule="evenodd" fill-opacity="0.544275"/>
		<polygon points="750,991 761,986 740,931 735,949 736,964" fill="rgb(87.3235%, 83.8082%, 82.6104%)" fill-rule="evenodd" fill-opacity="0.600000"/>
		<polygon points="641,948 626,937 637,937 629,917 616,934 608,947" fill="rgb(40.57%, 22.824%, 28.4229%)" fill-rule="evenodd" fill-opacity="0.204444"/>
		<polygon points="795,852 814,878 831,858 823,845 804,850 809,829 777,841" fill="rgb(20.9759%, 25.2606%, 29.2084%)" fill-rule="evenodd" fill-opacity="0.309023"/>
		<polygon points="735,1107 757,1124 768,1124 783,1118 769,1083 768,1045 767,997 751,1037 738,1045 740,1086" fill="rgb(50.8201%, 45.079%, 55.0649%)" fill-rule="evenodd" fill-opacity="0.279005"/>
		<polygon points="819,850 800,877 803,851" fill="rgb(100%, 100%, 96.8554%)" fill-rule="evenodd" fill-opacity="0.157408"/>
		<polygon points="651,833 635,839 648,852" fill="rgb(21.5725%, 49.7314%, 52.7628%)" fill-rule="evenodd" fill-opacity="0.373157"/>
	</g>
	<g id="G15">
		<polygon points="804,558 802,518 783,546 775,555 776,526 769,498 731,501 733,503 718,527 707,515 736,463 748,456 764,455 780,465 767,484 795,477 823,519 820,541" fill="rgb(65.0811%, 63.3561%, 65.2531%)" fill-rule="evenodd" fill-opacity="0.293517"/>
		<polygon points="702,605 698,586 686,570 699,547 700,531 712,520 709,636 702,649 692,640" fill="rgb(72.1393%, 70.3377%, 61.4484%)" fill-rule="evenodd" fill-opacity="0.241210"/>
		<polygon points="864,712 869,674 881,642 860,614 831,590 809,560 801,559 792,548 796,586 833,633 856,713" fill="rgb(94.3154%, 69.1963%, 55.2693%)" fill-rule="evenodd" fill-opacity="0.512641"/>
		<polygon points="703,697 703,683 706,676 710,642 700,645 692,641 689,675" fill="rgb(56.6659%, 51.0909%, 46.3113%)" fill-rule="evenodd" fill-opacity="0.215342"/>
		<polygon points="708,519 698,541 699,566 690,579 703,594 709,571 710,643 719,616 720,575 716,519" fill="rgb(25.8851%, 16.4061%, 14.332%)" fill-rule="evenodd" fill-opacity="0.356201"/>
		<polygon points="811,556 821,530 818,507 788,467 738,474 770,486 775,505 781,513 787,577 794,594 794,583 816,604 815,591 824,587 822,581" fill="rgb(100%, 74.8353%, 58.6402%)" fill-rule="evenodd" fill-opacity="0.536964"/>
		<polygon points="686,567 686,563 701,555 708,535 715,548 714,577 698,561 691,580" fill="rgb(28.8688%, 33.6384%, 34.4283%)" fill-rule="evenodd" fill-opacity="0.277720"/>
		<polygon points="720,523 702,526 697,543 703,564 702,576 691,578 695,583 702,584 690,672 729,730 750,650 809,527 794,518 796,558 788,529 785,497 733,501" fill="rgb(31.4196%, 27.1822%, 28.0212%)" fill-rule="evenodd" fill-opacity="0.405909"/>
		<polygon points="863,690 880,641 856,612 842,601 848,623 861,658 859,671 849,656 832,603 842,662 858,689 858,703 849,721 868,713 875,697" fill="rgb(99.0962%, 89.5521%, 77.5094%)" fill-rule="evenodd" fill-opacity="0.473887"/>
		<polygon points="821,580 828,589 829,585 815,567 810,558 796,554 773,567 784,578 766,615 800,613 812,621 822,655 837,645 832,627 866,618" fill="rgb(82.3835%, 67.6992%, 69.3028%)" fill-rule="evenodd" fill-opacity="0.170894"/>
		<polygon points="801,574 794,580 792,558 795,543" fill="rgb(100%, 79.3945%, 62.5117%)" fill-rule="evenodd" fill-opacity="0.334912"/>
		<polygon points="873,714 869,675 866,692 852,663 853,646 852,632 847,623 845,715 852,722" fill="rgb(48.4711%, 22.7722%, 10.1948%)" fill-rule="evenodd" fill-opacity="0.296559"/>
		<polygon points="860,634 868,643 865,629 856,615" fill="rgb(4.26544%, 5.13166%, 6.35159%)" fill-rule="evenodd" fill-opacity="0.490087"/>
		<polygon points="824,683 832,698 838,707 854,722 861,720 862,705 856,692 852,704 841,653 836,647 821,655" fill="rgb(59.6771%, 59.9507%, 65.6231%)" fill-rule="evenodd" fill-opacity="0.192828"/>
		<polygon points="780,602 782,614 787,608" fill="rgb(71.9074%, 58.1969%, 50.8542%)" fill-rule="evenodd" fill-opacity="0.551532"/>
		<polygon points="757,455 758,463 789,465 780,473 765,492 758,477 725,486 733,469 753,455" fill="rgb(47.8303%, 48.6694%, 50.271%)" fill-rule="evenodd" fill-opacity="0.312734"/>
		<polygon points="800,564 812,567 814,579 809,578" fill="rgb(26.2079%, 29.2606%, 22.6152%)" fill-rule="evenodd" fill-opacity="0.327805"/>
		<polygon points="800,611 792,592 785,587 785,562 790,566 790,578 829,627 823,624 821,619 817,623" fill="rgb(79.2226%, 55.8453%, 41.8355%)" fill-rule="evenodd" fill-opacity="0.264453"/>
		<polygon points="712,577 714,574 721,582 705,580" fill="rgb(51.4025%, 20.5161%, 25.5977%)" fill-rule="evenodd" fill-opacity="0.143717"/>
	</g>
	<g id="G16">
		<polygon points="576,971 597,961 606,946 610,927 638,854 625,855 608,872 600,887 574,901 564,912 565,961" fill="rgb(93.3654%, 72.0962%, 78.5547%)" fill-rule="evenodd" fill-opacity="0.267584"/>
		<polygon points="584,803 597,832 589,829 587,822 574,801 628,793 639,807 614,817 609,806" fill="rgb(94.7422%, 80.3064%, 65.1525%)" fill-rule="evenodd" fill-opacity="0.464816"/>
		<polygon points="586,797 560,810 578,845 570,844 576,851 612,825 618,817 622,805 626,809 636,800 630,791" fill="rgb(100%, 89.429%, 60.0177%)" fill-rule="evenodd" fill-opacity="0.335500"/>
		<polygon points="543,803 553,838 555,857 636,816 629,789" fill="rgb(100%, 83.4526%, 73.8887%)" fill-rule="evenodd" fill-opacity="0.456156"/>
		<polygon points="713,1008 724,1029 717,1036 700,1043" fill="rgb(56.8578%, 41.6276%, 53.0176%)" fill-rule="evenodd" fill-opacity="0.245563"/>
		<polygon points="678,998 664,1007 638,1009 644,1023 651,1023 649,1054 657,1058 670,1045 683,1051 703,1041 690,1025 703,1023" fill="rgb(79.7538%, 55.1034%, 33.0758%)" fill-rule="evenodd" fill-opacity="0.207062"/>
		<polygon points="690,934 681,951 701,961 703,927 717,882 670,917 663,939" fill="rgb(26.0782%, 34.9953%, 32.6473%)" fill-rule="evenodd" fill-opacity="0.145431"/>
		<polygon points="601,978 602,956 579,971 588,1003 592,1015" fill="rgb(50.2665%, 34.6949%, 36.2236%)" fill-rule="evenodd" fill-opacity="0.221752"/>
		<polygon points="680,970 644,966 626,1008 610,1038 666,1073 732,1106 735,1106 742,1088 726,1040 726,1030 701,942 701,924" fill="rgb(61.0618%, 59.375%, 48.1978%)" fill-rule="evenodd" fill-opacity="0.147550"/>
		<polygon points="659,1039 702,1054 709,1051 713,1041 725,1037 701,950 699,929 702,927 714,875 687,877 672,894 661,939 645,965 649,977 672,997 635,1013" fill="rgb(86.4154%, 60.4498%, 58.1049%)" fill-rule="evenodd" fill-opacity="0.241935"/>
		<polygon points="670,1075 669,1059 654,1042 638,1041 627,1047" fill="rgb(75.5499%, 58.2777%, 51.4997%)" fill-rule="evenodd" fill-opacity="0.311823"/>
		<polygon points="673,999 647,999 644,1012 676,1006" fill="rgb(15.5597%, 11.6297%, 1.77331%)" fill-rule="evenodd" fill-opacity="0.176172"/>
		<polygon points="627,1031 639,1036 644,1026 651,1031 634,1012 621,1021" fill="rgb(76.9647%, 33.0338%, 33.3689%)" fill-rule="evenodd" fill-opacity="0.108551"/>
		<polygon points="705,752 708,758 696,774 693,769 697,762 688,739 715,738" fill="rgb(75.2647%, 80.8526%, 86.5007%)" fill-rule="evenodd" fill-opacity="0.255399"/>
		<polygon points="620,1021 613,1043 622,1034 635,1032 635,1025 639,1021" fill="rgb(80.6385%, 67.7642%, 59.3481%)" fill-rule="evenodd" fill-opacity="0.236750"/>
		<polygon points="741,1086 731,1101 731,1087 736,1079" fill="rgb(72.1478%, 72.7583%, 57.8283%)" fill-rule="evenodd" fill-opacity="0.169265"/>
		<polygon points="546,809 551,824 557,807 565,835 551,833 551,856 560,857 592,844 589,835 604,835 633,816 633,791 614,794 587,793" fill="rgb(100%, 91.5037%, 81.4208%)" fill-rule="evenodd" fill-opacity="0.344019"/>
	</g>
	<g id="G17">
		<polygon points="803,752 800,720 833,706 848,715 845,728 841,780 853,784 846,809 814,807 816,813 810,813 776,784" fill="rgb(43.9744%, 49.1169%, 65.0751%)" fill-rule="evenodd" fill-opacity="0.202052"/>
		<polygon points="759,787 769,792 801,755 818,743 807,741 803,745 811,713 776,734" fill="rgb(64.2058%, 75.7703%, 100%)" fill-rule="evenodd" fill-opacity="0.107883"/>
		<polygon points="809,735 819,743 806,753 805,745 802,744 804,736" fill="rgb(98.8949%, 87.8145%, 86.5043%)" fill-rule="evenodd" fill-opacity="0.270029"/>
		<polygon points="788,688 768,681 764,675 769,673 789,681" fill="rgb(68.5692%, 63.8901%, 56.2287%)" fill-rule="evenodd" fill-opacity="0.433465"/>
		<polygon points="691,682 696,684 705,701 714,702 723,735 706,738 691,738 689,717 686,695" fill="rgb(73.8018%, 75.8445%, 92.4298%)" fill-rule="evenodd" fill-opacity="0.367614"/>
		<polygon points="806,754 801,728 811,702 816,702 818,719 809,725 811,760" fill="rgb(95.1001%, 75.623%, 81.8687%)" fill-rule="evenodd" fill-opacity="0.382705"/>
		<polygon points="759,723 772,736 801,720 836,705 825,686 821,653 814,622 804,614 778,612 759,622 752,645 743,676" fill="rgb(47.2455%, 51.4189%, 62.0589%)" fill-rule="evenodd" fill-opacity="0.186153"/>
		<polygon points="808,813 790,815 790,829 795,823" fill="rgb(94.332%, 95.2299%, 89.1728%)" fill-rule="evenodd" fill-opacity="0.276405"/>
		<polygon points="802,618 807,638 804,638 810,673 819,652 811,619" fill="rgb(83.3238%, 71.3283%, 82.4926%)" fill-rule="evenodd" fill-opacity="0.310351"/>
		<polygon points="776,784 809,811 785,838 785,835 767,841 756,850 751,849 732,825" fill="rgb(47.705%, 56.34%, 83.9406%)" fill-rule="evenodd" fill-opacity="0.164075"/>
		<polygon points="719,769 758,790 775,738 759,722 743,678 728,726 712,739 707,758" fill="rgb(43.3081%, 52.6555%, 69.9816%)" fill-rule="evenodd" fill-opacity="0.160383"/>
		<polygon points="805,615 815,639 815,659 814,726 811,703 807,708 807,640 795,610" fill="rgb(62.2949%, 53.6128%, 62.3244%)" fill-rule="evenodd" fill-opacity="0.481105"/>
		<polygon points="841,775 814,807 846,806 845,798 855,792 845,784 862,774 856,763 858,721 846,719" fill="rgb(100%, 98.4395%, 94.2416%)" fill-rule="evenodd" fill-opacity="0.417648"/>
		<polygon points="844,805 827,807 822,802 831,791 815,786 834,784 862,763 857,776 845,780 853,789" fill="rgb(100%, 100%, 100%)" fill-rule="evenodd" fill-opacity="0.600000"/>
		<polygon points="784,839 802,817 809,817 836,787 785,826 776,829 754,833 744,843" fill="rgb(96.6364%, 88.3338%, 91.2904%)" fill-rule="evenodd" fill-opacity="0.600000"/>
	</g>
	<g id="G18">
		<polygon points="432,680 427,696 438,695 428,712 390,742 392,704 398,697" fill="rgb(97.4618%, 82.4522%, 77.886%)" fill-rule="evenodd" fill-opacity="0.127513"/>
		<polygon points="455,689 458,686 460,694 465,683 456,668 447,681 429,670 403,696 410,711 410,715 417,709 433,710" fill="rgb(56.7924%, 41.7193%, 35.8924%)" fill-rule="evenodd" fill-opacity="0.312225"/>
		<polygon points="529,794 523,812 498,819 483,844 474,844 473,827 506,807 509,790 528,763" fill="rgb(100%, 82.8163%, 58.7884%)" fill-rule="evenodd" fill-opacity="0.267151"/>
		<polygon points="510,811 520,814 530,799 529,788 537,759 524,753 535,768 517,770" fill="rgb(100%, 97.6939%, 74.2167%)" fill-rule="evenodd" fill-opacity="0.600000"/>
		<polygon points="472,679 480,685 465,690 490,694 484,723 493,723 506,705 521,690" fill="rgb(100%, 79.5464%, 89.6509%)" fill-rule="evenodd" fill-opacity="0.220796"/>
		<polygon points="468,746 469,730 483,733 495,733 495,719 498,739 504,743 501,754 493,738 485,746 479,745 474,752" fill="rgb(70.4767%, 48.4227%, 37.7644%)" fill-rule="evenodd" fill-opacity="0.302958"/>
		<polygon points="543,732 534,771 529,802 519,814 499,819 481,844 473,842 474,844 466,844 427,827 495,790 504,739 493,722 509,702 521,689 534,694 544,709" fill="rgb(100%, 65.4476%, 54.1889%)" fill-rule="evenodd" fill-opacity="0.409914"/>
		<polygon points="437,699 452,707 459,697 453,699 454,695 448,702" fill="rgb(13.4407%, 46.9891%, 77.7342%)" fill-rule="evenodd" fill-opacity="0.229190"/>
		<polygon points="434,711 435,720 447,721 461,747 464,704 472,698 469,678 462,668 432,668 427,671 422,686" fill="rgb(58.1617%, 54.8527%, 53.6183%)" fill-rule="evenodd" fill-opacity="0.179008"/>
		<polygon points="495,688 483,719 480,727 483,734 458,726 442,705 440,683 438,683 431,675 447,672" fill="rgb(64.796%, 48.6345%, 47.3303%)" fill-rule="evenodd" fill-opacity="0.253942"/>
		<polygon points="392,793 420,815 427,815 427,824 432,824 500,788 503,777 497,778 497,770 428,764 387,763" fill="rgb(62.7375%, 75.6172%, 90.5871%)" fill-rule="evenodd" fill-opacity="0.103140"/>
		<polygon points="458,722 468,705 470,723" fill="rgb(96.8672%, 87.4531%, 67.8571%)" fill-rule="evenodd" fill-opacity="0.345890"/>
		<polygon points="452,842 434,833 429,828 462,842" fill="rgb(60.9288%, 48.1041%, 46.0656%)" fill-rule="evenodd" fill-opacity="0.339923"/>
		<polygon points="523,724 524,741 530,742 525,721 530,730 542,738 543,715 539,698" fill="rgb(81.3867%, 74.5583%, 65.4884%)" fill-rule="evenodd" fill-opacity="0.395480"/>
		<polygon points="511,704 508,707 522,717 523,752 508,728 495,735 475,723 461,700 476,691 489,687 506,695 512,688 535,712" fill="rgb(26.0039%, 16.303%, 13.9669%)" fill-rule="evenodd" fill-opacity="0.481653"/>
		<polygon points="480,718 479,723 487,743 479,739 477,723 467,718 477,709" fill="rgb(82.2697%, 67.1201%, 56.636%)" fill-rule="evenodd" fill-opacity="0.212656"/>
		<polygon points="412,697 413,709 397,729 394,720 398,712 395,713 414,687" fill="rgb(74.4042%, 70.4283%, 59.466%)" fill-rule="evenodd" fill-opacity="0.129392"/>
		<polygon points="426,827 426,822 430,814 449,815" fill="rgb(100%, 59.023%, 43.8476%)" fill-rule="evenodd" fill-opacity="0.367593"/>
		<polygon points="509,728 502,748 497,775 491,776 488,769 422,764 387,763 388,735 397,700 425,673 433,668 457,668 480,685 483,684 494,687 514,689" fill="rgb(59.5096%, 62.5511%, 65.5886%)" fill-rule="evenodd" fill-opacity="0.173966"/>
		<polygon points="472,683 476,686 469,694 464,693" fill="rgb(57.4124%, 55.8157%, 56.8386%)" fill-rule="evenodd" fill-opacity="0.220968"/>
		<polygon points="404,767 398,762 396,732 390,733 388,756 390,785 401,801" fill="rgb(24.5684%, 19.9282%, 18.5073%)" fill-rule="evenodd" fill-opacity="0.389711"/>
		<polygon points="497,726 503,726 510,722 513,718 508,717 506,720 499,718" fill="rgb(65.7368%, 54.1125%, 43.3996%)" fill-rule="evenodd" fill-opacity="0.390207"/>
		<polygon points="528,753 539,743 540,771 534,772 536,762 515,770" fill="rgb(77.5344%, 65.2509%, 73.2903%)" fill-rule="evenodd" fill-opacity="0.324912"/>
		<polygon points="488,791 473,799 483,810 494,815 493,807 497,789 497,777" fill="rgb(59.2746%, 42.2342%, 35.2561%)" fill-rule="evenodd" fill-opacity="0.300907"/>
		<polygon points="462,710 458,721 455,723 453,717 448,724 463,725" fill="rgb(71.4366%, 51.8194%, 46.1057%)" fill-rule="evenodd" fill-opacity="0.291548"/>
		<polygon points="433,676 430,673 423,674 432,671" fill="rgb(88.4239%, 80.8089%, 87.5502%)" fill-rule="evenodd" fill-opacity="0.108725"/>
		<polygon points="519,688 527,693 516,695 513,689" fill="rgb(39.0447%, 73.0449%, 40.7662%)" fill-rule="evenodd" fill-opacity="0.138378"/>
		<polygon points="524,783 518,789 523,787" fill="rgb(62.4374%, 84.5668%, 89.2669%)" fill-rule="evenodd" fill-opacity="0.108696"/>
	</g>
	<g id="G19">
		<polygon points="677,719 663,713 657,710 669,696 665,684 679,683 687,690 690,685 681,663 655,657 650,663 649,673 643,678 647,683 645,713 652,714 656,763" fill="rgb(99.3981%, 71.9879%, 71.2839%)" fill-rule="evenodd" fill-opacity="0.404852"/>
		<polygon points="686,772 673,758 665,751 664,732 655,741 653,712 646,712 648,689 642,677 650,672 650,664 664,644 670,644 685,662 694,782" fill="rgb(48.2887%, 57.1153%, 59.5986%)" fill-rule="evenodd" fill-opacity="0.507869"/>
		<polygon points="694,777 695,762 672,764 672,772 667,776 663,782 666,802" fill="rgb(98.6279%, 63.1296%, 85.305%)" fill-rule="evenodd" fill-opacity="0.271367"/>
		<polygon points="650,829 639,837 630,832 625,823 635,816 636,802 629,781 630,765 645,751 654,749 668,805" fill="rgb(100%, 75.5008%, 71.2741%)" fill-rule="evenodd" fill-opacity="0.383797"/>
		<polygon points="678,737 679,744 688,754 681,731 690,728 690,713 679,698 667,698 660,705 652,730 657,780 666,793 665,809 694,774 694,760 681,765 679,754 680,748 685,743" fill="rgb(38.8051%, 54.8903%, 51.938%)" fill-rule="evenodd" fill-opacity="0.524569"/>
		<polygon points="646,769 642,752 632,762 629,778 631,782 633,791 639,796 641,788 646,785 651,787" fill="rgb(66.0728%, 63.6985%, 78.4168%)" fill-rule="evenodd" fill-opacity="0.185595"/>
		<polygon points="655,817 654,826 639,840 633,840 635,756 654,785 680,769 675,788 670,794 663,811" fill="rgb(82.7656%, 47.4429%, 47.458%)" fill-rule="evenodd" fill-opacity="0.270382"/>
		<polygon points="667,756 665,748 663,727 658,751 657,729 657,717 659,714 664,714 667,712" fill="rgb(64.9045%, 71.3599%, 63.0492%)" fill-rule="evenodd" fill-opacity="0.186294"/>
		<polygon points="653,792 668,774 670,768 655,770 655,759 644,770" fill="rgb(0%, 9.27846%, 35.9303%)" fill-rule="evenodd" fill-opacity="0.151588"/>
		<polygon points="666,782 666,803 668,799 670,805 664,812 659,818 657,808 645,789 645,772 647,773 654,779" fill="rgb(45.6392%, 46.179%, 58.142%)" fill-rule="evenodd" fill-opacity="0.158937"/>
		<polygon points="684,787 683,780 676,782 680,787 687,775 691,776 692,778" fill="rgb(34.6948%, 91.8442%, 98.6959%)" fill-rule="evenodd" fill-opacity="0.384049"/>
		<polygon points="651,715 650,683 651,672 676,698 677,696 685,706 678,702 679,712" fill="rgb(49.6491%, 5.047%, 8.18912%)" fill-rule="evenodd" fill-opacity="0.182734"/>
		<polygon points="669,680 682,682 684,672 688,671 687,666 674,660 675,651 673,651 668,644 660,644 659,653 650,661 652,667 663,670 661,674 655,680" fill="rgb(11.7053%, 72.3868%, 94.5572%)" fill-rule="evenodd" fill-opacity="0.314526"/>
		<polygon points="628,767 631,761 634,764 634,770 634,792 628,777" fill="rgb(100%, 48.225%, 38.3398%)" fill-rule="evenodd" fill-opacity="0.168527"/>
		<polygon points="656,679 654,674 670,674 686,670 683,676 685,679 680,678 680,681 677,678" fill="rgb(59.2367%, 90.6165%, 99.4599%)" fill-rule="evenodd" fill-opacity="0.600000"/>
		<polygon points="687,677 692,679 689,687" fill="rgb(57.9053%, 60.87%, 71.5506%)" fill-rule="evenodd" fill-opacity="0.410336"/>
		<polygon points="643,760 646,772 650,777 664,772 658,758 659,762 659,773 662,771 667,763 664,758 666,741 669,737 671,740 674,738 670,732 652,740 655,752" fill="rgb(7.9026%, 10.1653%, 4.51575%)" fill-rule="evenodd" fill-opacity="0.248074"/>
		<polygon points="667,659 679,661 680,666 666,670 656,665 654,663" fill="rgb(100%, 90.6595%, 88.615%)" fill-rule="evenodd" fill-opacity="0.254669"/>
		<polygon points="669,733 672,770 694,759 692,753 692,726 689,724 685,747 674,750 675,739 676,735 679,735" fill="rgb(9.46575%, 22.5846%, 21.3426%)" fill-rule="evenodd" fill-opacity="0.384450"/>
		<polygon points="647,824 652,829 656,823" fill="rgb(29.1182%, 35.03%, 47.9996%)" fill-rule="evenodd" fill-opacity="0.366772"/>
		<polygon points="654,705 650,709 652,724 652,713 660,709" fill="rgb(93.0089%, 78.1177%, 54.6041%)" fill-rule="evenodd" fill-opacity="0.100000"/>
		<polygon points="653,775 654,792 652,788 649,791 650,782 642,775 650,777" fill="rgb(55.1885%, 58.6946%, 71.2954%)" fill-rule="evenodd" fill-opacity="0.123299"/>
	</g>
	<g id="G20">
		<polygon points="467,1130 462,1127 448,1121 433,1111 424,1110 416,1113 425,1120 430,1126 433,1139 444,1143 457,1156 452,1144 455,1141 481,1149 494,1149 471,1129" fill="rgb(100%, 61.5407%, 30.2733%)" fill-rule="evenodd" fill-opacity="0.600000"/>
		<polygon points="419,1156 415,1151 416,1146 434,1145 453,1139 455,1141 462,1139 463,1132 442,1115 425,1110 416,1111 407,1137 404,1132 401,1139" fill="rgb(73.0286%, 80.6232%, 94.7318%)" fill-rule="evenodd" fill-opacity="0.100628"/>
		<polygon points="481,1134 498,1152 509,1152 508,1159 488,1166 486,1169 485,1181 471,1169 474,1175 476,1184 464,1193 475,1204 485,1217 486,1197 495,1203 498,1196 487,1182 498,1183 499,1169 459,1156 447,1143 451,1141 451,1135 426,1110" fill="rgb(100%, 90.2253%, 57.9352%)" fill-rule="evenodd" fill-opacity="0.600000"/>
		<polygon points="482,1160 470,1153 468,1145 475,1139 492,1161 508,1177 510,1178 507,1184" fill="rgb(100%, 100%, 82.6043%)" fill-rule="evenodd" fill-opacity="0.563357"/>
		<polygon points="427,1110 412,1115 408,1124 403,1144 448,1148 482,1168 490,1175 495,1178 503,1181 509,1185 509,1176 496,1167 492,1161 509,1155 491,1147 483,1135" fill="rgb(100%, 67.4071%, 62.2078%)" fill-rule="evenodd" fill-opacity="0.417761"/>
		<polygon points="506,1160 492,1153 478,1138 487,1157 472,1151 466,1138 461,1140 454,1135 447,1126 461,1124 510,1157" fill="rgb(100%, 100%, 89.7563%)" fill-rule="evenodd" fill-opacity="0.514694"/>
		<polygon points="504,1187 494,1186 497,1205 486,1206 483,1215 474,1216 466,1222 452,1210 444,1179 447,1180 472,1216 470,1191 476,1188 464,1175 460,1166 463,1163 433,1113 481,1134 495,1148 510,1153 508,1160 499,1163 496,1159 480,1144 494,1165 511,1179" fill="rgb(100%, 78.8147%, 56.8372%)" fill-rule="evenodd" fill-opacity="0.511896"/>
		<polygon points="453,1165 452,1160 465,1168 471,1188 479,1182 484,1186 485,1184 473,1170 469,1169 474,1179" fill="rgb(100%, 70.4741%, 59.0833%)" fill-rule="evenodd" fill-opacity="0.553236"/>
		<polygon points="415,1145 421,1159 426,1177 448,1205 451,1199 466,1218 470,1213 473,1204 486,1213 484,1202 496,1203 497,1192 483,1180 494,1183 503,1189 510,1183 506,1174 487,1156 496,1157 483,1134 446,1118 422,1110 443,1148" fill="rgb(100%, 70.7119%, 66.5167%)" fill-rule="evenodd" fill-opacity="0.450776"/>
		<polygon points="469,1165 471,1168 466,1169 458,1156 484,1170 480,1164 481,1163 498,1179 500,1185 505,1188 490,1187" fill="rgb(42.1393%, 1.70067%, 0%)" fill-rule="evenodd" fill-opacity="0.463590"/>
		<polygon points="436,1143 455,1157 461,1159 470,1158 473,1166 465,1159 446,1145 447,1134 440,1127" fill="rgb(64.5091%, 24.5251%, 17.2114%)" fill-rule="evenodd" fill-opacity="0.301194"/>
		<polygon points="454,1167 448,1160 454,1167 458,1176 462,1171 463,1169" fill="rgb(56.6802%, 25.7087%, 18.0606%)" fill-rule="evenodd" fill-opacity="0.337394"/>
		<polygon points="467,1186 471,1188 470,1183 466,1177 474,1183 478,1190 481,1191 492,1198 495,1206 486,1207 478,1197 477,1196 467,1190" fill="rgb(58.1453%, 3.64495%, 5.39899%)" fill-rule="evenodd" fill-opacity="0.448688"/>
		<polygon points="430,1161 446,1171 457,1185 468,1181 451,1162 472,1170 471,1161 450,1148 442,1138 440,1147 431,1148" fill="rgb(28.2961%, 14.1698%, 18.5672%)" fill-rule="evenodd" fill-opacity="0.268069"/>
		<polygon points="466,1158 471,1157 477,1159 478,1167 484,1170 486,1163 485,1161 471,1153 468,1144 456,1143" fill="rgb(88.3661%, 53.933%, 45.525%)" fill-rule="evenodd" fill-opacity="0.444440"/>
		<polygon points="412,1144 406,1145 410,1148 419,1156 415,1144" fill="rgb(93.9572%, 58.8373%, 56.5176%)" fill-rule="evenodd" fill-opacity="0.457188"/>
		<polygon points="494,1148 488,1143 488,1140 494,1148" fill="rgb(57.3244%, 62.0747%, 56.2079%)" fill-rule="evenodd" fill-opacity="0.236660"/>
		<polygon points="470,1222 464,1222 449,1208 450,1202 444,1187 446,1188 447,1190 452,1198" fill="rgb(45.7199%, 7.15233%, 20.3438%)" fill-rule="evenodd" fill-opacity="0.441151"/>
		<polygon points="416,1113 414,1111 416,1110 410,1117 412,1120 414,1120" fill="rgb(32.938%, 22.3779%, 17.2439%)" fill-rule="evenodd" fill-opacity="0.392513"/>
		<polygon points="480,1189 483,1184 480,1185" fill="rgb(46.6977%, 26.8482%, 38.1094%)" fill-rule="evenodd" fill-opacity="0.116452"/>
	</g>
	<g id="G21">
		<polygon points="3,603 3,590 0,583 1,578 3,581 8,603 25,598 2,611" fill="rgb(53.0025%, 66.7097%, 62.1657%)" fill-rule="evenodd" fill-opacity="0.241577"/>
		<polygon points="141,524 123,536 106,527 100,526 94,524" fill="rgb(87.3194%, 92.1722%, 99.6635%)" fill-rule="evenodd" fill-opacity="0.541145"/>
		<polygon points="54,537 58,539 56,533 70,530 76,531 88,530 105,536 109,535 86,525 76,529 74,527 69,526" fill="rgb(59.026%, 97.0126%, 100%)" fill-rule="evenodd" fill-opacity="0.444206"/>
		<polygon points="43,566 39,566 27,558 27,551 22,548 16,552 21,554 22,560 6,563 30,565 24,566 27,571 34,570 49,575 59,565" fill="rgb(86.7095%, 64.2172%, 62.3255%)" fill-rule="evenodd" fill-opacity="0.394045"/>
		<polygon points="0,535 13,537 22,534 32,533 38,531 42,531 54,533 73,537 75,532 68,529 72,526 89,534 83,547 86,550 82,550 79,548 72,553 70,571 63,573 61,569 48,572 47,593 0,605" fill="rgb(57.7716%, 65.7675%, 63.6234%)" fill-rule="evenodd" fill-opacity="0.430385"/>
		<polygon points="0,612 19,600 9,602 2,574" fill="rgb(70.1309%, 81.305%, 62.9844%)" fill-rule="evenodd" fill-opacity="0.273326"/>
		<polygon points="60,531 48,531 37,533 11,533 0,536 2,563 7,563 24,560 45,548 50,548 62,544 81,541 61,552 74,554 73,551 87,546 113,541 115,533 103,524" fill="rgb(68.2234%, 64.2598%, 81.3277%)" fill-rule="evenodd" fill-opacity="0.501645"/>
		<polygon points="90,557 85,547 76,543 62,537 59,532 49,532 43,531 50,538 39,537 34,538 40,540 38,545 38,561 46,544 54,555" fill="rgb(99.0435%, 95.9905%, 100%)" fill-rule="evenodd" fill-opacity="0.253733"/>
		<polygon points="0,609 1,611 16,586 28,581 29,589 45,594 56,591 65,572 72,557 87,555 88,545 120,537 130,529 41,532 0,537" fill="rgb(89.2831%, 82.6246%, 73.7486%)" fill-rule="evenodd" fill-opacity="0.435547"/>
		<polygon points="61,579 70,572 70,563" fill="rgb(94.4333%, 100%, 89.8318%)" fill-rule="evenodd" fill-opacity="0.325896"/>
		<polygon points="14,577 9,580 5,580 2,574 0,574 8,585" fill="rgb(75.0535%, 78.7409%, 47.5472%)" fill-rule="evenodd" fill-opacity="0.190971"/>
		<polygon points="12,580 5,579 3,570 16,573 22,572 32,580 34,574 46,574 45,586" fill="rgb(84.9879%, 76.0955%, 60.0714%)" fill-rule="evenodd" fill-opacity="0.357955"/>
		<polygon points="0,611 0,589 3,597 5,608" fill="rgb(30.9686%, 39.9099%, 26.5329%)" fill-rule="evenodd" fill-opacity="0.188773"/>
		<polygon points="61,574 55,571 53,582 64,578" fill="rgb(61.798%, 73.837%, 45.6044%)" fill-rule="evenodd" fill-opacity="0.333522"/>
		<polygon points="103,535 109,532 104,528 106,527 106,524 114,524 109,528 119,534 111,536" fill="rgb(78.1198%, 76.2077%, 74.8597%)" fill-rule="evenodd" fill-opacity="0.365514"/>
		<polygon points="5,552 26,553 28,551 24,550 14,550 4,548" fill="rgb(100%, 96.7884%, 100%)" fill-rule="evenodd" fill-opacity="0.409079"/>
		<polygon points="31,561 27,555 37,553 40,553" fill="rgb(74.3015%, 28.6501%, 76.9178%)" fill-rule="evenodd" fill-opacity="0.112158"/>
		<polygon points="0,563 19,572 17,574 14,573 0,566" fill="rgb(15.0267%, 21.9888%, 22.816%)" fill-rule="evenodd" fill-opacity="0.447680"/>
		<polygon points="12,530 8,531 10,537 1,538 0,542 0,547 11,547 18,542 15,532" fill="rgb(73.6486%, 55.8868%, 58.0418%)" fill-rule="evenodd" fill-opacity="0.600000"/>
		<polygon points="38,558 35,559 38,563 40,560 49,553 45,550" fill="rgb(2.83205%, 11.878%, 21.009%)" fill-rule="evenodd" fill-opacity="0.309252"/>
		<polygon points="55,572 40,568 38,570 29,565 32,573" fill="rgb(34.5887%, 22.8742%, 22.6669%)" fill-rule="evenodd" fill-opacity="0.183136"/>
		<polygon points="76,541 87,543 85,535 75,531 79,533 73,537 55,538 43,541 46,544" fill="rgb(100%, 79.5465%, 71.1004%)" fill-rule="evenodd" fill-opacity="0.295042"/>
		<polygon points="84,542 86,538 88,540 95,540 105,547 113,547 111,543 109,541 101,525 96,524 73,539" fill="rgb(100%, 86.4297%, 82.0963%)" fill-rule="evenodd" fill-opacity="0.437669"/>
		<polygon points="62,537 57,539 40,539 31,543 23,538 34,534 56,534" fill="rgb(97.706%, 44.3661%, 43.5701%)" fill-rule="evenodd" fill-opacity="0.285136"/>
		<polygon points="68,576 70,569 63,574" fill="rgb(14.1829%, 24.817%, 42.3615%)" fill-rule="evenodd" fill-opacity="0.193449"/>
		<polygon points="30,546 33,540 41,538 40,543 34,549" fill="rgb(47.6454%, 59.6436%, 19.0852%)" fill-rule="evenodd" fill-opacity="0.254642"/>
	</g>
	<g id="G22">
		<polygon points="712,843 708,841 707,840 708,850 701,855 701,857 702,863 708,868 708,869 711,871 713,872 715,873 717,871 717,869 713,859 708,855 711,853 714,846 718,842" fill="rgb(95.0207%, 53.9037%, 64.1096%)" fill-rule="evenodd" fill-opacity="0.242880"/>
		<polygon points="702,862 703,857 704,856 704,856 705,857 706,857 708,861 705,864" fill="rgb(78.7755%, 42.9225%, 44.9667%)" fill-rule="evenodd" fill-opacity="0.369218"/>
		<polygon points="740,834 734,829 734,829 737,828 741,833" fill="rgb(61.5219%, 79.2789%, 98.7475%)" fill-rule="evenodd" fill-opacity="0.175558"/>
		<polygon points="705,867 709,871 714,874 717,874 723,868 723,866 730,859 720,842 710,858 705,864" fill="rgb(89.156%, 41.1145%, 43.4023%)" fill-rule="evenodd" fill-opacity="0.335429"/>
		<polygon points="712,843 707,841 731,826 733,826 737,831 739,834 734,844 725,851 720,841" fill="rgb(51.2525%, 52.2303%, 56.0476%)" fill-rule="evenodd" fill-opacity="0.480747"/>
		<polygon points="724,866 722,868 723,867 717,871 716,866 713,859 707,854 707,840 708,842 707,840 721,831 729,826 735,827 748,846 744,848 744,849 739,854 731,858 731,864" fill="rgb(70.0267%, 41.2129%, 50.4744%)" fill-rule="evenodd" fill-opacity="0.384037"/>
		<polygon points="747,844 748,843 746,842 745,840 745,842" fill="rgb(37.216%, 18.4762%, 45.1899%)" fill-rule="evenodd" fill-opacity="0.275835"/>
		<polygon points="734,844 740,833 746,842 742,842" fill="rgb(72.4091%, 60.2267%, 60.4303%)" fill-rule="evenodd" fill-opacity="0.335306"/>
		<polygon points="739,837 736,834 725,835 721,843 724,852 724,857 726,859 732,852 732,850 735,850 735,851 736,846 740,842 743,841" fill="rgb(80.4696%, 42.6883%, 41.3761%)" fill-rule="evenodd" fill-opacity="0.112038"/>
		<polygon points="746,852 744,854 735,861 733,862 732,863 726,851 734,844 743,842 747,842 748,844 751,848" fill="rgb(71.741%, 46.8716%, 49.3297%)" fill-rule="evenodd" fill-opacity="0.427809"/>
		<polygon points="738,852 737,852 725,863 736,857 742,856 736,861 740,857 738,855 746,850 746,848 748,846 748,845" fill="rgb(39.9982%, 26.3279%, 28.2144%)" fill-rule="evenodd" fill-opacity="0.419428"/>
		<polygon points="744,853 736,856 735,860 734,861 729,859 737,853 738,853 739,848 743,846 738,837 740,835 739,835 732,829 737,829 749,844 752,848 747,852" fill="rgb(35.4274%, 21.0844%, 20.8634%)" fill-rule="evenodd" fill-opacity="0.267047"/>
		<polygon points="711,866 707,863 708,862 707,859 709,858 712,854 714,854 720,842 725,850 715,864" fill="rgb(58.6425%, 39.844%, 44.2666%)" fill-rule="evenodd" fill-opacity="0.315511"/>
		<polygon points="716,843 713,845 712,848 707,854 709,848 709,844 710,842" fill="rgb(79.1293%, 50.5844%, 49.6604%)" fill-rule="evenodd" fill-opacity="0.182455"/>
		<polygon points="742,856 749,849 744,854 737,860" fill="rgb(61.1861%, 36.2354%, 58.2851%)" fill-rule="evenodd" fill-opacity="0.146631"/>
		<polygon points="723,868 723,871 719,872 723,868 723,866 731,864" fill="rgb(67.643%, 27.3359%, 46.698%)" fill-rule="evenodd" fill-opacity="0.168791"/>
		<polygon points="703,853 701,861 703,862 704,860 707,858 705,856 704,852" fill="rgb(24.8219%, 32.7322%, 27.3138%)" fill-rule="evenodd" fill-opacity="0.290834"/>
	</g>
</svg>