<?xml version="1.0" encoding="UTF-8" standalone="no"?>
<svg xmlns:svg="http://www.w3.org/2000/svg" xmlns="http://www.w3.org/2000/svg" width="1082" height="1917">
	<rect width = "1082" height="1917" fill="rgb(0%, 0%, 0%)"/>
	<g id="G0">
		<polygon points="636,912 683,894 705,892 802,867 845,829 875,673 978,795 974,838 959,854 924,867 872,874 874,901 854,911 838,910 800,954 722,954 632,949 595,949 563,936" fill="rgb(63.9374%, 50.5538%, 47.9486%)" fill-rule="evenodd" fill-opacity="0.301086"/>
		<polygon points="603,588 552,617 552,640 583,650 602,603 570,604 615,584 670,564 632,550 599,556" fill="rgb(100%, 81.7858%, 73.3016%)" fill-rule="evenodd" fill-opacity="0.598433"/>
		<polygon points="967,784 857,664 815,644 766,640 703,675 686,700 716,706 799,688 822,694 864,744 855,803 827,851 777,886 853,924 922,886 964,847 981,823" fill="rgb(100%, 78.1564%, 65.6388%)" fill-rule="evenodd" fill-opacity="0.595972"/>
		<polygon points="591,654 565,648 547,626 559,610 571,603 572,610 592,604" fill="rgb(100%, 62.1207%, 58.9207%)" fill-rule="evenodd" fill-opacity="0.349905"/>
		<polygon points="711,562 662,558 641,550 614,554 607,558 600,574" fill="rgb(99.9958%, 95.8597%, 85.1421%)" fill-rule="evenodd" fill-opacity="0.600000"/>
		<polygon points="970,834 944,848 923,845 839,863 841,850 859,840 875,814 825,652 871,674 888,693 909,716 981,812" fill="rgb(100%, 100%, 73.2538%)" fill-rule="evenodd" fill-opacity="0.600000"/>
		<polygon points="509,900 546,919 590,954 618,956 651,902 581,908 549,876 521,879" fill="rgb(84.1381%, 55.8865%, 46.4797%)" fill-rule="evenodd" fill-opacity="0.460406"/>
		<polygon points="771,951 677,953 656,948 622,948 689,847 713,869 810,885 877,782 948,849 915,852 910,861 863,874 821,909 848,920 810,951" fill="rgb(77.9461%, 52.8669%, 45.2605%)" fill-rule="evenodd" fill-opacity="0.547669"/>
		<polygon points="878,683 866,671 806,636 746,653 691,687 688,704 705,721 763,699 820,684 880,775 935,822 969,831 976,799 891,700" fill="rgb(100%, 100%, 100%)" fill-rule="evenodd" fill-opacity="0.600000"/>
		<polygon points="569,928 523,914 509,892 509,883 537,876 612,915 667,892 711,870 764,882 791,893 855,926 825,940 803,948 726,949 707,958 572,949" fill="rgb(81.4855%, 64.3529%, 55.1397%)" fill-rule="evenodd" fill-opacity="0.447535"/>
		<polygon points="760,883 771,886 761,890 728,898 703,871 770,874" fill="rgb(4.0503%, 5.29091%, 7.42937%)" fill-rule="evenodd" fill-opacity="0.136014"/>
		<polygon points="580,746 551,745 564,700 588,685 611,727" fill="rgb(100%, 82.7169%, 73.0273%)" fill-rule="evenodd" fill-opacity="0.600000"/>
		<polygon points="721,904 668,898 686,846 729,873 768,881 814,866 804,860 808,892" fill="rgb(59.5709%, 38.1998%, 34.1088%)" fill-rule="evenodd" fill-opacity="0.392887"/>
		<polygon points="829,705 804,678 832,676 856,693 858,722 889,778 888,785" fill="rgb(100%, 64.7875%, 33.5822%)" fill-rule="evenodd" fill-opacity="0.315061"/>
		<polygon points="851,921 829,924 648,940 629,937 628,953 699,958 825,945" fill="rgb(4.10901%, 33.7572%, 53.0035%)" fill-rule="evenodd" fill-opacity="0.123633"/>
		<polygon points="566,902 578,902 631,909 601,922 584,922 551,913 528,898 509,905 509,887 524,877 539,870" fill="rgb(88.4281%, 47.3519%, 39.5037%)" fill-rule="evenodd" fill-opacity="0.251873"/>
		<polygon points="812,683 792,682 743,689 726,697 680,697 696,721 724,722 723,720" fill="rgb(100%, 41.88%, 23.4917%)" fill-rule="evenodd" fill-opacity="0.425702"/>
		<polygon points="664,898 598,904 544,884 562,901 587,913 615,917" fill="rgb(50.1913%, 24.2203%, 22.4115%)" fill-rule="evenodd" fill-opacity="0.288594"/>
		<polygon points="739,886 708,876 722,864 750,877" fill="rgb(21.5081%, 4.78996%, 7.56778%)" fill-rule="evenodd" fill-opacity="0.121696"/>
		<polygon points="632,574 663,573 677,562 645,551 666,563 667,566" fill="rgb(58.414%, 11.9264%, 23.7066%)" fill-rule="evenodd" fill-opacity="0.231357"/>
		<polygon points="860,767 867,759 850,757" fill="rgb(55.8854%, 67.4239%, 3.93468%)" fill-rule="evenodd" fill-opacity="0.168840"/>
	</g>
	<g id="G1">
		<polygon points="484,820 473,874 463,899 454,935 459,967 475,971 496,940 497,943 529,920 505,897 516,884 547,870 524,840 522,797 504,791" fill="rgb(78.1697%, 61.0326%, 51.3875%)" fill-rule="evenodd" fill-opacity="0.437718"/>
		<polygon points="518,829 522,841 525,836 512,833 492,804 513,822 531,832" fill="rgb(93.0174%, 83.641%, 53.6289%)" fill-rule="evenodd" fill-opacity="0.143977"/>
		<polygon points="456,957 471,1020 455,1029 457,1054 426,1096 420,1093 410,1080 399,1049 407,1058 424,1081" fill="rgb(35.8407%, 32.8673%, 30.2954%)" fill-rule="evenodd" fill-opacity="0.308808"/>
		<polygon points="406,1054 445,1107 445,1119 429,1131 419,1086 378,1042 373,1084 347,1071 320,1064 309,1056 383,1037" fill="rgb(58.7361%, 56.6001%, 56.0597%)" fill-rule="evenodd" fill-opacity="0.301960"/>
		<polygon points="447,1083 440,1131 425,1122 401,1097 378,1087 373,1044 295,999 423,1054 424,1033 435,1003 496,986" fill="rgb(95.0652%, 89.5909%, 87.2513%)" fill-rule="evenodd" fill-opacity="0.216678"/>
		<polygon points="287,998 216,955 227,956 341,1017" fill="rgb(55.7788%, 48.1943%, 45.5245%)" fill-rule="evenodd" fill-opacity="0.449495"/>
		<polygon points="384,1037 219,949 168,903 117,936 70,965 89,974 133,982 126,963 193,936 195,940 216,953 228,949 165,1006 186,1016 303,1057" fill="rgb(75.0068%, 71.7281%, 72.4771%)" fill-rule="evenodd" fill-opacity="0.269366"/>
		<polygon points="224,951 164,1008 83,977 42,956 21,910 36,894 81,895 79,857 95,834 114,846" fill="rgb(65.7142%, 65.5162%, 64.2916%)" fill-rule="evenodd" fill-opacity="0.488196"/>
		<polygon points="163,903 158,891 103,843 86,840 81,886 24,899 21,926 67,966 152,915" fill="rgb(76.7327%, 78.7323%, 81.6714%)" fill-rule="evenodd" fill-opacity="0.429381"/>
		<polygon points="526,928 526,917 505,886 532,872 525,794 507,791 500,802 473,883 431,1004 491,987" fill="rgb(79.1303%, 76.1283%, 71.2253%)" fill-rule="evenodd" fill-opacity="0.354425"/>
		<polygon points="523,816 521,835 501,802 509,791 530,805" fill="rgb(97.8535%, 92.5797%, 81.956%)" fill-rule="evenodd" fill-opacity="0.450485"/>
		<polygon points="80,940 77,917 100,918 89,913 81,846 98,845 121,873 118,892" fill="rgb(85.4113%, 86.7666%, 88.3126%)" fill-rule="evenodd" fill-opacity="0.255319"/>
		<polygon points="436,985 513,955 464,964 474,866 462,891" fill="rgb(29.4684%, 25.5809%, 25.5032%)" fill-rule="evenodd" fill-opacity="0.351145"/>
		<polygon points="21,921 26,904 55,883 53,924 56,938 70,951 51,961" fill="rgb(85.7032%, 91.4758%, 98.0001%)" fill-rule="evenodd" fill-opacity="0.357016"/>
		<polygon points="112,971 109,954 145,946 145,920 102,946 91,935 73,934 76,942 52,935 81,960" fill="rgb(75.6785%, 82.4433%, 83.9746%)" fill-rule="evenodd" fill-opacity="0.181937"/>
		<polygon points="527,844 526,794 510,796 481,810 490,835 520,878 549,879" fill="rgb(91.8064%, 79.7347%, 68.7602%)" fill-rule="evenodd" fill-opacity="0.268572"/>
		<polygon points="253,969 218,949 210,966 180,992 193,936 134,960 153,976 185,979 173,1006 198,1001 235,987 332,1018 280,983" fill="rgb(58.8096%, 57.9605%, 53.6411%)" fill-rule="evenodd" fill-opacity="0.190209"/>
		<polygon points="403,1050 408,1055 406,1063 352,1025" fill="rgb(79.5045%, 65.6277%, 50.0519%)" fill-rule="evenodd" fill-opacity="0.248791"/>
		<polygon points="511,957 490,1001 497,976" fill="rgb(60.8777%, 45.4766%, 56.7644%)" fill-rule="evenodd" fill-opacity="0.202826"/>
	</g>
	<g id="G2">
		<polygon points="452,5 38,0 11,168 29,476 10,340 101,410 117,291 128,359 183,272 213,314 243,204 516,461 935,706 1080,895 1055,642 1076,0" fill="rgb(57.6995%, 61.7007%, 44.8676%)" fill-rule="evenodd" fill-opacity="0.324403"/>
		<polygon points="1070,16 1069,873 845,640 539,442 289,247 122,330 0,512 6,477 5,51 9,9" fill="rgb(88.0285%, 99.1975%, 89.4318%)" fill-rule="evenodd" fill-opacity="0.600000"/>
		<polygon points="984,1506 982,1473 1068,1492 1067,1676" fill="rgb(92.8176%, 98.6684%, 77.8915%)" fill-rule="evenodd" fill-opacity="0.577963"/>
		<polygon points="1070,0 1080,627 1080,862 470,332 282,315 245,229 122,336 78,398 64,445 0,522 0,0" fill="rgb(100%, 95.0514%, 95.9531%)" fill-rule="evenodd" fill-opacity="0.595415"/>
		<polygon points="527,801 575,718 495,703 504,810" fill="rgb(94.1216%, 93.2295%, 93.8829%)" fill-rule="evenodd" fill-opacity="0.321828"/>
		<polygon points="726,533 766,648 855,606 936,752 1069,887 1080,0 4,0 11,477 98,356 81,347 204,289 415,332 494,400 493,414 568,551" fill="rgb(100%, 100%, 100%)" fill-rule="evenodd" fill-opacity="0.600000"/>
		<polygon points="507,772 522,803 597,652 556,629 605,534 714,537 1058,802 1075,636 1073,19 364,9 99,13 11,155 310,313 432,273 565,536" fill="rgb(100%, 100%, 100%)" fill-rule="evenodd" fill-opacity="0.600000"/>
		<polygon points="32,710 0,610 0,904 83,900 83,799" fill="rgb(99.258%, 99.1547%, 100%)" fill-rule="evenodd" fill-opacity="0.600000"/>
		<polygon points="1080,1480 979,1470 996,1570 1079,1711" fill="rgb(100%, 100%, 95.8918%)" fill-rule="evenodd" fill-opacity="0.600000"/>
		<polygon points="584,942 553,995 578,1021 654,973 608,951 770,938 875,982 915,1027 917,1085" fill="rgb(99.8787%, 100%, 100%)" fill-rule="evenodd" fill-opacity="0.600000"/>
		<polygon points="1080,7 1077,883 918,703 922,678 757,622 762,577 604,546 572,620 554,456 270,253 8,429 5,17" fill="rgb(100%, 100%, 99.7885%)" fill-rule="evenodd" fill-opacity="0.595579"/>
		<polygon points="1002,1456 993,1576 965,1457" fill="rgb(38.7457%, 34.0947%, 34.5295%)" fill-rule="evenodd" fill-opacity="0.495359"/>
		<polygon points="1,499 200,269 252,285 316,326 356,293 410,329 431,324 594,609 622,528 829,597 756,587 893,664 1033,826 1069,853 1075,0 0,0" fill="rgb(100%, 100%, 100%)" fill-rule="evenodd" fill-opacity="0.585376"/>
		<polygon points="109,835 51,760 13,630 0,638 0,933" fill="rgb(100%, 100%, 99.5885%)" fill-rule="evenodd" fill-opacity="0.600000"/>
		<polygon points="730,985 898,1071 929,1077 893,1003 785,954 566,932 542,1009" fill="rgb(100%, 100%, 100%)" fill-rule="evenodd" fill-opacity="0.596224"/>
	</g>
	<g id="G3">
		<polygon points="626,1215 684,1164 747,1133 644,1034 610,1032 535,999 530,1104 584,1218" fill="rgb(84.486%, 77.1406%, 64.502%)" fill-rule="evenodd" fill-opacity="0.299990"/>
		<polygon points="260,1793 294,1731 317,1588 233,1605 115,1615 5,1467 0,1247 553,1192 509,1101 729,1112 787,1175 693,1230 695,1270 656,1234 699,1555 595,1518 639,1646 762,1666 692,1302 715,1289 775,1527 816,1423 905,1805 912,1628 935,1498 986,1555 1080,1696 1065,1823 860,1917 812,1679 750,1778 688,1750 717,1914 122,1916" fill="rgb(13.192%, 14.5887%, 22.9492%)" fill-rule="evenodd" fill-opacity="0.354220"/>
		<polygon points="871,1917 1045,1830 1056,1813 1031,1740 1080,1705 1080,1917" fill="rgb(71.2613%, 83.2287%, 94.8399%)" fill-rule="evenodd" fill-opacity="0.406986"/>
		<polygon points="891,1914 613,1917 0,1917 1,1604" fill="rgb(64.1667%, 78.78%, 93.2074%)" fill-rule="evenodd" fill-opacity="0.297728"/>
		<polygon points="708,1327 667,1129 638,1132 633,1080 492,1006 619,1022 745,1134 792,1194 782,1293 706,1124" fill="rgb(66.6084%, 63.8374%, 63.9737%)" fill-rule="evenodd" fill-opacity="0.251503"/>
		<polygon points="394,1210 448,1240 487,1271 562,1451 600,1640 478,1399 492,1377 469,1354 363,1556 323,1522 247,1556 200,1477 237,1371 175,1387 130,1372 4,1424 0,1351" fill="rgb(51.9513%, 58.7872%, 65.1605%)" fill-rule="evenodd" fill-opacity="0.100000"/>
		<polygon points="882,1911 1070,1816 1041,1743 1077,1704 997,1585 992,1540 822,1233 707,1100 0,1604" fill="rgb(55.1828%, 62.5052%, 71.9619%)" fill-rule="evenodd" fill-opacity="0.433429"/>
		<polygon points="602,1690 653,1807 659,1707 554,1912 511,1825 409,1870 366,1851 400,1737 445,1463 484,1475 486,1504 475,1604 529,1507 552,1691" fill="rgb(8.30703%, 13.9458%, 19.5297%)" fill-rule="evenodd" fill-opacity="0.132720"/>
		<polygon points="708,1099 556,989 571,937 537,917 448,1075 451,1112 428,1147 207,1136 0,1003 0,1047 30,1035 88,983 4,921 2,939 1,1603" fill="rgb(61.4397%, 67.7266%, 79.6659%)" fill-rule="evenodd" fill-opacity="0.433685"/>
		<polygon points="521,1912 547,1829 543,1796 420,1751 405,1831 384,1891 384,1917" fill="rgb(40.0982%, 41.0102%, 49.8167%)" fill-rule="evenodd" fill-opacity="0.163495"/>
		<polygon points="157,1016 169,1076 429,1146 422,1190 287,1204 128,1117 36,1079 26,982" fill="rgb(12.0106%, 4.47089%, 7.69364%)" fill-rule="evenodd" fill-opacity="0.174930"/>
		<polygon points="142,1087 259,1119 382,1146 192,1133" fill="rgb(58.7034%, 67.0751%, 79.018%)" fill-rule="evenodd" fill-opacity="0.176501"/>
		<polygon points="862,1276 821,1272 752,1227 733,1367 811,1451 604,1479 182,1230 331,1136 494,1107 472,1038 536,1125 608,1055" fill="rgb(37.4869%, 25.5485%, 31.1058%)" fill-rule="evenodd" fill-opacity="0.168661"/>
		<polygon points="470,1573 498,1408 496,1393 465,1448 443,1571 442,1609 336,1678 274,1635 252,1696 425,1749" fill="rgb(0%, 4.23006%, 15.2751%)" fill-rule="evenodd" fill-opacity="0.143123"/>
		<polygon points="525,917 583,927 474,1078 444,1153 490,1232 461,1251 513,1252 328,1129 346,1150 436,1125 438,1094" fill="rgb(16.9051%, 15.1463%, 15.9625%)" fill-rule="evenodd" fill-opacity="0.498094"/>
		<polygon points="1080,1710 1010,1630 959,1557 1009,1737 951,1751 934,1832 942,1878 1005,1839 1045,1857 1076,1895" fill="rgb(44.4141%, 51.5921%, 56.9395%)" fill-rule="evenodd" fill-opacity="0.158039"/>
		<polygon points="68,1283 122,1232 92,1202 116,1155 91,1116 19,1153 0,1151 0,1306" fill="rgb(45.2668%, 53.3668%, 74.363%)" fill-rule="evenodd" fill-opacity="0.100000"/>
		<polygon points="419,1105 526,1243 526,1183 499,1136 349,1146 205,1133 23,1019 23,1044 87,976" fill="rgb(46.2072%, 50.6875%, 58.337%)" fill-rule="evenodd" fill-opacity="0.234507"/>
		<polygon points="489,1176 469,1086 465,1149 489,1228 500,1247 545,1241" fill="rgb(91.3545%, 86.4932%, 64.3763%)" fill-rule="evenodd" fill-opacity="0.362900"/>
		<polygon points="354,1682 372,1694 311,1746 337,1782" fill="rgb(13.8167%, 16.2723%, 14.377%)" fill-rule="evenodd" fill-opacity="0.242158"/>
		<polygon points="713,1852 694,1845 688,1796 658,1686 579,1583 607,1562 588,1900 623,1917 688,1852 663,1917 747,1917" fill="rgb(31.1366%, 35.5895%, 42.9623%)" fill-rule="evenodd" fill-opacity="0.389339"/>
		<polygon points="585,1463 601,1432 653,1515 646,1553" fill="rgb(55.3951%, 60.5597%, 47.2099%)" fill-rule="evenodd" fill-opacity="0.365795"/>
	</g>
	<g id="G4">
		<polygon points="737,581 704,568 639,571 603,601 588,638 592,678 599,706 622,728 642,730 642,720 734,656 755,651 760,634 759,614" fill="rgb(99.2743%, 39.6206%, 48.7796%)" fill-rule="evenodd" fill-opacity="0.598275"/>
		<polygon points="805,861 767,876 709,862 690,843 676,797 669,776 660,813 638,844 605,848 581,865 551,867 536,857 526,834 536,787 537,771 675,697 704,725 804,688 832,708 851,737 855,793 832,844" fill="rgb(99.205%, 13.0624%, 2.84684%)" fill-rule="evenodd" fill-opacity="0.553158"/>
		<polygon points="669,870 672,841 682,826 682,821 689,805 831,839 857,779 854,738 824,699 774,698 751,703 718,731 699,735 670,763 614,739 560,750 534,775 526,812 526,825 551,871 603,893 641,901" fill="rgb(100%, 28.8341%, 2.54685%)" fill-rule="evenodd" fill-opacity="0.475001"/>
		<polygon points="528,787 530,849 550,879 577,899 605,908 656,897 688,852 728,873 756,878 783,876 816,860 840,831 859,780 857,740 839,714 809,686 637,744 612,728 573,749 559,749" fill="rgb(100%, 84.9322%, 70.1496%)" fill-rule="evenodd" fill-opacity="0.395581"/>
		<polygon points="668,649 594,632 603,602 618,587 665,568 706,568 738,581 749,595 760,621 764,643 721,663" fill="rgb(100%, 79.5252%, 63.6945%)" fill-rule="evenodd" fill-opacity="0.600000"/>
		<polygon points="600,861 655,848 658,819 654,820 645,833 660,776 635,752 599,743 541,762 529,804 557,843 559,863 550,796 570,781" fill="rgb(100%, 66.3693%, 31.7297%)" fill-rule="evenodd" fill-opacity="0.491404"/>
		<polygon points="688,709 699,723 632,745 603,714 596,702 588,664 591,622 606,595 624,580 650,568 672,568 729,576 760,634 757,645 688,687" fill="rgb(100%, 62.9472%, 41.7221%)" fill-rule="evenodd" fill-opacity="0.600000"/>
		<polygon points="699,829 735,828 729,802 694,804 670,759 655,754 638,803 595,835 583,853 550,861 526,845 548,880 587,905 609,908 644,904 671,882" fill="rgb(87.9532%, 34.3764%, 17.7978%)" fill-rule="evenodd" fill-opacity="0.296366"/>
		<polygon points="763,649 746,642 730,628 711,614 686,612 620,585 638,575 664,568 717,569 742,588 757,604" fill="rgb(100%, 100%, 89.376%)" fill-rule="evenodd" fill-opacity="0.600000"/>
		<polygon points="744,715 760,697 818,691 852,736 859,762 852,806 833,834 823,812 775,805 768,801 744,797 706,762 711,751 721,734" fill="rgb(100%, 58.045%, 38.1889%)" fill-rule="evenodd" fill-opacity="0.600000"/>
		<polygon points="803,692 825,695 852,735 854,745 851,769 780,739 763,718 779,699" fill="rgb(100%, 100%, 100%)" fill-rule="evenodd" fill-opacity="0.600000"/>
		<polygon points="765,854 777,855 842,831 826,854 802,872 741,885 698,850 733,838" fill="rgb(26.6624%, 23.44%, 26.6189%)" fill-rule="evenodd" fill-opacity="0.148308"/>
		<polygon points="594,699 613,734 645,748 657,764 673,775 685,742 706,726 683,700 712,669 680,667 651,670 602,690" fill="rgb(52.6763%, 28.7543%, 32.1416%)" fill-rule="evenodd" fill-opacity="0.341784"/>
		<polygon points="687,747 674,761 632,738 633,744 609,731 599,734 613,727" fill="rgb(4.65286%, 9.83433%, 34.261%)" fill-rule="evenodd" fill-opacity="0.112676"/>
		<polygon points="777,696 802,687 821,695 789,707 862,776 799,756 751,744 755,721" fill="rgb(100%, 99.0405%, 51.5299%)" fill-rule="evenodd" fill-opacity="0.307909"/>
		<polygon points="613,805 593,872 579,853 549,857 536,819" fill="rgb(95.1377%, 50.9164%, 21.982%)" fill-rule="evenodd" fill-opacity="0.358710"/>
		<polygon points="790,782 798,773 808,772 839,797 859,777 862,770 854,754 801,743 786,723 787,713 791,701 784,694 763,699 747,717 739,729 735,748 746,760" fill="rgb(100%, 80.6498%, 49.2427%)" fill-rule="evenodd" fill-opacity="0.423572"/>
		<polygon points="592,691 598,686 595,668 587,674 596,696" fill="rgb(31.3722%, 49.3372%, 61.7183%)" fill-rule="evenodd" fill-opacity="0.131970"/>
		<polygon points="832,842 847,817 838,822 831,811 826,808 786,803 773,843 794,852 809,862" fill="rgb(87.1736%, 42.5099%, 35.6657%)" fill-rule="evenodd" fill-opacity="0.214475"/>
	</g>
	<g id="G5">
		<polygon points="696,1002 735,1000 808,1043 828,1076 748,1131 653,1039 590,1020 636,998 662,981" fill="rgb(80.5409%, 77.6942%, 62.6331%)" fill-rule="evenodd" fill-opacity="0.417123"/>
		<polygon points="1082,903 1071,963 956,866 960,856 976,838 1022,876 1014,834" fill="rgb(66.1923%, 80.2827%, 78.4734%)" fill-rule="evenodd" fill-opacity="0.262358"/>
		<polygon points="832,1052 793,1032 747,1004 742,1014 793,1055 817,1086 744,1131 769,1151 764,1138 775,1135 849,1221 810,1133 849,1125 856,1044" fill="rgb(67.7033%, 72.843%, 77.1334%)" fill-rule="evenodd" fill-opacity="0.233411"/>
		<polygon points="889,1075 928,1103 962,1148 951,1156 865,1131 872,1159 856,1162 858,1188 853,1233 781,1179 816,1213 616,1004 595,1025 616,1033 641,991 711,993" fill="rgb(71.9738%, 71.197%, 71.7897%)" fill-rule="evenodd" fill-opacity="0.337252"/>
		<polygon points="966,1113 975,1077 952,1044 948,1004 911,1082 761,1010 658,990 590,1013 602,1021 664,1052 743,1133 845,1270 878,1324 911,1233 967,1180" fill="rgb(68.5048%, 73.4669%, 85.3163%)" fill-rule="evenodd" fill-opacity="0.264801"/>
		<polygon points="974,1072 1001,1087 1016,1098 1082,1132 1071,1190 983,1162 991,1189 964,1199 966,1121" fill="rgb(38.1391%, 35.098%, 52.9307%)" fill-rule="evenodd" fill-opacity="0.140749"/>
		<polygon points="931,1219 960,1216 995,1192 989,1190 971,1166" fill="rgb(53.6728%, 56.3137%, 71.1787%)" fill-rule="evenodd" fill-opacity="0.100000"/>
		<polygon points="753,1026 735,1019 761,1100 673,1042 631,1025 741,1140 808,1224 868,1268 882,1216 883,1159 901,1164 961,1155 830,1108 789,1060" fill="rgb(37.3279%, 37.4407%, 30.6647%)" fill-rule="evenodd" fill-opacity="0.362459"/>
		<polygon points="947,1005 929,1044 901,1023 864,986 814,972 796,957 925,886" fill="rgb(74.3622%, 81.0288%, 90.9238%)" fill-rule="evenodd" fill-opacity="0.330602"/>
		<polygon points="1078,961 1078,893 1043,854 995,814 927,891 978,928 1012,971 1073,1012" fill="rgb(53.0305%, 68.7792%, 71.6596%)" fill-rule="evenodd" fill-opacity="0.221144"/>
		<polygon points="911,1233 951,1197 961,1181 941,1182 928,1154 954,1151 978,1073 1082,1136 1081,1493 978,1472 985,1532 877,1327" fill="rgb(63.3198%, 68.7996%, 77.7684%)" fill-rule="evenodd" fill-opacity="0.163097"/>
		<polygon points="819,976 801,951 943,870 975,836 995,791 1025,846 1033,850 1079,902 1075,1074 1047,1074 1036,1062 1043,1029 990,1008 955,999 947,1001 932,926 888,931 869,943 948,1081 944,1071 932,1073 878,999" fill="rgb(41.4898%, 42.2066%, 45.0452%)" fill-rule="evenodd" fill-opacity="0.247991"/>
		<polygon points="1010,829 993,799 979,791 975,837 991,849 1068,922 1080,903 1075,891" fill="rgb(69.5914%, 79.6926%, 81.6445%)" fill-rule="evenodd" fill-opacity="0.411378"/>
		<polygon points="925,886 973,831 971,791 992,791 1010,825 1082,899 1082,1106 1075,1132 965,1066 958,1042 955,1052" fill="rgb(59.0661%, 62.7309%, 73.1941%)" fill-rule="evenodd" fill-opacity="0.338599"/>
		<polygon points="1013,806 999,807 996,795 975,798 990,830" fill="rgb(94.5122%, 97.0202%, 92.1257%)" fill-rule="evenodd" fill-opacity="0.163730"/>
	</g>
	<g id="G6">
		<polygon points="410,545 303,521 252,564 188,531 200,460 162,473 125,494 157,429 70,502 0,548 40,455 132,340 180,299 210,354 258,513 253,423 435,437 447,413 416,359 511,444" fill="rgb(29.9185%, 45.7176%, 88.0044%)" fill-rule="evenodd" fill-opacity="0.330907"/>
		<polygon points="354,852 344,844 343,806 350,774 263,759 232,816 145,786 146,734 239,681 264,638 270,594 147,560 177,475 163,462 256,408 420,435 479,396 560,558 531,687 456,907 437,918 385,921 374,952 344,958 300,933" fill="rgb(100%, 50.0313%, 27.0853%)" fill-rule="evenodd" fill-opacity="0.565804"/>
		<polygon points="238,904 275,934 398,881 350,848 417,807 452,753 510,801 491,702 546,715 449,658 445,683 370,694 288,582 286,549 326,543 386,564 428,559 435,561 418,442 327,417 167,471 115,498 99,428 179,311 106,372 0,526 0,609 50,750 93,831" fill="rgb(97.1319%, 78.4815%, 69.0179%)" fill-rule="evenodd" fill-opacity="0.496758"/>
		<polygon points="26,730 99,711 141,685 268,675 283,587 352,577 316,608 356,668 475,663 516,758 430,986 420,1064 325,995 238,961 139,869" fill="rgb(91.2644%, 69.981%, 54.8445%)" fill-rule="evenodd" fill-opacity="0.346057"/>
		<polygon points="485,505 444,541 452,572 261,555 196,525 215,476 265,433 343,422 472,465 500,512" fill="rgb(100%, 100%, 45.2978%)" fill-rule="evenodd" fill-opacity="0.550776"/>
		<polygon points="275,404 404,425 474,521 461,596 430,562 134,581 94,402 127,347 132,344 278,432 277,295 176,300 197,335 230,346 279,352" fill="rgb(99.9113%, 85.9539%, 62.9982%)" fill-rule="evenodd" fill-opacity="0.354488"/>
		<polygon points="519,488 561,541 561,578 541,618 545,653 536,688 486,819 359,806 287,708 298,686 282,642 287,565 219,545 225,400 129,344 176,314 213,295 249,295 296,324 348,320 375,324 480,407 507,436" fill="rgb(100%, 97.2428%, 89.2955%)" fill-rule="evenodd" fill-opacity="0.490615"/>
		<polygon points="474,893 463,889 437,852 361,934 343,944 314,903 290,988 361,1030 422,980 437,980" fill="rgb(0.699701%, 11.3965%, 19.2296%)" fill-rule="evenodd" fill-opacity="0.304435"/>
		<polygon points="283,929 223,885 314,877 347,870 336,977 244,926 381,750 349,764 296,758 217,803 169,876" fill="rgb(53.4959%, 30.5506%, 24.2072%)" fill-rule="evenodd" fill-opacity="0.469963"/>
		<polygon points="476,535 423,432 459,411 490,501 526,583 547,539 564,642 526,656 524,778 480,653" fill="rgb(0.681899%, 0%, 8.95043%)" fill-rule="evenodd" fill-opacity="0.326233"/>
		<polygon points="381,939 418,919 407,921 264,924 264,949 342,959 342,951 359,958 355,942 397,965" fill="rgb(71.3125%, 61.3606%, 55.6155%)" fill-rule="evenodd" fill-opacity="0.180735"/>
		<polygon points="419,665 409,695 356,680 280,586 416,571 394,636 382,612 393,624 429,652 440,653" fill="rgb(22.3784%, 0%, 0%)" fill-rule="evenodd" fill-opacity="0.345807"/>
		<polygon points="278,647 284,736 245,773 230,760 239,711 140,693 154,742 191,813 184,831 106,800 85,686 104,684 137,670 147,725 189,814 265,815 240,768 391,777 437,860 494,747 478,706 295,642" fill="rgb(100%, 87.9883%, 65.6063%)" fill-rule="evenodd" fill-opacity="0.328595"/>
		<polygon points="258,824 265,727 232,715 244,803 198,797 179,779 160,803 126,829" fill="rgb(77.0105%, 44.5544%, 34.4419%)" fill-rule="evenodd" fill-opacity="0.268892"/>
		<polygon points="436,425 442,400 430,362 453,375 516,427 486,479" fill="rgb(50.0974%, 61.2955%, 71.1701%)" fill-rule="evenodd" fill-opacity="0.179251"/>
		<polygon points="139,490 161,403 86,441 15,505 9,572 40,656 62,713" fill="rgb(2.73473%, 27.6183%, 60.9024%)" fill-rule="evenodd" fill-opacity="0.175775"/>
		<polygon points="564,589 564,586 552,591 533,617 498,541 457,521 434,437 429,395 414,346 451,387 481,431 548,513 564,544" fill="rgb(62.345%, 57.6605%, 55.2243%)" fill-rule="evenodd" fill-opacity="0.465826"/>
		<polygon points="228,405 282,432 284,489 251,505 253,539 229,554 217,539" fill="rgb(100%, 36.3404%, 10.8027%)" fill-rule="evenodd" fill-opacity="0.161277"/>
		<polygon points="224,422 212,383 263,415 227,445" fill="rgb(3.13554%, 14.5901%, 33.4661%)" fill-rule="evenodd" fill-opacity="0.230195"/>
		<polygon points="80,397 119,413 95,444 74,479 43,466 44,454" fill="rgb(74.1063%, 82.91%, 76.3627%)" fill-rule="evenodd" fill-opacity="0.153168"/>
		<polygon points="389,353 459,427 300,396 252,399 241,373 190,360 188,306 225,295 292,346 378,356" fill="rgb(20.8252%, 25.6285%, 70.9753%)" fill-rule="evenodd" fill-opacity="0.191875"/>
		<polygon points="114,812 100,827 102,767 113,794 135,832 182,863 174,909 101,836" fill="rgb(18.8013%, 30.8554%, 42.1096%)" fill-rule="evenodd" fill-opacity="0.258705"/>
		<polygon points="28,688 24,693 37,753 62,773 93,766 88,739 112,691 87,615 85,587 62,541 0,584 0,626" fill="rgb(8.13102%, 32.0106%, 53.131%)" fill-rule="evenodd" fill-opacity="0.185478"/>
		<polygon points="116,657 114,589 98,548 64,699" fill="rgb(17.4043%, 20.0842%, 26.0651%)" fill-rule="evenodd" fill-opacity="0.425970"/>
		<polygon points="423,818 489,792 501,814 495,824 476,833 484,818" fill="rgb(0%, 0.336723%, 16.0374%)" fill-rule="evenodd" fill-opacity="0.185453"/>
		<polygon points="489,544 473,515 451,458 442,537 455,551 455,545 474,640" fill="rgb(85.3125%, 60.1871%, 41.0253%)" fill-rule="evenodd" fill-opacity="0.333129"/>
		<polygon points="479,809 402,824 408,808 369,808 360,815 326,860 340,772 342,703 377,720 472,796" fill="rgb(100%, 53.0167%, 23.8483%)" fill-rule="evenodd" fill-opacity="0.207054"/>
		<polygon points="291,339 338,341 329,335" fill="rgb(92.1926%, 76.1941%, 82.4923%)" fill-rule="evenodd" fill-opacity="0.126526"/>
	</g>
</svg>