<?xml version="1.0" encoding="UTF-8" standalone="no"?>
<svg xmlns:svg="http://www.w3.org/2000/svg" xmlns="http://www.w3.org/2000/svg" width="1082" height="1917">
	<rect width = "1082" height="1917" fill="rgb(0%, 0%, 0%)"/>
	<g id="G0">
		<polygon points="185,558 193,561 206,560 203,551 261,567 352,568 458,557 464,513 454,485 403,429 379,418 389,427 357,425 326,413 290,413 250,415 222,420 187,431 159,455 128,497 122,510 109,569 111,604 148,565" fill="rgb(99.2557%, 71.3219%, 61.1065%)" fill-rule="evenodd" fill-opacity="0.564650"/>
		<polygon points="285,575 411,567 406,569 416,553 475,582 473,545 454,497 430,448 404,435 329,422 295,425 277,428 228,441 219,433 179,456 152,489 123,565" fill="rgb(100%, 68.5475%, 47.5025%)" fill-rule="evenodd" fill-opacity="0.596730"/>
		<polygon points="193,570 148,563 128,581 114,592 125,565 148,543 152,551 162,544 176,493 199,455 242,422 282,410 358,411 433,446 457,500 480,557 486,624 438,562 245,577" fill="rgb(100%, 84.2407%, 64.8491%)" fill-rule="evenodd" fill-opacity="0.593462"/>
		<polygon points="262,419 183,469 173,485 130,518 115,518 117,508 162,436 170,431 162,434 164,429 170,424 260,410 345,410 325,417" fill="rgb(35.6082%, 37.1363%, 46.9243%)" fill-rule="evenodd" fill-opacity="0.444634"/>
		<polygon points="267,477 266,473 306,496 269,500 222,509 228,519 234,520 240,524 242,554 258,557 435,561 457,584 471,586 429,529 427,510 424,499 399,438 326,424 286,428" fill="rgb(100%, 97.7254%, 72.8351%)" fill-rule="evenodd" fill-opacity="0.583083"/>
		<polygon points="269,473 306,496 354,493 330,458 345,443 378,439 423,456 414,494 417,518 430,549 423,567 304,509 259,528 252,506 222,507 225,513 245,527 277,526 315,550 249,551 232,547 222,547 202,517 213,499 231,459 289,420" fill="rgb(100%, 100%, 79.1146%)" fill-rule="evenodd" fill-opacity="0.275528"/>
		<polygon points="262,576 257,570 237,564 218,575 237,576 234,570 241,580" fill="rgb(67.1632%, 51.5708%, 41.2714%)" fill-rule="evenodd" fill-opacity="0.290508"/>
		<polygon points="114,519 129,490 147,464 153,459 154,468 197,431 184,428 157,446 151,460 154,483 159,507 143,571 114,603 108,601 107,575 107,552" fill="rgb(30.1498%, 28.9512%, 34.5226%)" fill-rule="evenodd" fill-opacity="0.477067"/>
		<polygon points="309,419 281,424 274,421 207,465 187,523 209,535 217,554 220,576 207,562 184,557 115,577 116,549 107,567 107,559 115,526 122,492 168,426 277,410" fill="rgb(67.45%, 54.7861%, 45.9309%)" fill-rule="evenodd" fill-opacity="0.515783"/>
		<polygon points="459,581 468,572 466,515 487,572 485,595 483,658 499,684 487,686 469,661 462,599" fill="rgb(73.6001%, 49.9233%, 43.4089%)" fill-rule="evenodd" fill-opacity="0.389084"/>
		<polygon points="127,514 142,493 229,427 234,431 275,432 234,477 242,499 253,504 289,501 269,497 248,484 211,516 213,521 253,549 266,564 277,564 270,551 292,550 301,558 307,570 246,572 280,577 219,577 140,566 130,587 131,579" fill="rgb(96.1818%, 66.8804%, 49.1533%)" fill-rule="evenodd" fill-opacity="0.233519"/>
		<polygon points="164,429 242,412 244,417 228,427 197,437 146,477 117,503 120,494" fill="rgb(29.1409%, 31.6555%, 40.9586%)" fill-rule="evenodd" fill-opacity="0.285910"/>
		<polygon points="169,521 171,524 174,535 202,541 214,556 159,547" fill="rgb(66.2085%, 48.5804%, 30.5644%)" fill-rule="evenodd" fill-opacity="0.221470"/>
		<polygon points="462,571 473,578 475,610 488,626 488,672 499,686 491,690 471,659" fill="rgb(99.6618%, 74.3171%, 56.1673%)" fill-rule="evenodd" fill-opacity="0.599905"/>
		<polygon points="256,410 220,455 285,434 263,442 310,428 374,432 341,413 347,410 322,413 277,411 256,413" fill="rgb(85.2649%, 70.1811%, 61.526%)" fill-rule="evenodd" fill-opacity="0.298381"/>
		<polygon points="457,503 463,515 466,499" fill="rgb(28.0776%, 21.4388%, 15.2746%)" fill-rule="evenodd" fill-opacity="0.328494"/>
		<polygon points="114,595 127,585 134,574 137,576 123,585 112,557" fill="rgb(61.3967%, 59.4578%, 50.7914%)" fill-rule="evenodd" fill-opacity="0.208282"/>
		<polygon points="481,591 483,604 484,633 487,617" fill="rgb(0%, 0%, 3.27911%)" fill-rule="evenodd" fill-opacity="0.375778"/>
		<polygon points="449,582 452,578 439,560 431,559 441,571 438,571 457,585" fill="rgb(40.4573%, 49.9261%, 24.7837%)" fill-rule="evenodd" fill-opacity="0.310516"/>
		<polygon points="499,690 485,689 490,679 485,673 480,622 481,619 489,629 491,664" fill="rgb(31.5713%, 25.4558%, 35.8328%)" fill-rule="evenodd" fill-opacity="0.205025"/>
		<polygon points="160,533 169,505 176,510 181,495 178,475 155,476 152,485 157,495" fill="rgb(53.1752%, 54.2861%, 51.3209%)" fill-rule="evenodd" fill-opacity="0.103574"/>
		<polygon points="356,561 373,559 389,550 398,541 375,534 329,539 346,522 344,519 332,513 293,442 325,434 414,441 409,432 445,467 448,477 439,559 354,570" fill="rgb(100%, 100%, 83.3216%)" fill-rule="evenodd" fill-opacity="0.417780"/>
		<polygon points="254,437 283,422 274,422 266,425 250,437 247,435 237,433 248,410 254,410 252,434" fill="rgb(79.4058%, 50.2845%, 42.6924%)" fill-rule="evenodd" fill-opacity="0.109875"/>
	</g>
	<g id="G1">
		<polygon points="539,582 550,651 544,664 533,710 503,687 516,654 534,617 526,593 487,489 494,468 491,487 482,406 563,549 564,584" fill="rgb(99.5858%, 90.4601%, 82.7125%)" fill-rule="evenodd" fill-opacity="0.448102"/>
		<polygon points="491,684 538,714 550,593 567,578 558,549 502,428 411,343 345,324 306,333 342,336 365,341 415,362 506,461 435,443 482,564" fill="rgb(86.3401%, 70.5608%, 57.7818%)" fill-rule="evenodd" fill-opacity="0.473139"/>
		<polygon points="0,524 2,642 42,647 31,576 51,525 68,489 72,548 84,495 104,561 115,517 105,514 101,504 130,364 79,418" fill="rgb(61.0266%, 54.1171%, 55.4865%)" fill-rule="evenodd" fill-opacity="0.354504"/>
		<polygon points="0,527 114,373 155,335 166,343 61,478 108,435 82,500 85,487 109,589 109,648 81,706 32,713 0,604" fill="rgb(73.2532%, 69.74%, 74.18%)" fill-rule="evenodd" fill-opacity="0.364696"/>
		<polygon points="362,328 296,334 245,294 294,287 231,288 142,339 0,528 53,479 68,480 94,447 113,430 196,420 268,410 343,407 428,442 504,460 524,457 432,358" fill="rgb(80.626%, 80.4348%, 87.0759%)" fill-rule="evenodd" fill-opacity="0.540328"/>
		<polygon points="2,519 41,468 111,410 152,336 160,331 160,322 166,351 181,381 135,395 121,418 80,429 166,427 125,494 83,632 86,652 55,712 68,783 53,762 39,751 17,643 0,620" fill="rgb(49.8045%, 49.8841%, 60.7676%)" fill-rule="evenodd" fill-opacity="0.328802"/>
		<polygon points="441,373 419,350 354,320 289,331 305,351 375,351 404,363 405,365 481,551 532,613 568,584 562,543 510,458 511,455 521,452 494,423 464,386" fill="rgb(88.4979%, 82.0732%, 76.7387%)" fill-rule="evenodd" fill-opacity="0.400444"/>
		<polygon points="240,287 232,287 205,305 130,348 173,368 227,393 243,393 240,389 246,375 186,341 200,338 237,352 251,360 272,348 304,344" fill="rgb(78.2594%, 78.4251%, 79.3166%)" fill-rule="evenodd" fill-opacity="0.473117"/>
		<polygon points="536,513 522,534 527,541 538,569 524,602 535,609 526,621 555,569 552,525 548,524 519,529 487,467" fill="rgb(17.1638%, 10.8283%, 28.7168%)" fill-rule="evenodd" fill-opacity="0.157561"/>
		<polygon points="410,376 401,359 420,373 467,437 462,452 373,415 428,449 448,479 451,459 428,423" fill="rgb(35.3097%, 35.0002%, 37.8728%)" fill-rule="evenodd" fill-opacity="0.384792"/>
		<polygon points="181,410 141,402 118,423 148,429 280,411 256,425 288,405 276,410 290,407 312,409" fill="rgb(21.6524%, 19.2711%, 23.3106%)" fill-rule="evenodd" fill-opacity="0.415440"/>
		<polygon points="533,624 532,639 527,660 511,651 510,660 505,686 527,709 496,685 518,704 517,672 523,626" fill="rgb(42.4938%, 19.5423%, 0%)" fill-rule="evenodd" fill-opacity="0.264352"/>
		<polygon points="339,358 287,365 222,356 248,330 388,332 433,354 379,339 415,361 450,396 431,396 419,381 412,385" fill="rgb(53.7443%, 56.0891%, 67.0093%)" fill-rule="evenodd" fill-opacity="0.265071"/>
		<polygon points="506,535 466,525 484,574 504,590 520,637 494,671 504,693 515,651 520,684 525,661 536,638 535,583 538,610 555,598 550,554" fill="rgb(51.1692%, 38.504%, 34.8451%)" fill-rule="evenodd" fill-opacity="0.376110"/>
		<polygon points="144,457 125,488 109,535 108,538 90,539 79,581 0,592 0,540 15,517 13,503 122,361 198,325 242,345 267,339 378,347 357,357 372,367 255,378 233,397 216,391 207,383" fill="rgb(44.6929%, 44.8419%, 48.9356%)" fill-rule="evenodd" fill-opacity="0.494619"/>
		<polygon points="534,717 552,640 544,624 551,551 547,585 539,620 487,560 483,653 507,697" fill="rgb(56.0547%, 56.4724%, 79.1884%)" fill-rule="evenodd" fill-opacity="0.162651"/>
		<polygon points="50,678 51,712 67,747 69,778 44,754 33,735 35,717 26,687 18,644 37,648" fill="rgb(67.9259%, 69.5039%, 69.3991%)" fill-rule="evenodd" fill-opacity="0.269581"/>
		<polygon points="284,409 318,407 289,371 264,389 259,415 277,364 276,361 290,356 381,381 369,403 342,403 366,421 365,420 380,415" fill="rgb(33.1103%, 32.7112%, 41.9006%)" fill-rule="evenodd" fill-opacity="0.302369"/>
		<polygon points="63,751 58,763 64,764 35,744 42,709 34,723 32,689 29,672" fill="rgb(82.6461%, 86.771%, 95.608%)" fill-rule="evenodd" fill-opacity="0.192787"/>
		<polygon points="83,687 86,672 91,688 84,708 57,703 75,676 80,661 82,660" fill="rgb(48.2033%, 48.0117%, 61.0418%)" fill-rule="evenodd" fill-opacity="0.177304"/>
		<polygon points="144,334 159,328 202,298 164,323 204,300 215,298 201,305 165,331 128,346" fill="rgb(47.7216%, 51.5642%, 5.38649%)" fill-rule="evenodd" fill-opacity="0.174027"/>
	</g>
	<g id="G2">
		<polygon points="276,611 305,600 341,657 345,657 364,674 395,684 396,672 407,670 413,665 461,661 479,670 487,684 489,709 497,718 483,782 443,805 423,811 319,771 313,755 277,758 288,740" fill="rgb(99.4441%, 46.5386%, 33.5557%)" fill-rule="evenodd" fill-opacity="0.528602"/>
		<polygon points="397,565 440,566 374,577 276,610 269,597 246,580 251,576 256,576" fill="rgb(83.2749%, 62.6908%, 42.4121%)" fill-rule="evenodd" fill-opacity="0.467124"/>
		<polygon points="266,633 248,663 195,673 132,675 87,687 90,726 118,799 169,834 185,869 200,881 198,838 266,813 331,764 420,807 484,761 496,713 476,676 365,693 304,615 282,615 265,620" fill="rgb(100%, 66.22%, 51.5311%)" fill-rule="evenodd" fill-opacity="0.600000"/>
		<polygon points="446,800 428,849 413,831 355,807 353,795 394,733 380,717 357,729 353,730 345,743 349,764 312,744 282,624 313,619 313,644 373,697 434,687 465,649 467,630 422,604 423,608 439,637 437,645 432,647 442,649 393,631 421,611 445,573 492,720 487,751 480,781" fill="rgb(100%, 100%, 64.7635%)" fill-rule="evenodd" fill-opacity="0.600000"/>
		<polygon points="315,740 361,769 347,734 342,723 349,705 365,708 389,743 414,774 376,785 357,776 341,798 375,816 451,746 425,724 460,710 477,768 474,781 484,775 493,690 469,667 431,667 429,690 398,699 393,702 359,684 342,666 295,610 296,663 306,690 305,725" fill="rgb(100%, 100%, 84.6081%)" fill-rule="evenodd" fill-opacity="0.600000"/>
		<polygon points="472,660 418,686 422,663 447,657 383,630 401,602 439,574 428,571 421,565 417,567 408,568 400,565 439,565 461,589" fill="rgb(71.7412%, 43.9096%, 31.4456%)" fill-rule="evenodd" fill-opacity="0.600000"/>
		<polygon points="466,652 495,701 488,759 420,835 430,826 390,798 398,825 371,819 348,803 284,801 313,775 258,771 306,763 282,640 287,576 301,574 438,565 464,593" fill="rgb(99.849%, 76.2696%, 59.9151%)" fill-rule="evenodd" fill-opacity="0.572681"/>
		<polygon points="115,802 128,810 180,844 200,805 250,810 252,772 421,741 496,710 364,683 346,673 348,676 286,605 284,577 241,577 188,571 147,565 111,604 97,749" fill="rgb(100%, 88.3209%, 70.42%)" fill-rule="evenodd" fill-opacity="0.517942"/>
		<polygon points="121,792 131,793 152,811 245,794 242,783 257,765 243,769 271,764 350,768 360,777 345,805 282,777 261,778 257,793 269,802 234,822 227,825 184,849 110,800" fill="rgb(66.6357%, 46.344%, 35.66%)" fill-rule="evenodd" fill-opacity="0.405856"/>
		<polygon points="177,616 163,593 150,589 212,586 254,596 274,625 270,651 225,693 167,700 131,687 103,715 82,701 89,682 203,635" fill="rgb(29.0939%, 19.4664%, 22.2436%)" fill-rule="evenodd" fill-opacity="0.439708"/>
		<polygon points="447,780 451,775 425,785 416,808 393,784 383,788 359,815 417,835 417,846 422,859 425,859 452,790" fill="rgb(100%, 57.997%, 38.7751%)" fill-rule="evenodd" fill-opacity="0.307997"/>
		<polygon points="227,735 231,755 242,772 247,773 234,775 248,774 271,734 262,727 261,729 239,726" fill="rgb(57.147%, 17.3272%, 13.1194%)" fill-rule="evenodd" fill-opacity="0.280955"/>
		<polygon points="277,732 274,636 133,678 120,692 97,717 121,730 132,742 149,753 189,718 219,708 229,696 252,676 260,670 248,718 214,720 224,721" fill="rgb(64.1721%, 36.1052%, 25.2485%)" fill-rule="evenodd" fill-opacity="0.193212"/>
		<polygon points="268,808 246,786 239,699 105,716 193,819 186,833 192,832 211,821 233,823 249,816 245,820" fill="rgb(100%, 74.9531%, 55.0254%)" fill-rule="evenodd" fill-opacity="0.299305"/>
		<polygon points="441,565 398,565 365,570 408,584 453,603 454,603 461,621 462,594 466,594" fill="rgb(86.4332%, 77.0971%, 62.3858%)" fill-rule="evenodd" fill-opacity="0.323744"/>
		<polygon points="208,640 193,633 204,622 215,609 189,605 182,599 115,619 127,628 154,658" fill="rgb(95.9434%, 48.265%, 49.5925%)" fill-rule="evenodd" fill-opacity="0.162909"/>
		<polygon points="280,704 274,665 296,632 264,650 290,641 290,653 301,683 305,692 290,699" fill="rgb(95.1418%, 43.2307%, 46.6643%)" fill-rule="evenodd" fill-opacity="0.100000"/>
		<polygon points="443,741 440,753 463,752 476,749 473,740 469,730 447,738" fill="rgb(98.4485%, 64.6677%, 47.9053%)" fill-rule="evenodd" fill-opacity="0.125029"/>
		<polygon points="83,706 90,686 106,656 100,707 125,695 130,684 115,697 113,733 91,751 95,749 95,746" fill="rgb(72.3529%, 62.549%, 61.1936%)" fill-rule="evenodd" fill-opacity="0.518813"/>
		<polygon points="403,660 415,649 388,638 353,640 357,648 345,656 368,638 378,663 394,667" fill="rgb(0%, 4.41909%, 14.1973%)" fill-rule="evenodd" fill-opacity="0.307420"/>
		<polygon points="111,799 147,819 192,798 172,798 147,794 135,702 163,704 194,701 148,685 134,667 93,675 103,671 89,682 82,708" fill="rgb(65.7551%, 56.7185%, 47.4324%)" fill-rule="evenodd" fill-opacity="0.338214"/>
		<polygon points="169,660 176,665 177,675 208,666 205,648 202,648 183,648 165,653" fill="rgb(17.7726%, 10.0409%, 19.2239%)" fill-rule="evenodd" fill-opacity="0.289677"/>
		<polygon points="426,567 394,572 382,567 380,573 399,569 410,565" fill="rgb(97.0518%, 77.9434%, 59.8377%)" fill-rule="evenodd" fill-opacity="0.313729"/>
		<polygon points="252,676 268,696 242,734 296,763 334,773 277,712 266,723 232,730 166,700" fill="rgb(85.4743%, 56.0566%, 47.4245%)" fill-rule="evenodd" fill-opacity="0.221441"/>
		<polygon points="482,676 493,681 495,705" fill="rgb(22.5307%, 20.8032%, 16.5251%)" fill-rule="evenodd" fill-opacity="0.453211"/>
		<polygon points="430,690 416,682 441,671 461,642 472,646 461,667 471,662 480,662 474,678" fill="rgb(100%, 68.0611%, 40.899%)" fill-rule="evenodd" fill-opacity="0.154441"/>
		<polygon points="393,625 394,637 370,646 379,618 357,608 419,585 440,578" fill="rgb(72.17%, 48.5863%, 42.6205%)" fill-rule="evenodd" fill-opacity="0.260337"/>
		<polygon points="123,612 215,600 153,565 144,565 111,601 106,619 109,653 143,612" fill="rgb(33.07%, 25.4985%, 35.0811%)" fill-rule="evenodd" fill-opacity="0.290443"/>
		<polygon points="166,565 167,565 195,574 191,581 165,582 148,565" fill="rgb(76.8164%, 58.7555%, 40.7958%)" fill-rule="evenodd" fill-opacity="0.217631"/>
		<polygon points="279,775 284,770 284,775 298,783 298,778 320,780 331,775" fill="rgb(99.638%, 38.0221%, 78.7195%)" fill-rule="evenodd" fill-opacity="0.100000"/>
		<polygon points="322,583 291,597 289,592 263,593 255,594 258,626 274,626 284,607 286,612 377,575" fill="rgb(59.8912%, 41.1846%, 30.6236%)" fill-rule="evenodd" fill-opacity="0.227736"/>
		<polygon points="162,828 185,824 217,808 240,826 214,833 208,834 183,842 177,843 175,856 170,834 168,832 158,840" fill="rgb(49.6635%, 41.8463%, 30.2807%)" fill-rule="evenodd" fill-opacity="0.204209"/>
		<polygon points="140,570 137,574 175,578 180,582 232,583 197,566" fill="rgb(99.9639%, 69.7592%, 57.7345%)" fill-rule="evenodd" fill-opacity="0.245870"/>
		<polygon points="228,574 298,572 287,574 301,609 267,676 243,688 242,613 232,620 227,627 230,636" fill="rgb(74.9976%, 48.4757%, 38.2197%)" fill-rule="evenodd" fill-opacity="0.227694"/>
		<polygon points="281,809 303,802 306,803 352,806 348,798 360,784 348,771 319,780 261,814" fill="rgb(65.8179%, 21.0787%, 24.4123%)" fill-rule="evenodd" fill-opacity="0.235429"/>
		<polygon points="353,750 361,754 378,747 366,721 375,720 352,718 350,726 345,729 354,755" fill="rgb(100%, 25.3898%, 8.74498%)" fill-rule="evenodd" fill-opacity="0.198598"/>
		<polygon points="192,875 192,879 204,881 203,872 186,838 175,822 178,854 178,868" fill="rgb(69.3891%, 59.441%, 40.623%)" fill-rule="evenodd" fill-opacity="0.317860"/>
		<polygon points="208,647 211,658 205,671 180,670 171,653 182,653 184,646" fill="rgb(4.58799%, 14.7015%, 17.7486%)" fill-rule="evenodd" fill-opacity="0.276042"/>
		<polygon points="425,857 412,827 431,829" fill="rgb(84.5611%, 41.4923%, 42.8306%)" fill-rule="evenodd" fill-opacity="0.269846"/>
		<polygon points="331,602 341,603 330,623 346,653 343,660 344,665 359,656 357,662 357,654 375,638 375,647 386,649 370,622 404,587 429,585 455,581 395,576 336,598" fill="rgb(44.2991%, 20.7488%, 26.5627%)" fill-rule="evenodd" fill-opacity="0.240712"/>
		<polygon points="389,671 400,670 411,681" fill="rgb(33.7585%, 22.1217%, 71.5398%)" fill-rule="evenodd" fill-opacity="0.151533"/>
	</g>
	<g id="G3">
		<polygon points="924,884 980,831 973,794 874,679 809,639 816,673 787,693 785,692 716,700 695,695 693,684 707,683 758,645 805,642 862,763 857,790 860,807 837,838 740,929 784,952 805,951" fill="rgb(100%, 83.2012%, 70.8331%)" fill-rule="evenodd" fill-opacity="0.600000"/>
		<polygon points="854,871 850,866 961,837 956,841 978,804 873,679 804,637 749,653 727,658 683,702 706,720 719,717 767,697 812,686 855,725 856,746 880,824 874,823 835,861" fill="rgb(100%, 100%, 84.997%)" fill-rule="evenodd" fill-opacity="0.600000"/>
		<polygon points="589,634 603,605 596,607 563,609 551,618 548,627" fill="rgb(100%, 55.3759%, 36.2876%)" fill-rule="evenodd" fill-opacity="0.570454"/>
		<polygon points="952,766 981,812 954,850 942,848 891,813 873,760 823,689 779,686 722,705 700,701 686,693 701,679 769,643 812,640 867,670" fill="rgb(100%, 100%, 100%)" fill-rule="evenodd" fill-opacity="0.600000"/>
		<polygon points="910,794 913,794 933,817 911,856 816,891 845,829 862,778 856,769 871,746 855,693 835,676 804,679" fill="rgb(100%, 68.8638%, 41.5328%)" fill-rule="evenodd" fill-opacity="0.359703"/>
		<polygon points="794,876 758,883 747,875 743,882 665,900 579,925 572,944 592,949 588,950 665,946 668,956 705,958 736,946 776,949 745,930" fill="rgb(77.4788%, 73.2983%, 72.0546%)" fill-rule="evenodd" fill-opacity="0.299586"/>
		<polygon points="708,957 773,947 734,925 770,921 798,919 756,914 791,883 726,902 711,891 724,883 736,870 709,875 686,884 645,904 557,914 535,853 516,811 496,895 522,896 552,904 577,950" fill="rgb(76.6641%, 65.2827%, 66.9204%)" fill-rule="evenodd" fill-opacity="0.274688"/>
		<polygon points="718,873 766,878 828,860 838,826 842,827 867,746 854,748 856,765 910,811 972,841 944,856 929,852 915,868 886,870 805,924 771,913" fill="rgb(77.3326%, 53.4173%, 44.8427%)" fill-rule="evenodd" fill-opacity="0.594673"/>
		<polygon points="695,855 692,849 674,866 677,861 675,873 659,891 628,918 572,898 535,862 523,838 525,790 512,838 495,905 523,916 547,921 585,953 589,954 784,949 742,931 741,927 764,907" fill="rgb(86.8157%, 67.281%, 56.2901%)" fill-rule="evenodd" fill-opacity="0.402323"/>
		<polygon points="801,955 843,934 850,926 868,917 837,919 821,931 795,940 782,954 738,956 728,949 788,946 785,955" fill="rgb(33.3052%, 32.1822%, 35.8005%)" fill-rule="evenodd" fill-opacity="0.350074"/>
		<polygon points="669,565 607,576 604,553 643,550 678,573" fill="rgb(100%, 98.2916%, 89.3447%)" fill-rule="evenodd" fill-opacity="0.594804"/>
		<polygon points="600,904 605,906 647,958 633,934 631,920 637,910 630,914 650,914 639,900" fill="rgb(57.3643%, 46.1118%, 39.4986%)" fill-rule="evenodd" fill-opacity="0.233132"/>
		<polygon points="612,727 583,688 563,707 558,740" fill="rgb(93.8113%, 69.5782%, 58.6447%)" fill-rule="evenodd" fill-opacity="0.600000"/>
		<polygon points="508,875 517,808 527,801 529,851 555,891 587,915 495,910" fill="rgb(93.27%, 78.0268%, 64.5281%)" fill-rule="evenodd" fill-opacity="0.327229"/>
		<polygon points="754,899 743,886 685,843 676,880 673,886 649,900 609,908 554,888 531,845 520,843 545,873 544,872 521,877 507,887 573,939 634,943 794,920 786,922" fill="rgb(77.7432%, 47.2491%, 38.2249%)" fill-rule="evenodd" fill-opacity="0.372278"/>
		<polygon points="594,619 589,627 589,638 583,651 555,640 552,626 564,606 600,602" fill="rgb(100%, 86.879%, 82.6082%)" fill-rule="evenodd" fill-opacity="0.600000"/>
		<polygon points="573,655 550,638 554,618 591,618 588,652 572,652" fill="rgb(83.0534%, 42.5804%, 38.2966%)" fill-rule="evenodd" fill-opacity="0.399273"/>
		<polygon points="725,660 748,659 761,646 776,641 774,647 809,634 766,642 742,651" fill="rgb(79.0804%, 58.6951%, 34.6478%)" fill-rule="evenodd" fill-opacity="0.252518"/>
		<polygon points="605,584 620,583 630,577 696,561 664,559 640,550 625,552 600,560 605,590" fill="rgb(100%, 93.3035%, 81.5274%)" fill-rule="evenodd" fill-opacity="0.598267"/>
		<polygon points="604,730 577,750 577,749 562,747 555,742 555,728 562,705 576,690 591,684" fill="rgb(100%, 71.7925%, 62.6706%)" fill-rule="evenodd" fill-opacity="0.600000"/>
		<polygon points="590,711 593,692 587,684 597,685 599,699 594,695 598,700 604,714 618,728 580,748" fill="rgb(59.6934%, 29.6561%, 25.755%)" fill-rule="evenodd" fill-opacity="0.451317"/>
		<polygon points="683,704 685,695 686,699 688,683 717,696 720,697 753,679 806,681 831,683 833,699 809,688 776,699 768,698 721,721 696,720" fill="rgb(100%, 47.9009%, 32.8129%)" fill-rule="evenodd" fill-opacity="0.429347"/>
		<polygon points="612,558 594,568 611,587 622,593 610,590 647,573 627,558" fill="rgb(100%, 46.5494%, 48.4655%)" fill-rule="evenodd" fill-opacity="0.380179"/>
		<polygon points="917,730 877,680 878,676 890,692 958,770" fill="rgb(37.506%, 35.7208%, 36.9369%)" fill-rule="evenodd" fill-opacity="0.348284"/>
		<polygon points="922,875 941,867 949,868 983,824 939,867 946,869 928,885 849,929 907,875" fill="rgb(37.6663%, 32.6372%, 34.1006%)" fill-rule="evenodd" fill-opacity="0.505422"/>
		<polygon points="869,919 870,914 831,929 825,917 839,900 855,850 862,833 893,876" fill="rgb(74.4392%, 45.8962%, 37.5597%)" fill-rule="evenodd" fill-opacity="0.214114"/>
		<polygon points="575,744 551,741 562,752 584,746" fill="rgb(13.688%, 29.3144%, 19.7618%)" fill-rule="evenodd" fill-opacity="0.223490"/>
	</g>
	<g id="G4">
		<polygon points="116,851 89,838 90,840 81,855 84,894 47,892 22,903 22,925 48,958 114,969 110,948 148,944 144,945 147,909 157,893" fill="rgb(98.847%, 99.8694%, 100%)" fill-rule="evenodd" fill-opacity="0.600000"/>
		<polygon points="489,810 484,807 503,806 508,787 526,800 514,827 492,916 472,881" fill="rgb(90.336%, 76.4085%, 65.758%)" fill-rule="evenodd" fill-opacity="0.472820"/>
		<polygon points="63,955 39,947 22,921 26,905 36,892 61,924 74,944 80,907 84,915 113,932 144,926 152,895 303,1001 287,999 208,953 183,987 168,980 141,999 117,989 77,976 54,962" fill="rgb(71.9965%, 74.1831%, 81.7923%)" fill-rule="evenodd" fill-opacity="0.296597"/>
		<polygon points="203,1023 302,1055 377,1084 406,1102 420,1117 440,1131 453,1044 412,1060 387,1041 384,1038 306,997 184,1014" fill="rgb(70.3598%, 67.0959%, 67.4385%)" fill-rule="evenodd" fill-opacity="0.284983"/>
		<polygon points="466,905 473,861 495,805 506,797 509,787 523,794 497,906 530,921 526,924 509,949 497,953 476,984 466,973 458,1042 430,1046 421,1059 428,1024 429,1009" fill="rgb(63.9102%, 57.8976%, 52.7734%)" fill-rule="evenodd" fill-opacity="0.346675"/>
		<polygon points="65,886 88,906 97,918 122,888 123,867 94,843 88,841 94,836 126,856 195,928 234,960 345,1020 361,1028 354,1028 282,1001 183,1014 41,956 22,920 49,955 75,961 52,928 52,925" fill="rgb(45.693%, 44.1775%, 44.8239%)" fill-rule="evenodd" fill-opacity="0.503353"/>
		<polygon points="397,1057 353,1028 368,1031 423,1070 436,1042 460,1049 436,1075 446,1108 430,1131 421,1116 431,1104 428,1104" fill="rgb(69.3087%, 65.0491%, 63.5532%)" fill-rule="evenodd" fill-opacity="0.313857"/>
		<polygon points="527,799 510,787 498,821 519,831 507,831" fill="rgb(100%, 95.4699%, 85.5003%)" fill-rule="evenodd" fill-opacity="0.502647"/>
		<polygon points="336,1032 326,1021 303,1001 259,970 300,994 319,1009 324,1005 342,1012 339,1023 360,1028 358,1033 372,1027 430,1075" fill="rgb(60.7137%, 50.6384%, 43.5571%)" fill-rule="evenodd" fill-opacity="0.165372"/>
		<polygon points="424,1054 445,1038 458,1041 461,1017 448,1016 449,982 446,993 473,878 493,879 501,883 492,904 527,927 451,1071 449,1062 453,1046" fill="rgb(52.8065%, 49.4397%, 50.1141%)" fill-rule="evenodd" fill-opacity="0.394677"/>
		<polygon points="141,1002 206,1024 154,1002 167,1005 195,998 220,982 246,981 266,992 275,997 318,1002 298,991 253,964 224,957 207,954 185,984 180,986 166,980" fill="rgb(73.1414%, 66.2506%, 59.145%)" fill-rule="evenodd" fill-opacity="0.126260"/>
		<polygon points="142,882 136,937 119,926 121,932 109,933 101,924 91,926 105,955 44,958 104,974 134,984 125,964 137,961 163,946 194,937 259,981 286,996 299,999 300,999 212,941 215,938" fill="rgb(45.918%, 45.3182%, 45.5357%)" fill-rule="evenodd" fill-opacity="0.600000"/>
		<polygon points="448,979 432,1047 455,1037 447,1031 467,1026 464,989 467,983 450,973 460,958 445,965 443,956 440,956" fill="rgb(56.0885%, 55.5686%, 49.4393%)" fill-rule="evenodd" fill-opacity="0.199338"/>
		<polygon points="485,822 488,829 479,833" fill="rgb(72.4463%, 63.7958%, 55.4496%)" fill-rule="evenodd" fill-opacity="0.234898"/>
		<polygon points="147,953 144,949 199,938 191,938 188,950 176,955 186,979 157,974 150,959 158,912 140,929 150,944 93,950 121,954" fill="rgb(72.206%, 75.365%, 63.9766%)" fill-rule="evenodd" fill-opacity="0.100000"/>
		<polygon points="437,1075 439,1087 452,1106 442,1106 438,1094 407,1059 412,1057 433,1006 425,1064 436,1042 457,1054" fill="rgb(0%, 1.59354%, 1.31138%)" fill-rule="evenodd" fill-opacity="0.243593"/>
		<polygon points="460,915 451,943 463,957 466,967 475,966 477,973 480,965 483,953 492,942 530,919 530,916 484,903 471,874" fill="rgb(82.6578%, 72.7177%, 62.6385%)" fill-rule="evenodd" fill-opacity="0.270368"/>
		<polygon points="518,814 509,839 511,839 501,854 494,833 494,814 530,812" fill="rgb(67.4751%, 54.362%, 46.6083%)" fill-rule="evenodd" fill-opacity="0.388190"/>
	</g>
	<g id="G5">
		<polygon points="1071,8 1075,891 1020,845 846,604 804,626 758,622 742,591 756,599 768,618 785,538 583,568 360,254 405,233 329,316 329,332 278,333 259,310 240,265 233,260 192,323 146,297 26,493 6,540 6,0 14,8" fill="rgb(72.9873%, 71.967%, 71.638%)" fill-rule="evenodd" fill-opacity="0.419892"/>
		<polygon points="597,670 586,548 790,513 714,574 825,602 1033,816 1073,830 1073,773 1074,354 1073,15 914,12 7,16 4,359 314,250 562,480 569,640 542,595 497,791 535,768 545,775" fill="rgb(100%, 100%, 100%)" fill-rule="evenodd" fill-opacity="0.349289"/>
		<polygon points="575,929 636,937 698,948 757,935 896,1001 922,1040 919,1092 733,984 664,983 587,1020 558,1007 549,1021" fill="rgb(99.4178%, 99.0957%, 99.1525%)" fill-rule="evenodd" fill-opacity="0.600000"/>
		<polygon points="0,156 1,522 167,299 427,337 520,421 548,509 736,566 902,675 977,766 1027,783 1019,805 1030,843 1073,838 1075,0 0,0" fill="rgb(99.7446%, 100%, 100%)" fill-rule="evenodd" fill-opacity="0.600000"/>
		<polygon points="7,13 8,461 186,272 454,336 558,544 541,682 491,753 530,798 627,549 720,512 774,647 853,628 918,681 889,701 1070,883 1069,1" fill="rgb(100%, 100%, 100%)" fill-rule="evenodd" fill-opacity="0.600000"/>
		<polygon points="197,266 233,293 199,285 61,421 131,338 167,350 181,289 294,346 272,260" fill="rgb(0%, 1.47286%, 0%)" fill-rule="evenodd" fill-opacity="0.484553"/>
		<polygon points="35,1050 27,1003 58,985 13,1025" fill="rgb(67.2276%, 67.365%, 69.1676%)" fill-rule="evenodd" fill-opacity="0.370939"/>
		<polygon points="1080,0 1060,19 8,15 5,269 456,297 589,605 608,534 623,527 683,532 760,561 762,636 812,610 1073,874" fill="rgb(100%, 100%, 99.2661%)" fill-rule="evenodd" fill-opacity="0.568904"/>
		<polygon points="0,724 1,604 49,759 24,693 106,836 0,937" fill="rgb(100%, 99.6852%, 100%)" fill-rule="evenodd" fill-opacity="0.600000"/>
		<polygon points="778,943 877,981 874,996 911,1033 924,1079 563,938 544,1009 658,987 593,945" fill="rgb(100%, 100%, 100%)" fill-rule="evenodd" fill-opacity="0.600000"/>
		<polygon points="494,787 513,765 511,694 500,720 493,705" fill="rgb(40.1825%, 39.1605%, 34.4094%)" fill-rule="evenodd" fill-opacity="0.532012"/>
		<polygon points="907,699 769,602 660,545 564,520 488,372 369,301 290,304 293,273 246,262 94,361 10,492 7,0 1080,12 1079,867" fill="rgb(100%, 100%, 100%)" fill-rule="evenodd" fill-opacity="0.592440"/>
		<polygon points="543,970 571,916 591,917 542,1017" fill="rgb(26.2424%, 27.6058%, 23.6222%)" fill-rule="evenodd" fill-opacity="0.303909"/>
		<polygon points="1080,1704 1007,1568 1000,1535 975,1475 980,1465 1015,1474 1080,1486" fill="rgb(100%, 100%, 100%)" fill-rule="evenodd" fill-opacity="0.600000"/>
		<polygon points="976,1503 1007,1605 1080,1712 1067,1712 1069,1496 1053,1463" fill="rgb(100%, 100%, 90.7839%)" fill-rule="evenodd" fill-opacity="0.445322"/>
		<polygon points="256,271 280,322 340,317 378,322 948,720 986,762 1079,884 1067,0 2,0 0,482 250,240" fill="rgb(100%, 100%, 100%)" fill-rule="evenodd" fill-opacity="0.593823"/>
		<polygon points="652,543 609,555 612,607 596,651 500,631 641,581" fill="rgb(0%, 0%, 0%)" fill-rule="evenodd" fill-opacity="0.600000"/>
		<polygon points="35,1040 33,994 23,1010 32,1053 28,988 2,975 0,1044" fill="rgb(95.1509%, 96.7078%, 90.6734%)" fill-rule="evenodd" fill-opacity="0.600000"/>
		<polygon points="534,706 495,716 492,752 505,739 533,626 539,521 555,499 572,549" fill="rgb(32.4178%, 29.6952%, 26.9125%)" fill-rule="evenodd" fill-opacity="0.272868"/>
		<polygon points="4,605 0,904 81,894 87,854" fill="rgb(99.6717%, 100%, 99.5095%)" fill-rule="evenodd" fill-opacity="0.600000"/>
	</g>
	<g id="G6">
		<polygon points="482,1318 505,1513 548,1497 548,1567 590,1636 625,1614 571,1456 441,1201 235,1217 110,1238 11,1353 115,1326 0,1512 4,1564 211,1480 150,1552 82,1561 32,1562 37,1551 58,1624 368,1574" fill="rgb(57.8385%, 59.3814%, 65.1926%)" fill-rule="evenodd" fill-opacity="0.141610"/>
		<polygon points="634,1631 624,1644 534,1641 585,1645 613,1776 580,1891 588,1917 626,1917 679,1869 691,1778" fill="rgb(25.7478%, 48.9439%, 51.9741%)" fill-rule="evenodd" fill-opacity="0.180645"/>
		<polygon points="117,1917 179,1876 232,1799 0,1763 0,1497 81,1387 43,1419 0,1409 0,1262 227,1156 347,1147 419,1188 481,1220 465,1206 724,1219 770,1323 781,1223 834,1464 866,1531 927,1463 963,1515 1078,1808 1074,1917" fill="rgb(14.0377%, 33.4944%, 34.0831%)" fill-rule="evenodd" fill-opacity="0.358247"/>
		<polygon points="146,1576 173,1580 521,1798 726,1917 1080,1917 1080,1714 871,1316 799,1207 719,1098 629,1026 538,997 534,1063 521,1115 302,1131 3,1058 0,1270 0,1518" fill="rgb(62.9789%, 58.6517%, 75.3411%)" fill-rule="evenodd" fill-opacity="0.357562"/>
		<polygon points="779,1181 738,1182 702,1125 697,1172 652,1141 621,1132 622,1099 647,1093 452,1127 519,990 576,1019 643,1033" fill="rgb(67.2943%, 74.9193%, 74.6993%)" fill-rule="evenodd" fill-opacity="0.219665"/>
		<polygon points="553,1374 537,1343 507,1256 536,1273 560,1346" fill="rgb(83.102%, 77.2053%, 53.3248%)" fill-rule="evenodd" fill-opacity="0.351151"/>
		<polygon points="464,1040 523,1061 534,1097 491,990 499,966 528,917 556,917 572,938 579,971 579,962" fill="rgb(69.9419%, 65.0416%, 74.459%)" fill-rule="evenodd" fill-opacity="0.100000"/>
		<polygon points="0,982 37,1028 21,1045 1,1043 2,1056 139,1092 60,1050 54,1016 61,999 82,988 39,941 0,927" fill="rgb(40.8732%, 43.6434%, 55.6063%)" fill-rule="evenodd" fill-opacity="0.306223"/>
		<polygon points="736,1917 795,1917 788,1904 761,1778 728,1785 700,1764" fill="rgb(0.988454%, 5.33559%, 0%)" fill-rule="evenodd" fill-opacity="0.269750"/>
		<polygon points="570,939 556,1005 641,1044 702,1090 866,1294 737,1222 552,1209 520,1256 486,1230 480,1186 453,1158 449,1074 536,917" fill="rgb(56.6768%, 55.7527%, 58.9275%)" fill-rule="evenodd" fill-opacity="0.350825"/>
		<polygon points="183,1587 552,1817 511,1917 370,1914 187,1915 232,1780 142,1633 121,1603 113,1586 78,1552" fill="rgb(55.2307%, 55.6582%, 72.7085%)" fill-rule="evenodd" fill-opacity="0.344615"/>
		<polygon points="137,1199 109,1209 114,1236 2,1357 0,929 22,928 65,974 109,984 432,1111 401,1130 274,1124 38,1068 208,1163" fill="rgb(51.0556%, 58.2177%, 69.0354%)" fill-rule="evenodd" fill-opacity="0.213553"/>
		<polygon points="615,1442 595,1415 566,1405 601,1474 593,1469 632,1548 649,1534" fill="rgb(74.879%, 77.8606%, 55.5068%)" fill-rule="evenodd" fill-opacity="0.452519"/>
		<polygon points="107,1580 55,1532 5,1527 0,1498 119,1331 3,1344 0,1763 246,1801" fill="rgb(52.0711%, 52.9878%, 66.8962%)" fill-rule="evenodd" fill-opacity="0.291994"/>
		<polygon points="718,1712 745,1754 745,1769 725,1766 745,1807 648,1631 680,1641" fill="rgb(88.079%, 87.4708%, 68.6469%)" fill-rule="evenodd" fill-opacity="0.445876"/>
		<polygon points="703,1599 775,1709 728,1541 712,1430 702,1555 721,1583 721,1631 675,1579 653,1524 647,1549 593,1495 636,1641 664,1612 686,1668 701,1685" fill="rgb(11.4832%, 12.1805%, 13.1792%)" fill-rule="evenodd" fill-opacity="0.218974"/>
		<polygon points="324,1224 455,1218 499,1279 546,1425 551,1552 514,1449 486,1380 413,1300 373,1416 248,1445 264,1453 192,1452 229,1369 76,1466 106,1298" fill="rgb(60.3549%, 54.4268%, 56.6059%)" fill-rule="evenodd" fill-opacity="0.100000"/>
		<polygon points="979,1566 1010,1614 1044,1661 1080,1705 1080,1727 1022,1747 968,1574" fill="rgb(49.7248%, 62.2002%, 64.0913%)" fill-rule="evenodd" fill-opacity="0.234768"/>
		<polygon points="674,1887 726,1917 552,1917 514,1914 551,1816" fill="rgb(55.5592%, 54.1185%, 68.8699%)" fill-rule="evenodd" fill-opacity="0.345790"/>
		<polygon points="858,1896 851,1871 814,1602 822,1480 914,1917" fill="rgb(35.4421%, 46.5409%, 48.7984%)" fill-rule="evenodd" fill-opacity="0.188801"/>
		<polygon points="1027,1743 1031,1773 1044,1767 1031,1783 1061,1844 1073,1917 1080,1917 1080,1729" fill="rgb(59.9019%, 67.7101%, 69.964%)" fill-rule="evenodd" fill-opacity="0.271704"/>
		<polygon points="0,1763 230,1799 209,1840 188,1917 2,1917" fill="rgb(60.8035%, 73.6721%, 89.0943%)" fill-rule="evenodd" fill-opacity="0.302708"/>
		<polygon points="532,1005 518,1011 560,1092 590,1071 577,1073 599,1029 645,1101 687,1135 681,1080 645,1043 582,1014" fill="rgb(64.5592%, 72.6586%, 71.3564%)" fill-rule="evenodd" fill-opacity="0.293777"/>
		<polygon points="0,993 40,968 28,917 0,932" fill="rgb(73.8546%, 83.299%, 88.0476%)" fill-rule="evenodd" fill-opacity="0.225444"/>
		<polygon points="1080,1705 990,1634 969,1675 927,1724 933,1830 940,1915 1069,1917 1080,1887" fill="rgb(43.2409%, 57.2151%, 58.4091%)" fill-rule="evenodd" fill-opacity="0.164222"/>
		<polygon points="91,991 85,967 27,1018 0,1080 48,1180 57,1131 143,1023 119,1036 116,999" fill="rgb(17.5427%, 26.2567%, 34.7752%)" fill-rule="evenodd" fill-opacity="0.206365"/>
	</g>
	<g id="G7">
		<polygon points="839,719 862,768 855,776 852,795 852,811 707,823 671,812 659,862 639,879 577,873 549,869 531,849 527,815 534,780 551,762 615,728 595,701 590,629 606,599 654,568 713,568 737,581 765,623 630,747 618,732 642,727 638,743 671,770 679,752 704,727 771,698 812,689" fill="rgb(100%, 47.1602%, 12.0569%)" fill-rule="evenodd" fill-opacity="0.600000"/>
		<polygon points="727,720 692,765 717,810 776,809 766,818 739,819 710,824 764,851 776,851 828,848 841,831 856,795 857,758 852,736 821,692 817,702 811,691 764,697 739,714" fill="rgb(99.3522%, 43.3273%, 33.1674%)" fill-rule="evenodd" fill-opacity="0.508056"/>
		<polygon points="859,750 847,729 838,716 824,708 836,712 825,700 810,690 779,694 771,697 732,712 724,765 762,789 794,799 787,799 827,800 826,834 834,831 842,822 859,781" fill="rgb(99.8336%, 75.2159%, 46.3775%)" fill-rule="evenodd" fill-opacity="0.487717"/>
		<polygon points="665,695 602,710 589,669 590,627 611,593 621,583 666,568 703,568 736,580 758,605 763,644" fill="rgb(100%, 100%, 99.5876%)" fill-rule="evenodd" fill-opacity="0.600000"/>
		<polygon points="744,757 775,763 787,770 800,765 817,771 832,782 857,781 857,748 834,710 824,702 801,685 791,695 775,698 769,700 737,741" fill="rgb(100%, 100%, 61.2278%)" fill-rule="evenodd" fill-opacity="0.600000"/>
		<polygon points="780,707 775,708 789,735 813,746 846,759 854,735 843,720 828,700 817,691 785,700" fill="rgb(100%, 100%, 89.2238%)" fill-rule="evenodd" fill-opacity="0.600000"/>
		<polygon points="759,612 747,596 736,581 708,568 647,569 620,582 596,611 597,617 597,627 612,629 660,647 694,651 724,661 762,647" fill="rgb(100%, 100%, 87.0689%)" fill-rule="evenodd" fill-opacity="0.600000"/>
		<polygon points="757,648 642,709 639,737 626,731 628,720 629,724 614,717 601,704 589,675 586,642 596,609 611,590 624,578 681,603 716,616" fill="rgb(100%, 16.7684%, 0.0479776%)" fill-rule="evenodd" fill-opacity="0.418413"/>
		<polygon points="672,877 665,885 641,906 576,903 536,859 526,836 529,792 534,780 552,754 627,730 600,711 651,697 858,772 838,832 809,864 772,880 720,871 688,846" fill="rgb(100%, 56.9406%, 39.609%)" fill-rule="evenodd" fill-opacity="0.598531"/>
		<polygon points="852,813 829,803 823,816 821,829 835,839 837,825" fill="rgb(100%, 27.6658%, 28.7823%)" fill-rule="evenodd" fill-opacity="0.170248"/>
		<polygon points="816,743 779,738 770,712 772,703 797,696" fill="rgb(99.5283%, 98.0187%, 64.7468%)" fill-rule="evenodd" fill-opacity="0.229723"/>
		<polygon points="589,706 591,653 591,626 587,638" fill="rgb(0%, 29.7621%, 35.5809%)" fill-rule="evenodd" fill-opacity="0.238009"/>
		<polygon points="568,862 572,859 582,869 621,873 636,856 654,858 652,847 669,824 674,868 653,898 664,888 617,906 598,908 608,895 577,888 555,882 540,867" fill="rgb(79.1679%, 41.988%, 29.8801%)" fill-rule="evenodd" fill-opacity="0.429098"/>
		<polygon points="643,877 659,861 666,838 626,857 624,853 629,853 541,869 623,878 637,878" fill="rgb(27.6347%, 8.00253%, 5.25021%)" fill-rule="evenodd" fill-opacity="0.100000"/>
		<polygon points="758,863 761,876 758,878 766,879 801,872 817,859 792,853 791,858" fill="rgb(11.0447%, 30.5823%, 43.3732%)" fill-rule="evenodd" fill-opacity="0.233556"/>
		<polygon points="811,829 790,834 779,826 766,822 714,776 699,778 696,794 676,787 674,764 654,760 662,777 658,839 705,853 766,874 828,851" fill="rgb(74.9441%, 34.7732%, 28.1133%)" fill-rule="evenodd" fill-opacity="0.431467"/>
		<polygon points="718,666 722,663 740,655 721,670 658,709 665,685 705,654" fill="rgb(6.94185%, 51.536%, 72.3501%)" fill-rule="evenodd" fill-opacity="0.137260"/>
		<polygon points="676,875 666,885 668,885 653,895 681,853 677,839 680,832 693,847 696,842 687,849" fill="rgb(49.1224%, 27.5332%, 21.5642%)" fill-rule="evenodd" fill-opacity="0.343424"/>
		<polygon points="827,694 798,685 829,699 824,702" fill="rgb(22.0654%, 18.2141%, 69.6871%)" fill-rule="evenodd" fill-opacity="0.175731"/>
		<polygon points="674,770 684,748 751,713 701,721 698,727 688,705 692,660 617,668 598,688 588,672 601,712 623,741" fill="rgb(67.4213%, 36.3831%, 34.2896%)" fill-rule="evenodd" fill-opacity="0.597511"/>
		<polygon points="718,670 684,687 692,679 685,681 687,725 664,729 625,696 640,682 687,667 701,665" fill="rgb(71.1%, 40.6546%, 33.3854%)" fill-rule="evenodd" fill-opacity="0.546322"/>
		<polygon points="620,845 640,835 656,777 650,764 618,746 572,748 562,747 533,776 533,817 544,829 571,779 589,833 575,821 568,834 604,847" fill="rgb(100%, 62.0108%, 32.4043%)" fill-rule="evenodd" fill-opacity="0.477573"/>
		<polygon points="657,572 641,573 619,587 614,601 726,632 735,655 747,650 756,648 767,642 720,609 696,595 693,592" fill="rgb(100%, 80.0517%, 54.5482%)" fill-rule="evenodd" fill-opacity="0.600000"/>
		<polygon points="588,886 556,872 526,830 526,796 531,798 529,825 526,841 545,878 595,908" fill="rgb(54.4644%, 29.9966%, 25.0951%)" fill-rule="evenodd" fill-opacity="0.334346"/>
		<polygon points="595,615 601,612 590,635 588,628 591,619" fill="rgb(37.9989%, 56.5708%, 50.5742%)" fill-rule="evenodd" fill-opacity="0.145824"/>
		<polygon points="653,654 643,651 642,655 616,651 611,677 641,684 670,678 705,661" fill="rgb(78.2941%, 47.8926%, 35.0417%)" fill-rule="evenodd" fill-opacity="0.283505"/>
	</g>
	<g id="G8">
		<polygon points="1025,839 1075,884 1079,920 1078,989 1067,1004 1032,967 1066,925 1042,906 1006,868 981,822 952,851 909,900 911,917 924,906 951,909 1007,965 981,791" fill="rgb(52.9203%, 56.3307%, 61.7081%)" fill-rule="evenodd" fill-opacity="0.192169"/>
		<polygon points="680,997 655,1009 623,1003 656,1040 590,1025 593,1011 601,1010 624,1009 660,983" fill="rgb(87.6105%, 94.71%, 85.6144%)" fill-rule="evenodd" fill-opacity="0.325491"/>
		<polygon points="991,791 1008,826 1058,874 1082,906 1082,1046 1076,1163 1028,1137 963,1070 1048,942 999,894 969,792" fill="rgb(71.8947%, 77.5188%, 90.2155%)" fill-rule="evenodd" fill-opacity="0.273236"/>
		<polygon points="874,1061 955,1134 961,1133 972,1185 945,1180 921,1151 903,1174" fill="rgb(70.7785%, 78.0212%, 92.3721%)" fill-rule="evenodd" fill-opacity="0.295185"/>
		<polygon points="1048,1445 1073,1453 1079,1494 1034,1488 997,1475 983,1479 971,1473" fill="rgb(33.1823%, 50.0058%, 44.3354%)" fill-rule="evenodd" fill-opacity="0.100000"/>
		<polygon points="1010,808 989,823 991,810 980,820 975,791" fill="rgb(92.2797%, 92.1216%, 94.397%)" fill-rule="evenodd" fill-opacity="0.366195"/>
		<polygon points="905,897 913,887 915,895 967,846 996,802 996,810 1001,813 1006,830 1037,856 1081,899 965,1066 944,1057 901,1024 874,992 803,967 803,958 798,952" fill="rgb(58.1145%, 62.5712%, 70.2639%)" fill-rule="evenodd" fill-opacity="0.452764"/>
		<polygon points="656,996 605,1006 597,1023 618,1027 639,1034 754,1139 783,1141 867,1066 822,1049 788,1031 729,999" fill="rgb(90.8305%, 91.5757%, 91.0554%)" fill-rule="evenodd" fill-opacity="0.298853"/>
		<polygon points="967,851 943,873 936,867 954,873 988,894 1027,1022 1037,1047 1054,1082 1070,1067 1077,1054 1080,896 1006,817 981,791" fill="rgb(65.6778%, 74.4016%, 83.2485%)" fill-rule="evenodd" fill-opacity="0.155068"/>
		<polygon points="761,1013 696,995 665,985 629,997 627,1007 840,1253 889,1245 884,1170 911,1126 927,1095" fill="rgb(80.8683%, 81.4948%, 77.7828%)" fill-rule="evenodd" fill-opacity="0.373864"/>
		<polygon points="877,1128 861,1292 910,1214 969,1207 992,1193 973,1159 973,1130 1082,1169 1082,1091 1030,1095 995,1098 1014,1060 980,1051 981,1045 1009,1007 998,1006 983,995 931,986 908,1111" fill="rgb(12.6136%, 14.074%, 18.0017%)" fill-rule="evenodd" fill-opacity="0.460730"/>
		<polygon points="845,1254 776,1183 829,1248 894,1361 887,1335 903,1333 899,1241" fill="rgb(54.6021%, 56.5339%, 50.7547%)" fill-rule="evenodd" fill-opacity="0.128656"/>
		<polygon points="935,1139 927,1148 944,1131 935,1116 924,1112 911,1131" fill="rgb(65.9516%, 58.9079%, 66.669%)" fill-rule="evenodd" fill-opacity="0.281140"/>
		<polygon points="1003,824 983,813 998,833 1037,883 1060,908 1070,912 1061,931 1042,949 1073,949 1079,907 1046,863" fill="rgb(87.5443%, 99.107%, 100%)" fill-rule="evenodd" fill-opacity="0.143989"/>
		<polygon points="977,1262 938,1251 822,1243 793,1200 819,1228 822,1229 896,1357 893,1360 968,1497 980,1475 1003,1471 1059,1382 1082,1337 1082,1276 1077,1282" fill="rgb(56.573%, 59.6387%, 69.7092%)" fill-rule="evenodd" fill-opacity="0.186248"/>
		<polygon points="1009,1017 945,1016 933,1048 948,1067 928,1101 938,1114 953,1130 964,1163 961,1166 926,1154 905,1138 914,1042 925,1030 929,993 967,986" fill="rgb(34.3065%, 43.2229%, 43.8289%)" fill-rule="evenodd" fill-opacity="0.173344"/>
		<polygon points="916,1049 923,1104 899,1085 890,1083 872,1124 826,1207 760,1161 879,1055 882,1143 877,1132 882,1131 888,1149 884,1191 889,1243 1082,1284 1082,1170 1029,1136 944,1051" fill="rgb(67.1679%, 69.5856%, 80.0966%)" fill-rule="evenodd" fill-opacity="0.182288"/>
		<polygon points="981,1521 977,1517 968,1498 977,1480 977,1483 990,1539" fill="rgb(46.0901%, 53.2191%, 61.0251%)" fill-rule="evenodd" fill-opacity="0.205177"/>
		<polygon points="918,1032 907,1034 855,985 812,976 815,959 806,973 808,945 827,931 905,895 898,927 893,921 836,941 847,935 864,967 885,982 908,1010" fill="rgb(58.6646%, 57.9427%, 58.0322%)" fill-rule="evenodd" fill-opacity="0.122030"/>
		<polygon points="834,1212 808,1180 806,1163 747,1146 773,1136 783,1159 802,1164 781,1144 798,1127 851,1197 856,1201 853,1214 852,1235" fill="rgb(69.4358%, 67.688%, 52.4227%)" fill-rule="evenodd" fill-opacity="0.163088"/>
		<polygon points="821,1064 846,1097 840,1120 792,1062 777,1039 750,1019 750,1017 861,1063 840,1045" fill="rgb(66.0712%, 72.0803%, 88.2585%)" fill-rule="evenodd" fill-opacity="0.289405"/>
		<polygon points="896,1080 840,1129 815,1131 784,1137 753,1156 776,1134 778,1067 844,1046" fill="rgb(41.5688%, 42.6597%, 49.8831%)" fill-rule="evenodd" fill-opacity="0.396690"/>
		<polygon points="827,1044 770,1012 722,997 612,1010 739,1083 742,1080 745,1052 728,1012 752,1029 765,1034 822,1082 806,1041" fill="rgb(82.0592%, 84.4473%, 92.1411%)" fill-rule="evenodd" fill-opacity="0.144140"/>
		<polygon points="1082,1494 1082,1327 1079,1341 1065,1370 1047,1401 1001,1473" fill="rgb(56.2784%, 59.6002%, 69.6283%)" fill-rule="evenodd" fill-opacity="0.195432"/>
	</g>
	<g id="G9">
		<polygon points="202,838 301,801 342,801 383,824 364,834 368,860 326,884 291,878 262,880 273,887 280,895 283,910 203,895" fill="rgb(100%, 62.7943%, 51.5587%)" fill-rule="evenodd" fill-opacity="0.443492"/>
		<polygon points="487,814 511,789 506,743 493,740 495,736 485,777 445,805 426,864 435,851 446,842 458,858 467,890" fill="rgb(76.9654%, 79.7352%, 67.4622%)" fill-rule="evenodd" fill-opacity="0.534758"/>
		<polygon points="300,955 364,956 392,907 363,909 392,894 402,878 398,867 384,863 386,828 356,808 239,848 293,860 215,865 275,953" fill="rgb(97.4668%, 54.6077%, 35.8917%)" fill-rule="evenodd" fill-opacity="0.522363"/>
		<polygon points="389,909 414,898 462,901 483,812 502,805 508,798 513,691 489,689 495,710 480,782 449,798 428,845 348,802 327,838 332,895 323,905" fill="rgb(100%, 67.0702%, 44.0175%)" fill-rule="evenodd" fill-opacity="0.504943"/>
		<polygon points="175,843 141,820 109,795 84,706 53,706 89,839 112,826 121,854 180,881" fill="rgb(79.259%, 78.7977%, 90.9733%)" fill-rule="evenodd" fill-opacity="0.392019"/>
		<polygon points="348,795 320,810 358,830 293,839 308,851 266,883 218,872 244,963 350,1022 413,1060 428,1010 463,910 506,760 440,808 432,844 412,831 343,802" fill="rgb(72.9292%, 59.6467%, 56.9213%)" fill-rule="evenodd" fill-opacity="0.296419"/>
		<polygon points="169,835 131,814 102,793 114,799 94,749 90,767 99,783 89,759 66,765 71,783 90,824 178,912 240,953 235,924 329,903 356,869 291,889 271,879 295,863 389,861 396,820 363,843 342,806 289,802 197,838 198,886" fill="rgb(62.2329%, 48.6467%, 39.2621%)" fill-rule="evenodd" fill-opacity="0.395741"/>
		<polygon points="177,853 169,837 115,798 98,747 81,711 66,710 62,773 87,819 176,867 180,882 212,894 179,863" fill="rgb(74.0232%, 62.307%, 54.7403%)" fill-rule="evenodd" fill-opacity="0.382482"/>
		<polygon points="376,907 384,956 384,958 328,957 324,944 313,931 349,914 317,905 398,911" fill="rgb(99.9323%, 81.5668%, 57.102%)" fill-rule="evenodd" fill-opacity="0.154623"/>
		<polygon points="389,868 391,882 365,899 342,897 349,884" fill="rgb(100%, 98.845%, 64.3783%)" fill-rule="evenodd" fill-opacity="0.235678"/>
		<polygon points="423,952 442,937 428,967 409,963 388,924 364,908 391,883 373,852 406,845 402,854 402,850 477,816 473,881 467,899 459,906" fill="rgb(41.7659%, 45.6808%, 35.37%)" fill-rule="evenodd" fill-opacity="0.103352"/>
		<polygon points="163,891 143,881 121,853 152,870" fill="rgb(40.4401%, 52.1643%, 63.9328%)" fill-rule="evenodd" fill-opacity="0.233961"/>
		<polygon points="97,847 101,814 79,766 68,780 72,785 76,797 78,796" fill="rgb(98.8853%, 92.3022%, 90.0107%)" fill-rule="evenodd" fill-opacity="0.275569"/>
		<polygon points="424,986 430,1018 425,1038 419,1069 399,1054 375,1027" fill="rgb(100%, 73.5692%, 50.4134%)" fill-rule="evenodd" fill-opacity="0.261427"/>
		<polygon points="392,856 386,850 405,848 419,837 436,852 341,845 223,856 270,866" fill="rgb(39.4814%, 9.57355%, 13.4642%)" fill-rule="evenodd" fill-opacity="0.387382"/>
		<polygon points="500,806 480,792 498,708 517,699" fill="rgb(100%, 85.5377%, 74.5153%)" fill-rule="evenodd" fill-opacity="0.481953"/>
		<polygon points="53,712 61,708 71,720 78,718 73,741 104,806 102,819 96,831 74,802" fill="rgb(100%, 75.2442%, 69.4196%)" fill-rule="evenodd" fill-opacity="0.259113"/>
		<polygon points="400,897 420,898 426,882 443,866 467,899 474,863 485,827 445,798 428,851 403,861 351,913 370,938 394,916 410,935 455,924 464,900" fill="rgb(73.2547%, 49.6689%, 34.1344%)" fill-rule="evenodd" fill-opacity="0.193787"/>
		<polygon points="315,831 369,835 352,836 375,834 376,850 273,847 294,835" fill="rgb(100%, 61.4412%, 46.2202%)" fill-rule="evenodd" fill-opacity="0.372519"/>
		<polygon points="508,694 509,708 501,713 484,759 496,744 485,736 491,732 489,704 510,693" fill="rgb(60.9351%, 55.8189%, 48.2439%)" fill-rule="evenodd" fill-opacity="0.317994"/>
		<polygon points="405,915 419,931 425,900 465,906 441,863 399,897 349,946 278,943 255,913 212,880 243,917 253,945 271,955 331,979 345,966 362,962 400,912" fill="rgb(44.8469%, 34.6725%, 27.0687%)" fill-rule="evenodd" fill-opacity="0.487399"/>
		<polygon points="270,878 264,883 321,879 310,825 266,815 229,822 234,844 243,838 240,835 217,850 208,873" fill="rgb(68.5907%, 51.4995%, 50.0074%)" fill-rule="evenodd" fill-opacity="0.181496"/>
		<polygon points="194,839 195,859 211,828" fill="rgb(56.3164%, 52.8647%, 41.9041%)" fill-rule="evenodd" fill-opacity="0.103976"/>
		<polygon points="507,728 502,712 485,689 516,699 517,722" fill="rgb(86.585%, 66.6553%, 61.4406%)" fill-rule="evenodd" fill-opacity="0.465690"/>
		<polygon points="102,814 82,817 83,839 103,835" fill="rgb(52.0219%, 60.7452%, 53.5973%)" fill-rule="evenodd" fill-opacity="0.188269"/>
		<polygon points="419,926 434,920 441,951 439,939 457,942 449,934 459,936 462,916 464,912 464,901 409,900 399,919" fill="rgb(55.8904%, 58.4281%, 55.7043%)" fill-rule="evenodd" fill-opacity="0.114864"/>
		<polygon points="299,932 281,944 238,937 263,956 282,966 290,972 298,961 333,971 335,973 329,911 307,899" fill="rgb(39.1267%, 30.7808%, 27.0899%)" fill-rule="evenodd" fill-opacity="0.241532"/>
		<polygon points="401,937 450,887 422,886 375,910 372,916 382,917 361,942 309,974 355,958 364,976 369,983 400,972" fill="rgb(41.5815%, 30.8543%, 24.3136%)" fill-rule="evenodd" fill-opacity="0.250411"/>
		<polygon points="209,893 151,869 208,912 230,903" fill="rgb(57.9638%, 54.4548%, 56.5379%)" fill-rule="evenodd" fill-opacity="0.238627"/>
	</g>
</svg>