<?xml version="1.0" encoding="UTF-8" standalone="no"?>
<svg xmlns:svg="http://www.w3.org/2000/svg" xmlns="http://www.w3.org/2000/svg" width="4612" height="2237">
	<rect width = "4612" height="2237" fill="rgb(0%, 0%, 0%)"/>
	<g id="G0">
		<polygon points="1966,593 1986,601 2017,608 2009,631 1991,619 1964,602 1937,603 1940,594 1944,592" fill="rgb(100%, 96.6723%, 100%)" fill-rule="evenodd" fill-opacity="0.600000"/>
		<polygon points="1948,602 1933,604 1961,611 1985,621 2010,635 2012,628 2031,569 2029,550 2043,541 2018,539 2010,551 1979,561 1976,571 1983,579 1966,572 1964,580 1969,584" fill="rgb(100%, 62.7412%, 66.3978%)" fill-rule="evenodd" fill-opacity="0.421470"/>
		<polygon points="1874,583 1875,588 1840,618 1815,620 1805,601 1838,585 1840,578 1828,557 1826,566" fill="rgb(88.1311%, 63.0104%, 82.3918%)" fill-rule="evenodd" fill-opacity="0.482176"/>
		<polygon points="2054,589 2047,592 2033,585 2013,596 2004,589 1992,583 1977,594 1960,582 1979,565 2011,547 2013,538 2035,539 2034,565" fill="rgb(100%, 93.9919%, 95.982%)" fill-rule="evenodd" fill-opacity="0.589475"/>
		<polygon points="1778,544 1770,556 1773,571 1789,580 1819,620 1865,586 1860,576 1859,558 1838,559 1826,554 1823,544 1792,532 1777,531" fill="rgb(99.8369%, 78.2387%, 78.4994%)" fill-rule="evenodd" fill-opacity="0.600000"/>
		<polygon points="2039,594 2047,596 2052,583 2040,572 2023,544 1998,552 1941,600 1989,620 1996,617 2012,626 2028,589" fill="rgb(100%, 72.3481%, 70.1272%)" fill-rule="evenodd" fill-opacity="0.502030"/>
		<polygon points="2044,542 2036,548 2035,537" fill="rgb(100%, 99.9634%, 77.9465%)" fill-rule="evenodd" fill-opacity="0.382058"/>
		<polygon points="2054,582 2045,578 2023,590 2010,581 2008,578 2029,580 2013,563 2036,573 2038,569" fill="rgb(46.4441%, 9.97398%, 13.2015%)" fill-rule="evenodd" fill-opacity="0.427850"/>
		<polygon points="1828,565 1827,569 1795,584 1789,576 1817,557 1771,573 1773,554 1781,540 1777,531 1798,531 1799,543 1814,537" fill="rgb(99.5632%, 77.3442%, 76.9207%)" fill-rule="evenodd" fill-opacity="0.600000"/>
		<polygon points="2025,549 2030,561 2042,545 2027,546" fill="rgb(21.2175%, 6.83073%, 7.06133%)" fill-rule="evenodd" fill-opacity="0.242648"/>
		<polygon points="1980,566 1979,558 1992,559 1995,556 1973,568" fill="rgb(85.5569%, 21.6847%, 84.0693%)" fill-rule="evenodd" fill-opacity="0.140429"/>
		<polygon points="1819,597 1844,587 1878,568 1837,570 1807,583 1806,587" fill="rgb(22.1107%, 0%, 3.43808%)" fill-rule="evenodd" fill-opacity="0.525854"/>
		<polygon points="1817,582 1807,584 1808,581" fill="rgb(31.3821%, 39.7032%, 92.1118%)" fill-rule="evenodd" fill-opacity="0.169317"/>
	</g>
	<g id="G1">
		<polygon points="1527,1761 1590,1794 1588,1863 1786,1960 1768,1975 1761,2035 1816,2062 1811,2075 1725,2072 1674,2061 1588,1998 1456,1969 1480,1843" fill="rgb(56.4821%, 61.6974%, 81.7168%)" fill-rule="evenodd" fill-opacity="0.287606"/>
		<polygon points="1737,2053 1734,2040 1680,2008 1686,1985 1665,1952 1609,1936 1654,2035 1665,2044 1698,2053" fill="rgb(94.7502%, 96.2329%, 81.9176%)" fill-rule="evenodd" fill-opacity="0.406710"/>
		<polygon points="1774,1890 1724,1976 1718,2029 1720,2046 1793,1970" fill="rgb(89.9784%, 85.7454%, 71.1086%)" fill-rule="evenodd" fill-opacity="0.422098"/>
		<polygon points="2317,1672 2241,1690 2185,1715 2067,1737 1956,1747 1966,1788 2058,1796 2078,1834 2440,1800 2413,1680 2371,1668" fill="rgb(21.6085%, 36.2488%, 50.4997%)" fill-rule="evenodd" fill-opacity="0.369215"/>
		<polygon points="1595,1883 1749,1889 1772,1834 1836,1814 1665,1779 1583,1809 1536,1830 1478,1872 1456,1901 1456,1934 1500,2013 1581,2046 1690,2075 1732,2054" fill="rgb(88.0864%, 84.7789%, 94.3357%)" fill-rule="evenodd" fill-opacity="0.285786"/>
		<polygon points="2011,1871 2007,1895 1954,1933 1963,1942 2007,1955 2082,1938 2074,1766 2057,1822 2009,1845" fill="rgb(75.7238%, 68.1876%, 62.1881%)" fill-rule="evenodd" fill-opacity="0.416965"/>
		<polygon points="1906,2128 1883,2128 1803,2177 1723,2177 1656,2122 1697,2084 1680,2065 1697,2062 1713,1991 1747,1948 2064,1829 2184,1891 2076,1914 2139,1947 2216,1937 2300,1977 2338,1972 2370,2019 2248,2011 2235,2040 2124,2041 2104,2079" fill="rgb(54.7836%, 56.0132%, 72.0975%)" fill-rule="evenodd" fill-opacity="0.184422"/>
		<polygon points="2101,1735 2085,1756 2068,1765 2052,1803 2125,1781 2121,1724" fill="rgb(100%, 81.4604%, 82.3064%)" fill-rule="evenodd" fill-opacity="0.532181"/>
		<polygon points="1539,1767 1706,1877 1716,1791 1709,1772 1671,1754 1665,1653 1648,1653" fill="rgb(55.1962%, 57.2736%, 79.1703%)" fill-rule="evenodd" fill-opacity="0.233349"/>
		<polygon points="2172,1883 2136,1884 2206,1830 2221,1813 2255,1839 2257,1865 2195,1892" fill="rgb(57.2853%, 61.6296%, 52.4181%)" fill-rule="evenodd" fill-opacity="0.293942"/>
		<polygon points="1823,1898 1772,1866 1652,1825 1741,1895 1866,1947 1970,1946 1940,1929" fill="rgb(51.3549%, 59.1324%, 56.059%)" fill-rule="evenodd" fill-opacity="0.182106"/>
		<polygon points="2307,2107 2347,2119 2318,2150 2365,2176 2433,2158 2403,2120 2375,2124 2379,2024 2385,2011 2309,1966" fill="rgb(61.0804%, 65.6013%, 55.7986%)" fill-rule="evenodd" fill-opacity="0.276097"/>
		<polygon points="2149,1916 2050,1932 2015,1934 1978,1955 1669,1757 1700,1765 1808,1754 1924,1773 1958,1690 2162,1716 2250,1681 2347,1664 2424,1693 2452,1760 2439,1783 2367,1810 2262,1893" fill="rgb(83.6004%, 77.7375%, 93.887%)" fill-rule="evenodd" fill-opacity="0.252351"/>
		<polygon points="1714,2100 1775,2105 1776,2131 1778,2129 1753,2131 1691,2135 1666,2112" fill="rgb(59.5271%, 58.2758%, 54.3986%)" fill-rule="evenodd" fill-opacity="0.354885"/>
		<polygon points="2423,1740 2308,1767 2305,1803 2342,1815 2352,1807 2423,1815" fill="rgb(82.8989%, 50.1467%, 65.5017%)" fill-rule="evenodd" fill-opacity="0.100000"/>
		<polygon points="1775,1892 1739,1934 1714,1993 1715,2029 1750,2062 1793,2068 1799,2054 1767,2037 1818,2002 1842,1922" fill="rgb(84.3979%, 78.7342%, 80.2938%)" fill-rule="evenodd" fill-opacity="0.385701"/>
		<polygon points="2322,2150 2260,2117 2188,2092 2231,1991 2328,1957 2382,1994 2403,2093 2418,2113 2420,2167 2409,2177 2380,2170" fill="rgb(49.5937%, 46.1657%, 48.3959%)" fill-rule="evenodd" fill-opacity="0.445970"/>
		<polygon points="1982,2048 1898,2013 1900,1956 1997,1969 2148,1988 2240,1982 2158,2151" fill="rgb(56.543%, 57.7108%, 58.2321%)" fill-rule="evenodd" fill-opacity="0.223112"/>
		<polygon points="1949,1690 1800,1709 1646,1731 1662,1792 1702,1810 1864,1868 1813,1818 1826,1806 1912,1844 1916,1816" fill="rgb(52.4972%, 52.0376%, 62.807%)" fill-rule="evenodd" fill-opacity="0.433526"/>
		<polygon points="1738,2170 1671,2142 1664,2121 1693,2089 1771,2097 1835,2106 1773,2173" fill="rgb(67.0729%, 55.9643%, 52.4685%)" fill-rule="evenodd" fill-opacity="0.291336"/>
		<polygon points="1887,1867 1869,1811 1908,1770 2118,1722 2158,1723 2068,1834 2394,1805 2288,1927 2091,1955 1705,2076 1728,2039 1737,1935 1668,1906 1659,1888 1702,1880 1681,1852 1639,1860 1630,1848 1727,1812 1617,1799 1656,1762 1744,1773 1689,1795 1763,1794 1839,1837" fill="rgb(75.8947%, 79.0799%, 89.6531%)" fill-rule="evenodd" fill-opacity="0.240216"/>
		<polygon points="2443,1719 2400,1689 2304,1717 2296,1676 2264,1673 2165,1741 2253,1743 2357,1698 2343,1767 2357,1892 2388,1866 2444,1804" fill="rgb(78.4747%, 68.604%, 79.1889%)" fill-rule="evenodd" fill-opacity="0.255978"/>
		<polygon points="2072,2015 2077,2046 1993,2077 2001,2036 2027,2016" fill="rgb(58.8936%, 73.1847%, 95.5133%)" fill-rule="evenodd" fill-opacity="0.299554"/>
		<polygon points="1629,1666 1670,1682 1638,1677" fill="rgb(59.5783%, 79.3039%, 43.4773%)" fill-rule="evenodd" fill-opacity="0.100767"/>
		<polygon points="1815,1789 1808,1815 1846,1810 1869,1801 1871,1791" fill="rgb(13.4289%, 20.2652%, 42.6826%)" fill-rule="evenodd" fill-opacity="0.196586"/>
		<polygon points="2049,1749 1973,1745 1964,1777 2013,1787 2039,1776" fill="rgb(33.8439%, 100%, 97.5066%)" fill-rule="evenodd" fill-opacity="0.346072"/>
		<polygon points="1823,1886 1982,1897 1857,1871" fill="rgb(98.1221%, 38.3573%, 71.663%)" fill-rule="evenodd" fill-opacity="0.153576"/>
		<polygon points="2270,1709 2274,1726 2246,1740" fill="rgb(78.3049%, 69.8006%, 38.0726%)" fill-rule="evenodd" fill-opacity="0.356703"/>
	</g>
	<g id="G2">
		<polygon points="1756,1245 1791,1173 1853,1161 1818,1116 1884,1078 1928,1091 1937,1219 1937,1482 1913,1477 1907,1422 1909,1242 1853,1440 1806,1416 1760,1372 1746,1323" fill="rgb(35.444%, 40.1888%, 45.7241%)" fill-rule="evenodd" fill-opacity="0.318757"/>
		<polygon points="1922,1560 1958,1524 1845,1476 1873,1405 1848,1225 1802,1198 1787,1294 1788,1322 1809,1375 1760,1452 1768,1498 1792,1541 1866,1633 1816,1601 1824,1682 1832,1699 1936,1648" fill="rgb(80.9349%, 72.181%, 65.4725%)" fill-rule="evenodd" fill-opacity="0.128447"/>
		<polygon points="1721,1460 1749,1452 1734,1266 1723,1294 1716,1368" fill="rgb(100%, 97.314%, 72.4837%)" fill-rule="evenodd" fill-opacity="0.600000"/>
		<polygon points="1924,1437 1917,1378 1913,1274 1879,1277 1879,1206 1977,1236 1970,1203 1964,1159 1921,1089 1895,1120 1908,1210 1928,1258 1943,1380" fill="rgb(52.2801%, 54.4622%, 59.835%)" fill-rule="evenodd" fill-opacity="0.205372"/>
		<polygon points="1714,1443 1704,1449 1657,1730 1735,1713 1813,1709" fill="rgb(26.173%, 80.894%, 43.0533%)" fill-rule="evenodd" fill-opacity="0.281999"/>
		<polygon points="1968,1690 2054,1499 2053,1490 2039,1500 2039,1492 1934,1480 1937,1310 1845,1371 1895,1441 1889,1415 1805,1463 1716,1439 1746,1554 1814,1705" fill="rgb(57.7786%, 65.0188%, 88.6669%)" fill-rule="evenodd" fill-opacity="0.386339"/>
		<polygon points="1916,1477 1701,1448 1719,1286 1773,1196 1837,1068 1890,1049 1917,1052 1940,1217 1950,1220 1973,1200 1987,1257 2082,1389 2120,1453 2125,1480 2056,1495" fill="rgb(35.7233%, 42.3743%, 60.2117%)" fill-rule="evenodd" fill-opacity="0.528512"/>
		<polygon points="2123,1458 2067,1365 2009,1286 1929,1482 1914,1484 1917,1365 1911,1300 1913,1128 1922,1052 1991,1052 2002,1102 2061,1182 2103,1279" fill="rgb(50.1835%, 67.17%, 100%)" fill-rule="evenodd" fill-opacity="0.349887"/>
		<polygon points="1843,1065 1870,1056 1846,1044 1816,1034 1802,1046 1813,1064 1820,1091" fill="rgb(62.1196%, 73.5114%, 100%)" fill-rule="evenodd" fill-opacity="0.322542"/>
		<polygon points="1672,1607 1658,1730 1755,1717 1816,1708 1747,1555 1708,1412" fill="rgb(65.0078%, 41.4195%, 100%)" fill-rule="evenodd" fill-opacity="0.291606"/>
		<polygon points="1908,1106 1915,1276 1911,1334 1911,1426 1916,1493 1928,1459 1931,1404 1923,1315 1934,1248 1920,1085" fill="rgb(97.5666%, 100%, 100%)" fill-rule="evenodd" fill-opacity="0.600000"/>
		<polygon points="2077,1658 2060,1667 2077,1681 2112,1691" fill="rgb(10.5867%, 38.4987%, 32.7092%)" fill-rule="evenodd" fill-opacity="0.133915"/>
		<polygon points="1746,1371 1733,1422 1709,1404 1724,1372 1724,1328 1716,1306 1733,1263 1740,1266" fill="rgb(96.2634%, 82.7489%, 76.2478%)" fill-rule="evenodd" fill-opacity="0.190778"/>
		<polygon points="2123,1469 2117,1484 2058,1493 2015,1585 1970,1689 2144,1712" fill="rgb(48.4713%, 63.6431%, 100%)" fill-rule="evenodd" fill-opacity="0.304741"/>
		<polygon points="1992,1343 1985,1400 1958,1396 1958,1203 1985,1207" fill="rgb(81.9107%, 95.4595%, 98.7951%)" fill-rule="evenodd" fill-opacity="0.567796"/>
		<polygon points="2015,1534 1989,1641 1982,1559" fill="rgb(54.9252%, 53.677%, 60.3512%)" fill-rule="evenodd" fill-opacity="0.237707"/>
		<polygon points="1958,1237 1964,1231 1950,1222 1922,1259 1947,1328 1965,1324" fill="rgb(37.9956%, 0%, 37.8823%)" fill-rule="evenodd" fill-opacity="0.101972"/>
		<polygon points="1995,1365 1987,1397 1970,1393 1973,1228 1995,1249" fill="rgb(12.4319%, 56.661%, 89.9107%)" fill-rule="evenodd" fill-opacity="0.396915"/>
		<polygon points="2010,1103 2036,1150 2030,1220 2002,1228 2027,1171 1996,1165 2003,1135 2003,1110 1969,1147 1976,1067 1932,1107 1913,1088 1953,1043 2000,1042" fill="rgb(3.55158%, 6.37946%, 18.3956%)" fill-rule="evenodd" fill-opacity="0.327965"/>
	</g>
	<g id="G3">
		<polygon points="3237,1605 2802,1684 3088,1708 2961,1738 3772,1777 3948,1730 3923,1719" fill="rgb(53.7246%, 57.2345%, 67.5165%)" fill-rule="evenodd" fill-opacity="0.233291"/>
		<polygon points="2355,1633 2399,1635 2455,1745 2869,1749 2736,1805 2741,1834 3050,1869 2976,1791 2929,1799 2779,1774 3481,1627 3659,1617 4177,1644 3502,1476 2845,1476 2132,1481 2187,1643" fill="rgb(54.3594%, 47.632%, 40.8569%)" fill-rule="evenodd" fill-opacity="0.440778"/>
		<polygon points="4612,1508 3471,1509 3512,1513 2810,1520 2605,1600 2894,1666 3283,1614 4064,1743 3871,1838 3743,1844 3500,1884 4284,1841 4354,1855 4320,1890 4585,1860" fill="rgb(48.0134%, 65.6124%, 68.7124%)" fill-rule="evenodd" fill-opacity="0.459155"/>
		<polygon points="4575,1822 4459,1817 4280,1889 3924,1944 3517,1933 3380,1890 2964,1910 2656,1784 2510,1769 2429,1731 2423,1684 2141,1604 2129,1492 2837,1498 3844,1498 4373,1576 4588,1505 4612,1786" fill="rgb(42.5615%, 58.5029%, 81.4692%)" fill-rule="evenodd" fill-opacity="0.403632"/>
		<polygon points="4589,1510 4404,1517 4426,1565 4249,1654 4285,1672 4586,1680" fill="rgb(88.9837%, 89.5608%, 72.9741%)" fill-rule="evenodd" fill-opacity="0.303895"/>
		<polygon points="3643,1857 3455,1883 3360,1840 2466,1747 2440,1669 2172,1661 2135,1604 2163,1480 4526,1522 3852,1845" fill="rgb(64.8785%, 72.62%, 79.4977%)" fill-rule="evenodd" fill-opacity="0.442192"/>
		<polygon points="3498,1981 3625,2024 3806,2065 3928,2043 4137,2081 4405,2164 4606,2232 4612,1523 4082,1491 2124,1476 2136,1631 2751,1789 2782,1851 3002,1940 3195,1924 3323,1936" fill="rgb(48.5756%, 76.6111%, 100%)" fill-rule="evenodd" fill-opacity="0.469926"/>
		<polygon points="4455,1728 4523,1738 4576,1736 4612,1649 4583,1581 4612,1493 4163,1489 4161,1729" fill="rgb(67.1077%, 75.4226%, 84.9234%)" fill-rule="evenodd" fill-opacity="0.306543"/>
		<polygon points="2765,1801 2736,1820 2426,1765 2657,1770 2658,1795 2792,1732" fill="rgb(4.25618%, 5.11463%, 4.82089%)" fill-rule="evenodd" fill-opacity="0.495669"/>
		<polygon points="2218,1525 2150,1509 2124,1642 2171,1651 2193,1673 2322,1684 2173,1633 2677,1736 2590,1638 2347,1537 2558,1494" fill="rgb(89.5267%, 88.1291%, 81.029%)" fill-rule="evenodd" fill-opacity="0.168187"/>
		<polygon points="4173,1697 3258,1714 2658,1713 2593,1643 2352,1538 2485,1507 2737,1486 3132,1495 3836,1495 4170,1508" fill="rgb(68.4937%, 74.3367%, 79.9123%)" fill-rule="evenodd" fill-opacity="0.398532"/>
		<polygon points="4078,1832 4318,1814 4603,1812 4584,2109 4400,2109 3720,1991 3573,1967 3378,1929 3422,1849 3264,1822" fill="rgb(21.1046%, 46.9264%, 80.2015%)" fill-rule="evenodd" fill-opacity="0.447381"/>
		<polygon points="4264,1787 4065,1830 3733,1805 3541,1816 2896,1770 3049,1815 2964,1880 3829,2085 4016,2054 4099,1938 4294,1911 4561,1897 4592,1850" fill="rgb(31.8233%, 40.529%, 54.102%)" fill-rule="evenodd" fill-opacity="0.186822"/>
		<polygon points="4067,2070 4176,2114 4372,2158 4427,2167 4121,2078" fill="rgb(42.3242%, 40.4863%, 78.5545%)" fill-rule="evenodd" fill-opacity="0.180953"/>
	</g>
	<g id="G4">
		<polygon points="2730,1923 2786,1879 2651,1860 2672,1824 2737,1841 3047,1947 3163,1928 3280,1934 3798,2063 3925,2049 4073,2066 4561,2213 4566,2236 2974,2237 2827,2102 2713,2020" fill="rgb(80.11%, 80.1095%, 81.8294%)" fill-rule="evenodd" fill-opacity="0.304716"/>
		<polygon points="2869,2008 2797,1961 2822,2018 2545,2023 2525,2010 2491,1936 2434,1910 2438,1765 2467,1716 2490,1736 2742,1787 2918,1924 2960,2006" fill="rgb(40.063%, 45.5739%, 50.0759%)" fill-rule="evenodd" fill-opacity="0.290317"/>
		<polygon points="2782,1789 2782,1765 2689,1774" fill="rgb(31.7216%, 48.9328%, 50.6859%)" fill-rule="evenodd" fill-opacity="0.198581"/>
		<polygon points="3355,2049 3394,2201 3557,2233 3584,2203 3635,2109 3740,2120 3810,2193 3784,2194 3814,2223 4143,2225 4175,2202 4563,2209 4359,2131 4138,2068 3937,2026 3816,2055 3675,2023 3380,1934" fill="rgb(34.6431%, 36.6237%, 51.4781%)" fill-rule="evenodd" fill-opacity="0.168574"/>
		<polygon points="2720,1788 2749,1824 3072,2000 2544,2053 2463,1933 2336,1920 2492,1752" fill="rgb(65.5409%, 59.8356%, 50.8278%)" fill-rule="evenodd" fill-opacity="0.267056"/>
		<polygon points="2278,1672 2157,1661 2179,1717 2251,1704" fill="rgb(88.6995%, 90.7309%, 77.4977%)" fill-rule="evenodd" fill-opacity="0.148393"/>
		<polygon points="3073,2123 3128,2152 3107,2086" fill="rgb(76.0641%, 77.1689%, 66.9993%)" fill-rule="evenodd" fill-opacity="0.100000"/>
		<polygon points="3314,1920 3025,1924 2656,1797 2616,1946 2768,1957 2764,2045 2718,2009 2708,1959 2665,1998 2864,2152 2890,2189 2921,2188 2950,2155 3011,2230 3108,2204 3056,2141 3039,2084 3488,1981" fill="rgb(33.0343%, 32.7796%, 36.5016%)" fill-rule="evenodd" fill-opacity="0.396397"/>
		<polygon points="2435,1849 2496,1880 2581,1954 2579,1881 2547,1854 2549,1833 2596,1796 2802,1866 2759,1923 3003,1951 2840,1877 2686,1801 2795,1794 2791,1756 2523,1766 2439,1710" fill="rgb(51.4838%, 56.6894%, 63.2922%)" fill-rule="evenodd" fill-opacity="0.164326"/>
		<polygon points="2299,1672 2152,1724 2138,1633" fill="rgb(62.7705%, 72.1553%, 85.1564%)" fill-rule="evenodd" fill-opacity="0.407426"/>
		<polygon points="3593,2233 3566,2204 3552,2154 3481,2199 3428,2168 3373,2180 3354,2196 3412,2226" fill="rgb(61.0656%, 49.2943%, 41.1075%)" fill-rule="evenodd" fill-opacity="0.196914"/>
	</g>
	<g id="G5">
		<polygon points="617,2237 901,2116 937,1932 1063,1921 1109,1977 1120,2023 1401,2004 1599,2051 1668,2095 1338,2237" fill="rgb(63.616%, 65.7842%, 65.5975%)" fill-rule="evenodd" fill-opacity="0.450778"/>
		<polygon points="13,1851 173,1731 215,1726 312,1757 1019,1539 1202,1683 1367,1924 1569,2036 1761,2190 1919,2101 1966,2102 2964,2224 1528,2233 0,2237" fill="rgb(64.8282%, 58.4334%, 53.9859%)" fill-rule="evenodd" fill-opacity="0.317498"/>
		<polygon points="482,1759 654,1809 599,1733 658,1689 763,1663 375,1684" fill="rgb(67.8364%, 52.6745%, 68.8713%)" fill-rule="evenodd" fill-opacity="0.322517"/>
		<polygon points="2277,1942 2307,1908 2481,1953 2506,2017" fill="rgb(78.5879%, 83.5508%, 65.3551%)" fill-rule="evenodd" fill-opacity="0.492749"/>
		<polygon points="1078,1819 1315,1751 927,1623 707,1528 793,1466 568,1473 433,1537 293,1729 827,1794 733,1744 735,1687 926,1680" fill="rgb(78.0609%, 82.9019%, 69.777%)" fill-rule="evenodd" fill-opacity="0.113658"/>
		<polygon points="968,1914 955,1796 999,1644 760,1621 804,1568 994,1528 1126,1574 1468,1660 1504,1693 1403,1737 1329,1657 1264,1729 1175,1774 1043,2110 944,2033" fill="rgb(74.0984%, 72.2558%, 69.8068%)" fill-rule="evenodd" fill-opacity="0.362219"/>
		<polygon points="2497,2171 2652,2185 2639,2215 2964,2234 2964,2197 2859,2174 2835,2091 2583,2026 2405,1937 2399,2087" fill="rgb(80.46%, 79.3537%, 77.4791%)" fill-rule="evenodd" fill-opacity="0.352741"/>
		<polygon points="166,2108 338,1994 397,2036 494,2046 465,2055 494,1747 391,1781 394,1800 320,1849 217,1799 284,1769 192,1796" fill="rgb(61.5848%, 62.7461%, 60.88%)" fill-rule="evenodd" fill-opacity="0.380506"/>
		<polygon points="1651,2117 1542,2046 1446,1935 1554,1720 1429,1662 1358,1690 1253,1554 1099,1710 1140,1555 1067,1547 754,1592 723,1449 612,1453 0,1810 0,2228 1969,2237 1647,2137" fill="rgb(90.4634%, 84.412%, 78.2325%)" fill-rule="evenodd" fill-opacity="0.310126"/>
		<polygon points="783,1712 839,1653 859,1754 816,1828 725,1900" fill="rgb(85.5348%, 88.1455%, 86.2244%)" fill-rule="evenodd" fill-opacity="0.285485"/>
		<polygon points="233,2237 414,2236 512,2208 517,2225 546,2091 344,2088 203,2130" fill="rgb(4.74076%, 2.24554%, 0%)" fill-rule="evenodd" fill-opacity="0.278216"/>
		<polygon points="1138,1669 1045,1691 977,1764 1098,1871" fill="rgb(100%, 100%, 98.5857%)" fill-rule="evenodd" fill-opacity="0.310992"/>
		<polygon points="810,1642 820,1664 763,1716 745,1834 678,1890 616,1851 618,1672" fill="rgb(4.90881%, 9.67062%, 7.41071%)" fill-rule="evenodd" fill-opacity="0.318179"/>
		<polygon points="1679,2182 1831,2193 2022,2189 2156,2207 2193,2123 2425,2173 2333,1896 2460,1913 2542,2049 2742,2046 2964,2225 2825,2232 1456,2222" fill="rgb(81.1457%, 76.3791%, 79.944%)" fill-rule="evenodd" fill-opacity="0.349295"/>
		<polygon points="623,1940 791,1869 758,1875 745,1983 702,1955 660,2000 660,2110 587,2135" fill="rgb(91.552%, 89.4471%, 89.6657%)" fill-rule="evenodd" fill-opacity="0.294032"/>
		<polygon points="240,1869 307,1954 196,2070 151,2003" fill="rgb(91.5125%, 89.9285%, 83.9454%)" fill-rule="evenodd" fill-opacity="0.291873"/>
		<polygon points="1211,1879 1016,1838 951,1932 1130,1918" fill="rgb(83.9688%, 83.8334%, 80.6308%)" fill-rule="evenodd" fill-opacity="0.326372"/>
		<polygon points="292,1676 360,1771 513,1701 699,1648 787,1602" fill="rgb(40.1186%, 33.9962%, 27.0063%)" fill-rule="evenodd" fill-opacity="0.379454"/>
		<polygon points="1004,1563 920,1511 1138,1546" fill="rgb(26.0543%, 10.792%, 33.2704%)" fill-rule="evenodd" fill-opacity="0.369050"/>
		<polygon points="2345,2202 2169,2191 2209,2138 2152,2124 2171,2079 2296,2108 2262,2146 2320,2130" fill="rgb(81.8952%, 80.9844%, 52.9681%)" fill-rule="evenodd" fill-opacity="0.276666"/>
		<polygon points="1059,1968 1128,1989 1246,1998 1476,1985 1373,1924 1335,1888 1115,1862" fill="rgb(23.0418%, 14.9556%, 10.2286%)" fill-rule="evenodd" fill-opacity="0.289119"/>
		<polygon points="1413,1953 1675,2152 1703,2141 1693,2071" fill="rgb(23.3049%, 26.4205%, 24.5512%)" fill-rule="evenodd" fill-opacity="0.329932"/>
		<polygon points="2236,1932 2328,1889 2544,2044 2415,1998 2241,1967" fill="rgb(71.692%, 79.2966%, 93.688%)" fill-rule="evenodd" fill-opacity="0.177377"/>
		<polygon points="544,1506 515,1552 418,1546 370,1572 379,1605 417,1634 669,1540 656,1474" fill="rgb(63.3237%, 58.119%, 54.2687%)" fill-rule="evenodd" fill-opacity="0.232288"/>
		<polygon points="218,2153 118,2138 130,2237" fill="rgb(73.9663%, 72.8645%, 44.3324%)" fill-rule="evenodd" fill-opacity="0.227438"/>
		<polygon points="1073,2130 882,2161 935,2237 978,2234" fill="rgb(23.6063%, 28.8255%, 22.0086%)" fill-rule="evenodd" fill-opacity="0.301770"/>
		<polygon points="1478,2092 1474,2003 1415,1993 1364,2016 1236,2031 1251,2040 1390,2026 1384,2079 1038,2015 932,2035 928,2130 1070,2237" fill="rgb(83.9852%, 82.7107%, 77.6406%)" fill-rule="evenodd" fill-opacity="0.242988"/>
		<polygon points="1300,1660 1236,1613 1164,1638 1243,1671" fill="rgb(77.5723%, 76.2361%, 68.7118%)" fill-rule="evenodd" fill-opacity="0.217922"/>
		<polygon points="1581,2170 1472,2103 1511,2096 1641,2105 1568,2130" fill="rgb(14.2118%, 15.8946%, 11.5094%)" fill-rule="evenodd" fill-opacity="0.181728"/>
		<polygon points="1353,1716 1519,1726 1528,1755 1451,1796 1417,1855 1356,1846" fill="rgb(95.0586%, 86.1235%, 55.2046%)" fill-rule="evenodd" fill-opacity="0.100000"/>
		<polygon points="391,2003 424,1942 549,1991 834,1752 810,1706 766,1730 815,1796 819,1891 804,1891 862,2023 601,2045 555,2108 612,2237 700,2043 560,2037 403,2071 347,2014" fill="rgb(76.6534%, 75.4191%, 67.4674%)" fill-rule="evenodd" fill-opacity="0.274642"/>
		<polygon points="1905,2128 2033,2091 2104,2115 2271,2111 2314,2171 2412,2175 2453,2072 2625,2055 2627,2031 2702,2021 2952,2234 2169,2237 1783,2233" fill="rgb(82.1388%, 80.4266%, 76.6424%)" fill-rule="evenodd" fill-opacity="0.532163"/>
		<polygon points="302,2196 270,2222 404,2234 418,2206" fill="rgb(15.0609%, 9.58105%, 29.1504%)" fill-rule="evenodd" fill-opacity="0.281517"/>
	</g>
	<g id="G6">
		<polygon points="2061,587 2018,601 2023,642 2130,751 2207,679 2071,529 2020,541" fill="rgb(65.0284%, 61.3259%, 81.8616%)" fill-rule="evenodd" fill-opacity="0.333108"/>
		<polygon points="2214,1134 2122,1392 2104,1304 2071,1188 2010,1120 2137,990 2168,943 2164,838 2031,633 2060,529 2103,572 2089,543 2147,602 2282,768 2324,826 2325,876 2269,1021" fill="rgb(49.1305%, 71.0117%, 90.7616%)" fill-rule="evenodd" fill-opacity="0.211096"/>
		<polygon points="2057,561 2035,554 2049,529 2056,540 2023,657 2012,600" fill="rgb(39.1178%, 45.3084%, 64.3304%)" fill-rule="evenodd" fill-opacity="0.265513"/>
		<polygon points="2094,1055 2041,1076 2005,1096 2083,1218 2122,1326 2150,1330 2146,1268 2207,1176 2325,840 2270,747 2202,660 2216,670 2119,761 2179,838 2167,924" fill="rgb(72.7712%, 69.0689%, 94.065%)" fill-rule="evenodd" fill-opacity="0.228578"/>
		<polygon points="1758,1112 1777,1129 1759,1179 1740,1206 1744,1233 1678,1314 1683,1287" fill="rgb(92.3562%, 86.7113%, 39.9353%)" fill-rule="evenodd" fill-opacity="0.323408"/>
		<polygon points="1497,892 1682,1357 1723,1236 1739,1253 1805,1130 1636,901 1659,818 1660,782 1680,751 1732,539 1596,660 1501,773 1481,811" fill="rgb(68.3817%, 73.8646%, 98.0802%)" fill-rule="evenodd" fill-opacity="0.351463"/>
		<polygon points="2121,1215 2092,1138 2065,1146 2131,1262" fill="rgb(93.553%, 85.882%, 81.7093%)" fill-rule="evenodd" fill-opacity="0.406310"/>
		<polygon points="2150,1335 2098,1261 2110,1230 2146,1282 2155,1227" fill="rgb(77.6695%, 73.7131%, 73.5985%)" fill-rule="evenodd" fill-opacity="0.158453"/>
		<polygon points="1751,675 1808,622 1770,529 1734,533 1676,768" fill="rgb(60.0103%, 66.4148%, 96.4349%)" fill-rule="evenodd" fill-opacity="0.378049"/>
		<polygon points="1690,1404 1675,1387 1657,1314 1700,1252" fill="rgb(75.0384%, 76.7267%, 53.7597%)" fill-rule="evenodd" fill-opacity="0.265374"/>
		<polygon points="2170,1064 2209,959 2265,896 2266,946 2325,824 2268,737 2153,635 2175,673 2152,988" fill="rgb(52.9978%, 54.7666%, 73.7655%)" fill-rule="evenodd" fill-opacity="0.104633"/>
		<polygon points="1706,1385 1759,1158 1837,1092 1764,1073 1803,1127 1764,1115 1715,1190 1694,1252 1671,1286 1667,1348 1699,1457" fill="rgb(76.0614%, 76.285%, 94.4541%)" fill-rule="evenodd" fill-opacity="0.237762"/>
		<polygon points="1771,660 1767,627 1783,615 1851,613" fill="rgb(17.9266%, 38.4268%, 50.3026%)" fill-rule="evenodd" fill-opacity="0.293532"/>
		<polygon points="1650,691 1621,711 1614,636 1735,529 1749,590 1725,647" fill="rgb(41.2155%, 52.1843%, 76.9061%)" fill-rule="evenodd" fill-opacity="0.137595"/>
		<polygon points="1549,798 1534,807 1510,887 1481,796 1524,729 1631,642 1615,640 1618,712" fill="rgb(37.3944%, 48.2487%, 67.41%)" fill-rule="evenodd" fill-opacity="0.194644"/>
		<polygon points="2089,732 2081,690 2069,662 2057,710 2094,688 2156,723 2126,761 2147,818" fill="rgb(12.4281%, 11.3256%, 23.0686%)" fill-rule="evenodd" fill-opacity="0.210195"/>
		<polygon points="1835,626 1769,545 1763,562 1795,585 1742,632 1679,769 1781,658" fill="rgb(7.39107%, 10.8216%, 23.3237%)" fill-rule="evenodd" fill-opacity="0.462895"/>
	</g>
	<g id="G7">
		<polygon points="2137,1437 2754,1455 2855,1458 3109,1472 3622,1474 4060,1481 4361,1496 4610,1497 4610,1335 3920,1332 3777,1312 3295,1289 3389,1315 2173,1312" fill="rgb(48.8972%, 64.2804%, 81.9691%)" fill-rule="evenodd" fill-opacity="0.456273"/>
		<polygon points="2138,1373 2154,1316 2326,1289 2674,1292 2794,1303 3141,1299 3403,1314 3839,1348 4024,1356 4091,1351 4360,1350 4610,1365 4610,1471 2533,1436" fill="rgb(71.6662%, 90.6176%, 97.2077%)" fill-rule="evenodd" fill-opacity="0.500757"/>
		<polygon points="2134,1478 2091,1378 2443,1335 2850,1401 3707,1374 3881,1360 3709,1433 3565,1434 4610,1465 4610,1503 4288,1500 4144,1486 4050,1483 3892,1489" fill="rgb(32.3915%, 41.054%, 46.8104%)" fill-rule="evenodd" fill-opacity="0.389018"/>
		<polygon points="3441,1277 3544,1333 3543,1339 3951,1361 2951,1397 3018,1429 2363,1431 2166,1430 2158,1426 2109,1354 2150,1277" fill="rgb(65.4147%, 77.7215%, 96.4087%)" fill-rule="evenodd" fill-opacity="0.333793"/>
		<polygon points="3000,1277 3502,1277 3504,1295 3873,1300 3935,1327 4610,1328 4608,1346 3932,1338" fill="rgb(9.11982%, 12.7261%, 12.124%)" fill-rule="evenodd" fill-opacity="0.600000"/>
		<polygon points="1078,1280 1225,1286 1592,1280 1664,1277 1656,1334 1520,1336 1464,1331 1377,1305 1202,1315 1124,1309" fill="rgb(46.1781%, 63.6083%, 81.4545%)" fill-rule="evenodd" fill-opacity="0.425938"/>
		<polygon points="4243,1357 4015,1356 4153,1350 4311,1348 4610,1364 4610,1376 4460,1370 4418,1358" fill="rgb(7.05309%, 7.61535%, 18.5592%)" fill-rule="evenodd" fill-opacity="0.257963"/>
		<polygon points="1627,1333 1493,1338 1626,1387 1725,1388" fill="rgb(47.4172%, 65.6486%, 93.9424%)" fill-rule="evenodd" fill-opacity="0.293448"/>
		<polygon points="3446,1431 2892,1431 3047,1470 2744,1467 2507,1467 2132,1451 2123,1385 2187,1369 2307,1350 2307,1318 2249,1289 2624,1303 2727,1319 3505,1324 3545,1348 3740,1358 3928,1363 3865,1366 3707,1434" fill="rgb(79.622%, 89.3463%, 100%)" fill-rule="evenodd" fill-opacity="0.294320"/>
		<polygon points="2735,1308 2670,1302 2694,1297 2223,1288 2565,1280 2904,1295 2968,1288 3437,1300 3564,1311" fill="rgb(32.8368%, 39.1194%, 43.9513%)" fill-rule="evenodd" fill-opacity="0.562796"/>
		<polygon points="1678,1349 1628,1287 1408,1289 1269,1292 1271,1317 1511,1347 1474,1368 1696,1449" fill="rgb(56.4139%, 73.6783%, 95.473%)" fill-rule="evenodd" fill-opacity="0.397916"/>
		<polygon points="3373,1466 3913,1470 4288,1483 4466,1505 4610,1505 4569,1394 4581,1385 4366,1377 4456,1375 3874,1363 3223,1386 2728,1406 3033,1460" fill="rgb(63.9139%, 77.7322%, 95.5056%)" fill-rule="evenodd" fill-opacity="0.499286"/>
		<polygon points="4610,1495 4603,1505 4282,1505 4208,1497 3785,1470 4036,1469" fill="rgb(29.0113%, 31.0186%, 33.1617%)" fill-rule="evenodd" fill-opacity="0.341679"/>
		<polygon points="1183,1296 1298,1337 1306,1352 1380,1345 1537,1366 1674,1423 1670,1320 1630,1277 1142,1277" fill="rgb(68.6683%, 86.9355%, 100%)" fill-rule="evenodd" fill-opacity="0.375313"/>
		<polygon points="3659,1323 3427,1313 3361,1304 3286,1306 3856,1349 4057,1350 4125,1352 4000,1356 3938,1352 3875,1341 3702,1333" fill="rgb(59.6738%, 69.8291%, 83.5462%)" fill-rule="evenodd" fill-opacity="0.303995"/>
		<polygon points="2733,1376 2324,1375 2136,1370 2239,1334 2100,1310 2185,1291 2391,1277 2475,1287 2629,1285" fill="rgb(57.5673%, 69.1719%, 78.271%)" fill-rule="evenodd" fill-opacity="0.269910"/>
		<polygon points="3963,1482 3557,1480 3342,1475 3121,1459 3785,1462 3905,1461 4401,1476 4427,1492 4554,1502 4499,1505 4112,1505" fill="rgb(27.8083%, 36.5809%, 45.6036%)" fill-rule="evenodd" fill-opacity="0.392074"/>
		<polygon points="1382,1339 1531,1351 1550,1344 1410,1312 1406,1291 1673,1277 1224,1280 1105,1297 1062,1277 1077,1312 1312,1340" fill="rgb(38.3811%, 45.2672%, 54.9757%)" fill-rule="evenodd" fill-opacity="0.224992"/>
		<polygon points="1482,1340 1696,1365 1694,1311 1660,1330 1554,1284 1399,1325" fill="rgb(51.0182%, 77.7498%, 100%)" fill-rule="evenodd" fill-opacity="0.133899"/>
		<polygon points="3708,1479 3608,1476 3420,1480 2801,1474 2398,1467 3235,1469 3231,1472 2365,1430 2732,1425 2747,1414 2809,1398 3152,1422 3484,1438 3628,1443 3746,1461" fill="rgb(77.6307%, 62.2882%, 55.1941%)" fill-rule="evenodd" fill-opacity="0.190043"/>
		<polygon points="3731,1328 3429,1322 3413,1312 3558,1306 3661,1310 3709,1328" fill="rgb(74.966%, 34.392%, 34.3584%)" fill-rule="evenodd" fill-opacity="0.123351"/>
		<polygon points="4382,1347 4101,1347 3973,1365 4425,1363 4610,1362" fill="rgb(42.1348%, 49.7135%, 59.7494%)" fill-rule="evenodd" fill-opacity="0.314182"/>
		<polygon points="1404,1289 1346,1295 1309,1316 1725,1304 1634,1294 1415,1292" fill="rgb(64.0092%, 67.4598%, 89.307%)" fill-rule="evenodd" fill-opacity="0.110385"/>
	</g>
	<g id="G8">
		<polygon points="3367,1327 2146,1312 2355,803 2155,619 2764,521 3662,577 4168,625 4565,658 4608,1380 4007,1380" fill="rgb(66.0408%, 89.5027%, 96.3007%)" fill-rule="evenodd" fill-opacity="0.577471"/>
		<polygon points="2365,478 2165,504 2123,603 2332,724 2773,664 3522,733 4025,869 4608,883 4608,590" fill="rgb(69.4911%, 40.3188%, 0%)" fill-rule="evenodd" fill-opacity="0.445980"/>
		<polygon points="375,1201 439,1001 673,936 1426,684 1617,1141 1576,1259 1255,1297 920,1316" fill="rgb(1.74603%, 74.0797%, 99.0409%)" fill-rule="evenodd" fill-opacity="0.474744"/>
		<polygon points="258,690 419,723 1178,459 1520,534 1618,541 1603,659 1468,810 1507,1007 1639,1275 1472,1289 859,1285 0,1035 64,809" fill="rgb(37.8206%, 94.0147%, 100%)" fill-rule="evenodd" fill-opacity="0.569098"/>
		<polygon points="4608,416 3353,338 2841,332 2313,384 2144,390 2076,496 2295,696 2277,1270 3397,1325 4608,1372" fill="rgb(73.6815%, 79.6657%, 98.5112%)" fill-rule="evenodd" fill-opacity="0.591311"/>
		<polygon points="1778,89 1823,291 2134,456 1917,613 1754,496 1498,737 1499,886 1630,1272 842,1298 4,1077 0,687 0,8 1690,19" fill="rgb(92.9613%, 82.8031%, 100%)" fill-rule="evenodd" fill-opacity="0.477656"/>
		<polygon points="730,629 1050,559 1947,9 1370,12 908,21 436,103 380,76 589,29 23,23 0,502 37,557 54,814" fill="rgb(91.1103%, 73.0911%, 81.4574%)" fill-rule="evenodd" fill-opacity="0.540347"/>
		<polygon points="2817,1292 2446,1219 2286,1208 2384,808 2027,480 0,1164 0,0 4608,0 4608,1250 3766,1294" fill="rgb(58.0956%, 85.7364%, 100%)" fill-rule="evenodd" fill-opacity="0.600000"/>
		<polygon points="1973,610 1769,542 1210,565 1790,196 1836,7 4608,14 4608,891 3639,852 3300,800 3050,825 2345,815 2015,521" fill="rgb(8.91962%, 59.6245%, 99.3654%)" fill-rule="evenodd" fill-opacity="0.433935"/>
		<polygon points="4585,1172 4599,1343 4044,1332 4142,1377 3300,1313 2205,1303 2171,1220 2219,1107 2453,1054 2996,1014" fill="rgb(83.9332%, 90.1681%, 92.1274%)" fill-rule="evenodd" fill-opacity="0.392030"/>
		<polygon points="4608,0 4608,183 3399,144 2350,154 2209,122 2162,47 2243,0" fill="rgb(5.85202%, 39.0969%, 100%)" fill-rule="evenodd" fill-opacity="0.158643"/>
		<polygon points="2898,643 4608,727 4608,1036 3104,953 2486,942 2285,793 2192,669" fill="rgb(49.9719%, 79.3657%, 89.6583%)" fill-rule="evenodd" fill-opacity="0.349968"/>
		<polygon points="3498,1363 3660,1380 4299,1380 3548,1308 2868,1320 2539,1291 2054,1300 2200,1326" fill="rgb(22.5608%, 22.6379%, 26.555%)" fill-rule="evenodd" fill-opacity="0.228973"/>
		<polygon points="1681,432 1701,227 1395,240 1246,349 973,619 1473,744 1659,668 1699,541" fill="rgb(53.1151%, 72.7%, 87.078%)" fill-rule="evenodd" fill-opacity="0.301672"/>
		<polygon points="3398,1299 3690,1354 4457,1375 3768,1380 3172,1327 2237,1324" fill="rgb(26.3343%, 28.8779%, 29.3092%)" fill-rule="evenodd" fill-opacity="0.461599"/>
		<polygon points="0,966 177,664 874,751 918,854 55,1145 176,1163 735,1288 783,1330 1055,1309 1400,1300 1593,1256 1103,1217 0,1050" fill="rgb(50.0246%, 43.7178%, 39.9173%)" fill-rule="evenodd" fill-opacity="0.133994"/>
		<polygon points="1645,1170 1553,1101 1575,1059 513,1071 397,1146 449,1204 472,1187 741,1298 863,1274 1118,1322 1644,1289" fill="rgb(74.0162%, 76.1611%, 77.7776%)" fill-rule="evenodd" fill-opacity="0.334423"/>
		<polygon points="412,1222 595,1216 748,1269 1561,1278 1627,1263 1592,1322 866,1330" fill="rgb(34.4069%, 32.8644%, 37.0448%)" fill-rule="evenodd" fill-opacity="0.357292"/>
		<polygon points="206,801 0,852 17,439 34,301 1387,115 755,677 937,656 1169,689 1107,775 596,945 425,965 428,975 224,986" fill="rgb(81.1489%, 83.6144%, 89.072%)" fill-rule="evenodd" fill-opacity="0.379983"/>
		<polygon points="1743,73 2017,195 2305,183 2521,229 1995,275 3712,286 3699,297 3866,329 3905,371 2882,414 2445,509 2015,544 1631,399" fill="rgb(24.4023%, 58.8829%, 80.6529%)" fill-rule="evenodd" fill-opacity="0.302688"/>
		<polygon points="3639,625 4104,690 4608,643 4131,475 4608,476 4587,321 3692,227 2834,209 1924,276 1871,556" fill="rgb(31.9532%, 68.1885%, 88.1812%)" fill-rule="evenodd" fill-opacity="0.345304"/>
		<polygon points="722,619 675,579 412,668 512,728 1185,718 1249,602 1655,566 1187,457" fill="rgb(30.9864%, 48.8029%, 79.2554%)" fill-rule="evenodd" fill-opacity="0.165833"/>
		<polygon points="2354,1223 2607,1241 2637,1324 4588,1261 4604,1102 3953,1152 2299,1154" fill="rgb(98.2274%, 56.4615%, 61.0294%)" fill-rule="evenodd" fill-opacity="0.121719"/>
		<polygon points="2059,25 2380,90 3882,92 4549,191 4608,466 2870,424 2688,413 1952,422 1811,334 1540,312 1469,284 1695,13" fill="rgb(25.1807%, 58.9709%, 94.0855%)" fill-rule="evenodd" fill-opacity="0.338921"/>
		<polygon points="3673,465 3109,323 4608,417 4608,572" fill="rgb(23.6702%, 54.9808%, 75.1278%)" fill-rule="evenodd" fill-opacity="0.190948"/>
		<polygon points="1469,882 1543,660 1626,701" fill="rgb(32.4702%, 41.9233%, 52.4499%)" fill-rule="evenodd" fill-opacity="0.175214"/>
	</g>
	<g id="G9">
		<polygon points="172,1538 0,1507 2,1287 7,1112 92,1121 353,1138 414,1201 802,1301 908,1312 783,1325 722,1319 722,1382" fill="rgb(48.6917%, 59.1607%, 100%)" fill-rule="evenodd" fill-opacity="0.454306"/>
		<polygon points="1311,1615 1595,1723 1692,1611 1694,1455 1432,1356 1028,1300 776,1289 509,1217 568,1242 713,1324 755,1582 1021,1531 1135,1569 1179,1612 1270,1570" fill="rgb(70.0185%, 68.4065%, 69.4876%)" fill-rule="evenodd" fill-opacity="0.395017"/>
		<polygon points="221,1677 508,1517 801,1402 700,1301 679,1323 448,1329 3,1387 4,1824" fill="rgb(27.1828%, 17.9881%, 30.016%)" fill-rule="evenodd" fill-opacity="0.523766"/>
		<polygon points="530,1511 169,1723 0,1783 4,1123 313,1118 804,1365" fill="rgb(54.471%, 70.3363%, 58.0969%)" fill-rule="evenodd" fill-opacity="0.244939"/>
		<polygon points="1063,1410 1161,1418 1268,1464 1352,1462 1509,1541 1684,1537 1680,1506 1700,1471 1600,1425 1414,1361 1043,1308 742,1297" fill="rgb(49.578%, 69.3077%, 98.9749%)" fill-rule="evenodd" fill-opacity="0.446760"/>
		<polygon points="684,1427 560,1462 478,1536 357,1458 370,1425 593,1378 783,1271 928,1306 1052,1490 1460,1498 1308,1441 1216,1393" fill="rgb(30.4065%, 32.9086%, 37.8832%)" fill-rule="evenodd" fill-opacity="0.241444"/>
		<polygon points="1683,1560 1479,1543 1462,1530 1691,1520" fill="rgb(38.8917%, 42.058%, 47.211%)" fill-rule="evenodd" fill-opacity="0.383845"/>
		<polygon points="464,1326 533,1321 610,1298 742,1302 841,1283 913,1285 937,1367 903,1384 863,1379 734,1385" fill="rgb(2.54684%, 26.9393%, 51.368%)" fill-rule="evenodd" fill-opacity="0.119711"/>
		<polygon points="708,1318 578,1302 652,1254 961,1320 954,1350 909,1361 849,1365 731,1346" fill="rgb(29.6437%, 40.284%, 60.2455%)" fill-rule="evenodd" fill-opacity="0.283494"/>
		<polygon points="148,1213 112,1133 193,1148 326,1117 318,1115 473,1230" fill="rgb(60.0801%, 74.0878%, 77.6055%)" fill-rule="evenodd" fill-opacity="0.147494"/>
		<polygon points="1159,1655 1151,1585 1193,1609 1183,1658" fill="rgb(85.5591%, 78.8144%, 80.5919%)" fill-rule="evenodd" fill-opacity="0.209288"/>
		<polygon points="350,1125 255,1124 316,1153 382,1154" fill="rgb(35.2265%, 57.6146%, 69.6761%)" fill-rule="evenodd" fill-opacity="0.220759"/>
		<polygon points="1040,1560 1007,1538 1025,1528 1151,1580" fill="rgb(54.701%, 42.7211%, 44.3367%)" fill-rule="evenodd" fill-opacity="0.226017"/>
		<polygon points="318,1661 188,1648 180,1669 235,1697" fill="rgb(56.1661%, 37.7462%, 35.2656%)" fill-rule="evenodd" fill-opacity="0.175112"/>
		<polygon points="663,1399 684,1388 528,1409 469,1434 485,1449" fill="rgb(18.0921%, 12.4946%, 1.92824%)" fill-rule="evenodd" fill-opacity="0.150875"/>
		<polygon points="1354,1345 1355,1377 1379,1409 1652,1431 1616,1410 1392,1335" fill="rgb(54.5028%, 63.3709%, 83.9492%)" fill-rule="evenodd" fill-opacity="0.168209"/>
		<polygon points="162,1131 161,1153 120,1149 63,1108 24,1108 0,1187" fill="rgb(75.7408%, 77.1024%, 99.0587%)" fill-rule="evenodd" fill-opacity="0.199976"/>
		<polygon points="124,1108 129,1210 98,1210 103,1224 13,1193 0,1147 48,1108" fill="rgb(57.5064%, 73.7379%, 83.0258%)" fill-rule="evenodd" fill-opacity="0.129821"/>
		<polygon points="836,1332 1024,1325 1076,1311 963,1286" fill="rgb(44.2917%, 52.1049%, 67.4216%)" fill-rule="evenodd" fill-opacity="0.288922"/>
		<polygon points="1132,1417 1063,1431 929,1424 713,1370 846,1326" fill="rgb(24.5471%, 28.3734%, 38.1526%)" fill-rule="evenodd" fill-opacity="0.242766"/>
		<polygon points="1614,1735 1529,1682 1501,1695 1519,1715 1514,1725" fill="rgb(35.3142%, 34.0136%, 32.3043%)" fill-rule="evenodd" fill-opacity="0.354974"/>
		<polygon points="1536,1397 1399,1350 1311,1383 1347,1399 1385,1394 1573,1455 1671,1452 1579,1404" fill="rgb(41.8473%, 67.475%, 100%)" fill-rule="evenodd" fill-opacity="0.208097"/>
		<polygon points="0,1184 7,1267 15,1282 148,1277 154,1249" fill="rgb(48.1731%, 57.236%, 84.6047%)" fill-rule="evenodd" fill-opacity="0.237154"/>
		<polygon points="1233,1365 1192,1355 1128,1358 1101,1291 1213,1317 1268,1316 1298,1342" fill="rgb(48.7078%, 61.0807%, 58.2445%)" fill-rule="evenodd" fill-opacity="0.100000"/>
		<polygon points="1308,1630 1467,1682 1320,1614" fill="rgb(67.0994%, 73.49%, 60.9229%)" fill-rule="evenodd" fill-opacity="0.189997"/>
		<polygon points="179,1304 171,1308 0,1265 44,1249 48,1227" fill="rgb(62.2101%, 62.1801%, 61.6226%)" fill-rule="evenodd" fill-opacity="0.183360"/>
		<polygon points="726,1419 678,1433 738,1485" fill="rgb(85.9796%, 75.2447%, 80.6363%)" fill-rule="evenodd" fill-opacity="0.102636"/>
		<polygon points="494,1208 727,1268 724,1283 578,1295 485,1268" fill="rgb(71.2417%, 82.2553%, 74.4919%)" fill-rule="evenodd" fill-opacity="0.131476"/>
		<polygon points="396,1591 390,1638 364,1645 328,1625" fill="rgb(73.5551%, 63.3353%, 62.6308%)" fill-rule="evenodd" fill-opacity="0.336024"/>
		<polygon points="852,1315 959,1349 984,1347 1063,1360 1234,1385 1380,1375 1202,1338 1069,1298" fill="rgb(47.4187%, 71.9225%, 92.7099%)" fill-rule="evenodd" fill-opacity="0.259645"/>
		<polygon points="1010,1280 874,1283 881,1391 1003,1401 1026,1379 1098,1372 1197,1346 1286,1334" fill="rgb(23.1153%, 40.7576%, 75.4908%)" fill-rule="evenodd" fill-opacity="0.134831"/>
		<polygon points="578,1391 598,1419 331,1493 336,1453 429,1447 523,1381" fill="rgb(11.8267%, 8.28413%, 2.4474%)" fill-rule="evenodd" fill-opacity="0.160985"/>
		<polygon points="0,1289 248,1334 177,1277 86,1252 0,1245" fill="rgb(62.1332%, 52.4058%, 54.0929%)" fill-rule="evenodd" fill-opacity="0.271322"/>
		<polygon points="536,1242 607,1235 711,1258 491,1316 383,1308 215,1270 0,1186 169,1130 227,1145 275,1127 304,1127 532,1248" fill="rgb(45.1734%, 55.3693%, 92.4297%)" fill-rule="evenodd" fill-opacity="0.191772"/>
		<polygon points="42,1452 85,1445 232,1458 335,1449 370,1435 311,1574 243,1539 25,1569 0,1538 0,1475" fill="rgb(37.5787%, 35.8999%, 36.2203%)" fill-rule="evenodd" fill-opacity="0.294692"/>
		<polygon points="32,1667 96,1657 85,1639 271,1521 214,1467 143,1490 5,1468 0,1695" fill="rgb(17.1003%, 25.2438%, 38.0817%)" fill-rule="evenodd" fill-opacity="0.375461"/>
		<polygon points="638,1454 724,1405 745,1468" fill="rgb(33.0812%, 42.527%, 31.011%)" fill-rule="evenodd" fill-opacity="0.289959"/>
		<polygon points="657,1451 736,1460 721,1383 665,1401 628,1390 633,1379" fill="rgb(58.1426%, 58.7106%, 64.826%)" fill-rule="evenodd" fill-opacity="0.128603"/>
		<polygon points="1067,1433 1257,1467 1315,1436 1232,1433 998,1391" fill="rgb(41.2985%, 49.2534%, 66.8601%)" fill-rule="evenodd" fill-opacity="0.294999"/>
		<polygon points="280,1306 116,1311 0,1288 0,1388 438,1331 469,1307 393,1293" fill="rgb(63.0454%, 35.2686%, 24.3375%)" fill-rule="evenodd" fill-opacity="0.102696"/>
		<polygon points="1423,1470 1314,1439 1114,1438 1370,1497 1510,1554 1700,1533 1638,1490 1658,1483" fill="rgb(30.7898%, 25.9818%, 29.2082%)" fill-rule="evenodd" fill-opacity="0.270413"/>
		<polygon points="1608,1682 1409,1639 1339,1572 1522,1574" fill="rgb(38.0034%, 32.692%, 29.82%)" fill-rule="evenodd" fill-opacity="0.426654"/>
	</g>
	<g id="G10">
		<polygon points="2167,912 2166,834 2097,747 2100,740 2025,737 2003,743 2002,748 2041,876 2047,973 1993,1040 2004,1064 1998,1100 2010,1100 2094,1045 2138,988" fill="rgb(99.3829%, 85.9335%, 100%)" fill-rule="evenodd" fill-opacity="0.600000"/>
		<polygon points="2080,706 2067,704 2035,715 1987,737 2039,880 2046,982 2052,987 1989,1036 2010,1100 2046,1064 2098,1048 2171,913 2163,838" fill="rgb(78.275%, 69.9012%, 98.2932%)" fill-rule="evenodd" fill-opacity="0.376609"/>
		<polygon points="1812,1016 1828,1033 1806,1039 1820,1089 1797,1092 1722,1036 1731,1020 1734,1025 1700,986 1664,958 1641,902 1670,770 1686,766 1826,818 1787,934" fill="rgb(65.0505%, 77.8859%, 100%)" fill-rule="evenodd" fill-opacity="0.600000"/>
		<polygon points="1946,605 1999,630 2070,704 1875,775 1839,806 1798,844 1781,874 1772,814 1781,803 1690,767 1728,705 1757,683 1782,653 1814,640 1826,632 1874,588 1901,592" fill="rgb(38.0734%, 70.8748%, 100%)" fill-rule="evenodd" fill-opacity="0.600000"/>
		<polygon points="1813,1082 1787,1089 1761,1063 1741,1059 1745,1053 1669,942 1663,938 1636,888 1656,825 1659,781 1724,741 1717,744 1719,785 1775,831" fill="rgb(77.8766%, 82.5801%, 96.9101%)" fill-rule="evenodd" fill-opacity="0.500173"/>
		<polygon points="2169,867 2156,958 2125,1005 2126,998 2088,1057 2083,995 2064,992 2047,1003 2034,971 2052,949 2024,818 1999,797 1986,717 1975,720 1929,699 2048,688 2071,700 2101,737 2126,775" fill="rgb(37.0296%, 64.6061%, 94.6659%)" fill-rule="evenodd" fill-opacity="0.400374"/>
		<polygon points="1900,589 2005,633 2072,702 2170,841 2163,936 2151,962 2068,1071 1999,1100 1996,1028 2037,981 2040,879 2014,797 1856,699 1887,715 1815,645 1831,619" fill="rgb(54.5415%, 91.8516%, 100%)" fill-rule="evenodd" fill-opacity="0.585062"/>
		<polygon points="1749,1056 1706,990 1667,958 1662,941 1635,887 1673,809 1655,782 1673,768 1678,782 1735,703 1804,632 1881,706 1914,737 1979,744 1974,774 1969,763 1918,748 1842,804 1813,839 1794,932 1812,1074 1787,1094 1774,1064" fill="rgb(55.9808%, 87.2615%, 100%)" fill-rule="evenodd" fill-opacity="0.584546"/>
		<polygon points="2063,861 2150,863 2175,841 2140,800 2119,783 2090,801 2072,795 2038,801 2003,770 1993,795" fill="rgb(65.3639%, 83.3892%, 88.5741%)" fill-rule="evenodd" fill-opacity="0.568832"/>
		<polygon points="1662,782 1647,904 1696,926 1800,892 1819,827 1891,766 1923,754 1985,771 2045,857 2144,869 2175,839 2083,723 2001,630 1933,598 1885,588 1870,589" fill="rgb(37.5667%, 71.056%, 94.0502%)" fill-rule="evenodd" fill-opacity="0.547736"/>
		<polygon points="1914,760 1901,756 1982,762 1953,704 1878,700" fill="rgb(45.6444%, 73.9141%, 93.9437%)" fill-rule="evenodd" fill-opacity="0.397803"/>
		<polygon points="1692,843 1664,828 1635,882 1669,959 1702,995 1735,980 1791,969 1806,877 1836,813 1913,745 1909,732 1810,676 1778,670 1721,705 1719,780 1750,812 1768,840" fill="rgb(53.7114%, 77.0998%, 90.6621%)" fill-rule="evenodd" fill-opacity="0.345020"/>
		<polygon points="1834,691 1865,695 1880,702 1923,750 1863,769 1840,758 1798,769 1724,750 1741,731 1794,709 1773,656" fill="rgb(32.5321%, 71.0198%, 94.3313%)" fill-rule="evenodd" fill-opacity="0.136350"/>
	</g>
	<g id="G11">
		<polygon points="2021,998 2007,1017 1995,1026 1978,951 1959,947 1923,945 1895,934 1885,934 1886,952 1927,982 1928,981 1955,987 1980,956 1984,982 2040,968 2038,986" fill="rgb(71.4245%, 69.5193%, 85.8945%)" fill-rule="evenodd" fill-opacity="0.331199"/>
		<polygon points="1895,816 1930,778 1950,766 1990,782 2022,824 2043,890 2010,850 1986,842 1990,877 1961,866 1926,841 1885,829" fill="rgb(74.4924%, 70.8767%, 94.9477%)" fill-rule="evenodd" fill-opacity="0.389834"/>
		<polygon points="2016,946 2016,939 1998,934 2005,908 1975,901 1985,933 1967,977 2010,969" fill="rgb(53.0476%, 59.4558%, 74.8636%)" fill-rule="evenodd" fill-opacity="0.330093"/>
		<polygon points="1911,756 1891,772 1924,772 1934,779 1950,771 1997,795 1989,744 1983,747 1983,756 1978,775 1950,759" fill="rgb(34.7574%, 65.1687%, 100%)" fill-rule="evenodd" fill-opacity="0.522071"/>
		<polygon points="1884,1054 1857,1052 1854,984 1865,997 1878,1026 1897,1048" fill="rgb(92.76%, 77.3167%, 65.9043%)" fill-rule="evenodd" fill-opacity="0.555841"/>
		<polygon points="1984,980 1978,986 2003,986 2019,897 2005,855 2009,842 1982,804 1958,788 1894,796 1940,863 1911,897 1871,896 1857,910 1858,941 1867,965 1882,986" fill="rgb(99.185%, 45.3522%, 38.4506%)" fill-rule="evenodd" fill-opacity="0.320893"/>
		<polygon points="1923,808 1946,821 1986,829 2034,865 2042,901 1985,956 1980,923 1972,901 1933,890 1934,842 1940,861 1894,820 1891,802" fill="rgb(67.7047%, 60.1473%, 70.2712%)" fill-rule="evenodd" fill-opacity="0.362755"/>
		<polygon points="1865,862 1878,819 1885,819 1894,801 1905,800 1926,803 1942,800 1990,857 1977,843 1960,840 1942,851 1907,833 1914,891 1957,956 1983,994 1891,987 1869,968 1863,930 1863,915 1857,881" fill="rgb(99.2616%, 75.5347%, 64.307%)" fill-rule="evenodd" fill-opacity="0.340294"/>
		<polygon points="2042,926 2039,903 2026,919 1990,903 1946,914 1970,865 1992,826 1939,788 1913,785 1902,790 1881,830 1927,842 1939,869 1925,893 1908,900 1872,890 1865,908 1863,922 1863,949 1881,987 1893,993 1933,995 2040,968" fill="rgb(100%, 77.0123%, 61.964%)" fill-rule="evenodd" fill-opacity="0.467128"/>
		<polygon points="1859,1053 1881,895 1906,897 1902,910 1895,918 1899,930 1945,868 2004,879 1995,901 2011,911 1997,961 1991,961 1981,970 1996,1022 1993,1017 2011,1010 1991,1042 1967,1053" fill="rgb(100%, 79.0927%, 96.8391%)" fill-rule="evenodd" fill-opacity="0.254136"/>
		<polygon points="1918,758 1874,780 1846,800 1884,817 1886,819 1882,838 1922,835 1931,846 1929,854 1955,873 1945,860 1950,846 2004,842 1986,810 1942,785 1943,780 1935,762 1946,758" fill="rgb(100%, 90.5233%, 75.7705%)" fill-rule="evenodd" fill-opacity="0.343949"/>
		<polygon points="1840,883 1841,932 1848,913 1822,977 1852,978 1850,998 1854,1038 1872,1057 1897,1047 1932,1057 1946,1040 1913,1014 1953,971 1948,937 1946,910 1900,897 1863,851" fill="rgb(100%, 84.3828%, 51.938%)" fill-rule="evenodd" fill-opacity="0.215254"/>
		<polygon points="1944,778 1923,760 1879,775 1839,807 1820,828 1817,852 1834,833 1865,808 1879,815 1894,795" fill="rgb(0%, 8.9982%, 34.8551%)" fill-rule="evenodd" fill-opacity="0.460190"/>
		<polygon points="1926,836 1933,853 1944,863 1961,862 1947,889 1934,906 1913,891 1910,856 1906,840" fill="rgb(79.518%, 61.051%, 32.254%)" fill-rule="evenodd" fill-opacity="0.164689"/>
		<polygon points="1831,812 1853,803 1882,816 1897,797 1949,795 1984,805 1950,857 1949,875 1953,884 1920,907 1952,909 1956,974 1931,987 1873,963 1856,1053 1814,1026 1792,955 1803,880" fill="rgb(100%, 87.917%, 100%)" fill-rule="evenodd" fill-opacity="0.247503"/>
		<polygon points="1933,1057 1944,1047 1914,1021 1898,1022 1897,1026 1903,1038 1902,1041 1918,1052 1923,1057" fill="rgb(94.0336%, 78.8707%, 68.0619%)" fill-rule="evenodd" fill-opacity="0.344300"/>
		<polygon points="2017,888 2009,898 1997,898 1986,843 2023,866 2028,875 2018,893" fill="rgb(21.5111%, 41.5914%, 73.517%)" fill-rule="evenodd" fill-opacity="0.251181"/>
		<polygon points="1943,923 1975,928 1989,937 1978,945 1945,929 1930,936 1927,940 1900,937" fill="rgb(44.0376%, 0%, 3.02707%)" fill-rule="evenodd" fill-opacity="0.348135"/>
		<polygon points="1894,797 1869,825 1871,830 1862,843 1865,856 1886,858" fill="rgb(84.2855%, 49.6581%, 54.933%)" fill-rule="evenodd" fill-opacity="0.131208"/>
		<polygon points="1817,1023 1804,1000 1793,947 1799,937 1813,989 1821,1025" fill="rgb(74.4063%, 95.8169%, 100%)" fill-rule="evenodd" fill-opacity="0.451624"/>
		<polygon points="1883,1057 1881,1052 1959,1052 1928,1022 1901,1013 1881,1015 1867,1003 1858,1004 1860,1000 1867,1057" fill="rgb(100%, 77.8641%, 70.9267%)" fill-rule="evenodd" fill-opacity="0.392647"/>
		<polygon points="2006,798 2004,813 2020,818 2038,875 2034,867 2038,869 2037,905 2033,878" fill="rgb(48.8253%, 66.6079%, 100%)" fill-rule="evenodd" fill-opacity="0.393446"/>
		<polygon points="2016,832 1987,788 1951,764 1911,766 1885,790 1881,798 1890,801 1912,790 1960,793" fill="rgb(0%, 2.01164%, 13.1601%)" fill-rule="evenodd" fill-opacity="0.404395"/>
		<polygon points="2011,1005 2005,1019 1996,1029 1988,1044 1991,1020" fill="rgb(44.4702%, 77.1583%, 92.4588%)" fill-rule="evenodd" fill-opacity="0.381245"/>
		<polygon points="1799,976 1810,1018 1834,1041 1838,1040 1847,1032 1845,1019 1827,1000 1815,977 1807,966 1801,913 1796,917 1798,923 1793,953" fill="rgb(55.5567%, 82.9217%, 100%)" fill-rule="evenodd" fill-opacity="0.406886"/>
		<polygon points="1870,989 1861,998 1914,1013 1925,1002 1899,992 1859,974" fill="rgb(15.7159%, 1.44574%, 13.6009%)" fill-rule="evenodd" fill-opacity="0.274887"/>
		<polygon points="1978,841 1990,846 2018,848 2020,903 1954,881 1953,861" fill="rgb(23.9748%, 34.2426%, 28.8019%)" fill-rule="evenodd" fill-opacity="0.362604"/>
		<polygon points="1836,867 1847,827 1851,819 1836,833 1828,864 1826,883" fill="rgb(42.2049%, 44.6524%, 58.3%)" fill-rule="evenodd" fill-opacity="0.223717"/>
		<polygon points="2031,998 2037,990 2039,977 2030,976" fill="rgb(27.1768%, 75.5186%, 97.6049%)" fill-rule="evenodd" fill-opacity="0.178210"/>
		<polygon points="2036,901 2035,886 2028,850 2034,854 2042,891" fill="rgb(31.3729%, 85.8322%, 75.6116%)" fill-rule="evenodd" fill-opacity="0.171395"/>
		<polygon points="1923,940 1893,943 1886,993 1902,995 1925,983 1934,956" fill="rgb(89.7669%, 91.7312%, 67.988%)" fill-rule="evenodd" fill-opacity="0.143905"/>
		<polygon points="1971,729 1975,729 1987,745 1978,750" fill="rgb(43.3713%, 55.285%, 56.8655%)" fill-rule="evenodd" fill-opacity="0.227330"/>
		<polygon points="1996,985 1999,978 1989,967 1977,976 1985,990" fill="rgb(16.6193%, 41.6637%, 34.7401%)" fill-rule="evenodd" fill-opacity="0.191529"/>
		<polygon points="1979,771 1990,771 1991,769 1980,757" fill="rgb(26.5524%, 78.5025%, 88.4791%)" fill-rule="evenodd" fill-opacity="0.313983"/>
	</g>
</svg>