<?xml version="1.0" encoding="UTF-8" standalone="no"?>
<svg xmlns:svg="http://www.w3.org/2000/svg" xmlns="http://www.w3.org/2000/svg" width="1202" height="1787">
	<rect width = "1202" height="1787" fill="rgb(0%, 0%, 0%)"/>
	<g id="G0">
		<polygon points="744,64 367,121 258,115 228,169 292,257 227,286 118,312 168,381 205,337 243,367 306,472 416,320 450,247 532,168 600,156 846,215 982,185 988,165 864,78" fill="rgb(87.1896%, 55.9745%, 29.8258%)" fill-rule="evenodd" fill-opacity="0.244716"/>
		<polygon points="792,275 698,166 412,180 258,197 0,0 1200,0 1200,549 934,506 820,474 824,354" fill="rgb(82.103%, 97.5865%, 62.1427%)" fill-rule="evenodd" fill-opacity="0.452161"/>
		<polygon points="370,632 368,466 382,364 480,180 328,146 260,126 177,87 107,77 65,33 0,16 0,235 23,352 18,380 85,384 75,431 0,506 0,732 77,780 93,760 145,751 178,713 244,707 396,721" fill="rgb(56.6687%, 56.5384%, 42.7505%)" fill-rule="evenodd" fill-opacity="0.419444"/>
		<polygon points="366,717 401,693 352,569 323,561 386,412 389,319 274,347 252,321 181,294 35,291 79,253 0,75 0,263 7,332 24,537 51,486 86,522 72,565 151,693 337,727" fill="rgb(43.0694%, 43.0272%, 27.9643%)" fill-rule="evenodd" fill-opacity="0.408484"/>
		<polygon points="322,189 257,198 241,221 141,211 60,237 137,348 108,355 253,364 310,431 361,418 386,347 504,172" fill="rgb(76.5984%, 81.9406%, 54.4466%)" fill-rule="evenodd" fill-opacity="0.306294"/>
		<polygon points="220,676 162,694 39,707 28,754 62,774 191,715 203,725 268,717 288,729 381,702 416,727 403,710 363,622" fill="rgb(62.8588%, 76.1024%, 60.6065%)" fill-rule="evenodd" fill-opacity="0.211375"/>
		<polygon points="217,22 123,101 60,27 126,27 148,23 196,43 185,45 134,102 232,178 257,114 363,122 803,55" fill="rgb(72.4555%, 68.0399%, 31.2956%)" fill-rule="evenodd" fill-opacity="0.150531"/>
		<polygon points="0,0 246,188 258,212 297,265 389,264 387,434 293,424 286,386 157,385 115,352 0,360 31,354 1,371" fill="rgb(81.2566%, 75.9218%, 50.7882%)" fill-rule="evenodd" fill-opacity="0.296533"/>
		<polygon points="35,295 63,245 82,254 94,294 123,320 80,348 63,349 0,305" fill="rgb(70.3539%, 75.3147%, 52.3714%)" fill-rule="evenodd" fill-opacity="0.254019"/>
		<polygon points="1099,292 1027,229 969,235 871,283 995,386 993,511 1196,341 1200,304 1172,219" fill="rgb(69.6517%, 68.6356%, 46.9797%)" fill-rule="evenodd" fill-opacity="0.356121"/>
		<polygon points="0,58 7,101 0,504 58,449 381,442 376,369 400,322 460,221 535,174 299,190 261,199 0,0" fill="rgb(75.4561%, 84.8995%, 50.6115%)" fill-rule="evenodd" fill-opacity="0.288796"/>
		<polygon points="227,443 160,445 232,509 234,539 108,482 47,476 0,456 12,535 48,449 332,448" fill="rgb(60.6658%, 75.8184%, 52.6754%)" fill-rule="evenodd" fill-opacity="0.122934"/>
		<polygon points="853,41 732,59 629,83 530,112 584,48 420,33 605,12" fill="rgb(45.2802%, 59.1871%, 40.8492%)" fill-rule="evenodd" fill-opacity="0.148768"/>
		<polygon points="66,169 89,152 105,153 116,139 143,144 191,92 176,81 166,100 0,1 0,124 12,287 30,83" fill="rgb(30.7771%, 44.6296%, 18.8545%)" fill-rule="evenodd" fill-opacity="0.204157"/>
		<polygon points="1140,702 1200,679 1102,689" fill="rgb(68.1833%, 62.2064%, 54.9149%)" fill-rule="evenodd" fill-opacity="0.318293"/>
		<polygon points="911,204 1051,154 1179,106 1191,115 1197,151 1200,483 1026,493 955,374 829,331 821,412 805,324 752,203" fill="rgb(87.1049%, 81.6709%, 52.1344%)" fill-rule="evenodd" fill-opacity="0.340842"/>
		<polygon points="719,197 661,170 700,154" fill="rgb(85.6607%, 92.1732%, 58.6063%)" fill-rule="evenodd" fill-opacity="0.347829"/>
		<polygon points="991,178 882,86 933,69 920,64 1066,63 1086,38 1194,33 1189,102" fill="rgb(77.5656%, 75.2413%, 50.213%)" fill-rule="evenodd" fill-opacity="0.234064"/>
		<polygon points="820,209 845,205 888,209 913,244 913,236 854,237 836,243" fill="rgb(35.6841%, 35.1296%, 20.479%)" fill-rule="evenodd" fill-opacity="0.100000"/>
		<polygon points="711,157 789,104 817,171 857,211 788,200 738,222 753,225 649,170" fill="rgb(58.6103%, 67.6169%, 46.3413%)" fill-rule="evenodd" fill-opacity="0.175293"/>
		<polygon points="978,718 1194,674 1200,550 921,503 834,477 855,693" fill="rgb(77.3221%, 86.8737%, 67.5731%)" fill-rule="evenodd" fill-opacity="0.370071"/>
		<polygon points="163,660 285,648 284,694 156,678" fill="rgb(29.3247%, 40.8518%, 56.7675%)" fill-rule="evenodd" fill-opacity="0.166707"/>
	</g>
	<g id="G1">
		<polygon points="914,1056 859,945 773,960 881,898 952,887 867,848 771,862 601,991 801,956 803,966 736,1028 832,1056 847,1128 871,1130" fill="rgb(97.5346%, 65.1154%, 3.95333%)" fill-rule="evenodd" fill-opacity="0.164848"/>
		<polygon points="438,1785 451,1769 458,1615 485,1768 529,1779 574,1776 565,1787" fill="rgb(77.826%, 29.4767%, 19.7643%)" fill-rule="evenodd" fill-opacity="0.100000"/>
		<polygon points="604,1785 617,1677 671,1566 700,1485 847,1235 874,1265 998,1350 1046,1434 996,1450 989,1504 1040,1608 1072,1642 1199,1729 1202,1787" fill="rgb(42.8879%, 24.8037%, 93.3113%)" fill-rule="evenodd" fill-opacity="0.110483"/>
		<polygon points="514,1319 560,1349 653,1463 741,1545 562,1450 687,1582 827,1586 931,1544 943,1472 1027,1449 1024,1414 1012,1402 997,1416 1004,1352 741,1176 534,1094 506,1138 489,1236 440,1284" fill="rgb(63.6375%, 34.3031%, 35.808%)" fill-rule="evenodd" fill-opacity="0.114613"/>
		<polygon points="377,1605 409,1571 447,1575 559,1579 710,1601 652,1600 603,1636 536,1667 433,1662 370,1655" fill="rgb(55.2817%, 32.7777%, 11.8256%)" fill-rule="evenodd" fill-opacity="0.249980"/>
		<polygon points="368,1638 388,1590 468,1564 654,1585 694,1599 696,1644 623,1656 602,1787 367,1786 347,1669" fill="rgb(34.9645%, 13.0163%, 36.8653%)" fill-rule="evenodd" fill-opacity="0.294274"/>
		<polygon points="462,1237 543,1097 755,1180 796,1217 837,1241 848,1233 689,1500 700,1507 611,1395 447,1321 444,1328" fill="rgb(17.6232%, 27.7741%, 96.6582%)" fill-rule="evenodd" fill-opacity="0.109325"/>
		<polygon points="730,1169 972,1333 1162,1273 1064,953 1060,950 1031,908 969,836 914,819 861,819 707,902 684,941 621,975 535,1095" fill="rgb(37.6105%, 27.0581%, 42.0764%)" fill-rule="evenodd" fill-opacity="0.326379"/>
		<polygon points="434,1314 440,1288 529,1322 599,1396" fill="rgb(95.9291%, 46.3475%, 61.1465%)" fill-rule="evenodd" fill-opacity="0.100000"/>
		<polygon points="969,1036 957,1009 907,995 832,1035 786,1086 776,1194 796,1160" fill="rgb(77.0328%, 46.5988%, 15.4306%)" fill-rule="evenodd" fill-opacity="0.228356"/>
		<polygon points="734,890 873,819 888,819 931,863 734,931 702,990 604,1042 577,1034 637,973" fill="rgb(95.3399%, 69.6016%, 17.5847%)" fill-rule="evenodd" fill-opacity="0.335631"/>
		<polygon points="518,1124 455,1270 517,1272 611,1139 626,1123 617,1085 650,1026 607,1038 593,1032 620,1019 601,1014" fill="rgb(85.3913%, 62.2129%, 20.6216%)" fill-rule="evenodd" fill-opacity="0.229864"/>
		<polygon points="1105,1470 1025,1382 985,1328 1154,1276 1158,1367 1151,1524" fill="rgb(73.4364%, 55.492%, 98.8973%)" fill-rule="evenodd" fill-opacity="0.196539"/>
		<polygon points="1079,1292 1066,1293 1043,1258 1042,1276 1019,1231 1014,1180 1016,924 1051,931 1146,1236 1144,1308" fill="rgb(25.1869%, 22.7606%, 30.7136%)" fill-rule="evenodd" fill-opacity="0.348503"/>
		<polygon points="605,1019 620,984 561,1043 624,1038 573,1124 498,1245 536,1095 490,1169 472,1213 434,1326 553,1367 487,1316 592,1317 646,1239 697,1231 675,1143 646,1139 625,1128 660,1073 704,989 729,959 725,942" fill="rgb(21.4444%, 13.7295%, 15.8844%)" fill-rule="evenodd" fill-opacity="0.397848"/>
		<polygon points="570,1465 578,1446 668,1514 633,1516" fill="rgb(100%, 58.0024%, 32.9611%)" fill-rule="evenodd" fill-opacity="0.237875"/>
		<polygon points="628,1514 709,1510 621,1428 821,1406 881,1414 930,1496 875,1501 865,1526 669,1551" fill="rgb(88.2719%, 41.2497%, 3.63463%)" fill-rule="evenodd" fill-opacity="0.301879"/>
		<polygon points="821,852 870,862 897,872 838,886 749,917" fill="rgb(86.5882%, 68.867%, 28.6603%)" fill-rule="evenodd" fill-opacity="0.242077"/>
		<polygon points="574,1602 592,1584 462,1573 415,1588 385,1593 384,1572 400,1603" fill="rgb(95.2475%, 55.3789%, 15.5091%)" fill-rule="evenodd" fill-opacity="0.123766"/>
		<polygon points="1047,1624 1202,1731 1193,1649 1185,1617 1158,1467 1154,1526 1001,1348 994,1458 990,1504" fill="rgb(44.1063%, 29.2731%, 56.1002%)" fill-rule="evenodd" fill-opacity="0.266865"/>
		<polygon points="555,1226 511,1275 470,1275 445,1267 497,1238 566,1198" fill="rgb(4.42122%, 4.05847%, 15.4566%)" fill-rule="evenodd" fill-opacity="0.249649"/>
		<polygon points="1108,1121 1060,1136 1025,1125 1026,1081 1051,1059 1062,1058 1136,1138" fill="rgb(48.3268%, 31.7817%, 24.2177%)" fill-rule="evenodd" fill-opacity="0.162600"/>
	</g>
	<g id="G2">
		<polygon points="391,1119 387,1208 358,1201 329,1257 306,1089 197,1082 272,918 300,962 323,951 349,1077" fill="rgb(63.9296%, 48.2793%, 62.1638%)" fill-rule="evenodd" fill-opacity="0.295438"/>
		<polygon points="612,1002 561,1019 507,1043 464,1033 464,976 375,970 396,909 496,953 628,980" fill="rgb(74.5276%, 52.6185%, 14.3287%)" fill-rule="evenodd" fill-opacity="0.314065"/>
		<polygon points="261,1787 0,1787 0,1557 138,1637 282,1517" fill="rgb(61.7203%, 33.0655%, 89.2763%)" fill-rule="evenodd" fill-opacity="0.156908"/>
		<polygon points="90,1204 158,1142 192,1087 307,1086 336,1324 312,1382 314,1417 368,1451 335,1447 69,1365 29,1431 12,1359 65,1229" fill="rgb(50.8409%, 36.5653%, 47.3993%)" fill-rule="evenodd" fill-opacity="0.409572"/>
		<polygon points="405,1132 348,1076 327,968 328,953 353,938 385,876 389,873 399,905 435,936 535,958 636,968 593,1013 494,1168" fill="rgb(98.7338%, 70.3409%, 52.06%)" fill-rule="evenodd" fill-opacity="0.291454"/>
		<polygon points="232,1303 188,1304 210,1272 182,1270 177,1311 161,1325 145,1325 158,1352 141,1359 172,1362" fill="rgb(91.5008%, 69.7337%, 19.5343%)" fill-rule="evenodd" fill-opacity="0.190992"/>
		<polygon points="366,1785 363,1754 351,1728 349,1664 333,1646 332,1623 265,1561 254,1562 269,1615 274,1621 262,1784" fill="rgb(71.0499%, 33.8583%, 76.852%)" fill-rule="evenodd" fill-opacity="0.164712"/>
		<polygon points="217,1426 205,1436 177,1446 145,1417 125,1305 146,1252 262,1130 324,1193 324,1171 360,1193 384,1212 376,1296 328,1350 314,1397 259,1452" fill="rgb(47.1575%, 24.2884%, 10.4812%)" fill-rule="evenodd" fill-opacity="0.281270"/>
		<polygon points="330,1328 334,1245 358,1198 383,1211 374,1316" fill="rgb(46.2727%, 33.7739%, 60.9188%)" fill-rule="evenodd" fill-opacity="0.207262"/>
		<polygon points="12,1338 56,1245 124,1342 140,1355 112,1403 103,1434 54,1430 42,1439 14,1415" fill="rgb(12.9269%, 11.4782%, 23.0628%)" fill-rule="evenodd" fill-opacity="0.329439"/>
		<polygon points="325,1461 226,1453 300,1422 294,1444 284,1356 270,1386 243,1348 199,1391 186,1364 159,1382 153,1290 180,1251 184,1271 246,1256 270,1270 289,1274 320,1309" fill="rgb(90.4972%, 50.1061%, 12.4672%)" fill-rule="evenodd" fill-opacity="0.151096"/>
		<polygon points="394,1011 407,973 503,1070 485,1010 470,975 491,951 441,934 399,900 393,871 386,907 338,1001" fill="rgb(41.3965%, 28.92%, 15.0789%)" fill-rule="evenodd" fill-opacity="0.388082"/>
		<polygon points="374,1316 392,1128 499,1169 457,1244 440,1314" fill="rgb(98.1176%, 68.2301%, 79.6377%)" fill-rule="evenodd" fill-opacity="0.197444"/>
		<polygon points="312,1038 311,1084 303,1099 254,1042 308,1018" fill="rgb(3.87564%, 0.33906%, 15.3998%)" fill-rule="evenodd" fill-opacity="0.207152"/>
		<polygon points="1,1557 135,1638 270,1527 272,1539 281,1489 353,1453 66,1364 26,1444 0,1477" fill="rgb(37.3153%, 23.4363%, 51.2972%)" fill-rule="evenodd" fill-opacity="0.294118"/>
		<polygon points="428,1143 382,1121 337,1056 372,1038 400,1003 482,1101 521,1073 541,1098 464,1247 445,1323 282,1297 295,1263 220,1256 102,1268" fill="rgb(4.65091%, 1.39148%, 14.8969%)" fill-rule="evenodd" fill-opacity="0.293615"/>
	</g>
	<g id="G3">
		<polygon points="410,554 390,534 418,482 405,463 411,425 437,469 434,387 413,341 386,449 365,504 371,663 401,689" fill="rgb(73.9738%, 47.6482%, 21.6492%)" fill-rule="evenodd" fill-opacity="0.126260"/>
		<polygon points="732,209 615,243 441,250 502,178 602,164 676,175" fill="rgb(85.0362%, 48.4085%, 30.7471%)" fill-rule="evenodd" fill-opacity="0.271109"/>
		<polygon points="218,1032 245,988 279,901 230,946 215,996" fill="rgb(58.2501%, 36.0164%, 50.6144%)" fill-rule="evenodd" fill-opacity="0.271656"/>
		<polygon points="715,615 693,522 715,400 807,341 852,701 915,803 710,896 725,808 710,786 722,753" fill="rgb(67.4528%, 41.1339%, 56.7099%)" fill-rule="evenodd" fill-opacity="0.207564"/>
		<polygon points="368,494 387,470 393,424 421,307 469,259 604,230 604,241 527,170 516,198 488,197 442,253 371,365 379,426 355,472" fill="rgb(93.3329%, 71.4228%, 22.1603%)" fill-rule="evenodd" fill-opacity="0.267808"/>
		<polygon points="652,265 681,287 704,353 711,405 813,335 811,343 768,248 730,209 602,246" fill="rgb(50.0281%, 26.2322%, 38.9289%)" fill-rule="evenodd" fill-opacity="0.238224"/>
		<polygon points="815,742 799,814 939,831 927,800" fill="rgb(65.8588%, 29.2506%, 12.6027%)" fill-rule="evenodd" fill-opacity="0.119809"/>
		<polygon points="361,624 389,677 391,729 371,807 273,895 296,959 369,934 356,934 381,877 442,786 552,707 527,642 455,573 430,479 433,292 385,335 365,472" fill="rgb(80.3605%, 40.4699%, 45.8064%)" fill-rule="evenodd" fill-opacity="0.253837"/>
		<polygon points="458,794 472,757 411,827 441,858" fill="rgb(75.1523%, 33.4689%, 19.9524%)" fill-rule="evenodd" fill-opacity="0.443906"/>
		<polygon points="556,164 622,174 626,223 654,235 670,224 691,275 579,248 569,248 582,222 532,173" fill="rgb(64.7127%, 44.9373%, 19.3461%)" fill-rule="evenodd" fill-opacity="0.170571"/>
		<polygon points="407,822 434,859 447,815 471,753 521,736 543,715 547,668 518,621 527,674 496,716 429,765" fill="rgb(61.5853%, 45.3197%, 18.8348%)" fill-rule="evenodd" fill-opacity="0.138304"/>
		<polygon points="713,890 723,899 789,861 819,720 771,728 702,678 725,701" fill="rgb(89.1347%, 47.8341%, 9.41148%)" fill-rule="evenodd" fill-opacity="0.283298"/>
	</g>
	<g id="G4">
		<polygon points="116,991 0,1054 0,735 70,782 92,755 187,951" fill="rgb(68.972%, 49.4615%, 54.8652%)" fill-rule="evenodd" fill-opacity="0.379384"/>
		<polygon points="0,1054 88,1006 79,1045 197,1064 178,1121 139,1126 61,1120 96,1142 93,1155 37,1298 0,1396" fill="rgb(77.7574%, 57.2286%, 52.6358%)" fill-rule="evenodd" fill-opacity="0.398443"/>
		<polygon points="74,950 75,979 103,968 76,1043 43,1107 96,1144 69,1220 152,1152 195,1090 224,1024 200,926 98,930" fill="rgb(98.0679%, 73.7155%, 50.7132%)" fill-rule="evenodd" fill-opacity="0.353108"/>
		<polygon points="49,986 72,1033 51,1086 12,1121 80,1126 147,1134 148,1145 183,1118 211,1067 185,1060 215,1037 214,999 220,1002 229,969 286,882 245,855 222,813 248,785 246,776 185,703 114,788 81,820 76,876 40,865 24,903" fill="rgb(57.9812%, 38.0993%, 11.3182%)" fill-rule="evenodd" fill-opacity="0.365252"/>
		<polygon points="214,986 173,967 94,999 79,1001 90,1025 99,1024 214,1003" fill="rgb(100%, 63.7796%, 16.6971%)" fill-rule="evenodd" fill-opacity="0.278795"/>
		<polygon points="117,1104 112,1113 102,1112 95,1091 72,1092 74,1094 83,1081 99,1077 113,1076 144,1077 165,1061 189,1100 144,1119" fill="rgb(86.3891%, 81.8996%, 17.9902%)" fill-rule="evenodd" fill-opacity="0.100000"/>
		<polygon points="0,1202 11,1210 16,1142 10,1150 15,1131 0,1101" fill="rgb(33.0036%, 68.7643%, 79.706%)" fill-rule="evenodd" fill-opacity="0.100000"/>
		<polygon points="305,863 270,918 252,929 212,966 203,946 184,945 93,757 110,748 128,758 179,717 197,718 233,730 234,710 306,724 349,824" fill="rgb(99.4621%, 74.6815%, 38.4507%)" fill-rule="evenodd" fill-opacity="0.356118"/>
		<polygon points="126,761 160,733 168,738 160,747 139,753 148,765 155,770 193,720 191,712 178,713" fill="rgb(61.4817%, 61.565%, 26.5302%)" fill-rule="evenodd" fill-opacity="0.249986"/>
		<polygon points="258,806 301,800 325,828 246,947 274,917 317,859 352,829 357,794 350,724 331,717 260,710" fill="rgb(17.1267%, 10.8918%, 12.4261%)" fill-rule="evenodd" fill-opacity="0.448266"/>
		<polygon points="224,849 200,835 198,818 192,819 174,835 171,829 177,817 158,822 158,810 145,827 133,818 121,840 181,864 207,892 228,880" fill="rgb(95.5179%, 94.2988%, 29.737%)" fill-rule="evenodd" fill-opacity="0.138359"/>
		<polygon points="17,1352 17,1411 39,1443 1,1475 0,1395" fill="rgb(82.8009%, 48.8309%, 56.0662%)" fill-rule="evenodd" fill-opacity="0.309676"/>
		<polygon points="95,840 97,819 96,778 104,769 86,759 70,831 87,858" fill="rgb(70.986%, 55.5847%, 2.00833%)" fill-rule="evenodd" fill-opacity="0.131531"/>
		<polygon points="153,733 100,769 93,738 99,801 182,810 195,778 227,783 224,806 262,782 271,714 228,703 223,718 176,709" fill="rgb(32.7212%, 29.3004%, 17.9347%)" fill-rule="evenodd" fill-opacity="0.372277"/>
		<polygon points="223,929 201,924 246,915 225,975 184,1065 74,1061 70,1012 42,981 31,955 20,925 9,899 1,733 70,775 79,792 96,810 75,868" fill="rgb(60.243%, 33.5709%, 16.9843%)" fill-rule="evenodd" fill-opacity="0.421739"/>
		<polygon points="113,1182 109,1176 83,1190 68,1212 55,1186 37,1257 34,1305 54,1277 72,1234" fill="rgb(25.9941%, 16.924%, 15.2239%)" fill-rule="evenodd" fill-opacity="0.321995"/>
		<polygon points="192,1108 159,1122 143,1147 140,1138 122,1158 106,1189 144,1170" fill="rgb(23.3039%, 16.6737%, 19.9162%)" fill-rule="evenodd" fill-opacity="0.376950"/>
		<polygon points="63,999 112,999 116,1017 117,1043 44,1084 38,1066 37,1057 26,1057 39,949" fill="rgb(20.3521%, 0%, 16.2603%)" fill-rule="evenodd" fill-opacity="0.252081"/>
		<polygon points="9,1475 27,1461 11,1408 32,1432 21,1386 25,1373 20,1332 17,1417 10,1325 12,1331 9,1269 4,1232 0,1462" fill="rgb(81.9766%, 57.7675%, 47.3012%)" fill-rule="evenodd" fill-opacity="0.151421"/>
		<polygon points="68,1120 63,1128 50,1133 44,1125 19,1133 17,1287 0,1292 3,1202 3,1097" fill="rgb(88.4348%, 67.3706%, 65.4062%)" fill-rule="evenodd" fill-opacity="0.100000"/>
		<polygon points="389,747 392,722 378,707 303,724 356,833" fill="rgb(70.1958%, 53.9347%, 35.9801%)" fill-rule="evenodd" fill-opacity="0.324324"/>
		<polygon points="180,1007 51,1003 138,1058 221,1055 215,1047 224,1049 228,985 209,1007 195,1009 192,1004" fill="rgb(47.6691%, 8.9251%, 14.2056%)" fill-rule="evenodd" fill-opacity="0.295295"/>
		<polygon points="57,1255 40,1250 31,1267 20,1316 16,1331 25,1339" fill="rgb(16.7824%, 11.3792%, 17.6698%)" fill-rule="evenodd" fill-opacity="0.371021"/>
	</g>
	<g id="G5">
		<polygon points="1022,743 1020,705 1039,703 1051,684 1202,691 1199,1103 1199,1302 1183,1297 1153,1261 1150,1224 1121,1127 985,762" fill="rgb(81.1964%, 65.4664%, 44.393%)" fill-rule="evenodd" fill-opacity="0.302168"/>
		<polygon points="1202,924 1186,862 1158,833 1044,825 1141,874 1045,864 1026,858 1033,907 1058,921 1150,1248 1156,1460 1174,1575 1200,1687" fill="rgb(57.8376%, 30.4139%, 35.8431%)" fill-rule="evenodd" fill-opacity="0.351192"/>
		<polygon points="1183,1298 1159,1264 1156,1273 1159,1374 1177,1397 1166,1469 1172,1534 1191,1601 1196,1500 1199,1300" fill="rgb(83.0256%, 58.1414%, 63.4821%)" fill-rule="evenodd" fill-opacity="0.128665"/>
		<polygon points="1154,818 1119,823 1153,786 1111,783 1097,848 1120,890 1160,913 1183,910 1194,879 1192,857" fill="rgb(77.8443%, 73.6873%, 20.8117%)" fill-rule="evenodd" fill-opacity="0.379562"/>
		<polygon points="990,808 1020,785 1045,801 1015,804 999,750 985,740 946,758 974,802" fill="rgb(66.046%, 79.1841%, 64.6357%)" fill-rule="evenodd" fill-opacity="0.277245"/>
		<polygon points="1159,692 1179,651 1202,651 1193,737 1200,898 1191,932 1093,883 1169,871 1164,860 1098,867 1077,874 1021,831 1064,833 1110,785 1129,695" fill="rgb(64.8371%, 61.2031%, 45.1996%)" fill-rule="evenodd" fill-opacity="0.395433"/>
		<polygon points="967,744 967,760 995,756 1012,708 1085,687 1111,698 1083,699 1046,767 1072,763 1097,805 1040,848 988,844 949,803 958,782 906,760" fill="rgb(67.5818%, 58.2057%, 15.3203%)" fill-rule="evenodd" fill-opacity="0.311405"/>
		<polygon points="1197,1096 1200,1023 1202,939 1177,944 1169,998 1146,1037 1132,1055 1163,1087" fill="rgb(0.785757%, 18.0071%, 54.0038%)" fill-rule="evenodd" fill-opacity="0.119101"/>
		<polygon points="1195,1368 1190,1400 1189,1449 1185,1424 1182,1426 1177,1376 1168,1326 1153,1236 1166,1155 1168,1058 1176,1057 1168,1021 1181,981 1201,1271" fill="rgb(32.9716%, 43.1727%, 55.8283%)" fill-rule="evenodd" fill-opacity="0.106411"/>
		<polygon points="1191,651 1193,687 1165,703 1175,668" fill="rgb(55.6962%, 50.3973%, 35.5322%)" fill-rule="evenodd" fill-opacity="0.443001"/>
		<polygon points="999,866 1034,905 1026,864 1056,857 1096,854 1131,686 1123,691 1043,691 1009,709 864,700 885,749 917,797" fill="rgb(83.0844%, 74.4777%, 41.787%)" fill-rule="evenodd" fill-opacity="0.324431"/>
		<polygon points="862,719 854,692 932,698 969,710 945,720 933,738 911,758 961,848 898,784" fill="rgb(14.9405%, 14.6726%, 13.3786%)" fill-rule="evenodd" fill-opacity="0.439971"/>
		<polygon points="1195,987 1191,977 1181,980 1172,1009 1154,1012 1122,917 1158,874 1177,892 1148,923 1202,915 1202,951 1183,959 1172,937 1186,994" fill="rgb(98.3932%, 62.377%, 44.0019%)" fill-rule="evenodd" fill-opacity="0.114756"/>
		<polygon points="1057,923 1049,917 1068,959 1084,972 1130,959 1122,941 1113,931 1084,922" fill="rgb(80.0386%, 22.6803%, 11.0809%)" fill-rule="evenodd" fill-opacity="0.185300"/>
		<polygon points="1152,1277 1157,1228 1165,1170 1187,1163 1202,1294 1198,1121 1110,1125 1142,1231 1153,1485 1160,1497 1170,1461 1199,1480 1202,1259" fill="rgb(8.2974%, 14.5415%, 26.7931%)" fill-rule="evenodd" fill-opacity="0.286656"/>
		<polygon points="1160,847 1156,813 1184,800 1202,812 1172,886" fill="rgb(62.7304%, 30.1866%, 12.744%)" fill-rule="evenodd" fill-opacity="0.100205"/>
		<polygon points="1161,1012 1174,999 1144,983 1147,1000" fill="rgb(21.87%, 8.96236%, 28.4461%)" fill-rule="evenodd" fill-opacity="0.139060"/>
	</g>
	<g id="G6">
		<polygon points="545,245 462,286 462,311 477,315 472,331 488,350 468,365 481,369 521,390 551,392 564,386 578,385 570,427 567,523 553,554 551,550 568,538 672,480 684,429 684,377 688,314 687,290 671,277 625,251" fill="rgb(92.5616%, 52.0311%, 23.47%)" fill-rule="evenodd" fill-opacity="0.299680"/>
		<polygon points="608,646 597,597 584,547 511,547 560,530 573,516 585,501 602,494 561,436 539,434 578,399 591,395 598,440 646,437 648,451 633,479 650,478 678,501 675,513 681,522 700,542 701,575 702,586 689,598 664,624" fill="rgb(94.0833%, 54.1149%, 34.3117%)" fill-rule="evenodd" fill-opacity="0.270136"/>
		<polygon points="662,407 697,402 677,486 669,493 696,481 696,520 695,536 673,514 661,574 611,612 612,585 575,571 625,503 625,486 633,468 600,480 585,448 584,442 596,448 612,444 609,452" fill="rgb(90.4464%, 58.8826%, 31.1913%)" fill-rule="evenodd" fill-opacity="0.254791"/>
		<polygon points="636,382 621,380 615,386 605,392 619,402 602,400 578,406 571,415 680,419 669,466 648,478 583,501 510,513 495,497 494,513 520,538 512,546 500,544 465,515 432,478 433,423 440,341 452,271 467,256 517,243 592,244 621,280 629,328 668,360" fill="rgb(99.4278%, 76.0692%, 33.2491%)" fill-rule="evenodd" fill-opacity="0.430255"/>
		<polygon points="601,548 578,531 558,472 565,451 568,450 663,431 649,465 636,479 652,477 659,475 648,496 651,513 655,515 648,559 602,619 608,647 591,651 534,644 512,630 467,585 480,570 500,558 527,558 481,538 501,517 531,543 540,560 557,565" fill="rgb(80.775%, 60.5003%, 29.3284%)" fill-rule="evenodd" fill-opacity="0.371150"/>
		<polygon points="546,611 528,628 512,620 494,595 481,570 468,584 453,564 459,557 456,552 434,432 484,443 516,430 517,405 503,407 497,381 445,381 464,320 485,255 527,262 595,272 586,284 542,410 517,578 525,588 557,597" fill="rgb(100%, 87.5812%, 47.6297%)" fill-rule="evenodd" fill-opacity="0.391135"/>
		<polygon points="522,248 506,248 468,259 443,285 436,299 432,324 434,497 442,530 451,555 514,627 538,635 591,618 623,574 633,565 633,516 622,507 635,468 640,441 637,451 532,431 536,384 578,370 624,376 630,344 616,342 613,290 579,255 545,243" fill="rgb(98.5505%, 74.3557%, 34.1715%)" fill-rule="evenodd" fill-opacity="0.449323"/>
		<polygon points="568,484 563,418 617,384 550,378 572,320 515,317 479,322 466,280 460,278 495,263 492,246 563,243 595,249 593,247 600,246 639,264 678,330 693,325 707,362 711,423 700,477 630,521 570,544" fill="rgb(86.9404%, 70.7031%, 32.5053%)" fill-rule="evenodd" fill-opacity="0.275579"/>
		<polygon points="525,592 518,589 506,598 511,610 541,628 572,620 572,611 568,613 568,607 571,590" fill="rgb(100%, 78.6668%, 39.7085%)" fill-rule="evenodd" fill-opacity="0.261664"/>
		<polygon points="667,607 676,562 678,551 688,465 697,424 686,380 639,506 593,527 593,602 526,630 529,627 517,618 482,604 535,642 592,638 587,637 616,641" fill="rgb(53.6156%, 35.3306%, 15.5828%)" fill-rule="evenodd" fill-opacity="0.377617"/>
		<polygon points="624,294 629,355 613,294 597,262 602,300 582,341 590,319 590,313 596,323 591,344 573,377 607,377 623,390 653,389 678,371 682,349 671,335 660,334 662,337 651,331" fill="rgb(71.6092%, 57.615%, 26.855%)" fill-rule="evenodd" fill-opacity="0.372804"/>
		<polygon points="534,379 505,369 491,324 476,275 459,280 453,335 496,357 500,348 484,338 483,324 487,329 488,315 479,285 508,244 536,250 560,280 606,309 580,337 595,337 598,359" fill="rgb(91.2155%, 86.993%, 48.4474%)" fill-rule="evenodd" fill-opacity="0.230187"/>
		<polygon points="634,279 670,353 669,369 642,381 661,353 583,347 578,326 584,322 608,297 571,271 549,248 530,243 597,245" fill="rgb(68.3714%, 53.039%, 12.7953%)" fill-rule="evenodd" fill-opacity="0.275055"/>
		<polygon points="440,479 435,481 450,540 447,558 448,559 458,575 475,547 474,559 481,545 452,510 449,459 439,451 443,435 452,431 457,421 440,377 449,328 438,332 435,342 430,346 431,490" fill="rgb(63.2316%, 38.7798%, 19.4929%)" fill-rule="evenodd" fill-opacity="0.390326"/>
		<polygon points="513,404 504,421 481,424 470,414 431,420 428,370 428,349 434,370 435,392 447,396 460,392 494,386 504,392" fill="rgb(29.603%, 13.2444%, 10.5969%)" fill-rule="evenodd" fill-opacity="0.444112"/>
		<polygon points="574,527 565,505 589,494 586,489 571,456 574,447 654,438 638,449 611,473 609,504 579,528" fill="rgb(97.8206%, 100%, 59.5799%)" fill-rule="evenodd" fill-opacity="0.120604"/>
		<polygon points="602,578 591,574 593,513 603,511 602,515 602,502 607,521 615,516 618,528 622,554 617,567" fill="rgb(83.228%, 82.7156%, 41.3361%)" fill-rule="evenodd" fill-opacity="0.143291"/>
		<polygon points="491,398 485,398 485,394 441,406 469,406 483,402 486,400 485,406 502,405" fill="rgb(100%, 75.1104%, 36.4107%)" fill-rule="evenodd" fill-opacity="0.256946"/>
		<polygon points="540,398 534,447 556,452 564,437 562,437 557,412 578,393 579,410 569,420 550,407 564,383 555,385 553,375" fill="rgb(58.0181%, 36.6951%, 16.8886%)" fill-rule="evenodd" fill-opacity="0.443050"/>
		<polygon points="688,287 661,269 659,263 638,275 659,306 663,323 674,329 698,366 704,369 710,365 701,331 690,306 685,290" fill="rgb(11.5155%, 5.90012%, 21.9286%)" fill-rule="evenodd" fill-opacity="0.164711"/>
		<polygon points="628,396 645,389 653,383 654,387 666,400 633,424" fill="rgb(22.9291%, 0%, 9.94877%)" fill-rule="evenodd" fill-opacity="0.252708"/>
		<polygon points="665,330 677,329 696,323 674,317 665,293 649,271 641,262 652,262 638,263 621,252 620,261 624,256" fill="rgb(38.5104%, 20.8849%, 6.6764%)" fill-rule="evenodd" fill-opacity="0.353839"/>
		<polygon points="691,345 664,282 655,271 652,272 655,263 651,267 635,261 628,256" fill="rgb(39.148%, 23.6123%, 14.0382%)" fill-rule="evenodd" fill-opacity="0.279015"/>
		<polygon points="704,397 702,424 691,476 685,434 691,423 679,410 675,338 692,306 697,405" fill="rgb(41.2797%, 18.1424%, 13.0471%)" fill-rule="evenodd" fill-opacity="0.378753"/>
		<polygon points="491,476 498,480 490,495 480,493 474,502 468,505 458,479 451,438 457,441 477,448 503,449" fill="rgb(100%, 84.4165%, 54.3797%)" fill-rule="evenodd" fill-opacity="0.180476"/>
		<polygon points="516,575 521,558 525,562 538,566 543,565 542,571" fill="rgb(98.9091%, 71.9788%, 31.3425%)" fill-rule="evenodd" fill-opacity="0.391171"/>
		<polygon points="500,596 491,565 492,573 488,579 490,592 491,589 480,606" fill="rgb(48.393%, 40.5367%, 8.76943%)" fill-rule="evenodd" fill-opacity="0.113098"/>
	</g>
	<g id="G7">
		<polygon points="653,1455 693,1492 694,1516 677,1516 663,1509 656,1503 660,1508 539,1407 538,1405 559,1389" fill="rgb(86.5129%, 43.8956%, 16.024%)" fill-rule="evenodd" fill-opacity="0.331534"/>
		<polygon points="620,1466 591,1443 574,1426 559,1415 525,1459 484,1431 478,1441 466,1456 470,1454 436,1432 429,1422 400,1401 454,1420 477,1427 402,1386 474,1386 496,1403 517,1378 610,1395 640,1409" fill="rgb(52.6555%, 47.7435%, 11.334%)" fill-rule="evenodd" fill-opacity="0.290143"/>
		<polygon points="276,1510 273,1547 344,1610 338,1570 365,1560 391,1554 408,1524 401,1512 411,1500 406,1510 353,1451 279,1489" fill="rgb(93.8111%, 70.3897%, 38.1397%)" fill-rule="evenodd" fill-opacity="0.202869"/>
		<polygon points="421,1494 360,1510 358,1531 341,1554 332,1575 332,1579 343,1588 340,1603 406,1581 467,1567 479,1556 513,1552 496,1518 551,1553 553,1545 551,1545 567,1536 504,1465 596,1513 605,1496 557,1452" fill="rgb(89.9522%, 74.933%, 26.7168%)" fill-rule="evenodd" fill-opacity="0.398568"/>
		<polygon points="395,1480 444,1514 441,1507 395,1458 390,1452 379,1445 305,1470 282,1493 284,1503 314,1492 323,1494 334,1501 333,1499 294,1550 291,1549 313,1549 320,1543 344,1535 355,1549 377,1537 371,1546 369,1557 357,1570 341,1595 377,1574 423,1521" fill="rgb(85.0393%, 86.7482%, 32.9313%)" fill-rule="evenodd" fill-opacity="0.272565"/>
		<polygon points="648,1540 632,1524 608,1496 552,1455 523,1448 533,1464 561,1491 573,1524 543,1510 508,1481 497,1492 524,1513 522,1537 531,1545 547,1553 570,1562 594,1562 570,1517 593,1533 639,1561 664,1567" fill="rgb(78.4488%, 63.3556%, 12.4262%)" fill-rule="evenodd" fill-opacity="0.370714"/>
		<polygon points="437,1511 438,1516 452,1511 455,1548 397,1572 350,1660 337,1640 332,1623 315,1609 309,1601 295,1597 273,1558 281,1493 289,1480 359,1451" fill="rgb(81.9771%, 46.0953%, 25.8384%)" fill-rule="evenodd" fill-opacity="0.445362"/>
		<polygon points="355,1319 390,1317 387,1322 403,1329 401,1329 413,1336 406,1330 413,1338 427,1356 429,1346 457,1371 462,1386 408,1386 392,1379 370,1392 332,1434 318,1420 315,1414 332,1331" fill="rgb(78.0564%, 62.8203%, 47.6011%)" fill-rule="evenodd" fill-opacity="0.321358"/>
		<polygon points="599,1462 595,1457 582,1451 574,1437 563,1433 546,1424 524,1462 541,1436 583,1486 536,1526 468,1485 354,1387 347,1393 328,1378 320,1354 322,1348 350,1324 363,1315 410,1315 533,1356 541,1363 536,1380 638,1448 639,1469" fill="rgb(85.4589%, 83.4638%, 21.5669%)" fill-rule="evenodd" fill-opacity="0.252092"/>
		<polygon points="478,1341 439,1328 417,1318 369,1315 363,1318 344,1321 310,1371 501,1568 541,1579 672,1576 667,1555 551,1437 677,1509 691,1496 634,1436 589,1391" fill="rgb(91.3473%, 48.785%, 30.7386%)" fill-rule="evenodd" fill-opacity="0.397703"/>
		<polygon points="511,1350 472,1356 446,1335 430,1336 398,1315 340,1319 317,1366 411,1404 463,1424 471,1426 492,1416 527,1355" fill="rgb(94.0651%, 91.5511%, 45.7499%)" fill-rule="evenodd" fill-opacity="0.201558"/>
		<polygon points="359,1315 424,1316 533,1361 571,1381 636,1410 629,1405 620,1418 597,1411 627,1432 311,1526 344,1496 360,1451 365,1444 336,1433 325,1417 314,1395 328,1337" fill="rgb(96.817%, 72.8319%, 31.7295%)" fill-rule="evenodd" fill-opacity="0.391731"/>
		<polygon points="349,1660 375,1612 366,1656 354,1663 345,1663 328,1640 333,1625" fill="rgb(34.3137%, 15.2091%, 21.013%)" fill-rule="evenodd" fill-opacity="0.457204"/>
		<polygon points="551,1417 518,1389 539,1408 530,1400 513,1385 503,1394 494,1416 487,1415 510,1429 515,1431" fill="rgb(82.5285%, 67.7621%, 27.5969%)" fill-rule="evenodd" fill-opacity="0.250294"/>
		<polygon points="542,1542 562,1550 569,1548 571,1537 560,1517 562,1507 577,1514 643,1561 555,1583 509,1572 538,1556 393,1587 369,1632 358,1663 334,1655 329,1612 310,1585 319,1623 347,1600 380,1575 434,1537 426,1514 396,1471 413,1481 418,1477 431,1482 450,1501 499,1511" fill="rgb(36.9518%, 15.598%, 14.9464%)" fill-rule="evenodd" fill-opacity="0.403439"/>
		<polygon points="630,1430 630,1433 619,1424 610,1411 627,1401 631,1407 633,1403 643,1411" fill="rgb(56.4228%, 16.8927%, 31.002%)" fill-rule="evenodd" fill-opacity="0.346373"/>
		<polygon points="389,1544 392,1540 384,1533 377,1562 361,1583 377,1597 331,1645 334,1591" fill="rgb(93.5901%, 69.3838%, 22.5442%)" fill-rule="evenodd" fill-opacity="0.158009"/>
		<polygon points="378,1425 375,1422 355,1409 367,1395 347,1401 344,1405 356,1420 370,1432 367,1431 341,1441 322,1421 313,1396 341,1417 349,1434 357,1451 387,1443" fill="rgb(28.1988%, 9.11204%, 17.8244%)" fill-rule="evenodd" fill-opacity="0.269851"/>
		<polygon points="632,1586 634,1585 619,1587 585,1579 622,1580 637,1574" fill="rgb(100%, 46.5615%, 64.7776%)" fill-rule="evenodd" fill-opacity="0.174337"/>
		<polygon points="591,1454 608,1451 630,1459 632,1439 577,1413" fill="rgb(96.7168%, 83.7074%, 30.0946%)" fill-rule="evenodd" fill-opacity="0.158560"/>
		<polygon points="314,1380 326,1401 334,1409 333,1411 319,1409 318,1406 418,1404 430,1406 432,1426 392,1443 404,1410 404,1394 403,1376 361,1371 324,1365" fill="rgb(68.3903%, 53.9239%, 25.5294%)" fill-rule="evenodd" fill-opacity="0.285921"/>
		<polygon points="391,1573 381,1587 496,1562 478,1539 446,1523 456,1522 443,1519 445,1537 436,1553 423,1555" fill="rgb(32.2529%, 8.65224%, 20.8719%)" fill-rule="evenodd" fill-opacity="0.218901"/>
		<polygon points="558,1489 552,1487 565,1499 589,1503 580,1476 584,1511 560,1506" fill="rgb(76.0608%, 49.1103%, 21.5471%)" fill-rule="evenodd" fill-opacity="0.289702"/>
	</g>
	<g id="G8">
		<polygon points="626,729 599,729 600,800 608,887 568,898 575,932 571,933 594,934 582,911 593,924 634,954 694,843 712,880 722,860 719,846 712,839 715,801 720,765 727,768 718,730 713,646 667,658" fill="rgb(75.2996%, 66.5453%, 16.7326%)" fill-rule="evenodd" fill-opacity="0.314199"/>
		<polygon points="630,808 638,733 657,709 682,700 700,733 714,746 706,735 727,749 699,846 687,827 670,834 658,843 650,829 644,823 603,919 586,930 556,943 538,890 455,825 505,784 506,792 535,802 569,799 546,821 573,844 594,856" fill="rgb(60.1888%, 62.2624%, 30.0776%)" fill-rule="evenodd" fill-opacity="0.381656"/>
		<polygon points="599,968 617,968 636,960 680,920 649,841 658,810 650,772 612,779 622,787 613,797 586,816 593,788 557,772 510,776 475,841 457,864 431,892 419,910 457,927" fill="rgb(59.9174%, 74.3759%, 76.5646%)" fill-rule="evenodd" fill-opacity="0.480742"/>
		<polygon points="728,728 716,701 718,680 714,630 715,612 706,585 684,603 661,625 640,634" fill="rgb(46.4445%, 25.8816%, 21.7821%)" fill-rule="evenodd" fill-opacity="0.391004"/>
		<polygon points="597,960 667,953 701,917 709,896 701,895 709,872 714,853 686,916 683,861 672,858 661,844 605,768 537,750 541,760 548,767 517,771 542,778 509,799 511,813 494,819 488,808 447,853 419,844 397,875 398,908 427,921 446,935 509,954" fill="rgb(100%, 100%, 44.6997%)" fill-rule="evenodd" fill-opacity="0.275990"/>
		<polygon points="530,838 532,829 537,802 513,815 501,887 511,888 525,909 551,952 583,958 624,955 630,939 655,936 666,906 662,895 647,871 642,867 621,872" fill="rgb(66.8311%, 88.6872%, 92.1747%)" fill-rule="evenodd" fill-opacity="0.437031"/>
		<polygon points="697,926 713,900 724,791 575,735 521,741 501,751 476,767 479,769 462,783 464,795 443,818 445,857 419,832 405,830 395,850 389,871 395,897 411,905 438,933 484,950 520,957 643,968" fill="rgb(96.9963%, 70.3929%, 24.092%)" fill-rule="evenodd" fill-opacity="0.435889"/>
		<polygon points="657,747 701,748 716,761 713,765 729,760 716,753 685,724 659,721 651,728 639,697 654,694 589,686 578,670 564,686 560,683" fill="rgb(93.0469%, 75.2222%, 33.587%)" fill-rule="evenodd" fill-opacity="0.259959"/>
		<polygon points="522,927 543,937 554,957 516,951 516,925 554,942 577,942 602,954 638,922 655,916 656,913 652,902 623,899 623,902 617,898 607,910 592,882 566,888 578,881 574,865" fill="rgb(87.5758%, 95.3433%, 77.1236%)" fill-rule="evenodd" fill-opacity="0.413450"/>
		<polygon points="727,727 717,762 716,788 726,824 682,926 644,957 626,968 598,967 537,960 497,945 466,939 436,926 409,917 411,901 431,886 451,852 470,791 530,752 531,733 552,721 543,673 566,681 590,652 629,639 642,637" fill="rgb(97.8258%, 70.6731%, 32.6475%)" fill-rule="evenodd" fill-opacity="0.379046"/>
		<polygon points="553,966 425,927 401,904 407,896 403,883 440,856 466,766 546,711 542,690 537,646 588,650 566,686 657,747 706,751 713,775 687,780 692,832 707,872 721,900 640,968" fill="rgb(100%, 87.6697%, 44.3941%)" fill-rule="evenodd" fill-opacity="0.410001"/>
		<polygon points="685,760 668,719 697,707 717,734 723,729 728,754 703,796" fill="rgb(75.0161%, 55.0237%, 18.4069%)" fill-rule="evenodd" fill-opacity="0.345089"/>
		<polygon points="724,724 661,657 643,638 664,631 653,631 651,634 666,625 694,634" fill="rgb(76.0723%, 55.4615%, 17.034%)" fill-rule="evenodd" fill-opacity="0.238541"/>
		<polygon points="576,748 568,742 545,747 550,744 541,743 499,753 509,733 511,739 539,710 558,735 571,735 596,741 598,723 610,716 634,733 618,748 632,758 607,765 597,756" fill="rgb(48.2883%, 38.6026%, 16.3105%)" fill-rule="evenodd" fill-opacity="0.169271"/>
		<polygon points="698,678 727,682 718,683 720,675 718,611 706,584 695,611 594,648 535,643 531,644 538,678 547,661 658,682 677,679 688,664" fill="rgb(19.9639%, 8.61842%, 11.4751%)" fill-rule="evenodd" fill-opacity="0.365233"/>
		<polygon points="510,814 513,801 523,788 525,763 476,796 467,814 472,825 468,832 466,849 499,836" fill="rgb(85.8129%, 71.1796%, 39.5996%)" fill-rule="evenodd" fill-opacity="0.342896"/>
		<polygon points="591,694 602,718 577,712 552,685 560,743 608,749 631,752 592,703 625,727 646,702 664,722 664,719 591,700" fill="rgb(90.5257%, 68.4199%, 29.5007%)" fill-rule="evenodd" fill-opacity="0.163903"/>
		<polygon points="699,854 693,846 699,863 694,887 700,923 725,896" fill="rgb(72.1811%, 43.7753%, 7.07181%)" fill-rule="evenodd" fill-opacity="0.352092"/>
	</g>
</svg>