<?xml version="1.0" encoding="UTF-8" standalone="no"?>
<svg xmlns:svg="http://www.w3.org/2000/svg" xmlns="http://www.w3.org/2000/svg" width="4612" height="2240">
	<rect width = "4612" height="2240" fill="rgb(0%, 0%, 0%)"/>
	<g id="G0">
		<polygon points="2378,823 2613,862 2610,710 2678,641 2683,590 2301,521 2292,696 2231,734 2190,734 2195,816" fill="rgb(100%, 100%, 100%)" fill-rule="evenodd" fill-opacity="0.600000"/>
		<polygon points="3415,5 4453,11 4612,202 4606,295 4610,379 4575,440 4365,479 4331,480 4301,420 4070,426 4060,760 3923,770 3614,700 3598,915 3253,886 3218,783" fill="rgb(100%, 85.8927%, 84.8014%)" fill-rule="evenodd" fill-opacity="0.586129"/>
		<polygon points="3810,753 3590,707 3273,830 3240,546 3121,377 3305,311 3378,339 3373,16 4610,8 4591,468 4242,515 4212,438 4054,430 4085,748" fill="rgb(100%, 100%, 100%)" fill-rule="evenodd" fill-opacity="0.592997"/>
		<polygon points="3240,0 4612,1 4608,490 4090,535 4033,693 4061,702 4027,764 3764,741 3612,724 3408,920 3206,841 3212,774 3283,679 3230,507 2999,414 2884,470 2820,485 2739,589 2748,140 2565,244 2414,206 2484,0" fill="rgb(100%, 100%, 100%)" fill-rule="evenodd" fill-opacity="0.600000"/>
		<polygon points="2328,10 2316,420 2291,735 2424,737 2452,731 2622,796 2565,766 2927,409 3098,465 3071,461 3176,497 3344,656 3593,708 3740,719 4026,754 4043,692 4000,642 4158,398 4375,470 4596,467 4583,411 4595,325 4491,8" fill="rgb(100%, 100%, 100%)" fill-rule="evenodd" fill-opacity="0.600000"/>
		<polygon points="2641,0 2745,3 2738,229 2717,49" fill="rgb(22.4295%, 17.0822%, 15.3967%)" fill-rule="evenodd" fill-opacity="0.355122"/>
		<polygon points="2661,611 2294,530 2294,269 2336,112 2393,126 2381,184 2414,270 2397,545 2451,513 2481,247 2642,266 2632,233 2599,202 2632,544 2725,541 2763,642" fill="rgb(10.5541%, 9.79658%, 6.62901%)" fill-rule="evenodd" fill-opacity="0.371661"/>
		<polygon points="3180,387 3365,326 3279,260 3162,133 2989,77 2974,401 2816,473 2828,497" fill="rgb(80.1597%, 58.8605%, 41.5184%)" fill-rule="evenodd" fill-opacity="0.159939"/>
		<polygon points="2604,185 2621,243 2641,198 2731,230 2711,309 2718,450 2742,447 2738,214" fill="rgb(9.54359%, 4.6466%, 14.7811%)" fill-rule="evenodd" fill-opacity="0.317460"/>
		<polygon points="3348,97 3360,211 3297,218 3246,160 3278,151 3282,0 3357,0" fill="rgb(44.5251%, 37.1771%, 35.9384%)" fill-rule="evenodd" fill-opacity="0.230480"/>
		<polygon points="2998,0 2986,61 3080,129 3285,0" fill="rgb(31.3392%, 18.4437%, 19.4697%)" fill-rule="evenodd" fill-opacity="0.110416"/>
		<polygon points="4605,477 4100,530 4502,524 4612,497" fill="rgb(28.0281%, 28.018%, 26.028%)" fill-rule="evenodd" fill-opacity="0.441912"/>
		<polygon points="3328,290 3046,343 3069,0 3135,0 3124,212 3295,147 3308,63 3296,0 3341,0" fill="rgb(6.35349%, 1.07989%, 4.46209%)" fill-rule="evenodd" fill-opacity="0.493093"/>
		<polygon points="2754,451 2327,495 2526,568 2700,598 2658,673 2818,565 2751,572" fill="rgb(36.7066%, 33.6616%, 31.3726%)" fill-rule="evenodd" fill-opacity="0.376804"/>
		<polygon points="2365,562 2272,540 2341,449" fill="rgb(61.0727%, 69.5087%, 68.2832%)" fill-rule="evenodd" fill-opacity="0.179524"/>
		<polygon points="4490,425 4368,514 4143,405 4054,513 4104,721 3921,775 3605,735 3583,890 3439,898 3267,859 3221,834 3369,356 3375,8 4059,3 4464,22 4359,107 4595,139 4593,326 4577,402" fill="rgb(100%, 100%, 100%)" fill-rule="evenodd" fill-opacity="0.563977"/>
		<polygon points="2602,207 2626,187 2635,153 2622,131 2645,101 2616,16 2602,0" fill="rgb(9.73162%, 8.79566%, 8.03288%)" fill-rule="evenodd" fill-opacity="0.298965"/>
		<polygon points="2176,683 2326,740 2386,748 2502,742 2564,866 2435,859 2324,840 2176,846" fill="rgb(3.68921%, 9.95372%, 13.9579%)" fill-rule="evenodd" fill-opacity="0.435671"/>
		<polygon points="2662,0 2760,3 2759,235 2730,398 2728,311 2701,253 2717,74 2665,96" fill="rgb(21.1577%, 23.2475%, 20.6414%)" fill-rule="evenodd" fill-opacity="0.335399"/>
		<polygon points="2824,0 2316,0 2317,326 2341,239 2441,210 2481,229 2480,18" fill="rgb(39.5042%, 37.8461%, 33.4114%)" fill-rule="evenodd" fill-opacity="0.394707"/>
		<polygon points="3590,728 3659,756 3625,750 3948,792 3915,764 3984,751 4057,762 3989,779 4016,785" fill="rgb(26.8674%, 22.3687%, 24.7577%)" fill-rule="evenodd" fill-opacity="0.516979"/>
		<polygon points="3150,296 3165,320 3190,318 3271,244 3184,195 3138,205 3219,139 3251,187 3150,253" fill="rgb(0%, 6.40771%, 12.7296%)" fill-rule="evenodd" fill-opacity="0.280643"/>
		<polygon points="4612,481 4445,514 4244,536 4107,543 4023,561 4142,519 4260,417 4281,508 4612,446" fill="rgb(70.0998%, 69.7516%, 65.8632%)" fill-rule="evenodd" fill-opacity="0.278280"/>
		<polygon points="3314,156 3245,144 3199,147 3249,205 3251,360" fill="rgb(100%, 100%, 82.9665%)" fill-rule="evenodd" fill-opacity="0.331894"/>
		<polygon points="3640,568 3678,573 3740,555 3842,607 3634,605 3402,616" fill="rgb(50.4504%, 34.667%, 39.3654%)" fill-rule="evenodd" fill-opacity="0.110618"/>
		<polygon points="3365,277 3066,322 3069,187 3061,154 3035,190 3032,343 3348,308" fill="rgb(77.9707%, 69.0024%, 61.9085%)" fill-rule="evenodd" fill-opacity="0.513034"/>
		<polygon points="2556,133 2509,135 2521,91 2593,7" fill="rgb(51.3448%, 53.8739%, 45.6776%)" fill-rule="evenodd" fill-opacity="0.384278"/>
		<polygon points="2621,389 2685,387 2691,301 2715,159 2653,189 2636,181 2606,234 2634,320" fill="rgb(98.9784%, 97.3481%, 86.8067%)" fill-rule="evenodd" fill-opacity="0.440801"/>
		<polygon points="4095,224 4113,163 4051,169 4058,133 3895,138" fill="rgb(13.0536%, 85.2962%, 34.3679%)" fill-rule="evenodd" fill-opacity="0.149674"/>
	</g>
	<g id="G1">
		<polygon points="2393,2069 2363,1885 2557,1945 2069,1892 2142,1853 2290,1835 2424,1841 2407,1832 2489,1813 1729,1785 1884,1696 2003,1683 2004,1703 1930,1743 2222,1718 1928,1680 2058,1662 2227,1703 2393,1755 2449,1705 2643,1741 2917,1736 3607,1847 3615,1863" fill="rgb(85.8884%, 87.1352%, 100%)" fill-rule="evenodd" fill-opacity="0.526397"/>
		<polygon points="2598,2103 2032,2232 1183,2222 852,2233 673,2182 701,2013 801,2015 1007,2028 1415,2106 1531,2100 1674,2111 1832,2132 1845,2208 1997,2168 1821,2055 1589,2043 1702,1958 2032,1960 2087,2011 2645,1983 3075,1944 3173,1961 3114,1974" fill="rgb(96.2674%, 45.4668%, 12.2551%)" fill-rule="evenodd" fill-opacity="0.401135"/>
		<polygon points="2278,2140 2253,2104 2157,2091 2114,2074 2170,2122 2050,2130 2080,2187 1891,2072 1771,2020 2402,2055 2495,2053 2553,2137" fill="rgb(70.784%, 84.0593%, 89.4281%)" fill-rule="evenodd" fill-opacity="0.397994"/>
		<polygon points="1966,1663 2287,1640 2534,1635 2725,1677 2236,1884 1798,1986 1808,2017 1615,2079 1613,1951 1189,2075 1007,2026 701,2012 717,1806" fill="rgb(88.4081%, 51.7405%, 25.5754%)" fill-rule="evenodd" fill-opacity="0.446174"/>
		<polygon points="3448,2001 3279,2042 3096,1999 3550,1889 3537,1853 3486,1859 3390,1800 3660,1851 3663,1942" fill="rgb(78.3999%, 48.211%, 35.39%)" fill-rule="evenodd" fill-opacity="0.243099"/>
		<polygon points="1192,2105 1028,1984 1052,1929 1127,1907 1163,1880 850,1842 946,1771 823,1783 725,1807 686,1863 660,2235" fill="rgb(29.2611%, 6.54217%, 0%)" fill-rule="evenodd" fill-opacity="0.402261"/>
		<polygon points="780,2239 885,2198 1250,2145 1642,2097 1638,1935 1715,1930 1660,1894 1418,1861 1381,1826 1411,1783 1473,1714 2877,1710 3160,1773 3288,1777 3322,1784 3586,1882 2069,2240" fill="rgb(85.34%, 69.9427%, 52.8202%)" fill-rule="evenodd" fill-opacity="0.462466"/>
		<polygon points="1857,1704 1936,1703 1972,1676 1773,1700" fill="rgb(71.7685%, 23.9764%, 100%)" fill-rule="evenodd" fill-opacity="0.185052"/>
		<polygon points="1660,1935 1500,1928 1581,1889 1843,1849 2049,1901" fill="rgb(59.7271%, 60.2661%, 68.1385%)" fill-rule="evenodd" fill-opacity="0.399786"/>
		<polygon points="1679,1852 1912,1845 2016,2023 2453,2024 2498,2082 2361,2102 2172,2105 2088,2157 1720,2235 1057,2226 1405,2103 1148,2052 1020,1962 1235,1906 1530,1969 1550,1804 1649,1805" fill="rgb(86.423%, 74.8093%, 69.9538%)" fill-rule="evenodd" fill-opacity="0.398297"/>
		<polygon points="2692,1808 2478,1785 2440,1762 2053,1682 2173,1620 2603,1620 2807,1688 2869,1800 2760,1819 2742,1829 2925,1871 2869,1901 3054,1949 3299,1958 3224,1998 2847,2035" fill="rgb(35.6561%, 13.0234%, 4.55916%)" fill-rule="evenodd" fill-opacity="0.463842"/>
		<polygon points="2755,2060 2517,2032 2501,2131 2195,2130 2204,2134 2047,2180 1913,2099 1842,2060 1986,2075 2352,2009 2360,1963 2515,1942 2488,1948 2851,1995" fill="rgb(91.6239%, 91.8626%, 92.4542%)" fill-rule="evenodd" fill-opacity="0.365145"/>
		<polygon points="2166,1748 2342,1738 2317,1748 2687,1780 2736,1675 2534,1662 2355,1803 2115,1764 2300,1738 2406,1657 1909,1647 1919,1698" fill="rgb(79.1188%, 80.059%, 77.6083%)" fill-rule="evenodd" fill-opacity="0.380867"/>
		<polygon points="2907,1860 2822,1840 2545,1851 2889,1888" fill="rgb(42.0433%, 20.2642%, 5.0092%)" fill-rule="evenodd" fill-opacity="0.384991"/>
		<polygon points="2040,1807 2014,1883 2134,1842 2253,1824 2103,1794 2161,1759 2061,1734 2081,1718 1880,1673 1663,1682 1803,1754 1909,1737 2018,1759" fill="rgb(31.1883%, 10.1626%, 0%)" fill-rule="evenodd" fill-opacity="0.454368"/>
		<polygon points="2503,1863 2689,1885 2807,1890 2879,1945 2651,1937 2458,1903" fill="rgb(91.5212%, 85.7758%, 81.8001%)" fill-rule="evenodd" fill-opacity="0.444379"/>
		<polygon points="2988,2025 2809,2029 2748,2053 2790,2062 2533,2072 2554,2139 2976,2047" fill="rgb(37.4318%, 14.7948%, 6.87157%)" fill-rule="evenodd" fill-opacity="0.335075"/>
		<polygon points="2456,1924 2475,1919 2348,1903 2358,1914 2342,1931 2034,1902 2069,1897 1968,1935 1903,1926 1899,1935 2054,2009 2317,2005" fill="rgb(55.5774%, 12.1359%, 0%)" fill-rule="evenodd" fill-opacity="0.513273"/>
		<polygon points="1478,1752 1425,1738 1491,1721 1631,1716 1573,1700 1683,1709 1741,1729 1726,1758" fill="rgb(73.8317%, 81.4921%, 62.9767%)" fill-rule="evenodd" fill-opacity="0.349576"/>
		<polygon points="1491,2215 1530,2184 1608,2198 1505,2232 842,2236 887,2202 1093,2181 1220,2169" fill="rgb(78.897%, 76.6939%, 71.7748%)" fill-rule="evenodd" fill-opacity="0.426656"/>
		<polygon points="1809,2240 1808,2112 2110,2152 2225,2108 2573,2130 2397,2175 2110,2240" fill="rgb(51.7562%, 17.1175%, 0%)" fill-rule="evenodd" fill-opacity="0.383072"/>
		<polygon points="1017,1791 1028,1772 1312,1751 1279,1766 1260,1834 1074,1850 953,1822" fill="rgb(88.2934%, 80.1008%, 93.3476%)" fill-rule="evenodd" fill-opacity="0.264724"/>
		<polygon points="2150,1824 2057,1894 2017,1877 1978,1867 1918,1834 2093,1766 2269,1814" fill="rgb(43.8383%, 14.7483%, 0.522148%)" fill-rule="evenodd" fill-opacity="0.544729"/>
		<polygon points="1575,1834 1602,1846 1730,1836 1600,1817 1617,1791" fill="rgb(85.194%, 90.7246%, 96.3286%)" fill-rule="evenodd" fill-opacity="0.255933"/>
		<polygon points="3623,1873 3668,1842 3165,1742 3156,1750 3175,1781" fill="rgb(44.7776%, 42.3699%, 43.463%)" fill-rule="evenodd" fill-opacity="0.178233"/>
		<polygon points="3183,1853 3051,1822 3068,1818 2978,1795 3071,1770 2974,1734 2645,1731 2789,1685 3141,1750 3168,1762 3159,1811 3188,1827" fill="rgb(34.752%, 14.262%, 4.9495%)" fill-rule="evenodd" fill-opacity="0.505931"/>
		<polygon points="3375,1883 3418,1901 3668,1888 3580,1818 3499,1809 3395,1810" fill="rgb(40.3412%, 47.8813%, 48.0071%)" fill-rule="evenodd" fill-opacity="0.225624"/>
		<polygon points="3106,1996 2065,2240 2555,2238 2697,2201 2954,2131 3291,2047" fill="rgb(89.5582%, 50.5063%, 33.5992%)" fill-rule="evenodd" fill-opacity="0.157799"/>
		<polygon points="3103,1991 3199,1940 2926,1879 2895,1876 2911,1896" fill="rgb(97.1837%, 80.8088%, 55.3704%)" fill-rule="evenodd" fill-opacity="0.155811"/>
		<polygon points="2351,1682 2393,1647 2208,1651 2172,1688" fill="rgb(84.5531%, 73.9783%, 70.7664%)" fill-rule="evenodd" fill-opacity="0.317991"/>
		<polygon points="1270,2180 1348,2114 1240,2147 1103,2164 1067,2179 1152,2172" fill="rgb(36.7692%, 10.2694%, 6.30094%)" fill-rule="evenodd" fill-opacity="0.459986"/>
		<polygon points="1836,2035 1943,2038 2021,1976 1986,1945" fill="rgb(56.8963%, 96.3917%, 49.4065%)" fill-rule="evenodd" fill-opacity="0.141804"/>
		<polygon points="1314,1758 1188,1750 1283,1731 1262,1726 1576,1691 1674,1677 1757,1699" fill="rgb(24.5482%, 23.5547%, 28.3728%)" fill-rule="evenodd" fill-opacity="0.301290"/>
		<polygon points="2531,2072 2561,2065 2244,2007 2582,2014 2666,2071" fill="rgb(49.6326%, 20.1736%, 13.0936%)" fill-rule="evenodd" fill-opacity="0.219425"/>
		<polygon points="1640,2017 1584,2069 1482,2048 1420,2026 1359,2027 1390,2012 1407,2015 1604,1928" fill="rgb(65.7905%, 19.6372%, 5.55115%)" fill-rule="evenodd" fill-opacity="0.398470"/>
		<polygon points="697,1795 692,1815 678,2044 1106,2054 1061,2021 1069,1927 1471,1926 1385,1836 1039,1860 1147,1840 1047,1833 1028,1780 1083,1798 1491,1719 1111,1740 967,1765 719,1779" fill="rgb(35.1722%, 7.87067%, 0%)" fill-rule="evenodd" fill-opacity="0.296972"/>
		<polygon points="1241,1824 1246,1778 1078,1780 948,1804 1079,1830" fill="rgb(97.2546%, 79.0451%, 74.9239%)" fill-rule="evenodd" fill-opacity="0.345871"/>
		<polygon points="1021,2231 1084,2170 1177,2228" fill="rgb(4.29084%, 73.9172%, 59.5229%)" fill-rule="evenodd" fill-opacity="0.103378"/>
		<polygon points="1022,2063 1554,2114 1845,2112 1819,2064 1793,2047 1638,2039 1583,2014 1515,2013" fill="rgb(42.6841%, 8.73531%, 0%)" fill-rule="evenodd" fill-opacity="0.341918"/>
		<polygon points="1874,1948 1888,1945 1968,1968 1929,1967" fill="rgb(34.4596%, 2.04635%, 25.7937%)" fill-rule="evenodd" fill-opacity="0.225877"/>
		<polygon points="1818,1833 1680,1837 1878,1834 1852,1851 1506,1864" fill="rgb(51.1173%, 21.0961%, 87.5155%)" fill-rule="evenodd" fill-opacity="0.111753"/>
	</g>
	<g id="G2">
		<polygon points="2531,1638 2050,1636 2046,1216 2936,1514 3536,1623 3657,1693 3351,1708 3346,1804" fill="rgb(61.8127%, 26.9791%, 14.6003%)" fill-rule="evenodd" fill-opacity="0.304310"/>
		<polygon points="4253,1416 4170,1423 4178,1437 4066,1498 3946,1509 4053,1437 3926,1408 3851,1430 3818,1462 3875,1612 4252,1594 4296,1472 4357,1451" fill="rgb(54.4412%, 53.5756%, 56.6407%)" fill-rule="evenodd" fill-opacity="0.535641"/>
		<polygon points="2745,863 2826,894 2896,974 2773,1104 2663,1046" fill="rgb(100%, 100%, 100%)" fill-rule="evenodd" fill-opacity="0.600000"/>
		<polygon points="2598,1018 2562,1006 2596,881 2342,828 2196,829 2076,948 2060,1232 2045,1219 2490,1358" fill="rgb(100%, 45.9112%, 25.9333%)" fill-rule="evenodd" fill-opacity="0.302855"/>
		<polygon points="4360,1419 4250,1919 4338,1907 4138,2005 3800,2049 3801,1918 3906,1842 3827,1719 3838,1403" fill="rgb(81.7828%, 40.9859%, 29.8338%)" fill-rule="evenodd" fill-opacity="0.255887"/>
		<polygon points="2609,850 2602,974 2534,1171 2510,1077 2467,1017 2433,938 2320,837" fill="rgb(100%, 100%, 98.4678%)" fill-rule="evenodd" fill-opacity="0.547347"/>
		<polygon points="2687,1555 2451,1510 2403,1440 3460,1614 3642,1690 3752,1785 3797,1768 3933,1969 3762,1808 3514,1759 3412,1796 3427,1810" fill="rgb(62.2999%, 23.3807%, 8.2145%)" fill-rule="evenodd" fill-opacity="0.322687"/>
		<polygon points="4271,1811 4305,1666 4333,1979 4278,2127 4126,2140 4067,2091 3509,2109 3185,2240 2535,2240 3643,1935 3672,1865 3381,1821 3240,1582 3065,1528 3434,1590 3774,1754" fill="rgb(64.1818%, 40.4965%, 28.3088%)" fill-rule="evenodd" fill-opacity="0.197097"/>
		<polygon points="3845,1906 4082,1869 4102,1801 3998,1794 3930,1848 3831,1854" fill="rgb(93.4619%, 100%, 100%)" fill-rule="evenodd" fill-opacity="0.579140"/>
		<polygon points="4221,1457 4176,1546 4062,1595 3902,1518 3855,1532 3812,1411 4022,1430 4279,1441" fill="rgb(100%, 100%, 100%)" fill-rule="evenodd" fill-opacity="0.600000"/>
		<polygon points="2302,1620 2236,1440 2056,1397 2057,1219 2390,1330 2465,1433 2365,1537 2794,1710 2866,1679 2639,1600" fill="rgb(45.716%, 15.7339%, 4.44936%)" fill-rule="evenodd" fill-opacity="0.273777"/>
		<polygon points="2760,901 2678,961 2757,828 2841,886" fill="rgb(31.0424%, 24.3346%, 20.4628%)" fill-rule="evenodd" fill-opacity="0.473587"/>
		<polygon points="3863,1679 3848,1569 3934,1483 3980,1508 3940,1568 4036,1532 4180,1607 4268,1672" fill="rgb(46.5643%, 28.1666%, 19.5791%)" fill-rule="evenodd" fill-opacity="0.407052"/>
		<polygon points="4152,1430 4007,1622 4209,1543 4251,1483 4324,1423" fill="rgb(91.9087%, 96.8905%, 100%)" fill-rule="evenodd" fill-opacity="0.277089"/>
		<polygon points="4236,1619 4176,1647 4162,1411 4369,1460 4356,1542" fill="rgb(61.2141%, 48.6126%, 33.2151%)" fill-rule="evenodd" fill-opacity="0.176131"/>
		<polygon points="2807,1124 2745,1075 2706,934 2675,990 2677,1076" fill="rgb(33.3765%, 23.579%, 19.4587%)" fill-rule="evenodd" fill-opacity="0.600000"/>
		<polygon points="2536,1115 2572,1116 2529,1197 2430,1010 2199,831 2404,828" fill="rgb(54.8589%, 33.9528%, 28.4048%)" fill-rule="evenodd" fill-opacity="0.565554"/>
		<polygon points="2828,1517 2601,1467 2737,1430 2840,1458" fill="rgb(87.8524%, 42.3414%, 17.5228%)" fill-rule="evenodd" fill-opacity="0.261047"/>
		<polygon points="4201,1798 4170,1814 4101,1780 3962,1786 3881,1887 3820,1933 4074,1904" fill="rgb(96.011%, 81.1231%, 68.3547%)" fill-rule="evenodd" fill-opacity="0.265441"/>
	</g>
	<g id="G3">
		<polygon points="1480,34 1488,218 1476,274 1467,504 1435,496 1412,542 1392,705 1648,831 1771,920 1736,1187 1760,1295 1921,1058 1916,971 1957,928 1985,483 1977,0" fill="rgb(62.6915%, 70.3877%, 67.2949%)" fill-rule="evenodd" fill-opacity="0.372452"/>
		<polygon points="1727,274 1769,384 1786,274 1822,275 1888,126 1863,75 1870,33 1759,3 2329,0 2329,375 2275,719 2151,735 1744,875 1705,778" fill="rgb(100%, 77.4604%, 67.7351%)" fill-rule="evenodd" fill-opacity="0.527935"/>
		<polygon points="1405,703 1526,753 1558,803 1573,630 1574,382 1517,574 1415,556" fill="rgb(98.6971%, 84.6977%, 74.6671%)" fill-rule="evenodd" fill-opacity="0.558792"/>
		<polygon points="2268,727 2199,723 2126,895 2008,1026 2007,872 1988,0 2297,0 2329,331 2321,491 2307,579" fill="rgb(93.6058%, 18.2636%, 1.87023%)" fill-rule="evenodd" fill-opacity="0.337891"/>
		<polygon points="1305,1250 1446,1262 1444,1195 1485,1179 1421,1088" fill="rgb(63.7069%, 85.3056%, 100%)" fill-rule="evenodd" fill-opacity="0.579752"/>
		<polygon points="2092,759 2041,1373 2048,1381 1952,1353 1796,1353 1775,1321 1731,1102 1662,1096 1669,881" fill="rgb(96.7721%, 56.7272%, 40.9114%)" fill-rule="evenodd" fill-opacity="0.261057"/>
		<polygon points="1929,1249 1958,961 1925,1 1021,0 1021,132 1094,114 1282,143 1388,216 1491,317 1399,691 1514,754 1614,909 1657,1038 1695,1128 1728,1124 1724,1169 1763,1275" fill="rgb(83.3837%, 88.9922%, 89.8914%)" fill-rule="evenodd" fill-opacity="0.532396"/>
		<polygon points="1035,96 1071,137 1102,101 1259,126 1369,161 1382,213 1436,216 1540,552 1631,469 1790,309 1953,60 1885,12 1889,36 1713,0 1461,6 1047,0" fill="rgb(85.1942%, 76.1008%, 69.1334%)" fill-rule="evenodd" fill-opacity="0.464380"/>
		<polygon points="1619,776 1620,483 1650,524 1656,487 1686,415 1713,502 1777,558 1746,574 1626,581 1734,678 1718,769 1689,862 1615,982" fill="rgb(45.5891%, 28.9519%, 19.6478%)" fill-rule="evenodd" fill-opacity="0.321862"/>
		<polygon points="2196,0 2145,701 2157,842 2091,937 2130,420 2157,0" fill="rgb(18.7394%, 0%, 1.5604%)" fill-rule="evenodd" fill-opacity="0.562039"/>
		<polygon points="1278,147 1390,229 1403,231 1426,1 1217,10" fill="rgb(96.6201%, 95.3322%, 91.5219%)" fill-rule="evenodd" fill-opacity="0.191534"/>
		<polygon points="1773,998 1813,857 1703,899 1683,1008 1851,1035 1948,1184 1974,889 1958,700 1946,882 1891,608 1852,969" fill="rgb(74.1262%, 87.3194%, 100%)" fill-rule="evenodd" fill-opacity="0.256036"/>
		<polygon points="1716,1212 1796,1341 2046,1385 2057,1280 1845,1214 2194,675 2252,740 2290,730 2295,631 2258,307 2242,0 2201,6 2188,488 2154,733 1797,859 1590,875" fill="rgb(96.7883%, 83.9855%, 64.3767%)" fill-rule="evenodd" fill-opacity="0.295599"/>
		<polygon points="1897,1065 1926,1026 1894,1026" fill="rgb(80.3176%, 100%, 64.053%)" fill-rule="evenodd" fill-opacity="0.302409"/>
		<polygon points="1855,900 1830,946 1876,1015 1871,1035 1872,1117 1840,1234 1849,1180 1825,1113 1885,938" fill="rgb(52.308%, 48.1095%, 47.1721%)" fill-rule="evenodd" fill-opacity="0.446528"/>
		<polygon points="2031,1509 1916,1562 1929,1660 2037,1660" fill="rgb(92.933%, 64.2448%, 41.6927%)" fill-rule="evenodd" fill-opacity="0.439274"/>
		<polygon points="2017,1036 1917,1071 2149,721 2178,750 2187,836" fill="rgb(39.2938%, 29.9318%, 29.5791%)" fill-rule="evenodd" fill-opacity="0.242008"/>
		<polygon points="1733,998 1676,1028 1668,1018 1671,962 1581,971" fill="rgb(59.5343%, 49.606%, 43.7133%)" fill-rule="evenodd" fill-opacity="0.307554"/>
		<polygon points="1973,605 1972,562 1993,528 1996,302 1995,0 2028,0 2048,186 2030,304 2066,484 2056,780 2021,981" fill="rgb(24.8444%, 0.856392%, 0%)" fill-rule="evenodd" fill-opacity="0.298080"/>
		<polygon points="1667,308 1706,239 1727,62 1713,63 1677,0 1651,0 1632,212 1636,675 1647,564 1661,469 1700,406 1706,369" fill="rgb(24.0365%, 13.5441%, 10.6734%)" fill-rule="evenodd" fill-opacity="0.308302"/>
		<polygon points="1172,147 1197,15 1259,0 1252,123 1262,135" fill="rgb(42.8284%, 23.3872%, 9.34882%)" fill-rule="evenodd" fill-opacity="0.172169"/>
		<polygon points="1590,209 1635,166 1595,0 1581,167" fill="rgb(67.9855%, 13.4218%, 20.443%)" fill-rule="evenodd" fill-opacity="0.212687"/>
		<polygon points="1802,852 1816,912 1878,873 1882,800 1870,650 1875,388 1814,148" fill="rgb(55.751%, 46.1233%, 48.0198%)" fill-rule="evenodd" fill-opacity="0.333144"/>
		<polygon points="2152,780 2194,706 2087,694 1987,888 2106,922" fill="rgb(80.7376%, 41.647%, 28.1332%)" fill-rule="evenodd" fill-opacity="0.262722"/>
		<polygon points="1465,1139 1379,1274 1433,1269 1436,1298 1478,1250 1494,1134" fill="rgb(46.4612%, 46.9809%, 49.697%)" fill-rule="evenodd" fill-opacity="0.220415"/>
		<polygon points="1411,1083 1319,1263 1442,1314 1557,1307" fill="rgb(100%, 58.3952%, 30.6802%)" fill-rule="evenodd" fill-opacity="0.344350"/>
		<polygon points="1424,714 1469,547 1429,540 1438,648 1459,569 1513,552 1497,605 1516,681 1528,694 1476,743" fill="rgb(98.9281%, 95.6865%, 87.0698%)" fill-rule="evenodd" fill-opacity="0.280816"/>
		<polygon points="2213,161 2177,79 2179,202" fill="rgb(92.7098%, 14.0438%, 15.5631%)" fill-rule="evenodd" fill-opacity="0.182520"/>
		<polygon points="1393,250 1418,224 1477,194 1459,166 1447,108" fill="rgb(47.2971%, 44.424%, 31.7924%)" fill-rule="evenodd" fill-opacity="0.352147"/>
		<polygon points="1476,556 1499,512 1461,389 1469,382 1403,608 1406,647" fill="rgb(53.2621%, 51.2278%, 12.3992%)" fill-rule="evenodd" fill-opacity="0.127851"/>
	</g>
	<g id="G4">
		<polygon points="4357,856 4314,806 4357,704 4414,719 4411,680 4430,671 4447,612 4477,715 4526,707 4569,657 4523,836" fill="rgb(63.9692%, 88.2639%, 96.4149%)" fill-rule="evenodd" fill-opacity="0.480680"/>
		<polygon points="4598,865 4601,496 4513,496 4158,522 4083,559 4121,576 4074,597 4078,655 4108,782 4166,748 4210,861 4276,878" fill="rgb(86.6042%, 69.2725%, 64.2397%)" fill-rule="evenodd" fill-opacity="0.261821"/>
		<polygon points="4462,1850 4575,1670 4353,1804 4350,1627 4315,1573 4313,1778 4330,1982 4287,2076 4434,2121 4509,2083 4456,2059 4435,2028 4431,2007" fill="rgb(100%, 58.0742%, 19.0695%)" fill-rule="evenodd" fill-opacity="0.399583"/>
		<polygon points="3982,940 3954,950 3860,974 3796,1115 3845,1285 3843,1417 4054,1434 4348,1426 4368,1512 4297,1611 4305,1837 4606,1649 4607,1697 4604,1210 4430,1221 4513,1039 4526,923 4332,1222 4311,1187 4371,1038" fill="rgb(93.5475%, 76.2663%, 67.5016%)" fill-rule="evenodd" fill-opacity="0.340448"/>
		<polygon points="4132,1241 3886,1227 3857,1332 3836,1063 3792,1227 3794,1075 3847,986 4039,937 4065,964 4119,867 3844,821 4086,736 4099,655 4082,529 4610,496 4608,1243" fill="rgb(100%, 90.5392%, 81.1281%)" fill-rule="evenodd" fill-opacity="0.283883"/>
		<polygon points="3604,929 3664,909 3794,749 3951,1019 3891,1207 3869,1213 3814,1255 3776,1203 3810,1123 3858,856 3848,761 3867,753 3598,722" fill="rgb(75.2457%, 58.2077%, 53.0138%)" fill-rule="evenodd" fill-opacity="0.357539"/>
		<polygon points="4425,2022 4443,2072 4470,2074 4509,1947 4607,1678 4606,1520 4281,1519 4292,1832 4445,1863 4421,1982" fill="rgb(0%, 0%, 0%)" fill-rule="evenodd" fill-opacity="0.544698"/>
		<polygon points="3860,1409 3826,1419 3806,1269 3977,975 3952,1196 4041,1226 3994,1124 4090,1289 3941,1299 3847,1310 4023,1365 4058,1289 4059,1430 4199,1428 4211,618 4245,730 4323,593 4357,527 4067,545 4096,726 3995,788 3634,743 3644,876 3869,1320" fill="rgb(99.3214%, 80.7307%, 63.4812%)" fill-rule="evenodd" fill-opacity="0.468653"/>
		<polygon points="3760,1132 3797,1220 4194,1209 4212,754 4297,769 4277,625 4413,605 4426,618 4503,589 4490,540 4473,612 4492,508 4076,540 4107,752 3787,782" fill="rgb(100%, 100%, 95.6313%)" fill-rule="evenodd" fill-opacity="0.600000"/>
		<polygon points="4342,573 4331,626 4378,611 4529,607 4610,593 4610,563 4556,507 4308,524" fill="rgb(100%, 74.9423%, 33.3057%)" fill-rule="evenodd" fill-opacity="0.600000"/>
		<polygon points="3940,1100 3817,1025 3791,1104 3749,1098 3848,852 3772,850 3769,717 3754,712 3733,1040 3699,956 3598,904 3607,734 4055,783 4048,777 4171,658 4049,846 3979,804 3977,852 3907,836 3758,984 4011,953 4071,978 4086,988 4083,858 4131,856 4121,1093 4039,1217 3909,1205" fill="rgb(100%, 100%, 100%)" fill-rule="evenodd" fill-opacity="0.538933"/>
		<polygon points="4054,1360 3996,1277 3837,1299" fill="rgb(81.4131%, 89.4195%, 89.1117%)" fill-rule="evenodd" fill-opacity="0.566972"/>
		<polygon points="4372,1877 4426,1885 4469,1877 4423,1845 4299,1811 4364,1945" fill="rgb(34.4217%, 51.8805%, 69.63%)" fill-rule="evenodd" fill-opacity="0.207260"/>
		<polygon points="4608,1494 4610,1380 4582,1380 4520,1388 4506,1379 4434,1416 4451,1446 4414,1447 4391,1460" fill="rgb(94.9326%, 91.7628%, 88.3084%)" fill-rule="evenodd" fill-opacity="0.548368"/>
		<polygon points="4217,941 4215,759 4256,733 4082,748 4083,813 4046,886" fill="rgb(84.9236%, 48.6376%, 0%)" fill-rule="evenodd" fill-opacity="0.418746"/>
		<polygon points="3706,917 3655,900 3655,883 3598,918 3610,745 3683,769" fill="rgb(97.3747%, 45.4217%, 0%)" fill-rule="evenodd" fill-opacity="0.322431"/>
		<polygon points="3970,1442 3946,1411 3952,1400 4082,1233 4067,1428" fill="rgb(18.0729%, 27.4614%, 32.9506%)" fill-rule="evenodd" fill-opacity="0.389479"/>
		<polygon points="4282,1182 4249,1246 4177,1233 4210,1081 4286,963 4361,983" fill="rgb(64.117%, 64.6702%, 66.1831%)" fill-rule="evenodd" fill-opacity="0.295478"/>
		<polygon points="4600,1375 4610,1254 4545,1261 4507,1190 4484,1171 4517,1057 4535,949 4571,849 4598,887 4610,1018 4529,1253 4317,1253 4210,1266 4218,1319" fill="rgb(0%, 3.91646%, 7.46412%)" fill-rule="evenodd" fill-opacity="0.495576"/>
		<polygon points="3870,1335 3854,1302 3847,1152 3868,1153" fill="rgb(97.2831%, 68.0804%, 33.5368%)" fill-rule="evenodd" fill-opacity="0.423397"/>
		<polygon points="3878,915 3893,895 4074,889 4084,907 4014,973 3881,977" fill="rgb(0%, 0%, 4.64161%)" fill-rule="evenodd" fill-opacity="0.600000"/>
		<polygon points="4450,1116 4524,986 4447,991 4347,1247 4429,1233 4411,1437 4447,1386" fill="rgb(100%, 92.5234%, 63.3058%)" fill-rule="evenodd" fill-opacity="0.459438"/>
		<polygon points="4391,748 4436,683 4418,610 4327,630 4305,724" fill="rgb(7.43632%, 15.446%, 24.9557%)" fill-rule="evenodd" fill-opacity="0.307598"/>
		<polygon points="4407,1474 4409,1356 4429,1315 4405,1216 4446,1230 4451,1534 4419,1893" fill="rgb(84.682%, 52.3877%, 30.0934%)" fill-rule="evenodd" fill-opacity="0.267733"/>
		<polygon points="4501,934 4552,936 4508,1134 4446,1247 4458,1142 4432,1099" fill="rgb(36.827%, 63.4988%, 67.1077%)" fill-rule="evenodd" fill-opacity="0.227862"/>
		<polygon points="4449,1933 4357,1900 4430,1758" fill="rgb(62.206%, 60.8549%, 49.9836%)" fill-rule="evenodd" fill-opacity="0.152479"/>
		<polygon points="4242,558 4548,549 4610,533 4399,496 4410,534 4219,552" fill="rgb(14.0121%, 14.7558%, 27.6845%)" fill-rule="evenodd" fill-opacity="0.372623"/>
		<polygon points="3756,870 3675,888 3703,923 3817,937 3844,1009 3868,885" fill="rgb(22.6327%, 14.6338%, 14.8961%)" fill-rule="evenodd" fill-opacity="0.594271"/>
		<polygon points="4262,631 4284,687 4349,702 4400,595 4375,625 4334,620" fill="rgb(28.0429%, 15.73%, 25.7331%)" fill-rule="evenodd" fill-opacity="0.356903"/>
		<polygon points="4143,936 4120,1073 4114,1081 4083,1016 4066,1132 4068,1436 4188,1417 4219,1154 4152,994 4106,863" fill="rgb(94.5882%, 59.8146%, 4.36678%)" fill-rule="evenodd" fill-opacity="0.345852"/>
		<polygon points="3785,846 3758,853 3778,857 3804,893 3743,906 3734,871" fill="rgb(33.2122%, 100%, 94.877%)" fill-rule="evenodd" fill-opacity="0.275422"/>
		<polygon points="4420,1436 4423,1384 4322,1344 4176,1442 4254,1433 4436,1429" fill="rgb(58.6666%, 51.1916%, 74.4936%)" fill-rule="evenodd" fill-opacity="0.212380"/>
		<polygon points="3999,867 4009,773 3977,739 3994,859" fill="rgb(32.7808%, 65.8432%, 46.0347%)" fill-rule="evenodd" fill-opacity="0.231337"/>
	</g>
	<g id="G5">
		<polygon points="338,1417 169,1412 361,1353 351,1338 0,1263 0,710 122,710 502,735 410,942" fill="rgb(98.1308%, 44.1332%, 17.6919%)" fill-rule="evenodd" fill-opacity="0.442477"/>
		<polygon points="1281,1300 1314,1258 1416,1307" fill="rgb(79.9461%, 49.344%, 26.6754%)" fill-rule="evenodd" fill-opacity="0.249880"/>
		<polygon points="0,1627 1,1401 118,1385 289,1345 19,1272 288,1320 361,1417 218,1423 202,1619" fill="rgb(79.231%, 32.4399%, 5.49899%)" fill-rule="evenodd" fill-opacity="0.253445"/>
		<polygon points="1121,1481 1160,1612 1435,1723 1069,1754 868,1704 808,1489" fill="rgb(32.6119%, 22.8382%, 24.4072%)" fill-rule="evenodd" fill-opacity="0.100000"/>
		<polygon points="1563,1305 1468,1301 1621,1383" fill="rgb(93.7709%, 54.1667%, 39.8473%)" fill-rule="evenodd" fill-opacity="0.228238"/>
		<polygon points="230,1330 256,1365 28,1371 111,1443 366,1420 373,1309 6,1142 0,1334" fill="rgb(23.5166%, 9.30055%, 1.96559%)" fill-rule="evenodd" fill-opacity="0.492830"/>
		<polygon points="198,1855 0,1849 0,1263 242,1318" fill="rgb(81.0833%, 27.9383%, 11.4388%)" fill-rule="evenodd" fill-opacity="0.158635"/>
		<polygon points="1891,1549 1950,1661 1857,1652 1836,1600 1735,1540 1857,1433" fill="rgb(39.1584%, 43.5718%, 44.5126%)" fill-rule="evenodd" fill-opacity="0.155001"/>
		<polygon points="1585,1373 1321,1249 1246,1282 1299,1303 1416,1317 1570,1294" fill="rgb(100%, 64.7826%, 40.6401%)" fill-rule="evenodd" fill-opacity="0.113652"/>
		<polygon points="1954,1427 1849,1484 1815,1449" fill="rgb(81.3885%, 42.8342%, 40.5005%)" fill-rule="evenodd" fill-opacity="0.153359"/>
		<polygon points="403,1077 337,1224 374,953" fill="rgb(73.7586%, 68.1416%, 75.9977%)" fill-rule="evenodd" fill-opacity="0.124094"/>
		<polygon points="1809,1360 1820,1449 1816,1499 1934,1488 2028,1424 2044,1380 1959,1346" fill="rgb(73.9184%, 42.9462%, 21.8506%)" fill-rule="evenodd" fill-opacity="0.214158"/>
		<polygon points="1881,1551 2044,1497 2042,1387 1817,1345 1789,1544" fill="rgb(63.0822%, 26.2813%, 16.1903%)" fill-rule="evenodd" fill-opacity="0.261526"/>
		<polygon points="113,1221 202,1277 362,1313 414,1037 378,995 436,902 169,911" fill="rgb(47.0709%, 44.0549%, 48.6337%)" fill-rule="evenodd" fill-opacity="0.163410"/>
		<polygon points="1367,1697 1467,1735 1528,1705 1902,1669 1932,1544 1858,1448" fill="rgb(42.3405%, 30.7586%, 35.5184%)" fill-rule="evenodd" fill-opacity="0.100000"/>
		<polygon points="685,1801 700,1729 704,1632 609,1638 595,1547 434,1487 812,1497 868,1709 1047,1745" fill="rgb(43.7143%, 35.3923%, 33.6135%)" fill-rule="evenodd" fill-opacity="0.100000"/>
		<polygon points="2003,1373 1888,1335 1805,1356 1834,1450 1934,1433" fill="rgb(85.8534%, 51.2546%, 30.3968%)" fill-rule="evenodd" fill-opacity="0.321062"/>
	</g>
	<g id="G6">
		<polygon points="257,129 262,9 356,6 497,8 510,176 369,163 376,1 333,72 310,156 180,137 144,325 20,383 10,237 0,129 0,0 136,2 123,64 142,101" fill="rgb(63.2456%, 45.3059%, 29.024%)" fill-rule="evenodd" fill-opacity="0.390088"/>
		<polygon points="109,282 41,496 50,578 46,599 76,639 83,705 127,703 157,333" fill="rgb(33.138%, 53.2141%, 92.2976%)" fill-rule="evenodd" fill-opacity="0.483434"/>
		<polygon points="1028,41 1028,0 595,0 605,143 777,159 779,377 817,398 860,467 885,520 892,270 914,247 925,211 1012,138" fill="rgb(67.0208%, 71.3562%, 62.3724%)" fill-rule="evenodd" fill-opacity="0.484126"/>
		<polygon points="486,449 477,414 508,49 528,44 499,14 471,163 387,206 121,84 0,18 0,701 220,716 460,738 580,632 669,595 658,496 626,514 589,506 598,491" fill="rgb(88.2122%, 53.8453%, 50.4365%)" fill-rule="evenodd" fill-opacity="0.419363"/>
		<polygon points="9,2 473,0 574,5 688,5 692,97 672,212 683,295 673,327 680,446 654,609 582,634 544,676 508,740 447,740 0,706" fill="rgb(75.8672%, 80.1115%, 60.0087%)" fill-rule="evenodd" fill-opacity="0.378386"/>
		<polygon points="1016,148 949,192 847,367 590,440 588,344 571,294 64,56 38,46 37,0 67,9 115,0 1018,0" fill="rgb(82.9102%, 66.308%, 59.1679%)" fill-rule="evenodd" fill-opacity="0.419868"/>
		<polygon points="221,337 197,320 199,389 189,406 153,400 198,228" fill="rgb(29.1473%, 30.8111%, 31.3391%)" fill-rule="evenodd" fill-opacity="0.145072"/>
		<polygon points="878,392 819,444 817,392 800,378 732,400 582,439 593,513 650,509 660,528 626,581 634,618 721,594 902,563" fill="rgb(85.3049%, 78.3547%, 71.8789%)" fill-rule="evenodd" fill-opacity="0.565577"/>
		<polygon points="338,200 466,219 413,245 312,253 311,308 294,483 239,445 237,330 248,169 329,103" fill="rgb(79.4112%, 69.384%, 52.3945%)" fill-rule="evenodd" fill-opacity="0.206901"/>
		<polygon points="479,474 455,707 445,592 447,483 429,530 377,593 357,502 416,495 435,459 481,363" fill="rgb(85.1588%, 83.2871%, 73.1225%)" fill-rule="evenodd" fill-opacity="0.342442"/>
		<polygon points="430,306 615,293 491,320 667,161 786,154 787,9 820,0 828,170 906,8 891,446 872,402 882,384 812,451 814,520 775,591 759,399 418,468 382,381" fill="rgb(100%, 99.4796%, 89.8181%)" fill-rule="evenodd" fill-opacity="0.229864"/>
		<polygon points="479,0 509,0 497,117 499,258 527,269 472,433 458,264" fill="rgb(84.9371%, 87.2234%, 88.9993%)" fill-rule="evenodd" fill-opacity="0.420903"/>
		<polygon points="336,279 348,288 309,341 338,380 338,541 377,419 395,451 384,362 395,296 389,252 352,253 348,236" fill="rgb(12.5796%, 9.96525%, 8.38689%)" fill-rule="evenodd" fill-opacity="0.365711"/>
		<polygon points="90,31 99,138 115,214 130,182 120,118 147,113 177,5 164,10 140,0" fill="rgb(87.401%, 91.0512%, 93.3409%)" fill-rule="evenodd" fill-opacity="0.305484"/>
		<polygon points="361,44 413,18 421,0 346,0 344,157 331,79 322,115 317,175 336,137 384,87" fill="rgb(6.94639%, 7.35802%, 0%)" fill-rule="evenodd" fill-opacity="0.364304"/>
		<polygon points="573,608 533,588 540,575 526,538 550,521 544,478 528,453 486,524 506,641" fill="rgb(25.6338%, 24.4065%, 24.123%)" fill-rule="evenodd" fill-opacity="0.432692"/>
		<polygon points="588,421 568,423 554,408 548,388 519,405 519,546 573,519 548,481 617,466 639,362" fill="rgb(30.2494%, 0%, 10.4266%)" fill-rule="evenodd" fill-opacity="0.177251"/>
		<polygon points="814,379 813,312 852,312 861,334" fill="rgb(10.3638%, 4.30281%, 11.4819%)" fill-rule="evenodd" fill-opacity="0.421180"/>
		<polygon points="0,471 20,372 159,354 137,703 181,721 0,712" fill="rgb(94.3326%, 88.5936%, 76.2907%)" fill-rule="evenodd" fill-opacity="0.201093"/>
		<polygon points="486,349 508,402 535,429 599,371 646,391 644,349 592,237 491,300" fill="rgb(18.1436%, 3.17844%, 0%)" fill-rule="evenodd" fill-opacity="0.206082"/>
		<polygon points="905,230 909,96 857,189 868,351 816,586 879,558 884,344 914,257" fill="rgb(89.9806%, 91.6821%, 95.5035%)" fill-rule="evenodd" fill-opacity="0.409200"/>
		<polygon points="257,343 295,325 355,382 280,566 227,571 246,431 248,354" fill="rgb(81.2255%, 68.7356%, 57.3632%)" fill-rule="evenodd" fill-opacity="0.203861"/>
		<polygon points="566,452 588,475 509,485 519,439 471,418 480,435 468,517" fill="rgb(49.3986%, 53.9446%, 56.0827%)" fill-rule="evenodd" fill-opacity="0.262548"/>
		<polygon points="161,300 171,210 170,1 117,0 60,69 91,231 63,251 68,220 28,214 27,350 91,359 161,355" fill="rgb(74.1107%, 77.6663%, 74.8231%)" fill-rule="evenodd" fill-opacity="0.284312"/>
		<polygon points="829,383 829,416 838,444 785,436 764,400 790,342 845,359" fill="rgb(78.9461%, 62.2671%, 49.7248%)" fill-rule="evenodd" fill-opacity="0.301864"/>
		<polygon points="779,509 777,467 756,590 694,612 748,529 741,500 753,471 765,409" fill="rgb(0%, 0.21418%, 0.151257%)" fill-rule="evenodd" fill-opacity="0.304214"/>
		<polygon points="880,468 857,491 840,472 811,496 797,480 830,454" fill="rgb(12.0192%, 10.4338%, 12.2582%)" fill-rule="evenodd" fill-opacity="0.345268"/>
		<polygon points="429,654 473,622 471,660 452,674" fill="rgb(48.2651%, 82.8253%, 79.3035%)" fill-rule="evenodd" fill-opacity="0.255624"/>
		<polygon points="467,533 407,601 463,740" fill="rgb(91.4296%, 90.735%, 90.455%)" fill-rule="evenodd" fill-opacity="0.410814"/>
		<polygon points="44,573 34,626 47,605 55,658 32,668 7,616" fill="rgb(30.8849%, 27.7886%, 21.1537%)" fill-rule="evenodd" fill-opacity="0.218264"/>
		<polygon points="452,562 440,644 344,620 289,584 324,452" fill="rgb(38.9273%, 24.4262%, 10.0796%)" fill-rule="evenodd" fill-opacity="0.266507"/>
		<polygon points="384,671 372,641 342,636 342,621 387,586 411,598" fill="rgb(87.2009%, 79.7307%, 45.7007%)" fill-rule="evenodd" fill-opacity="0.227865"/>
		<polygon points="793,78 769,124 721,151 764,82 727,62 755,16" fill="rgb(10.4937%, 51.0527%, 0%)" fill-rule="evenodd" fill-opacity="0.153320"/>
		<polygon points="437,288 410,291 404,271 352,304 341,291 338,332 438,273" fill="rgb(81.6282%, 71.8078%, 34.3003%)" fill-rule="evenodd" fill-opacity="0.325007"/>
		<polygon points="685,597 629,610 707,614 703,600" fill="rgb(30.8831%, 32.8797%, 28.6597%)" fill-rule="evenodd" fill-opacity="0.398163"/>
		<polygon points="724,214 706,243 698,202" fill="rgb(50.0669%, 57.1556%, 69.6087%)" fill-rule="evenodd" fill-opacity="0.113792"/>
		<polygon points="466,477 476,491 463,507" fill="rgb(76.4057%, 56.7491%, 89.8198%)" fill-rule="evenodd" fill-opacity="0.327890"/>
		<polygon points="341,723 340,668 383,734" fill="rgb(28.3004%, 45.6536%, 8.54235%)" fill-rule="evenodd" fill-opacity="0.232950"/>
		<polygon points="610,313 627,306 621,330 641,323" fill="rgb(48.2513%, 28.8189%, 92.6759%)" fill-rule="evenodd" fill-opacity="0.100000"/>
	</g>
	<g id="G7">
		<polygon points="1440,1036 1454,995 1442,947 1469,841 1359,768 1514,720 1572,812 1628,971 1665,1021 1663,1084 1631,1136 1500,1133 1540,1055" fill="rgb(81.5109%, 16.913%, 15.449%)" fill-rule="evenodd" fill-opacity="0.128116"/>
		<polygon points="1474,1159 1428,1109 1455,1038 1594,1068 1538,953 1501,742 1566,817 1616,916 1641,998 1676,1065 1654,1126" fill="rgb(60.4503%, 16.7533%, 13.5777%)" fill-rule="evenodd" fill-opacity="0.304110"/>
		<polygon points="1421,709 1525,755 1371,754 1384,698" fill="rgb(91.0787%, 61.7825%, 66.6495%)" fill-rule="evenodd" fill-opacity="0.120671"/>
		<polygon points="459,838 457,886 443,848 415,997 672,673 744,699 753,686 895,600 909,571 825,569 585,611" fill="rgb(100%, 31.1645%, 18.2634%)" fill-rule="evenodd" fill-opacity="0.176489"/>
		<polygon points="554,638 749,576 901,569 940,731 763,920 728,985 726,1079 692,1074 506,1005 384,992" fill="rgb(80.6845%, 16.5696%, 11.5152%)" fill-rule="evenodd" fill-opacity="0.296736"/>
		<polygon points="1208,1228 1176,1186 1270,1182 1253,1216" fill="rgb(64.5383%, 30.1759%, 20.8103%)" fill-rule="evenodd" fill-opacity="0.233278"/>
		<polygon points="913,1131 1154,1158 1149,1188 1346,1181 1435,1069 1460,1046 1174,906 1079,908 1013,830 949,720 763,921 677,1080" fill="rgb(56.3845%, 14.0843%, 10.0383%)" fill-rule="evenodd" fill-opacity="0.328280"/>
		<polygon points="867,1062 875,1144 916,1198 1123,1196 983,1064" fill="rgb(47.3074%, 28.1297%, 11.6904%)" fill-rule="evenodd" fill-opacity="0.249855"/>
		<polygon points="846,1112 821,1122 807,1095 710,1087 709,1149" fill="rgb(51.7902%, 13.5799%, 10.2361%)" fill-rule="evenodd" fill-opacity="0.160653"/>
		<polygon points="1403,728 1501,766 1545,797 1529,754 1400,700" fill="rgb(89.9757%, 33.6631%, 35.2654%)" fill-rule="evenodd" fill-opacity="0.218523"/>
		<polygon points="1097,1164 1137,1122 1197,1113 1165,1200 1319,1198 1272,1261 1116,1203" fill="rgb(76.3256%, 33.358%, 46.312%)" fill-rule="evenodd" fill-opacity="0.100000"/>
		<polygon points="1559,872 1558,919 1614,955 1620,900 1529,794" fill="rgb(96.0149%, 36.0403%, 32.037%)" fill-rule="evenodd" fill-opacity="0.251909"/>
		<polygon points="1632,1032 1612,1023 1594,974 1566,956 1574,889 1627,899" fill="rgb(83.1517%, 25.1308%, 20.2827%)" fill-rule="evenodd" fill-opacity="0.255522"/>
		<polygon points="1532,770 1601,888 1618,930 1493,803 1496,743" fill="rgb(80.9496%, 29.4846%, 29.6516%)" fill-rule="evenodd" fill-opacity="0.353984"/>
		<polygon points="441,874 489,751 556,658 607,618 764,598 663,662 728,701 705,732 719,734 554,996 384,1012" fill="rgb(61.5308%, 10.016%, 2.42032%)" fill-rule="evenodd" fill-opacity="0.320309"/>
		<polygon points="1608,879 1517,744 1395,687 1305,848 1172,907 1376,1004 1382,1018 1676,1090" fill="rgb(72.6957%, 25.2359%, 21.8509%)" fill-rule="evenodd" fill-opacity="0.206084"/>
		<polygon points="1676,1095 1606,1130 1615,1117 1631,979" fill="rgb(79.2559%, 25.548%, 24.669%)" fill-rule="evenodd" fill-opacity="0.400967"/>
		<polygon points="740,1275 672,1267 701,1152 859,1107 861,1071 985,1066 1069,1086 1104,1163 1135,1093 1109,1036 1358,1184 1281,1289 1171,1280 908,1305" fill="rgb(38.4252%, 10.5225%, 7.13018%)" fill-rule="evenodd" fill-opacity="0.372905"/>
		<polygon points="863,1107 892,1054 853,1041" fill="rgb(81.0872%, 61.3564%, 23.0104%)" fill-rule="evenodd" fill-opacity="0.199355"/>
		<polygon points="1197,1175 1207,1188 1306,1168 1312,1109 1223,1118" fill="rgb(69.4569%, 41.8739%, 15.3936%)" fill-rule="evenodd" fill-opacity="0.231141"/>
	</g>
	<g id="G8">
		<polygon points="480,1082 384,1144 382,1174 665,1248 710,1136 712,1090 581,1032" fill="rgb(88.2292%, 40.7058%, 14.8687%)" fill-rule="evenodd" fill-opacity="0.425097"/>
		<polygon points="1268,1407 1320,1351 1328,1389 1230,1456 1123,1446" fill="rgb(54.5338%, 34.5303%, 23.7051%)" fill-rule="evenodd" fill-opacity="0.118063"/>
		<polygon points="1216,1276 780,1301 568,1222 600,1329 603,1375 888,1392 1295,1389 1358,1346 1394,1372 1505,1435 1771,1487 1804,1436 1689,1413 1515,1326" fill="rgb(46.6025%, 26.6102%, 15.1331%)" fill-rule="evenodd" fill-opacity="0.358208"/>
		<polygon points="1342,1446 1172,1526 1168,1560 1127,1608 1390,1687 1707,1534 1669,1516 1814,1422 1776,1306 1757,1277 1652,1374 1464,1326 1375,1381" fill="rgb(83.4252%, 37.1774%, 21.6012%)" fill-rule="evenodd" fill-opacity="0.263650"/>
		<polygon points="384,1143 414,1038 439,1008 528,1011 557,1040" fill="rgb(84.4227%, 36.6591%, 13.6028%)" fill-rule="evenodd" fill-opacity="0.424690"/>
		<polygon points="1562,1312 1645,1204 1746,1315 1748,1252 1684,1115 1580,1143 1493,1159 1483,1179" fill="rgb(72.371%, 31.3454%, 15.7113%)" fill-rule="evenodd" fill-opacity="0.396767"/>
		<polygon points="674,1251 655,1266 919,1307 1003,1302 1143,1285 1258,1288 1515,1315 1607,1398 1580,1422 1426,1358 967,1492 492,1492 486,1418 352,1419 379,1172" fill="rgb(78.5925%, 32.3174%, 12.6846%)" fill-rule="evenodd" fill-opacity="0.350300"/>
		<polygon points="1474,1317 1554,1336 1635,1208 1618,1144 1669,1085 1703,1142 1820,1385 1811,1489 1724,1529 1555,1516 1513,1458 1463,1450 1475,1495 1245,1294" fill="rgb(75.8235%, 49.4858%, 37.5589%)" fill-rule="evenodd" fill-opacity="0.375611"/>
		<polygon points="1349,1407 1370,1460 1533,1441 1467,1420 1423,1343 1352,1358" fill="rgb(71.2784%, 29.1226%, 0%)" fill-rule="evenodd" fill-opacity="0.312567"/>
		<polygon points="1263,1376 1262,1318 1363,1353 1297,1403 1233,1441" fill="rgb(63.9358%, 29.357%, 9.61342%)" fill-rule="evenodd" fill-opacity="0.375643"/>
		<polygon points="1479,1634 1500,1649 1534,1617 1531,1602 1550,1584 1478,1471 1399,1415 1309,1478 1313,1495 1433,1465 1399,1496 1459,1516" fill="rgb(62.3778%, 48.1777%, 40.0161%)" fill-rule="evenodd" fill-opacity="0.388035"/>
		<polygon points="535,1449 614,1392 545,1155 571,1022 418,1008 386,1094 352,1294 352,1365 413,1415" fill="rgb(63.0601%, 22.6532%, 2.41842%)" fill-rule="evenodd" fill-opacity="0.308214"/>
		<polygon points="1779,1438 1797,1353 1755,1280 1726,1364 1635,1431 1645,1516" fill="rgb(67.7194%, 67.0915%, 65.0461%)" fill-rule="evenodd" fill-opacity="0.319011"/>
		<polygon points="964,1435 975,1488 1086,1490 1139,1474 1193,1449 1238,1443 1317,1394" fill="rgb(32.283%, 12.3278%, 10.217%)" fill-rule="evenodd" fill-opacity="0.339310"/>
		<polygon points="1435,1474 1490,1554 1508,1503 1444,1455" fill="rgb(62.178%, 70.1376%, 75.5076%)" fill-rule="evenodd" fill-opacity="0.283764"/>
		<polygon points="1242,1548 1330,1522 1312,1571 1378,1566 1316,1609 1406,1616 1367,1661 1479,1660 1498,1624 1521,1599 1689,1529 1538,1506 1563,1482 1493,1453 1336,1450 1157,1563" fill="rgb(75.2225%, 35.9636%, 18.3891%)" fill-rule="evenodd" fill-opacity="0.253215"/>
		<polygon points="1697,1240 1701,1270 1623,1274 1527,1202 1503,1153 1632,1126 1652,1213" fill="rgb(47.6936%, 20.4544%, 9.57982%)" fill-rule="evenodd" fill-opacity="0.330767"/>
		<polygon points="1690,1222 1749,1292 1726,1165 1674,1089 1640,1133" fill="rgb(67.9798%, 67.743%, 67.5208%)" fill-rule="evenodd" fill-opacity="0.298521"/>
		<polygon points="649,1234 660,1257 596,1250 655,1058 724,1098 685,1240" fill="rgb(35.989%, 30.4291%, 31.5962%)" fill-rule="evenodd" fill-opacity="0.307018"/>
		<polygon points="1180,1464 1257,1400 1009,1430 811,1439 498,1475 504,1434 468,1494 689,1507 754,1507 1016,1501 1085,1502 1138,1489" fill="rgb(6.46131%, 2.67421%, 2.93681%)" fill-rule="evenodd" fill-opacity="0.399284"/>
		<polygon points="1428,1498 1459,1504 1461,1487" fill="rgb(93.8212%, 41.5176%, 42.7023%)" fill-rule="evenodd" fill-opacity="0.172109"/>
	</g>
	<g id="G9">
		<polygon points="670,1917 626,1828 563,1850 400,1705 451,1703 589,1728 638,1720 664,1678 624,1664 679,1657 702,1659" fill="rgb(75.7959%, 12.9026%, 0%)" fill-rule="evenodd" fill-opacity="0.240062"/>
		<polygon points="500,1569 452,1556 390,1567 338,1560 349,1537 296,1549 289,1578 386,1577 493,1581" fill="rgb(75.4203%, 50.2282%, 33.7222%)" fill-rule="evenodd" fill-opacity="0.200688"/>
		<polygon points="342,1641 427,1640 384,1644 418,1682 414,1717 469,1767 309,1765 255,1722 257,1719 218,1683 217,1553 219,1420 413,1420" fill="rgb(100%, 56.3451%, 31.9751%)" fill-rule="evenodd" fill-opacity="0.250690"/>
		<polygon points="0,2240 0,1868 196,1851 239,1837 214,1855 213,1893 289,1889 297,2000 62,2028 327,2076 330,2132 180,2143 196,2163 262,2176 287,2187 235,2239" fill="rgb(100%, 47.7158%, 16.4726%)" fill-rule="evenodd" fill-opacity="0.388310"/>
		<polygon points="465,1782 390,1756 375,1825 457,1826 566,1822 550,1776" fill="rgb(24.7522%, 44.8372%, 39.9135%)" fill-rule="evenodd" fill-opacity="0.402879"/>
		<polygon points="161,2064 227,2073 334,2017 332,1829 354,1820 369,1968 497,1977 390,1918 414,1898 438,1850 560,1822 551,2019 512,2092 469,2105 382,2069 374,2105 358,2140 202,2125 164,2107" fill="rgb(80.5786%, 100%, 82.356%)" fill-rule="evenodd" fill-opacity="0.327507"/>
		<polygon points="0,2240 71,2240 104,2234 131,2218 148,2199 76,2161 63,2149 33,2152 3,2109" fill="rgb(97.5006%, 86.0087%, 75.4355%)" fill-rule="evenodd" fill-opacity="0.401223"/>
		<polygon points="192,2066 178,2052 159,2077 244,2145 314,2138 257,2072 204,2033" fill="rgb(64.9841%, 72.681%, 76.3803%)" fill-rule="evenodd" fill-opacity="0.202385"/>
		<polygon points="341,2240 345,2212 545,2187 654,2184 645,2197 667,2237" fill="rgb(66.4219%, 97.3453%, 97.3018%)" fill-rule="evenodd" fill-opacity="0.432293"/>
		<polygon points="663,2195 780,2206 746,2217 723,2240 642,2240" fill="rgb(70.6582%, 35.8579%, 6.17765%)" fill-rule="evenodd" fill-opacity="0.294271"/>
		<polygon points="523,1678 408,1660 286,1769 478,1766 482,1776 519,1781 558,1816 595,1589" fill="rgb(51.1549%, 35.9829%, 19.1358%)" fill-rule="evenodd" fill-opacity="0.266667"/>
		<polygon points="679,1898 656,2218 758,2240 240,2239 298,2181 343,2170 331,2141 181,2114 298,2018 186,2016 158,1974 93,1967 125,1952 163,1967 213,1932 212,1761 543,1771 537,1787 551,1865 686,1789 695,1749" fill="rgb(93.5481%, 53.8203%, 29.2038%)" fill-rule="evenodd" fill-opacity="0.395318"/>
		<polygon points="135,2181 128,2097 7,2013 4,1953 94,1932 222,2007 200,2063 177,2074 193,2051 227,2084 279,2100 323,2134 393,2219 252,2220" fill="rgb(19.6464%, 6.95015%, 4.70548%)" fill-rule="evenodd" fill-opacity="0.475347"/>
		<polygon points="409,1423 358,1594 282,1749 218,1680 211,1821 214,2108 302,2125 377,2118 400,2074 434,2106 517,2081 584,2033 561,1985 428,1980 565,1858 693,1784 698,1643 662,1627 596,1620 612,1556 599,1539 489,1523 480,1503 493,1429" fill="rgb(78.3348%, 58.0842%, 41.3447%)" fill-rule="evenodd" fill-opacity="0.290192"/>
		<polygon points="643,2182 688,2207 764,2229 492,2236 540,2191 584,2208 640,2067" fill="rgb(76.0764%, 63.7307%, 48.1325%)" fill-rule="evenodd" fill-opacity="0.363389"/>
		<polygon points="323,2087 338,2101 336,2128 314,2137 297,2115 225,2092 235,2042 280,2045 332,2043" fill="rgb(79.4043%, 91.3143%, 99.7856%)" fill-rule="evenodd" fill-opacity="0.411838"/>
		<polygon points="578,1634 348,1648 405,1633 499,1622" fill="rgb(78.622%, 81.9875%, 44.5119%)" fill-rule="evenodd" fill-opacity="0.159902"/>
		<polygon points="812,2236 766,2212 710,2206 583,2182 416,2179 361,2061 361,2120 338,2158 337,2239" fill="rgb(89.3142%, 72.595%, 49.1349%)" fill-rule="evenodd" fill-opacity="0.300231"/>
		<polygon points="646,2045 623,2060 615,2189 645,2184" fill="rgb(82.648%, 81.649%, 95.53%)" fill-rule="evenodd" fill-opacity="0.208280"/>
		<polygon points="426,2194 371,2225 334,2200 332,2135 333,2008 393,2036 414,2052" fill="rgb(37.9141%, 34.2053%, 31.1837%)" fill-rule="evenodd" fill-opacity="0.361320"/>
		<polygon points="205,1980 293,1933 285,1902 234,1877 225,1930 190,1956 147,1983" fill="rgb(82.6914%, 80.1795%, 90.4595%)" fill-rule="evenodd" fill-opacity="0.420889"/>
		<polygon points="0,2240 0,2182 60,2153 94,2181 148,2180 229,2202 154,2240" fill="rgb(53.6364%, 83.4788%, 95.9613%)" fill-rule="evenodd" fill-opacity="0.326889"/>
		<polygon points="590,2240 637,2240 664,2171 698,1736 702,1674 667,1648 633,1941" fill="rgb(83.8438%, 75.8035%, 54.7392%)" fill-rule="evenodd" fill-opacity="0.197045"/>
		<polygon points="458,1420 506,1448 313,1461 221,1452 221,1431 299,1422 341,1420" fill="rgb(78.1458%, 47.161%, 33.0722%)" fill-rule="evenodd" fill-opacity="0.263961"/>
		<polygon points="679,1629 709,1650 698,1692 671,1724" fill="rgb(70.3988%, 73.0289%, 59.8951%)" fill-rule="evenodd" fill-opacity="0.195067"/>
		<polygon points="210,1718 221,1737 262,1762 308,1768 292,1849 257,1891 241,1898 213,1872" fill="rgb(40.2127%, 19.0083%, 4.7424%)" fill-rule="evenodd" fill-opacity="0.427255"/>
		<polygon points="262,2003 222,2018 88,1995 97,1969 200,1923 227,1877 300,1888 298,2001" fill="rgb(50.7365%, 94.6003%, 100%)" fill-rule="evenodd" fill-opacity="0.189888"/>
		<polygon points="0,2160 63,2179 0,2223" fill="rgb(21.3475%, 30.6208%, 37.6839%)" fill-rule="evenodd" fill-opacity="0.261872"/>
		<polygon points="286,1711 391,1676 335,1537 303,1552 301,1677" fill="rgb(37.0393%, 30.6074%, 25.5905%)" fill-rule="evenodd" fill-opacity="0.270716"/>
		<polygon points="522,1850 519,1870 491,1878 497,1863" fill="rgb(96.7097%, 87.859%, 96.3028%)" fill-rule="evenodd" fill-opacity="0.185861"/>
	</g>
	<g id="G10">
		<polygon points="2844,1014 2795,1080 2824,1108 2827,1077 2931,991 2940,990 2909,952" fill="rgb(71.5127%, 62.5314%, 66.1884%)" fill-rule="evenodd" fill-opacity="0.115608"/>
		<polygon points="3642,925 3570,958 3537,969 3501,952 3459,1017 3328,983 3263,890 3351,890 3378,901 3609,901" fill="rgb(76.9009%, 71.0385%, 85.1755%)" fill-rule="evenodd" fill-opacity="0.202659"/>
		<polygon points="3530,890 3460,1022 3527,1150 3552,1112 3699,1122 3741,1188 3785,1193 3759,1099 3745,1060 3680,929" fill="rgb(78.1735%, 75.1832%, 87.6156%)" fill-rule="evenodd" fill-opacity="0.205157"/>
		<polygon points="3427,1174 3547,1188 3471,1045 3462,1016 3352,991 3317,974 3296,1069 3248,1165" fill="rgb(49.9847%, 46.8348%, 50.7666%)" fill-rule="evenodd" fill-opacity="0.247254"/>
		<polygon points="3533,1217 3581,1316 3693,1202 3741,1203 3771,1190 3733,1185 3635,993 3591,1039 3624,1084 3657,1195 3543,1180" fill="rgb(40.8513%, 35.7276%, 43.2453%)" fill-rule="evenodd" fill-opacity="0.114005"/>
		<polygon points="3751,1092 3712,985 3654,917 3626,1003 3654,1034 3702,1120 3551,1112 3517,1165 3565,1186 3788,1202" fill="rgb(40.2514%, 39.4888%, 44.417%)" fill-rule="evenodd" fill-opacity="0.347813"/>
		<polygon points="2796,1091 2666,1070 2660,1134 2664,1226 2760,1165 2815,1172 2806,1134 2825,1077" fill="rgb(30.0323%, 31.0394%, 35.7449%)" fill-rule="evenodd" fill-opacity="0.398280"/>
		<polygon points="2660,1092 2684,1062 2796,1108 2782,1139" fill="rgb(31.0755%, 30.6951%, 39.9922%)" fill-rule="evenodd" fill-opacity="0.279867"/>
		<polygon points="2747,1087 2670,1117 2671,1073 2733,1071" fill="rgb(75.311%, 89.7299%, 100%)" fill-rule="evenodd" fill-opacity="0.155183"/>
		<polygon points="2968,1304 2905,1255 2950,1238" fill="rgb(43.8339%, 49.1063%, 69.4726%)" fill-rule="evenodd" fill-opacity="0.373242"/>
		<polygon points="3624,1390 3592,1336 3557,1326 3562,1316 3531,1286 3461,1251 3345,1292 2970,1318 3062,1361 3214,1413 3403,1464 3634,1484" fill="rgb(57.0846%, 54.2588%, 56.5783%)" fill-rule="evenodd" fill-opacity="0.176327"/>
		<polygon points="3137,1215 3088,1071 2891,960 2822,1051 2802,1188 2860,1246 2976,1317 3354,1292 3283,1328 3231,1404 3286,1430 3428,1427 3524,1409 3572,1370 3609,1303 3712,1197 3247,1162" fill="rgb(69.8183%, 66.9341%, 74.6701%)" fill-rule="evenodd" fill-opacity="0.131409"/>
		<polygon points="3516,973 3495,961 3498,927 3548,943 3630,925 3589,952" fill="rgb(3.89327%, 7.68373%, 4.3647%)" fill-rule="evenodd" fill-opacity="0.174081"/>
		<polygon points="3407,1253 3343,1305 3276,1337 3344,1343 3349,1358 3435,1372 3538,1322 3506,1264" fill="rgb(62.3923%, 69.2738%, 66.0747%)" fill-rule="evenodd" fill-opacity="0.175970"/>
		<polygon points="3518,977 3550,962 3505,968" fill="rgb(58.4055%, 57.4461%, 76.0252%)" fill-rule="evenodd" fill-opacity="0.169993"/>
		<polygon points="3635,907 3687,929 3655,931" fill="rgb(2.34142%, 12.5337%, 10.3738%)" fill-rule="evenodd" fill-opacity="0.151021"/>
		<polygon points="3416,936 3387,945 3360,907 3394,915" fill="rgb(95.9377%, 53.1131%, 72.1347%)" fill-rule="evenodd" fill-opacity="0.305359"/>
	</g>
	<g id="G11">
		<polygon points="1189,376 1006,474 921,638 899,584 901,533 888,495 894,327 901,309 918,222 940,225 1011,211 1146,119 1240,126 1313,150 1310,157 1337,177" fill="rgb(54.5842%, 39.622%, 33.1817%)" fill-rule="evenodd" fill-opacity="0.172692"/>
		<polygon points="1273,258 1259,284 1270,336 1321,389 1310,412 1260,402 1273,394 1264,389 1212,409 1163,405 1257,267 1045,134 1100,110 1151,110 1226,189 1196,190" fill="rgb(16.6762%, 22.9999%, 22.8958%)" fill-rule="evenodd" fill-opacity="0.125621"/>
		<polygon points="1326,320 1175,322 1157,345 1168,398 1217,503 1265,481 1307,492 1332,480 1382,508 1445,495 1439,459 1416,369" fill="rgb(99.8327%, 57.3179%, 31.3161%)" fill-rule="evenodd" fill-opacity="0.226752"/>
		<polygon points="1316,830 1252,822 1247,766 1150,678 1091,581 1124,614 1148,651 1227,691 1235,692 1303,686" fill="rgb(93.3359%, 42.1989%, 35.7889%)" fill-rule="evenodd" fill-opacity="0.113387"/>
		<polygon points="1094,517 1095,578 1151,654 1190,673 1238,700 1276,685 1303,688 1287,560 1385,440 1417,446 1417,485 1442,496 1421,430 1400,413 1399,402 1365,350 1297,339 1235,296 1178,310 1146,321" fill="rgb(77.1829%, 32.3736%, 11.7354%)" fill-rule="evenodd" fill-opacity="0.428986"/>
		<polygon points="1457,455 1391,432 1288,561 1320,826 1407,687 1415,665 1423,560 1441,490 1466,488 1479,348 1458,293" fill="rgb(86.6609%, 46.5312%, 31.2862%)" fill-rule="evenodd" fill-opacity="0.323379"/>
		<polygon points="1127,922 1093,913 1009,838 958,727 928,627 962,560 944,523 957,503 1162,389 1217,499 1192,546 1244,584 1292,595 1311,757 1384,728 1331,825 1273,870 1143,922" fill="rgb(90.3318%, 46.4183%, 32.405%)" fill-rule="evenodd" fill-opacity="0.140971"/>
		<polygon points="973,724 956,747 985,788 1015,824 1009,810 1054,844 1055,748" fill="rgb(95.9783%, 34.733%, 3.49215%)" fill-rule="evenodd" fill-opacity="0.190541"/>
		<polygon points="1157,139 1156,130 1119,110 1245,134 1174,156" fill="rgb(67.622%, 62.4559%, 58.9728%)" fill-rule="evenodd" fill-opacity="0.252310"/>
		<polygon points="1428,230 1371,221 1403,243 1443,293 1457,346 1479,339" fill="rgb(74.1827%, 79.9849%, 66.636%)" fill-rule="evenodd" fill-opacity="0.199196"/>
		<polygon points="1420,429 1403,443 1411,494 1435,499 1436,448" fill="rgb(72.5917%, 89.0476%, 93.0276%)" fill-rule="evenodd" fill-opacity="0.312972"/>
		<polygon points="963,562 940,490 942,478 964,456 985,462 1044,495 1067,552 1039,549 1035,616 1004,609" fill="rgb(74.2236%, 25.2816%, 13.0626%)" fill-rule="evenodd" fill-opacity="0.273504"/>
		<polygon points="1160,110 1112,112 1040,124 969,172 929,227 1007,213 1135,127 1170,136" fill="rgb(91.0479%, 65.3588%, 62.0969%)" fill-rule="evenodd" fill-opacity="0.118262"/>
		<polygon points="1387,699 1352,709 1381,725" fill="rgb(76.5251%, 68.1827%, 77.8516%)" fill-rule="evenodd" fill-opacity="0.205539"/>
		<polygon points="1168,765 1234,785 1286,825 1301,842 1302,854 1274,879 1193,886 1171,922 1129,922 1162,859 947,710 898,499 905,379 928,341 1018,396 1081,280 1122,263 1076,507 1009,465 938,498 968,567 984,590" fill="rgb(0%, 0%, 2.23274%)" fill-rule="evenodd" fill-opacity="0.296646"/>
		<polygon points="1036,570 1035,617 1076,619 1091,667 1147,714 1184,668 1112,602 1090,483" fill="rgb(50.7256%, 20.212%, 11.7117%)" fill-rule="evenodd" fill-opacity="0.109447"/>
		<polygon points="1413,400 1419,447 1459,494 1401,516 1349,473 1345,425" fill="rgb(75.697%, 71.0542%, 67.2908%)" fill-rule="evenodd" fill-opacity="0.201583"/>
		<polygon points="1102,110 1157,110 1178,127 1215,123 1331,158 1335,187 1279,150 1296,167 1283,174 1258,152 1155,168" fill="rgb(31.9556%, 28.1919%, 28.3955%)" fill-rule="evenodd" fill-opacity="0.201882"/>
		<polygon points="1309,146 1269,142 1308,176 1313,171 1312,204 1245,302 1305,359 1316,518 1408,432 1404,459 1422,436 1435,450 1455,454 1479,400 1476,317 1439,240 1368,202" fill="rgb(36.1329%, 27.0054%, 27.0583%)" fill-rule="evenodd" fill-opacity="0.275254"/>
		<polygon points="1329,642 1355,659 1399,670 1404,688 1410,672 1419,551 1397,552 1390,527 1399,515 1380,526" fill="rgb(96.0484%, 44.2076%, 44.7945%)" fill-rule="evenodd" fill-opacity="0.365997"/>
		<polygon points="1378,577 1333,598 1362,523" fill="rgb(39.4716%, 39.7884%, 12.6828%)" fill-rule="evenodd" fill-opacity="0.334420"/>
	</g>
	<g id="G12">
		<polygon points="3200,930 3299,994 3314,1026 3317,993 3297,923 3206,826 3226,757 3244,736 3256,686 3255,588 3231,572 3232,675 3165,693 3145,749 3047,769 3131,867 3140,881 3077,919" fill="rgb(96.5406%, 82.2893%, 67.9625%)" fill-rule="evenodd" fill-opacity="0.187934"/>
		<polygon points="3055,927 3184,859 3237,745 3265,663 3250,583 3235,571 3236,540 3184,489 3080,465 3034,436 3018,432 2931,432 2906,462 2824,486 2786,539 2778,621 2799,630 2925,924 2943,997" fill="rgb(59.8063%, 56.3674%, 63.6268%)" fill-rule="evenodd" fill-opacity="0.260885"/>
		<polygon points="2761,853 2767,878 2868,935 2880,931 2901,948 2928,921 2921,913 2791,612 2728,659 2726,773 2705,800" fill="rgb(57.9862%, 55.6475%, 65.253%)" fill-rule="evenodd" fill-opacity="0.211213"/>
		<polygon points="3292,1081 3192,1055 3184,1035 3183,965 3103,1033 3045,1045 3023,1031 3051,999 3018,992 3010,997 2968,751 3032,706 3065,708 3189,798 3319,965 3303,1052" fill="rgb(53.7663%, 32.5348%, 19.4595%)" fill-rule="evenodd" fill-opacity="0.335119"/>
		<polygon points="3044,479 3032,451 3053,442 3114,484 3166,549 3192,557 3256,622 3205,616 3165,596 3140,592 3132,605 3059,548 3052,522 3004,486" fill="rgb(39.6522%, 39.3619%, 43.8014%)" fill-rule="evenodd" fill-opacity="0.198595"/>
		<polygon points="3182,493 3222,529 3261,618 3142,524 3077,498 3069,487 2903,461 2941,432 3002,432" fill="rgb(68.8604%, 62.7897%, 59.0548%)" fill-rule="evenodd" fill-opacity="0.348752"/>
		<polygon points="2883,482 2850,465 2740,612 2679,619 2679,654 2739,656 2820,579 2871,546" fill="rgb(71.6769%, 63.2111%, 62.1474%)" fill-rule="evenodd" fill-opacity="0.544844"/>
		<polygon points="2853,510 2831,473 2888,477" fill="rgb(100%, 94.8429%, 89.5507%)" fill-rule="evenodd" fill-opacity="0.460412"/>
		<polygon points="2746,591 2741,619 2775,610 2824,553 2835,553 2962,432 2831,483" fill="rgb(98.043%, 100%, 95.2963%)" fill-rule="evenodd" fill-opacity="0.338809"/>
		<polygon points="3176,1039 3167,1054 3201,1053" fill="rgb(80.9332%, 13.0784%, 63.9853%)" fill-rule="evenodd" fill-opacity="0.100000"/>
		<polygon points="3099,1081 3122,1187 3133,1216 3182,1205 3249,1159 3266,1138 3297,1056 3310,1006 3307,970 3295,943 3165,750 3072,737 2985,823 2945,819 2885,771 2849,787 2900,833 2946,819 2924,851 2936,914 2897,955 2935,995" fill="rgb(74.454%, 39.4367%, 32.14%)" fill-rule="evenodd" fill-opacity="0.336724"/>
		<polygon points="3298,945 3219,844 3211,814 3195,865 3245,941" fill="rgb(81.9108%, 79.5092%, 98.1602%)" fill-rule="evenodd" fill-opacity="0.243668"/>
		<polygon points="3004,895 2936,929 2932,968 2814,913 2852,884 2901,887 2935,848" fill="rgb(95.6188%, 42.4476%, 24.118%)" fill-rule="evenodd" fill-opacity="0.238042"/>
		<polygon points="2876,928 2869,889 2836,895" fill="rgb(85.7963%, 95.4971%, 98.447%)" fill-rule="evenodd" fill-opacity="0.441510"/>
		<polygon points="3163,810 3184,891 3197,839 3238,916 3296,929 3200,820" fill="rgb(92.9411%, 100%, 98.0801%)" fill-rule="evenodd" fill-opacity="0.417165"/>
		<polygon points="2851,594 2877,580 2865,545 2803,583 2771,552 2769,607 2679,659 2814,703 2809,623" fill="rgb(19.6537%, 17.5273%, 20.0348%)" fill-rule="evenodd" fill-opacity="0.441596"/>
	</g>
	<g id="G13">
		<polygon points="2901,1438 2964,1472 2921,1494 2906,1495 3060,1539 2920,1519 2839,1485 2808,1445" fill="rgb(100%, 58.3647%, 48.4252%)" fill-rule="evenodd" fill-opacity="0.136653"/>
		<polygon points="2991,1328 3059,1368 3503,1497 2972,1476 2873,1423 2816,1454 2765,1370 2768,1360 2836,1315 2898,1266" fill="rgb(100%, 55.383%, 28.6594%)" fill-rule="evenodd" fill-opacity="0.551484"/>
		<polygon points="3849,1633 3849,1544 3786,1220 3764,1197 3737,1197 3696,1209 3600,1304 3665,1507 3455,1471 3402,1465 3390,1519 3465,1549 3543,1632 3650,1687 3772,1765 3816,1733" fill="rgb(84.009%, 43.7263%, 31.338%)" fill-rule="evenodd" fill-opacity="0.307493"/>
		<polygon points="3412,1557 3146,1486 3232,1485 3194,1447 3145,1416 3073,1414 2892,1327 2917,1301 2889,1270 3063,1362 3202,1407 3481,1479 3534,1471 3629,1489 3686,1513 3740,1510 3751,1541 3572,1543 3458,1527 3463,1558" fill="rgb(45.0182%, 33.7575%, 35.0025%)" fill-rule="evenodd" fill-opacity="0.464579"/>
		<polygon points="3183,1537 3067,1539 2916,1499 2958,1473 3043,1480 3209,1485 3412,1495 3296,1563" fill="rgb(80.5256%, 40.9068%, 27.8702%)" fill-rule="evenodd" fill-opacity="0.377015"/>
		<polygon points="2966,1467 2932,1350 2914,1272 2888,1263 2827,1316 2765,1355 2766,1381 2799,1447 2896,1511" fill="rgb(62.4503%, 28.2624%, 14.0979%)" fill-rule="evenodd" fill-opacity="0.388094"/>
		<polygon points="3451,1603 3298,1562 3464,1464 3634,1496 3628,1429 3591,1324 3675,1240 3748,1237 3809,1297 3849,1582 3650,1561 3530,1566 3493,1577 3547,1637" fill="rgb(77.2713%, 44.1071%, 23.9636%)" fill-rule="evenodd" fill-opacity="0.370512"/>
		<polygon points="2865,1279 2904,1261 2971,1307 3090,1381 3380,1469 3336,1468 3225,1448 3229,1457 3169,1425 3111,1455 2925,1393 2871,1387" fill="rgb(72.4074%, 56.9042%, 48.0436%)" fill-rule="evenodd" fill-opacity="0.297398"/>
		<polygon points="3636,1534 3510,1525 3285,1473 2898,1449 3037,1505 3086,1495 3550,1615 3641,1621 3680,1652 3711,1655 3775,1677 3811,1651 3844,1645 3833,1557" fill="rgb(47.7646%, 20.7447%, 9.47648%)" fill-rule="evenodd" fill-opacity="0.418950"/>
		<polygon points="3760,1639 3849,1660 3837,1615 3849,1585 3840,1434 3739,1507 3634,1480 3544,1533 3506,1566 3690,1595" fill="rgb(32.949%, 25.1186%, 22.8124%)" fill-rule="evenodd" fill-opacity="0.210340"/>
	</g>
	<g id="G14">
		<polygon points="4610,2114 4137,2122 4060,2093 3913,2094 3799,2075 3705,2132 3482,2113 3431,2141 3309,2238 4610,2240" fill="rgb(24.3441%, 25.4564%, 30.0024%)" fill-rule="evenodd" fill-opacity="0.308675"/>
		<polygon points="4589,1646 4443,1883 4497,1855 4609,1777 4610,1640" fill="rgb(55.3797%, 91.9547%, 100%)" fill-rule="evenodd" fill-opacity="0.500591"/>
		<polygon points="4233,2199 4110,2134 4307,2125 4425,2238 4386,2240" fill="rgb(30.5369%, 43.4297%, 62.2608%)" fill-rule="evenodd" fill-opacity="0.201422"/>
		<polygon points="4603,2104 4585,2119 4598,2149 4573,2164 4508,2151 4422,2215 4451,2240 4206,2179 4136,2144 4209,2135 4372,2190 4318,2137 4362,2132 4527,2092" fill="rgb(36.8451%, 58.6038%, 84.9255%)" fill-rule="evenodd" fill-opacity="0.104551"/>
		<polygon points="3685,2167 3577,2154 3453,2120 3503,2107 3694,2130 4046,2240 3861,2240" fill="rgb(44.07%, 55.4854%, 81.9518%)" fill-rule="evenodd" fill-opacity="0.145939"/>
		<polygon points="4431,2138 4610,2160 4610,2080 4524,2082 4497,2077" fill="rgb(100%, 56.7703%, 29.5273%)" fill-rule="evenodd" fill-opacity="0.327071"/>
		<polygon points="4071,2102 3984,2096 3884,2096 3774,2077 3706,2125 3624,2118 3564,2134 3611,2142 3698,2151" fill="rgb(29.4383%, 37.1881%, 47.3797%)" fill-rule="evenodd" fill-opacity="0.167732"/>
		<polygon points="4550,1780 4524,1772 4543,1727 4539,1710 4602,1675 4573,1670 4610,1640 4610,1716" fill="rgb(72.9286%, 97.2274%, 100%)" fill-rule="evenodd" fill-opacity="0.598442"/>
		<polygon points="4452,1880 4454,1848 4486,1794 4526,1809 4579,1731 4610,1735 4610,1794 4598,1867 4488,1895" fill="rgb(36.3908%, 35.855%, 35.1424%)" fill-rule="evenodd" fill-opacity="0.334028"/>
		<polygon points="4529,2126 4489,2108 4432,2107 4443,2127 4299,2121 4321,2137 4413,2143 4431,2177 4482,2159 4610,2181 4598,2134" fill="rgb(58.5821%, 71.0225%, 93.2225%)" fill-rule="evenodd" fill-opacity="0.142704"/>
		<polygon points="4535,2113 4557,2143 4476,2137 4438,2125 4464,2094" fill="rgb(90.107%, 89.7405%, 83.5556%)" fill-rule="evenodd" fill-opacity="0.459121"/>
		<polygon points="4589,1640 4610,1640 4606,2060 4475,2056 4431,2044 4428,1961 4445,1870 4532,1722" fill="rgb(98.9517%, 40.9655%, 19.7945%)" fill-rule="evenodd" fill-opacity="0.287081"/>
		<polygon points="4072,2110 4109,2143 4126,2127 4090,2106" fill="rgb(86.6313%, 25.8551%, 91.1382%)" fill-rule="evenodd" fill-opacity="0.100000"/>
	</g>
	<g id="G15">
		<polygon points="2615,932 2637,938 2664,940 2689,923 2678,872 2663,819 2650,783 2654,717 2668,758 2700,718 2713,784 2723,759 2717,672 2671,668 2651,689 2643,682 2605,746 2603,754" fill="rgb(85.1636%, 44.0296%, 16.3504%)" fill-rule="evenodd" fill-opacity="0.360595"/>
		<polygon points="2723,669 2727,714 2732,765 2708,796 2716,899 2665,1073 2635,1081 2624,952 2602,721 2600,732 2674,660" fill="rgb(94.945%, 56.447%, 49.549%)" fill-rule="evenodd" fill-opacity="0.290521"/>
		<polygon points="2637,1052 2658,973 2638,928 2622,930 2623,899 2616,834 2593,1035 2568,1096 2571,1095 2598,1119 2619,1098" fill="rgb(34.3132%, 25.6984%, 16.251%)" fill-rule="evenodd" fill-opacity="0.396763"/>
		<polygon points="2544,1177 2529,1234 2519,1307 2524,1344 2548,1383 2592,1382 2614,1324 2629,1163 2637,1113 2654,1313 2666,1079 2639,1079 2669,940 2620,930 2587,941 2584,1048" fill="rgb(99.6776%, 53.298%, 20.452%)" fill-rule="evenodd" fill-opacity="0.243753"/>
		<polygon points="2755,849 2755,878 2708,936 2700,938 2705,896 2716,898 2709,803" fill="rgb(34.4593%, 27.8264%, 32.3967%)" fill-rule="evenodd" fill-opacity="0.388563"/>
		<polygon points="2588,1468 2621,1451 2706,1432 2656,1417 2642,1318 2654,1302 2652,1293 2621,912 2587,945 2594,1001 2517,1258 2507,1465" fill="rgb(90.9837%, 40.7858%, 19.446%)" fill-rule="evenodd" fill-opacity="0.363642"/>
		<polygon points="2651,790 2658,777 2667,746 2652,753 2649,770" fill="rgb(97.0683%, 87.5415%, 35.8007%)" fill-rule="evenodd" fill-opacity="0.101842"/>
		<polygon points="2632,963 2611,933 2586,933 2584,962" fill="rgb(90.6524%, 77.3844%, 62.4351%)" fill-rule="evenodd" fill-opacity="0.105496"/>
		<polygon points="2636,1221 2630,1251 2630,1262 2638,1286 2639,1314 2638,1370 2606,1430 2579,1442 2571,1456 2512,1465 2592,1468 2709,1438 2710,1428 2693,1416 2664,1414 2641,1154" fill="rgb(2.24028%, 3.48591%, 3.57346%)" fill-rule="evenodd" fill-opacity="0.264160"/>
		<polygon points="2583,1065 2595,984 2521,1228 2507,1321 2535,1359 2552,1391 2554,1364 2545,1306 2533,1253 2536,1217" fill="rgb(32.0683%, 13.7608%, 6.81153%)" fill-rule="evenodd" fill-opacity="0.318169"/>
		<polygon points="2578,1336 2607,1257 2631,1082 2674,905 2668,852 2694,881 2723,833 2722,847 2740,890 2692,966 2667,1103 2661,1297 2628,1275 2627,1326 2609,1390 2579,1392 2550,1388 2518,1331 2517,1374" fill="rgb(33.9712%, 20.4697%, 15.448%)" fill-rule="evenodd" fill-opacity="0.404607"/>
		<polygon points="2685,675 2695,712 2708,807 2723,783 2733,781 2731,660 2713,679 2691,660" fill="rgb(29.2524%, 33.5395%, 34.8704%)" fill-rule="evenodd" fill-opacity="0.149717"/>
		<polygon points="2641,822 2640,780 2642,720 2698,716 2722,704 2639,682 2600,747 2632,795" fill="rgb(79.8658%, 56.9684%, 41.3391%)" fill-rule="evenodd" fill-opacity="0.338177"/>
	</g>
	<g id="G16">
		<polygon points="2764,1162 2752,1176 2739,1173 2730,1183 2656,1270 2692,1304 2699,1313 2661,1250 2703,1291 2725,1316 2746,1324 2700,1274 2751,1222 2797,1259 2760,1302 2809,1276 2851,1282 2846,1281 2846,1287 2841,1297 2864,1293 2881,1274 2778,1167" fill="rgb(27.8535%, 77.442%, 76.9095%)" fill-rule="evenodd" fill-opacity="0.297976"/>
		<polygon points="2751,1404 2789,1285 2734,1283 2730,1242 2704,1272 2697,1261 2673,1264 2667,1254 2656,1263 2661,1283 2643,1317 2642,1333 2650,1342 2647,1364 2650,1367 2668,1377" fill="rgb(24.5054%, 60.8647%, 63.1092%)" fill-rule="evenodd" fill-opacity="0.255957"/>
		<polygon points="2727,1329 2695,1357 2662,1341 2650,1332 2654,1419 2745,1436 2799,1446 2765,1386 2764,1364" fill="rgb(100%, 100%, 71.0783%)" fill-rule="evenodd" fill-opacity="0.420089"/>
		<polygon points="2695,1356 2728,1329 2661,1264 2662,1285 2642,1325 2642,1333" fill="rgb(85.4619%, 100%, 81.0095%)" fill-rule="evenodd" fill-opacity="0.502387"/>
		<polygon points="2694,1221 2713,1206 2735,1182 2769,1162 2849,1241 2875,1276 2851,1306 2772,1359 2762,1377 2800,1444 2658,1418 2654,1389 2647,1354 2649,1341 2642,1328 2642,1320 2663,1281 2655,1270" fill="rgb(95.7247%, 54.3293%, 31.5948%)" fill-rule="evenodd" fill-opacity="0.549064"/>
		<polygon points="2656,1377 2655,1388 2650,1394 2656,1414 2664,1418 2667,1422 2664,1375 2687,1382 2728,1391 2661,1362 2658,1356 2662,1350 2652,1338 2644,1364" fill="rgb(75.8815%, 71.4117%, 59.9534%)" fill-rule="evenodd" fill-opacity="0.347785"/>
		<polygon points="2773,1413 2757,1426 2793,1436 2788,1415" fill="rgb(57.2243%, 21.6736%, 7.33413%)" fill-rule="evenodd" fill-opacity="0.471387"/>
		<polygon points="2766,1358 2667,1249 2690,1231 2694,1216 2709,1210 2742,1173 2780,1168 2810,1208 2882,1276 2841,1316 2772,1360" fill="rgb(94.5702%, 42.7086%, 16.5076%)" fill-rule="evenodd" fill-opacity="0.461332"/>
		<polygon points="2731,1322 2682,1265 2679,1249 2777,1355 2771,1363 2762,1356" fill="rgb(80.1221%, 95.7122%, 80.1292%)" fill-rule="evenodd" fill-opacity="0.303791"/>
		<polygon points="2691,1316 2676,1328 2680,1315 2676,1313 2687,1294 2699,1302" fill="rgb(79.9598%, 54.73%, 73.2184%)" fill-rule="evenodd" fill-opacity="0.166428"/>
		<polygon points="2698,1388 2664,1381 2662,1407 2727,1422 2736,1422 2756,1427 2770,1415 2765,1413" fill="rgb(67.9534%, 20.6517%, 1.8455%)" fill-rule="evenodd" fill-opacity="0.332394"/>
		<polygon points="2873,1285 2878,1274 2833,1227 2771,1162 2762,1162 2752,1175 2737,1176 2709,1210 2702,1216 2695,1217 2673,1246 2670,1253 2661,1264 2667,1270 2767,1172" fill="rgb(78.435%, 81.1675%, 65.269%)" fill-rule="evenodd" fill-opacity="0.488521"/>
		<polygon points="2675,1369 2687,1371 2725,1387 2700,1371 2667,1347 2660,1351 2661,1363" fill="rgb(0%, 6.45818%, 6.01124%)" fill-rule="evenodd" fill-opacity="0.406974"/>
		<polygon points="2653,1338 2664,1349 2718,1385 2724,1377 2705,1361" fill="rgb(80.5883%, 86.4786%, 72.1206%)" fill-rule="evenodd" fill-opacity="0.175219"/>
		<polygon points="2761,1376 2776,1399 2786,1422 2785,1411 2659,1333 2650,1325 2674,1288" fill="rgb(67.3563%, 20.2367%, 0.633419%)" fill-rule="evenodd" fill-opacity="0.424743"/>
	</g>
	<g id="G17">
		<polygon points="1261,1440 1275,1434 1339,1396 1350,1438 1357,1432 1361,1418 1361,1397 1353,1381 1333,1381 1237,1444" fill="rgb(100%, 59.431%, 32.0305%)" fill-rule="evenodd" fill-opacity="0.387795"/>
		<polygon points="1158,1476 1139,1481 1121,1489 1109,1492 1116,1509" fill="rgb(76.1445%, 63.8656%, 61.4178%)" fill-rule="evenodd" fill-opacity="0.245892"/>
		<polygon points="1229,1446 1228,1453 1223,1465 1225,1503 1212,1517 1205,1507 1198,1480 1201,1478 1208,1495 1204,1455" fill="rgb(96.8969%, 56.5652%, 29.26%)" fill-rule="evenodd" fill-opacity="0.193791"/>
		<polygon points="1352,1437 1343,1413 1346,1452 1358,1449 1359,1431" fill="rgb(79.4174%, 41.0117%, 27.0912%)" fill-rule="evenodd" fill-opacity="0.235601"/>
		<polygon points="1125,1539 1115,1526 1108,1500 1114,1490 1133,1485 1131,1510 1134,1526 1133,1534 1143,1554 1149,1583 1138,1586" fill="rgb(42.5793%, 24.8556%, 18.5163%)" fill-rule="evenodd" fill-opacity="0.326469"/>
		<polygon points="1272,1437 1251,1448 1231,1456 1222,1451 1265,1425 1337,1381 1355,1381 1360,1413 1357,1446 1337,1452" fill="rgb(88.9635%, 76.7433%, 67.3674%)" fill-rule="evenodd" fill-opacity="0.347620"/>
		<polygon points="1246,1443 1263,1439 1222,1457 1217,1469 1217,1500 1210,1499 1198,1467 1157,1484 1148,1485 1151,1480 1251,1436" fill="rgb(95.3163%, 75.6315%, 58.1893%)" fill-rule="evenodd" fill-opacity="0.242946"/>
		<polygon points="1208,1455 1229,1453 1229,1457 1173,1480 1176,1531 1164,1531 1162,1515 1157,1496 1131,1557 1123,1547 1108,1495" fill="rgb(79.6798%, 51.9961%, 42.5757%)" fill-rule="evenodd" fill-opacity="0.315860"/>
		<polygon points="1260,1434 1341,1453 1172,1536 1161,1553 1161,1539 1138,1539 1160,1490 1158,1492 1128,1488 1150,1477" fill="rgb(61.633%, 45.4505%, 33.8192%)" fill-rule="evenodd" fill-opacity="0.398124"/>
		<polygon points="1296,1476 1283,1472 1274,1481 1248,1493 1222,1494 1219,1515" fill="rgb(12.4824%, 4.32478%, 1.0061%)" fill-rule="evenodd" fill-opacity="0.344650"/>
		<polygon points="1163,1581 1161,1539 1138,1539 1132,1556 1126,1550 1142,1591" fill="rgb(64.4188%, 37.9378%, 30.1781%)" fill-rule="evenodd" fill-opacity="0.265610"/>
		<polygon points="1347,1395 1347,1413 1346,1425 1343,1410 1338,1393" fill="rgb(8.41077%, 15.5112%, 24.8543%)" fill-rule="evenodd" fill-opacity="0.216530"/>
		<polygon points="1265,1470 1235,1461 1245,1449 1270,1441 1280,1439 1337,1452 1325,1457" fill="rgb(53.965%, 64.289%, 75.5209%)" fill-rule="evenodd" fill-opacity="0.100000"/>
	</g>
</svg>