<?xml version="1.0" encoding="UTF-8" standalone="no"?>
<svg xmlns:svg="http://www.w3.org/2000/svg" xmlns="http://www.w3.org/2000/svg" width="1024" height="667">
	<rect width = "1024" height="667" fill="rgb(0%, 0%, 0%)"/>
	<g id="G0">
		<polygon points="726,295 894,268 977,272 996,255 1005,175 594,168 1018,129 1015,348 982,342 937,348 866,339 854,338 807,318 784,324 782,330 745,339 708,337 696,294" fill="rgb(47.8938%, 55.1351%, 55.6428%)" fill-rule="evenodd" fill-opacity="0.367466"/>
		<polygon points="318,372 276,341 253,357 223,353 183,315 319,304 327,311 334,329 338,352" fill="rgb(48.8414%, 66.0928%, 67.7703%)" fill-rule="evenodd" fill-opacity="0.221560"/>
		<polygon points="845,171 843,146 1010,129 1024,194 1009,2 460,1 472,10 452,3 461,42 384,163 488,158 548,168 634,169" fill="rgb(67.5452%, 80.5366%, 68.2241%)" fill-rule="evenodd" fill-opacity="0.137541"/>
		<polygon points="395,195 86,176 63,148 152,158 169,193 182,132 235,151 234,130 202,93 258,59 365,75 380,37 409,24 368,35 377,31 453,10 449,15 498,105 551,189" fill="rgb(16.1353%, 43.0583%, 51.0017%)" fill-rule="evenodd" fill-opacity="0.127265"/>
		<polygon points="524,230 366,230 344,258 266,236 359,201 441,213" fill="rgb(46.8643%, 93.3339%, 81.7799%)" fill-rule="evenodd" fill-opacity="0.100000"/>
		<polygon points="282,185 315,185 370,196 413,207 521,229 544,190 431,192 397,207 387,162 310,135 87,81 85,104 25,122 65,154 89,178" fill="rgb(40.6989%, 76.8456%, 96.3642%)" fill-rule="evenodd" fill-opacity="0.319908"/>
		<polygon points="868,0 1023,0 1024,342 917,338 872,340 867,328 806,325 754,328 493,145 588,49 634,0" fill="rgb(45.2871%, 71.4329%, 86.966%)" fill-rule="evenodd" fill-opacity="0.398070"/>
		<polygon points="1024,173 1024,2 933,38 924,48 914,49 923,54 894,65 883,45 900,45 869,19 826,31 828,33 825,87 817,102 590,168 796,150" fill="rgb(54.6289%, 65.3884%, 71.1224%)" fill-rule="evenodd" fill-opacity="0.275027"/>
		<polygon points="99,0 632,0 490,153 393,164 310,136 77,78" fill="rgb(41.7166%, 76.4258%, 100%)" fill-rule="evenodd" fill-opacity="0.285383"/>
		<polygon points="85,106 0,127 2,0 94,0" fill="rgb(29.9448%, 51.571%, 63.5327%)" fill-rule="evenodd" fill-opacity="0.477482"/>
		<polygon points="849,175 836,218 925,219 997,200 999,238 1024,238 1024,351 991,336 980,329 958,348 798,321 792,333 774,339 716,343 702,302 698,272 754,235 825,219 855,156 1024,173" fill="rgb(62.3234%, 79.4167%, 77.4543%)" fill-rule="evenodd" fill-opacity="0.202261"/>
		<polygon points="392,225 509,225 559,201 580,212 611,220 690,274 715,329 989,341 1023,356 1024,175 536,167 527,166 499,151 476,155 393,165" fill="rgb(49.7444%, 64.9181%, 69.3147%)" fill-rule="evenodd" fill-opacity="0.524481"/>
		<polygon points="862,103 825,119 780,136 768,169 771,174 663,217 498,227 271,247 196,205 187,198 281,205 382,144 416,110 464,41 537,170 604,164 835,97" fill="rgb(7.34919%, 20.2726%, 29.0996%)" fill-rule="evenodd" fill-opacity="0.222072"/>
		<polygon points="982,334 1006,357 1024,357 1015,292 889,306 845,302 827,313 841,314 769,311 861,342" fill="rgb(78.2998%, 88.6971%, 87.8249%)" fill-rule="evenodd" fill-opacity="0.146516"/>
		<polygon points="393,199 317,186 93,179 25,122 0,127 0,372 87,334 194,337 297,355 338,367 328,254 372,231 401,214" fill="rgb(45.7748%, 78.9505%, 93.0672%)" fill-rule="evenodd" fill-opacity="0.397802"/>
		<polygon points="54,358 68,339 175,343 335,364 330,300 339,281 172,245 225,244 234,254 102,252 153,254 62,246 14,207 0,223 0,372" fill="rgb(60.2614%, 67.0819%, 80.6605%)" fill-rule="evenodd" fill-opacity="0.172097"/>
		<polygon points="819,222 862,213 873,222 835,230 829,251 689,283 751,233" fill="rgb(32.8417%, 41.7332%, 45.4785%)" fill-rule="evenodd" fill-opacity="0.211984"/>
		<polygon points="393,198 395,145 402,140 381,131 417,129 364,140 353,163 309,183 316,188" fill="rgb(53.8781%, 81.8393%, 84.6382%)" fill-rule="evenodd" fill-opacity="0.100000"/>
		<polygon points="1016,0 1004,7 808,8 788,7 738,29 695,95 594,107 552,132 516,129 519,132 528,112 621,11 592,12 519,10 505,74 436,80 295,43 52,32 0,0" fill="rgb(11.0445%, 11.4775%, 11.0623%)" fill-rule="evenodd" fill-opacity="0.141200"/>
		<polygon points="874,98 834,89 826,75 822,58 829,43 841,30 866,30 881,38 896,49" fill="rgb(100%, 100%, 100%)" fill-rule="evenodd" fill-opacity="0.600000"/>
	</g>
	<g id="G1">
		<polygon points="123,662 232,655 240,638 226,641 177,636 405,632 318,604 272,575 109,551 0,581 2,628 0,663 153,664" fill="rgb(57.7628%, 58.1144%, 41.9114%)" fill-rule="evenodd" fill-opacity="0.355784"/>
		<polygon points="325,659 208,661 220,651 212,647 128,633 74,630 18,608 26,607 7,613 6,659 111,660 147,655 253,663 457,663" fill="rgb(95.0199%, 92.7916%, 70.0758%)" fill-rule="evenodd" fill-opacity="0.424118"/>
		<polygon points="320,588 382,611 535,663 562,663 0,667 0,577 103,549 144,529 215,485 258,476 288,523 285,555" fill="rgb(77.2004%, 81.3929%, 71.6599%)" fill-rule="evenodd" fill-opacity="0.383955"/>
		<polygon points="395,483 376,482 353,498 325,468 311,463 309,460 330,450 354,451 353,453 369,459 414,454 460,440 519,438 402,480" fill="rgb(66.6544%, 51.4312%, 50.1122%)" fill-rule="evenodd" fill-opacity="0.337570"/>
		<polygon points="463,462 352,501 321,468 313,464 296,469 300,511 275,535 255,473 286,463 317,451 340,435 380,431 424,415 490,418 510,411 570,412 585,441 548,448 517,444" fill="rgb(90.5525%, 54.3743%, 30.4743%)" fill-rule="evenodd" fill-opacity="0.405122"/>
		<polygon points="553,627 443,615 440,608 473,600 546,594 608,562 620,580 639,576 682,520 691,523 699,608 728,628" fill="rgb(61.422%, 29.8613%, 21.3894%)" fill-rule="evenodd" fill-opacity="0.262789"/>
		<polygon points="755,646 749,636 740,628 748,629 645,626 550,628 443,615 434,585 396,554 391,566 330,570 298,558 253,473 101,546 0,573 0,624 2,667 760,667" fill="rgb(76.9829%, 52.0133%, 31.6615%)" fill-rule="evenodd" fill-opacity="0.348098"/>
		<polygon points="235,595 192,590 77,602 39,594 3,577 0,649 7,661 51,664 251,667 371,667 259,663 198,659 176,661 185,657 158,656 402,655 331,627 296,611" fill="rgb(95.1841%, 89.9225%, 62.8712%)" fill-rule="evenodd" fill-opacity="0.165781"/>
		<polygon points="277,576 298,595 257,581 202,576 88,579 117,587 75,546" fill="rgb(21.2752%, 16.2744%, 17.654%)" fill-rule="evenodd" fill-opacity="0.118250"/>
		<polygon points="73,619 213,634 363,633 423,640 418,653 423,656 401,662 372,658 0,664 4,603" fill="rgb(94.1205%, 84.3153%, 68.2728%)" fill-rule="evenodd" fill-opacity="0.455943"/>
		<polygon points="760,663 743,649 647,639 639,643 466,627 341,580 301,569 310,586 304,583 396,616 415,620 425,626 546,665" fill="rgb(83.5502%, 67.0879%, 38.8596%)" fill-rule="evenodd" fill-opacity="0.152318"/>
		<polygon points="567,427 523,424 386,440 352,435 293,466 298,459 292,460 317,464 456,450 582,449" fill="rgb(50.3508%, 36.0805%, 23.6055%)" fill-rule="evenodd" fill-opacity="0.414629"/>
		<polygon points="325,523 287,520 273,526 263,507 287,521 258,477 289,466 292,511 295,482" fill="rgb(80.2676%, 79.4858%, 53.8858%)" fill-rule="evenodd" fill-opacity="0.244493"/>
		<polygon points="284,638 308,640 290,638 336,655 320,667 415,667 422,646 422,639 321,629" fill="rgb(48.3731%, 30.1693%, 16.6226%)" fill-rule="evenodd" fill-opacity="0.334884"/>
		<polygon points="264,500 259,496 198,500 197,502 143,534 124,544 99,550 84,548 103,543 141,526 201,488 331,442 320,429 332,448 331,472 309,471 299,469 315,509 284,541 285,566 295,565 344,569 388,566 399,562 279,554" fill="rgb(29.5034%, 26.0395%, 19.9765%)" fill-rule="evenodd" fill-opacity="0.398477"/>
		<polygon points="0,602 5,599 33,601 96,617 180,623 205,629 286,630 335,650 240,637 176,637 38,616" fill="rgb(65.7016%, 60.9969%, 46.3633%)" fill-rule="evenodd" fill-opacity="0.461461"/>
		<polygon points="0,621 0,597 38,599 49,607 63,615 186,609 227,619 287,625 383,661 169,662 151,667 146,645 115,639 96,640 80,640" fill="rgb(69.1679%, 61.2079%, 45.077%)" fill-rule="evenodd" fill-opacity="0.459084"/>
		<polygon points="710,654 679,657 657,652 655,657 577,654 487,639 421,620 380,600 315,579 261,594 275,589 339,625 368,630 412,649 401,656 374,661 414,667 631,663 692,665 760,664" fill="rgb(50.3406%, 37.1398%, 23.2212%)" fill-rule="evenodd" fill-opacity="0.345359"/>
		<polygon points="517,445 616,431 571,437 563,442 563,434 534,430 511,431 473,438 512,439 529,445 561,449 570,448 561,453 447,451 443,454 426,461 313,482 348,479 425,483 435,477" fill="rgb(81.4488%, 55.1305%, 41.066%)" fill-rule="evenodd" fill-opacity="0.100000"/>
		<polygon points="436,579 435,586 438,595 443,601 464,589" fill="rgb(82.0368%, 53.9969%, 39.79%)" fill-rule="evenodd" fill-opacity="0.180884"/>
		<polygon points="22,656 41,653 29,652 77,660 118,653 117,647 36,640 8,645" fill="rgb(95.254%, 84.553%, 70.2267%)" fill-rule="evenodd" fill-opacity="0.262731"/>
		<polygon points="123,552 86,554 84,552 123,541 129,539 119,537 148,535 139,538 155,537 172,552 174,561 183,559 176,557 161,559" fill="rgb(57.1152%, 49.3848%, 39.5576%)" fill-rule="evenodd" fill-opacity="0.190065"/>
		<polygon points="318,489 320,473 354,507 374,500 361,496 360,492 397,465 339,471 329,452" fill="rgb(59.4966%, 45.1118%, 34.3206%)" fill-rule="evenodd" fill-opacity="0.193317"/>
		<polygon points="296,576 327,601 370,611 382,618 435,623 530,627 456,578 430,575 423,568 403,550 336,553 339,547 316,555 287,550" fill="rgb(12.9267%, 11.8238%, 9.47135%)" fill-rule="evenodd" fill-opacity="0.188115"/>
	</g>
	<g id="G2">
		<polygon points="53,552 108,537 106,541 90,549 2,573 0,561 4,539 8,536" fill="rgb(54.2059%, 50.4757%, 32.0835%)" fill-rule="evenodd" fill-opacity="0.224732"/>
		<polygon points="57,560 91,552 11,500 1,501 0,576" fill="rgb(100%, 76.7928%, 52.297%)" fill-rule="evenodd" fill-opacity="0.415518"/>
		<polygon points="63,534 81,533 103,523 124,511 164,501 203,491 127,539 89,551" fill="rgb(45.3975%, 48.3775%, 42.0233%)" fill-rule="evenodd" fill-opacity="0.337354"/>
		<polygon points="66,445 99,435 189,427 201,421 256,418 268,421 288,424 292,426 314,425 329,427 334,419 306,417 287,413 263,413 207,414 150,418 36,417" fill="rgb(21.4012%, 64.2818%, 66.6132%)" fill-rule="evenodd" fill-opacity="0.333875"/>
		<polygon points="3,576 68,559 139,531 158,513 111,525 94,520 67,508 33,492 25,495 14,492 14,481 16,472 31,455 11,444 0,480" fill="rgb(60.1796%, 44.4563%, 34.0732%)" fill-rule="evenodd" fill-opacity="0.369254"/>
		<polygon points="208,488 206,492 141,532 94,519 29,491 53,483 47,479 80,474 123,476 140,486 312,446 305,454 299,457 308,456 243,480 222,481" fill="rgb(59.1768%, 43.6797%, 21.9429%)" fill-rule="evenodd" fill-opacity="0.235535"/>
		<polygon points="52,438 68,437 76,443 75,436 63,447 33,461 36,457 25,460 7,488 0,482 2,477 3,429" fill="rgb(28.8863%, 50.3451%, 45.5727%)" fill-rule="evenodd" fill-opacity="0.342428"/>
		<polygon points="0,492 0,397 57,397 54,400 55,404 157,404 165,408 230,408 248,410 229,414 318,451 199,493 156,520 91,553" fill="rgb(94.3316%, 63.2588%, 39.331%)" fill-rule="evenodd" fill-opacity="0.282244"/>
		<polygon points="304,446 318,450 333,439 334,427 318,399 305,397 286,406 263,410 245,411 230,414" fill="rgb(77.7143%, 53.8201%, 33.6472%)" fill-rule="evenodd" fill-opacity="0.364816"/>
		<polygon points="2,403 15,412 25,415 33,418 37,417 63,444 0,479 0,458" fill="rgb(44.0421%, 55.5235%, 50.0078%)" fill-rule="evenodd" fill-opacity="0.422907"/>
		<polygon points="113,526 141,532 142,528 163,518 171,510 149,503 60,503 61,505 102,523 80,530 80,521 63,513 61,520 21,503 0,493 0,515 31,538 81,539 78,548 85,532" fill="rgb(44.7445%, 34.0242%, 23.6006%)" fill-rule="evenodd" fill-opacity="0.426741"/>
		<polygon points="178,414 141,414 101,414 137,420 126,426 113,424 105,426 98,434 246,420 335,431 326,410 302,412 283,407 302,397 138,396" fill="rgb(46.6142%, 49.1271%, 40.7575%)" fill-rule="evenodd" fill-opacity="0.281625"/>
		<polygon points="325,433 260,429 189,455 198,466 164,469 139,472 145,467 104,469 111,474 109,476 123,476 140,486 300,449 306,450 307,452 320,451 340,438" fill="rgb(52.8211%, 27.6062%, 12.0535%)" fill-rule="evenodd" fill-opacity="0.215916"/>
		<polygon points="209,481 210,491 183,496 159,503 146,504 124,502 127,505 138,500" fill="rgb(57.6959%, 46.5088%, 27.7109%)" fill-rule="evenodd" fill-opacity="0.153414"/>
		<polygon points="0,487 10,485 15,474 15,470 30,460 117,461 90,469 99,461 107,451 86,458 111,473 66,490 56,504 33,500 32,512 37,517 33,522 0,517" fill="rgb(33.4264%, 24.9534%, 15.4734%)" fill-rule="evenodd" fill-opacity="0.528778"/>
		<polygon points="20,480 60,483 78,479 80,489 148,490 112,472 123,459 111,452 287,443 327,436 334,439 340,428 279,425 257,420 233,419 172,433 145,428 56,448 19,464" fill="rgb(24.9768%, 9.90509%, 4.73658%)" fill-rule="evenodd" fill-opacity="0.395124"/>
		<polygon points="246,417 291,429 273,451 248,449 236,438 224,443 202,436" fill="rgb(24.8127%, 6.5397%, 0%)" fill-rule="evenodd" fill-opacity="0.163263"/>
		<polygon points="6,473 0,485 8,484 15,472" fill="rgb(64.5054%, 68.5609%, 65.7678%)" fill-rule="evenodd" fill-opacity="0.288463"/>
		<polygon points="331,412 149,423 123,421 83,424 71,427 26,427 25,423 16,421 7,421 0,429 0,396 60,396 140,396 155,404 320,404" fill="rgb(19.2266%, 25.374%, 20.804%)" fill-rule="evenodd" fill-opacity="0.558223"/>
	</g>
	<g id="G3">
		<polygon points="381,432 362,432 350,423 344,405 360,422 372,419 382,424 386,427" fill="rgb(92.0794%, 65.2707%, 52.0805%)" fill-rule="evenodd" fill-opacity="0.393265"/>
		<polygon points="527,385 529,376 523,364 518,348 554,348 571,349 572,373 569,380 567,413 546,409 534,412" fill="rgb(81.7239%, 42.6351%, 30.7789%)" fill-rule="evenodd" fill-opacity="0.128023"/>
		<polygon points="432,326 425,321 429,322 404,323 391,346" fill="rgb(81.6691%, 49.2867%, 11.2272%)" fill-rule="evenodd" fill-opacity="0.177088"/>
		<polygon points="563,348 459,347 389,312 424,275 428,287 438,270 427,260 431,255 435,256 505,275 516,281 527,285 561,273" fill="rgb(70.0498%, 43.6221%, 30.3332%)" fill-rule="evenodd" fill-opacity="0.116244"/>
		<polygon points="503,275 527,285 566,271 531,226 513,226 445,226 375,228 345,245 347,283 353,284 357,272 372,276 388,293 397,303 407,294 424,275 423,270 429,254" fill="rgb(62.9309%, 41.4029%, 32.3714%)" fill-rule="evenodd" fill-opacity="0.162392"/>
		<polygon points="410,407 403,397 394,373 410,363 390,387 406,414 428,413 432,411" fill="rgb(88.6598%, 60.6767%, 33.8685%)" fill-rule="evenodd" fill-opacity="0.328021"/>
		<polygon points="324,391 325,409 312,395 311,380 312,377 331,363 337,355 331,279 354,239 377,227 497,226 507,238 522,226 516,238 537,234 517,253 500,251 482,258 439,270 412,304" fill="rgb(75.4053%, 39.7678%, 25.6881%)" fill-rule="evenodd" fill-opacity="0.124017"/>
		<polygon points="378,421 353,417 344,390 340,400 344,424 352,430 385,431" fill="rgb(74.4678%, 62.7999%, 38.5562%)" fill-rule="evenodd" fill-opacity="0.385015"/>
		<polygon points="520,228 512,234 439,242 424,238 403,238 382,241 367,242 359,238 383,226 473,226" fill="rgb(84.7033%, 68.1247%, 45.5178%)" fill-rule="evenodd" fill-opacity="0.437101"/>
		<polygon points="341,385 341,379 360,373 371,364 386,348 414,334 412,340 339,400" fill="rgb(76.1421%, 48.8249%, 24.6577%)" fill-rule="evenodd" fill-opacity="0.274945"/>
		<polygon points="479,349 422,316 423,304 423,292 422,290 420,296 324,392 325,402 329,415 337,438 347,431 366,434 349,401 351,383 359,381 402,427 393,425 424,414 396,393 403,387 400,386 399,380 392,384 438,339" fill="rgb(85.3653%, 40.1658%, 22.23%)" fill-rule="evenodd" fill-opacity="0.142260"/>
		<polygon points="526,339 532,325 475,338 423,296 548,241 533,227 521,242 447,254 415,244 502,244 498,246 489,233 514,235 330,234 357,234 364,242 408,244 413,249 402,252 411,269 401,284 385,279 371,255 334,265 329,291 416,306 427,322 424,329 452,346 524,351" fill="rgb(13.7587%, 7.89938%, 4.64353%)" fill-rule="evenodd" fill-opacity="0.440019"/>
		<polygon points="385,357 363,373 348,381 342,384 344,391 350,386 373,374 383,362" fill="rgb(100%, 87.0489%, 70.2674%)" fill-rule="evenodd" fill-opacity="0.199602"/>
		<polygon points="559,369 561,400 564,387 573,362 572,374 569,378 568,411 552,409 545,408" fill="rgb(95.1414%, 67.0217%, 40.6082%)" fill-rule="evenodd" fill-opacity="0.184836"/>
		<polygon points="529,226 534,234 502,242 435,246 429,243 398,244 347,249 349,244 365,234 379,232 509,231 512,227" fill="rgb(33.8327%, 22.3091%, 11.4657%)" fill-rule="evenodd" fill-opacity="0.526400"/>
		<polygon points="433,412 427,409 409,410" fill="rgb(89.4219%, 84.2505%, 53.9153%)" fill-rule="evenodd" fill-opacity="0.173254"/>
		<polygon points="499,243 500,236 509,238 505,226 479,226 497,241" fill="rgb(43.8702%, 43.9106%, 35.3226%)" fill-rule="evenodd" fill-opacity="0.174925"/>
		<polygon points="343,431 337,396 340,385 346,377 350,412 352,405 349,411 362,417" fill="rgb(42.7337%, 34.1208%, 25.1429%)" fill-rule="evenodd" fill-opacity="0.172103"/>
		<polygon points="391,372 386,381 390,388 399,369" fill="rgb(78.2765%, 53.1727%, 17.9194%)" fill-rule="evenodd" fill-opacity="0.183194"/>
	</g>
	<g id="G4">
		<polygon points="940,510 939,509 945,509 960,511 950,549 942,532 936,517" fill="rgb(47.3917%, 48.6574%, 31.2595%)" fill-rule="evenodd" fill-opacity="0.342377"/>
		<polygon points="1023,666 1024,650 1003,650 1001,637 972,632 958,619 959,624 956,624 957,636 912,634 874,642 834,643 756,665 762,667 848,662 852,667" fill="rgb(52.8589%, 54.5709%, 42.7239%)" fill-rule="evenodd" fill-opacity="0.467928"/>
		<polygon points="907,586 903,593 885,588 857,594 850,592 827,595 854,607 892,618 850,615 841,628 811,629 799,643 797,648 865,643 916,634 918,581" fill="rgb(55.6689%, 54.6157%, 32.87%)" fill-rule="evenodd" fill-opacity="0.149862"/>
		<polygon points="912,667 920,576 827,556 824,557 803,607 799,611 791,620 776,626 757,657 761,667" fill="rgb(86.1674%, 53.7604%, 39.5768%)" fill-rule="evenodd" fill-opacity="0.259827"/>
		<polygon points="993,470 988,493 989,495 991,513 1002,532 1024,611 1024,419" fill="rgb(97.3399%, 72.4752%, 50.9869%)" fill-rule="evenodd" fill-opacity="0.329493"/>
		<polygon points="936,575 904,587 907,598 915,592 923,598 916,611 871,607 872,582 892,568 860,565 857,556 917,524 932,536 950,550 932,500 959,489 965,493 966,504 969,497 945,570" fill="rgb(38.4274%, 26.8543%, 22.1935%)" fill-rule="evenodd" fill-opacity="0.210239"/>
		<polygon points="946,587 946,563 964,508 961,453 946,453 942,470 930,500 945,535 946,546 931,544 947,584" fill="rgb(100%, 63.0316%, 48.3985%)" fill-rule="evenodd" fill-opacity="0.207316"/>
		<polygon points="917,522 902,525 894,528 873,529 871,530 857,538 820,554 925,578 928,579 934,576 945,578 949,553 947,549" fill="rgb(73.0859%, 46.2497%, 37.3473%)" fill-rule="evenodd" fill-opacity="0.205386"/>
		<polygon points="1024,610 1020,620 1001,604 1008,605 1018,574 1011,578 1016,586" fill="rgb(67.2293%, 85.748%, 57.5238%)" fill-rule="evenodd" fill-opacity="0.191237"/>
		<polygon points="958,434 965,450 983,451 981,451 997,463 1014,436 969,431 970,434 973,431 961,423" fill="rgb(48.157%, 50.2033%, 32.8679%)" fill-rule="evenodd" fill-opacity="0.170602"/>
		<polygon points="1017,494 1012,496 1022,495 1022,511 1022,526 1010,516 1005,520 999,530 989,509 993,497 1006,492 1015,485" fill="rgb(55.8245%, 46.6949%, 28.793%)" fill-rule="evenodd" fill-opacity="0.299644"/>
		<polygon points="881,616 865,610 836,599 831,610 835,607 815,616 804,628 802,628 797,636 762,660 802,659 826,650 853,652 894,646" fill="rgb(39.5876%, 23.3555%, 8.91502%)" fill-rule="evenodd" fill-opacity="0.274373"/>
		<polygon points="931,665 967,663 964,653 954,651 945,650 944,652 925,652 921,661" fill="rgb(52.8313%, 62.4046%, 51.2424%)" fill-rule="evenodd" fill-opacity="0.100429"/>
		<polygon points="1024,667 911,667 920,577 923,580 935,576 947,567 945,562 940,568 964,612 986,614 984,614 1004,610 1022,558" fill="rgb(71.5165%, 48.6907%, 35.2477%)" fill-rule="evenodd" fill-opacity="0.417584"/>
		<polygon points="948,583 925,576 912,574 921,580 931,579 924,563 934,539 945,547 952,545 948,550 948,554" fill="rgb(28.9444%, 23.8146%, 20.3303%)" fill-rule="evenodd" fill-opacity="0.410156"/>
		<polygon points="769,627 776,625 761,652 769,653 782,650 773,656 810,650 758,664 748,628" fill="rgb(68.1685%, 39.6748%, 28.7966%)" fill-rule="evenodd" fill-opacity="0.279715"/>
		<polygon points="934,640 940,650 934,636 930,639 928,644 925,646 897,645 830,647 826,652 830,651 825,654 821,654 820,658 887,667 777,666 757,657 755,641 769,646 815,647 816,635 822,641 861,635 960,614 976,623 1005,633 1024,640 1024,659 1003,647 991,640" fill="rgb(34.052%, 25.3488%, 15.5493%)" fill-rule="evenodd" fill-opacity="0.555644"/>
		<polygon points="866,626 873,629 881,632 865,621 861,636 888,637 901,625 894,629 902,611 889,601 894,605 878,611 870,606 860,586 826,593" fill="rgb(18.867%, 17.5069%, 8.78572%)" fill-rule="evenodd" fill-opacity="0.113913"/>
		<polygon points="993,663 979,651 983,649 1023,652 1012,667 870,666 866,664" fill="rgb(30.1801%, 8.52943%, 2.85241%)" fill-rule="evenodd" fill-opacity="0.274638"/>
		<polygon points="947,451 949,415 1003,419 1024,419 994,468 995,461 989,453" fill="rgb(50.1739%, 32.692%, 26.2342%)" fill-rule="evenodd" fill-opacity="0.454630"/>
		<polygon points="1022,451 1024,448 1024,456 1005,449 1011,455 998,436 996,424 1024,418" fill="rgb(26.6382%, 15.7865%, 17.2845%)" fill-rule="evenodd" fill-opacity="0.278695"/>
		<polygon points="1018,493 1017,489 1009,483 1018,486 995,497 993,499 988,495 987,507 992,492 989,478 1001,476 1012,469 1024,486" fill="rgb(48.2738%, 37.6729%, 31.4937%)" fill-rule="evenodd" fill-opacity="0.131995"/>
		<polygon points="1011,553 1014,567 1015,575 1020,565 1024,574 1022,526 1011,515 1001,524" fill="rgb(87.927%, 77.102%, 55.8153%)" fill-rule="evenodd" fill-opacity="0.178647"/>
		<polygon points="827,571 856,586 895,585 892,573 866,531 839,545 830,545 819,563 801,611" fill="rgb(10.4596%, 4.25685%, 7.60538%)" fill-rule="evenodd" fill-opacity="0.191744"/>
		<polygon points="1024,608 1024,555 1021,603" fill="rgb(67.0471%, 73.9358%, 42.7633%)" fill-rule="evenodd" fill-opacity="0.152820"/>
		<polygon points="974,651 975,645 971,646 969,638 968,643 962,652 971,649" fill="rgb(64.4371%, 60.415%, 42.5424%)" fill-rule="evenodd" fill-opacity="0.122408"/>
		<polygon points="910,550 899,564 905,566 918,571 919,570 920,574 918,574 923,581 947,571 950,556 949,548 918,526" fill="rgb(46.4713%, 31.0319%, 29.0299%)" fill-rule="evenodd" fill-opacity="0.180616"/>
	</g>
	<g id="G5">
		<polygon points="544,507 586,490 586,465 556,465 573,447 507,446 503,449 498,452 526,453 533,459 578,466 537,477 530,480 486,488 449,497 462,502 463,504 466,521 468,509 476,523" fill="rgb(69.7141%, 84.6384%, 53.3665%)" fill-rule="evenodd" fill-opacity="0.354576"/>
		<polygon points="591,460 572,467 448,496 454,496 398,512 396,514 404,512 422,509 461,498 441,516 528,491 544,486 543,485 596,473" fill="rgb(100%, 82.8963%, 38.8271%)" fill-rule="evenodd" fill-opacity="0.473044"/>
		<polygon points="529,567 596,536 528,541 482,526 448,525 430,532 451,532 450,537 426,544 443,565 442,580 444,582 457,581 468,586 433,601 435,601 438,606 448,600" fill="rgb(74.3912%, 72.5725%, 61.7675%)" fill-rule="evenodd" fill-opacity="0.298610"/>
		<polygon points="425,503 450,499 461,495 477,525 424,523 406,532 383,538 410,539 411,547 463,548 437,558 446,570 429,574 415,564 409,558 396,552 400,555 378,516" fill="rgb(76.1346%, 80.2488%, 46.5401%)" fill-rule="evenodd" fill-opacity="0.463544"/>
		<polygon points="559,538 506,550 453,570 431,579 398,552 364,496 365,486 403,484 441,470 456,462 499,449 604,476 619,513 625,542 601,556" fill="rgb(82.9495%, 72.7716%, 51.038%)" fill-rule="evenodd" fill-opacity="0.343076"/>
		<polygon points="503,449 511,446 532,446 556,449 545,458 558,463 530,462 517,466 475,461 452,474 486,462 468,476 483,474 503,469 520,466 461,458" fill="rgb(91.1662%, 61.9571%, 43.8256%)" fill-rule="evenodd" fill-opacity="0.330862"/>
		<polygon points="456,493 466,495 448,507 431,536 398,547 396,549 434,549 395,553 368,494 374,496 373,497 380,514 401,509 403,507 456,496" fill="rgb(99.7331%, 88.3674%, 43.2263%)" fill-rule="evenodd" fill-opacity="0.333139"/>
		<polygon points="390,537 397,543 453,523 554,498 526,499 582,477 569,471 542,475 526,475 503,486 472,489 467,492 380,516" fill="rgb(100%, 95.4783%, 64.286%)" fill-rule="evenodd" fill-opacity="0.419850"/>
		<polygon points="385,532 447,515 443,521 419,530 419,533 478,515 501,518 478,527 461,530 443,539 510,523 547,520 434,576 435,585 457,584 476,582 479,589 522,571 528,556 574,535 496,557 463,570 448,574 434,576 429,575 411,560 398,555" fill="rgb(34.5597%, 60.6111%, 59.7785%)" fill-rule="evenodd" fill-opacity="0.328114"/>
		<polygon points="455,540 483,530 494,527 490,523 397,550 415,551 411,562 432,578 432,582 454,583 490,599 546,592 569,581 602,557 535,527" fill="rgb(76.9436%, 53.4086%, 31.5909%)" fill-rule="evenodd" fill-opacity="0.259769"/>
		<polygon points="434,581 430,579 472,569 499,557 533,549 541,553 532,553 520,558 501,568 458,581" fill="rgb(13.3228%, 43.3%, 61.9989%)" fill-rule="evenodd" fill-opacity="0.341531"/>
		<polygon points="539,572 548,565 609,542 590,561 583,563 583,564 542,586 526,592 489,599 494,591" fill="rgb(45.6187%, 54.2738%, 36.8691%)" fill-rule="evenodd" fill-opacity="0.511248"/>
		<polygon points="434,582 426,573 414,563 454,548 537,528 568,519 582,517 573,522 533,533 496,546 474,552 475,557 516,546 516,546 524,547" fill="rgb(92.2055%, 22.056%, 9.08747%)" fill-rule="evenodd" fill-opacity="0.312946"/>
		<polygon points="372,494 502,446 517,446 582,446 603,477 594,491 618,515 615,524 592,537 540,534 523,540 523,539 485,527 486,519 454,514 387,535" fill="rgb(88.7176%, 69.008%, 53.0672%)" fill-rule="evenodd" fill-opacity="0.250398"/>
		<polygon points="581,530 574,532 588,524 533,540 513,545 510,550 515,549 512,549 505,555 538,546" fill="rgb(74.2255%, 13.73%, 8.05607%)" fill-rule="evenodd" fill-opacity="0.397598"/>
		<polygon points="606,563 622,561 637,546 631,535 611,512 616,517 619,515 621,515 623,542 601,555 597,558 598,553 591,559 597,562 594,562 582,572 581,574" fill="rgb(47.8246%, 49.9732%, 42.1809%)" fill-rule="evenodd" fill-opacity="0.205274"/>
		<polygon points="527,534 527,510 542,535 518,549 497,552 494,550 498,544" fill="rgb(25.86%, 48.3293%, 20.2352%)" fill-rule="evenodd" fill-opacity="0.189042"/>
		<polygon points="546,539 544,547 541,558 581,543 577,541 562,544 553,548 546,553 538,554 561,529 575,522 591,523 593,503 578,508 551,520 504,537 526,528 529,540" fill="rgb(77.9627%, 56.1736%, 33.5713%)" fill-rule="evenodd" fill-opacity="0.175943"/>
		<polygon points="445,493 432,491 398,500 396,489 383,494 372,511" fill="rgb(58.6438%, 71.113%, 49.0769%)" fill-rule="evenodd" fill-opacity="0.291310"/>
		<polygon points="513,521 486,522 459,531 420,543 423,546 432,544 452,538 468,532" fill="rgb(60.3356%, 4.09785%, 12.3525%)" fill-rule="evenodd" fill-opacity="0.272558"/>
		<polygon points="538,526 538,519 595,497 607,496 593,507 580,513" fill="rgb(5.43587%, 63.2597%, 75.524%)" fill-rule="evenodd" fill-opacity="0.160581"/>
		<polygon points="556,451 516,451 503,452 469,469 498,461 519,455 545,455 561,466 585,447 560,446" fill="rgb(60.8535%, 12.7032%, 15.298%)" fill-rule="evenodd" fill-opacity="0.336970"/>
		<polygon points="468,477 506,465 526,462 544,462 476,479 457,477 508,453 412,486 371,485 377,487 365,496 363,498 390,495 368,507 396,501 479,480" fill="rgb(87.5901%, 7.07424%, 6.33686%)" fill-rule="evenodd" fill-opacity="0.310083"/>
		<polygon points="454,516 461,512 581,478 580,475 589,474 586,473 591,473 589,478 583,480 532,498 535,500 527,498 521,504" fill="rgb(43.4137%, 66.6498%, 75.8099%)" fill-rule="evenodd" fill-opacity="0.379041"/>
		<polygon points="616,554 611,557 558,583 554,587 540,586 572,569 621,542 625,529 629,532 631,540" fill="rgb(67.78%, 16.0718%, 4.91058%)" fill-rule="evenodd" fill-opacity="0.252191"/>
		<polygon points="471,536 463,544 462,542 451,546 449,545" fill="rgb(29.6916%, 89.5659%, 63.3817%)" fill-rule="evenodd" fill-opacity="0.100000"/>
		<polygon points="535,555 484,576 470,579 457,585 481,584 487,581 495,577 496,583 494,579 484,580 512,575 518,571 529,567 537,565 559,547" fill="rgb(76.5542%, 52.1617%, 2.7341%)" fill-rule="evenodd" fill-opacity="0.244111"/>
		<polygon points="473,594 477,587 476,588 507,574 502,573 500,575 433,602 438,609" fill="rgb(100%, 78.0964%, 66.2698%)" fill-rule="evenodd" fill-opacity="0.225790"/>
		<polygon points="568,490 570,493 564,495 535,500 540,495 546,496 583,485 594,479 597,481 576,492 571,494" fill="rgb(99.0311%, 80.4438%, 46.3945%)" fill-rule="evenodd" fill-opacity="0.268801"/>
		<polygon points="551,502 549,498 543,497 534,495 498,506 494,512 502,516 515,508 536,502 549,501" fill="rgb(56.6796%, 57.672%, 20.7941%)" fill-rule="evenodd" fill-opacity="0.240030"/>
		<polygon points="367,488 364,482 386,483 363,503 363,495" fill="rgb(69.3691%, 55.564%, 38.9885%)" fill-rule="evenodd" fill-opacity="0.191104"/>
		<polygon points="478,460 470,458 423,478 437,480 419,486 367,492 368,485 402,482 443,477" fill="rgb(95.737%, 91.0056%, 62.1508%)" fill-rule="evenodd" fill-opacity="0.378692"/>
		<polygon points="511,500 504,506 506,506 526,501 540,495 536,491" fill="rgb(29.3836%, 53.3133%, 67.552%)" fill-rule="evenodd" fill-opacity="0.256130"/>
		<polygon points="608,485 615,496 613,504" fill="rgb(82.0327%, 41.7395%, 29.0459%)" fill-rule="evenodd" fill-opacity="0.250874"/>
		<polygon points="373,506 365,496 363,490 381,491 387,499 402,494 386,504 385,504" fill="rgb(70.9944%, 17.8839%, 19.6738%)" fill-rule="evenodd" fill-opacity="0.204521"/>
		<polygon points="457,464 455,466 453,462 462,458 474,459 470,457" fill="rgb(27.7231%, 78.4404%, 27.7741%)" fill-rule="evenodd" fill-opacity="0.127901"/>
		<polygon points="404,486 406,491 420,492 406,495 410,498 404,493 397,495 398,492" fill="rgb(53.3336%, 40.4415%, 43.9007%)" fill-rule="evenodd" fill-opacity="0.329325"/>
		<polygon points="542,446 522,446 514,446 504,449 516,449 541,450" fill="rgb(44.4989%, 84.9053%, 49.395%)" fill-rule="evenodd" fill-opacity="0.219934"/>
		<polygon points="538,572 537,579 524,589 527,589 521,583 525,581 526,577 536,572" fill="rgb(42.8383%, 43.7036%, 26.3211%)" fill-rule="evenodd" fill-opacity="0.362661"/>
		<polygon points="544,481 539,486 539,489 541,489 539,488 542,487 546,487 592,472" fill="rgb(100%, 32.4504%, 42.2701%)" fill-rule="evenodd" fill-opacity="0.228044"/>
	</g>
	<g id="G6">
		<polygon points="670,408 654,416 657,422 650,413 643,411 653,405 669,402 669,391 643,395 621,374 623,372 627,370 633,367 670,361 693,364 703,374 697,388" fill="rgb(92.6386%, 90.5843%, 59.5749%)" fill-rule="evenodd" fill-opacity="0.356669"/>
		<polygon points="666,377 654,383 687,385 686,390 696,390 691,399 685,411 713,427 727,422 733,420 738,446 738,441 747,413 717,392 700,381 704,377 686,361 639,362" fill="rgb(91.409%, 94.2388%, 74.9521%)" fill-rule="evenodd" fill-opacity="0.369096"/>
		<polygon points="647,425 639,439 627,445 637,481 653,497 655,498 662,488 671,491 647,506 665,499 667,498 682,489 727,487 753,490 776,485 739,433 749,410 740,410 706,387 704,383 701,376 691,362 622,366" fill="rgb(100%, 80.299%, 61.1029%)" fill-rule="evenodd" fill-opacity="0.600000"/>
		<polygon points="632,431 622,432 627,448 628,458 635,476 658,462 671,445 672,432 665,433 660,432 657,438 685,406 688,399 678,397 630,417" fill="rgb(39.8287%, 20.5074%, 16.5977%)" fill-rule="evenodd" fill-opacity="0.459619"/>
		<polygon points="762,460 728,448 734,445 725,443 741,434 750,447 750,453 753,455 755,463 750,457 734,518 773,505 785,494 787,473" fill="rgb(87.7463%, 66.5344%, 39.9913%)" fill-rule="evenodd" fill-opacity="0.266750"/>
		<polygon points="696,503 706,501 727,496 734,495 732,489 734,493 725,494 701,492 669,505 665,507" fill="rgb(28.3933%, 83.2441%, 59.8454%)" fill-rule="evenodd" fill-opacity="0.309492"/>
		<polygon points="628,445 635,481 647,492 670,492 669,494 657,498 648,505 657,515 638,533 641,536 634,553 651,558 662,546 675,522 663,502 677,520 665,505 671,501 686,487 661,455 675,432 665,431 646,446 649,435 641,406 638,424 631,427 630,419 614,422" fill="rgb(100%, 62.3672%, 43.4212%)" fill-rule="evenodd" fill-opacity="0.185815"/>
		<polygon points="694,521 730,519 738,465 770,464 765,472 777,481 789,482 763,495 734,495 737,472 710,471 716,459 683,459 647,480 654,506 694,487 689,496 682,499 659,513" fill="rgb(51.7824%, 31.5771%, 18.6762%)" fill-rule="evenodd" fill-opacity="0.450582"/>
		<polygon points="624,558 614,564 617,581 641,572 652,557 644,557 636,551 638,546 633,548 635,549" fill="rgb(60.4396%, 32.5868%, 18.5185%)" fill-rule="evenodd" fill-opacity="0.266854"/>
		<polygon points="734,472 694,453 704,451 725,448 726,452 735,451 760,455 759,465 745,465 739,466 716,473 733,483 742,487 734,518 730,515 732,512" fill="rgb(62.9299%, 36.6618%, 22.221%)" fill-rule="evenodd" fill-opacity="0.384592"/>
		<polygon points="702,454 679,458 677,463 695,462 692,464 742,464 745,459 740,461 741,458 745,461 745,458 729,455 715,454" fill="rgb(100%, 53.2919%, 38.2574%)" fill-rule="evenodd" fill-opacity="0.349773"/>
		<polygon points="656,383 655,385 643,398 635,397 635,389" fill="rgb(75.452%, 61.6921%, 25.7049%)" fill-rule="evenodd" fill-opacity="0.404138"/>
		<polygon points="733,438 751,451 775,484 790,478 780,470 767,464 761,459 740,436" fill="rgb(100%, 71.1688%, 59.5047%)" fill-rule="evenodd" fill-opacity="0.408764"/>
		<polygon points="662,516 664,516 659,525 648,537 649,531 647,539 652,545 662,528 665,524 666,504" fill="rgb(54.3416%, 48.318%, 12.35%)" fill-rule="evenodd" fill-opacity="0.108588"/>
		<polygon points="688,441 694,452 689,441 706,441 714,439 735,438 735,426 743,415 741,435 737,434 742,439 751,447 757,448 732,446 685,453 687,443" fill="rgb(89.4823%, 100%, 94.9232%)" fill-rule="evenodd" fill-opacity="0.391216"/>
		<polygon points="747,454 734,443 743,449 730,430 723,430 722,442 734,442 728,454 725,451 719,454 717,439 717,449 723,450 743,459" fill="rgb(32.2429%, 0.682193%, 18.4702%)" fill-rule="evenodd" fill-opacity="0.119731"/>
		<polygon points="649,441 656,439 654,438 670,424 669,418 675,420 696,423 704,405 698,438 705,445 696,447" fill="rgb(68.2081%, 13.3102%, 10.0849%)" fill-rule="evenodd" fill-opacity="0.219839"/>
		<polygon points="659,413 666,411 669,408 669,409 680,402 680,401 677,411 675,413 660,432 647,441 640,446 626,448 638,431 651,417" fill="rgb(42.7957%, 5.27796%, 8.43246%)" fill-rule="evenodd" fill-opacity="0.313842"/>
		<polygon points="721,475 760,476 774,475 780,480 761,484 701,483 702,478 684,476 701,473" fill="rgb(0%, 29.9015%, 34.2224%)" fill-rule="evenodd" fill-opacity="0.389493"/>
		<polygon points="721,449 724,441 709,446 711,447 712,439 717,438 703,441 713,441 718,436 725,410 728,411" fill="rgb(98.9916%, 13.544%, 2.61512%)" fill-rule="evenodd" fill-opacity="0.178003"/>
		<polygon points="670,438 682,428 690,420 696,413 699,406 704,406 698,417 684,435 679,439 658,453 639,467 643,460" fill="rgb(15.1706%, 68.81%, 76.716%)" fill-rule="evenodd" fill-opacity="0.276826"/>
		<polygon points="666,434 645,451 630,455 627,446 639,446 647,437 650,431 685,404 695,391 697,399 680,422" fill="rgb(5.95402%, 56.7176%, 62.0863%)" fill-rule="evenodd" fill-opacity="0.321863"/>
		<polygon points="722,437 682,443 666,450 651,467 668,454 674,460 664,466 709,455 711,456 708,452 728,442 743,441 742,438" fill="rgb(95.3679%, 84.8812%, 58.3504%)" fill-rule="evenodd" fill-opacity="0.404685"/>
		<polygon points="690,383 685,388 687,390 689,387 695,382" fill="rgb(25.6915%, 55.8456%, 0%)" fill-rule="evenodd" fill-opacity="0.100000"/>
		<polygon points="662,509 689,483 685,482 654,502 647,493 655,483 673,477 692,474 686,486 697,482 702,486 685,501 685,499 732,498" fill="rgb(17.6254%, 15.9762%, 14.9752%)" fill-rule="evenodd" fill-opacity="0.588198"/>
		<polygon points="704,456 715,459 728,458 740,461 754,459 726,455" fill="rgb(100%, 86.2157%, 51.7035%)" fill-rule="evenodd" fill-opacity="0.470701"/>
		<polygon points="721,494 745,487 738,485 725,484 713,482 704,488 694,492" fill="rgb(100%, 53.9076%, 24.9721%)" fill-rule="evenodd" fill-opacity="0.191661"/>
		<polygon points="675,413 679,406 682,407 688,402 689,403 689,388 657,396 667,400 677,406 662,416 658,422" fill="rgb(92.7901%, 45.2659%, 31.4877%)" fill-rule="evenodd" fill-opacity="0.187101"/>
		<polygon points="727,415 725,412 730,416 726,411 716,411 724,398 727,396 727,397 735,443 725,446 721,435 734,437 735,422" fill="rgb(100%, 88.1647%, 36.7511%)" fill-rule="evenodd" fill-opacity="0.142273"/>
		<polygon points="786,473 777,470 764,469 691,469 683,471 662,479 776,477" fill="rgb(88.2629%, 25.4089%, 1.79715%)" fill-rule="evenodd" fill-opacity="0.352398"/>
		<polygon points="662,456 671,456 679,444 676,451 705,446 702,442 711,442 692,444 677,444" fill="rgb(100%, 65.8138%, 34.2105%)" fill-rule="evenodd" fill-opacity="0.249967"/>
		<polygon points="710,421 707,427 700,424 690,441 707,441 704,438 706,443 705,421" fill="rgb(3.5748%, 58.592%, 69.2309%)" fill-rule="evenodd" fill-opacity="0.203491"/>
		<polygon points="620,373 662,367 686,372 701,371 687,363 678,361 639,364" fill="rgb(98.7644%, 85.7292%, 73.1775%)" fill-rule="evenodd" fill-opacity="0.404059"/>
		<polygon points="771,480 770,479 760,478 729,479 729,476 772,477" fill="rgb(92.7906%, 0%, 0%)" fill-rule="evenodd" fill-opacity="0.246359"/>
		<polygon points="625,379 629,385 632,392 646,386 651,380 652,373 645,372" fill="rgb(44.2684%, 28.0764%, 36.6576%)" fill-rule="evenodd" fill-opacity="0.305935"/>
		<polygon points="739,484 733,484 735,489 744,486 741,490 710,492 707,487 711,490 715,487 721,485 725,487" fill="rgb(79.7321%, 1.60791%, 0%)" fill-rule="evenodd" fill-opacity="0.301278"/>
		<polygon points="702,419 702,423 705,427 705,437 713,423 714,419 712,402" fill="rgb(33.3848%, 54.0769%, 53.9892%)" fill-rule="evenodd" fill-opacity="0.287842"/>
		<polygon points="747,431 747,428 742,431 747,446 738,435 741,427" fill="rgb(19.7489%, 28.1125%, 41.8081%)" fill-rule="evenodd" fill-opacity="0.182169"/>
		<polygon points="755,485 752,490 746,486 749,489 737,479 740,477 736,482 743,478 741,483 751,484" fill="rgb(91.351%, 95.9053%, 39.5092%)" fill-rule="evenodd" fill-opacity="0.144068"/>
		<polygon points="634,432 634,431 630,430 629,423 634,423 637,426" fill="rgb(26.4724%, 4.55188%, 0%)" fill-rule="evenodd" fill-opacity="0.157033"/>
		<polygon points="759,458 760,464 764,461 749,444 758,458" fill="rgb(22.2579%, 41.9065%, 36.2658%)" fill-rule="evenodd" fill-opacity="0.143638"/>
		<polygon points="760,509 759,511 753,512 749,511 741,525 746,515 747,519 762,514" fill="rgb(62.1006%, 23.4228%, 49.2398%)" fill-rule="evenodd" fill-opacity="0.151513"/>
	</g>
	<g id="G7">
		<polygon points="648,266 652,261 650,258 625,252 635,248 612,247 608,240 612,236 622,232 634,241 639,240 648,248 652,250 660,263 666,270" fill="rgb(71.904%, 80.9055%, 76.9168%)" fill-rule="evenodd" fill-opacity="0.426315"/>
		<polygon points="673,266 661,262 647,246 564,203 546,203 534,211 608,259 611,262 619,260 629,274 645,285 642,281 646,273 646,274 655,277 667,273 691,274" fill="rgb(79.6321%, 81.7537%, 73.3501%)" fill-rule="evenodd" fill-opacity="0.443066"/>
		<polygon points="533,227 521,224 524,221 534,211 573,236 552,235" fill="rgb(83.5115%, 75.3011%, 70.8725%)" fill-rule="evenodd" fill-opacity="0.310247"/>
		<polygon points="584,241 589,249 603,246 606,223 610,225 630,244 627,247 629,252 653,257 646,290 614,284 609,280 589,265 604,271" fill="rgb(44.2819%, 37.5162%, 27.8467%)" fill-rule="evenodd" fill-opacity="0.423836"/>
		<polygon points="664,263 693,276 699,293 688,300 686,310 685,315 674,319 672,362 657,361 634,366 585,397 570,361 587,333 594,218" fill="rgb(99.8419%, 67.2311%, 39.6739%)" fill-rule="evenodd" fill-opacity="0.295700"/>
		<polygon points="550,245 550,254 552,252 559,263 570,264 582,271 589,287 594,292 593,285 589,286 594,219 590,214 568,210 552,215 535,212 526,220" fill="rgb(72.5069%, 51.5863%, 31.8984%)" fill-rule="evenodd" fill-opacity="0.551000"/>
		<polygon points="559,265 583,333 575,347 568,351 569,367 580,375 583,372 588,359 587,382 594,372 600,381 600,370 617,335 612,305 603,295 593,284 595,265 575,253 558,247 534,227" fill="rgb(9.48905%, 2.35518%, 0.977848%)" fill-rule="evenodd" fill-opacity="0.512325"/>
		<polygon points="551,254 565,256 570,248 566,248 580,245 589,251 594,248 593,245 588,243 593,239 599,245 619,260 615,261 603,261 642,300 581,284 589,303" fill="rgb(19.9979%, 13.7231%, 7.80587%)" fill-rule="evenodd" fill-opacity="0.266452"/>
		<polygon points="565,345 571,364 572,364 572,359 588,332 590,290 611,220 595,231 565,254 561,337" fill="rgb(74.0092%, 40.2555%, 25.6464%)" fill-rule="evenodd" fill-opacity="0.189107"/>
		<polygon points="673,291 669,312 680,294 678,291 651,311 649,302 654,303 666,297" fill="rgb(90.5564%, 70.9019%, 56.5905%)" fill-rule="evenodd" fill-opacity="0.170900"/>
		<polygon points="607,241 611,244 616,244 634,242" fill="rgb(41.2623%, 20.9958%, 9.24634%)" fill-rule="evenodd" fill-opacity="0.290898"/>
		<polygon points="618,235 594,234 596,226 583,228 566,219 535,212 548,204 568,203 578,212 593,217 612,225" fill="rgb(80.6108%, 100%, 94.2747%)" fill-rule="evenodd" fill-opacity="0.191765"/>
		<polygon points="619,363 630,363 624,370 623,374 624,380 625,375 622,379 613,380" fill="rgb(65.6895%, 57.778%, 37.439%)" fill-rule="evenodd" fill-opacity="0.282875"/>
		<polygon points="704,297 691,276 677,282 681,283 677,281 672,285 681,289 678,300" fill="rgb(60.7281%, 73.0791%, 78.8016%)" fill-rule="evenodd" fill-opacity="0.133453"/>
		<polygon points="669,356 663,343 657,317 655,318 659,320 665,331 665,323 672,341" fill="rgb(87.2277%, 71.7078%, 59.6292%)" fill-rule="evenodd" fill-opacity="0.222183"/>
		<polygon points="655,308 665,323 666,323 675,330 685,303 678,297 674,293" fill="rgb(81.5386%, 68.625%, 57.26%)" fill-rule="evenodd" fill-opacity="0.346782"/>
		<polygon points="592,303 593,290 598,312 602,313 602,310" fill="rgb(53.273%, 42.7993%, 41.3186%)" fill-rule="evenodd" fill-opacity="0.270418"/>
		<polygon points="672,343 674,347 674,360 619,364 631,352 643,346 646,337 644,324 635,311 627,287 659,295 671,286 684,289 705,293 705,296 684,300 669,330" fill="rgb(82.131%, 73.8728%, 52.848%)" fill-rule="evenodd" fill-opacity="0.270134"/>
		<polygon points="705,296 700,291 690,289 682,290 684,298 687,297" fill="rgb(91.6666%, 86.5408%, 73.9853%)" fill-rule="evenodd" fill-opacity="0.390083"/>
		<polygon points="676,281 668,282 666,289 664,287 640,290 647,316 681,294 687,298 683,286 693,280 691,275 688,271 676,268" fill="rgb(39.6771%, 31.3979%, 25.4034%)" fill-rule="evenodd" fill-opacity="0.328286"/>
		<polygon points="583,399 586,392 583,386 582,389 586,399 593,382 598,389 591,396 594,387 593,395" fill="rgb(28.0302%, 14.4275%, 8.94622%)" fill-rule="evenodd" fill-opacity="0.374185"/>
		<polygon points="655,279 653,286 652,281 658,266 648,263 666,277 668,272 662,265 652,260 650,245 663,262 673,264 680,273" fill="rgb(69.9207%, 69.8513%, 49.6722%)" fill-rule="evenodd" fill-opacity="0.172515"/>
		<polygon points="650,266 657,274 657,281 652,281 647,280 643,288 629,274 626,264 619,261 641,264" fill="rgb(44.6259%, 32.7571%, 19.8521%)" fill-rule="evenodd" fill-opacity="0.456294"/>
		<polygon points="552,249 554,247 549,258 567,262 564,256 572,247 557,241 550,243" fill="rgb(50.7527%, 19.0271%, 4.62949%)" fill-rule="evenodd" fill-opacity="0.158179"/>
		<polygon points="583,211 580,213 582,219 589,217 590,214" fill="rgb(35.972%, 44.992%, 37.8437%)" fill-rule="evenodd" fill-opacity="0.171467"/>
		<polygon points="668,332 669,331 673,326 674,321 671,325" fill="rgb(53.3607%, 52.3427%, 32.8026%)" fill-rule="evenodd" fill-opacity="0.283731"/>
	</g>
	<g id="G8">
		<polygon points="965,354 899,349 869,343 876,341 925,341 940,345 946,342 952,343 975,336 991,343 1001,348 1024,355 1011,365" fill="rgb(97.2556%, 87.7698%, 71.7197%)" fill-rule="evenodd" fill-opacity="0.403130"/>
		<polygon points="906,345 916,346 901,349 961,354 958,365 935,353 927,358 828,357 809,366 846,365 873,372 880,378 887,382 893,382 872,366 859,364 802,329 860,333" fill="rgb(50.7078%, 56.0238%, 54.6732%)" fill-rule="evenodd" fill-opacity="0.297552"/>
		<polygon points="1020,377 1000,385 959,369 834,377 807,356 726,357 721,356 708,334 729,337 795,329 832,330 895,343 925,339 932,344 944,348 978,336 1022,355" fill="rgb(88.6342%, 86.8566%, 70.5906%)" fill-rule="evenodd" fill-opacity="0.348235"/>
		<polygon points="947,415 959,414 993,420 1006,421 1023,418 1024,388 1016,378 1002,385 998,387 945,395 945,404" fill="rgb(68.9585%, 66.0629%, 56.8903%)" fill-rule="evenodd" fill-opacity="0.498901"/>
		<polygon points="961,369 924,350 915,347 949,345 984,356 1015,362 1017,353 1024,357 1016,373 1000,378 1012,383 1020,377 1024,386 1012,393 1003,392 976,387 950,385 905,380 901,391 854,376" fill="rgb(55.8357%, 55.1072%, 48.1839%)" fill-rule="evenodd" fill-opacity="0.290323"/>
		<polygon points="708,332 738,339 739,338 752,335 785,332 785,329 818,329 861,337 879,340 861,346 799,370 796,370 759,370 723,373" fill="rgb(89.5308%, 73.3279%, 65.5401%)" fill-rule="evenodd" fill-opacity="0.440155"/>
		<polygon points="1024,383 855,410 851,398 824,360 875,341 898,340 915,338 927,342 928,340 937,344 947,346 980,335 1004,348 1024,353" fill="rgb(70.9714%, 60.8387%, 52.436%)" fill-rule="evenodd" fill-opacity="0.474355"/>
		<polygon points="922,337 1003,358 1024,355 1024,398 995,401 982,396 955,396 941,390 946,402 899,403 908,401 913,400 856,384 840,383 845,390 831,376 813,364 734,362 714,355 813,355 814,348 830,342" fill="rgb(50.531%, 33.7784%, 36.1646%)" fill-rule="evenodd" fill-opacity="0.243931"/>
		<polygon points="967,347 963,346 946,344 933,347 942,351 954,348 956,349 969,349" fill="rgb(78.9751%, 71.2109%, 65.2764%)" fill-rule="evenodd" fill-opacity="0.236128"/>
		<polygon points="836,383 811,363 830,372 805,356 810,357 825,361 853,373 867,375 842,377 837,376" fill="rgb(24.8808%, 13.4953%, 17.2677%)" fill-rule="evenodd" fill-opacity="0.184897"/>
		<polygon points="789,329 773,334 757,336 761,340 795,339 818,338 813,336 855,338 851,339 845,338 860,335 819,331 830,329" fill="rgb(81.3255%, 73.6251%, 66.5163%)" fill-rule="evenodd" fill-opacity="0.245247"/>
		<polygon points="978,344 995,349 1004,346 984,336 973,336 971,339 961,345" fill="rgb(77.9912%, 98.4125%, 93.2912%)" fill-rule="evenodd" fill-opacity="0.188386"/>
		<polygon points="766,371 732,378 729,379 746,377 719,375 715,371 718,366 761,365 765,366 826,365 793,372" fill="rgb(29.4941%, 17.8025%, 16.6799%)" fill-rule="evenodd" fill-opacity="0.362885"/>
		<polygon points="882,405 944,404 945,395 890,404" fill="rgb(61.4538%, 66.3598%, 55.1024%)" fill-rule="evenodd" fill-opacity="0.321200"/>
		<polygon points="743,345 764,345 788,347 835,361 812,345 806,344 798,339 734,339 733,336 709,331 708,338" fill="rgb(71.507%, 59.755%, 52.0268%)" fill-rule="evenodd" fill-opacity="0.301596"/>
		<polygon points="713,356 716,354 708,338 708,329 713,341 717,343 745,349 764,350 772,352 802,353 808,357" fill="rgb(31.7791%, 23.9839%, 20.4133%)" fill-rule="evenodd" fill-opacity="0.230039"/>
		<polygon points="1006,355 954,345 976,338 982,337 1014,356" fill="rgb(87.8577%, 72.0641%, 63.3651%)" fill-rule="evenodd" fill-opacity="0.309605"/>
		<polygon points="728,373 719,367 713,376 733,378 781,364 759,370" fill="rgb(47.2634%, 36.7977%, 30.5233%)" fill-rule="evenodd" fill-opacity="0.450562"/>
		<polygon points="1024,363 1002,370 979,363 942,339 1018,360 1024,380" fill="rgb(66.5378%, 52.9442%, 43.1798%)" fill-rule="evenodd" fill-opacity="0.226406"/>
		<polygon points="947,416 971,418 980,421 1006,421 961,414 948,414" fill="rgb(9.36625%, 12.9213%, 8.84228%)" fill-rule="evenodd" fill-opacity="0.422173"/>
		<polygon points="921,342 917,341 895,337 892,341 888,342 880,342 918,346 935,342" fill="rgb(81.4462%, 99.084%, 99.273%)" fill-rule="evenodd" fill-opacity="0.139463"/>
	</g>
	<g id="G9">
		<polygon points="787,593 758,605 747,607 735,607 708,598 693,574 694,549 706,531 718,523 769,537 772,539 793,531 783,521 802,521 805,535 809,537 809,529 812,534 821,558 811,560" fill="rgb(63.0173%, 40.244%, 34.4823%)" fill-rule="evenodd" fill-opacity="0.213406"/>
		<polygon points="766,627 792,619 805,601 824,557 803,562 793,549 794,558 777,568 768,558 765,569 748,579 756,582 739,586 715,591 703,582 698,592 705,610 710,617 722,625" fill="rgb(54.9359%, 29.9635%, 20.6687%)" fill-rule="evenodd" fill-opacity="0.224684"/>
		<polygon points="695,563 694,569 697,581 701,587 709,597 735,604 762,601 757,602 766,598 786,586 796,578 811,551 782,567 771,580 724,577 719,593 693,559" fill="rgb(88.0727%, 86.0345%, 64.7372%)" fill-rule="evenodd" fill-opacity="0.446542"/>
		<polygon points="724,602 700,590 693,566 693,559 699,540 731,518 734,528 733,557 741,572 755,576 777,561 797,556 817,546 802,570 781,593 749,604" fill="rgb(92.2036%, 73.7856%, 56.7149%)" fill-rule="evenodd" fill-opacity="0.349618"/>
		<polygon points="750,524 747,525 746,527 754,528 763,534 761,539 743,530 727,543 734,526 728,524 771,543 772,553 758,588 780,579 801,573 818,546 781,520" fill="rgb(46.0206%, 34.3019%, 23.7954%)" fill-rule="evenodd" fill-opacity="0.344120"/>
		<polygon points="879,490 894,484 901,484 928,502 929,509 920,500 914,504 911,493 901,498 902,501 905,503 898,502 891,493 904,497 895,487 868,499" fill="rgb(57.2887%, 50.4206%, 44.143%)" fill-rule="evenodd" fill-opacity="0.241479"/>
		<polygon points="717,579 714,569 721,566 727,568 728,567 757,561 732,567 748,561 720,580 738,577 761,563" fill="rgb(88.3839%, 74.2154%, 58.9014%)" fill-rule="evenodd" fill-opacity="0.215871"/>
		<polygon points="765,536 767,541 761,544 765,543 773,567 757,587 718,592 709,595 728,602 766,601 791,583 810,555 808,517 738,517 730,526" fill="rgb(94.2415%, 80.7372%, 61.8965%)" fill-rule="evenodd" fill-opacity="0.402337"/>
		<polygon points="792,593 785,597 777,602 775,607 770,606 754,614 737,613 725,608 724,597 722,603 711,613 722,601 697,586 706,605 716,608 720,606" fill="rgb(31.3367%, 17.1056%, 15.9601%)" fill-rule="evenodd" fill-opacity="0.169944"/>
		<polygon points="720,583 718,585 726,579 769,577 782,564 815,550 775,583 748,591 726,598 710,597 708,595 756,577 735,575 725,552 712,555 711,559 714,558" fill="rgb(65.0512%, 56.5717%, 43.3734%)" fill-rule="evenodd" fill-opacity="0.413917"/>
		<polygon points="731,518 750,515 793,517 807,514 817,525 813,519 744,520 715,525 709,523 711,525" fill="rgb(7.1187%, 4.96811%, 3.87634%)" fill-rule="evenodd" fill-opacity="0.521947"/>
		<polygon points="764,545 768,560 765,571 756,574 746,574 735,563 738,558 733,557 736,553 733,551 735,540 748,526 767,535 755,535 741,529 736,529 728,538 729,564 741,580 752,580 762,582 773,570 772,572 774,559 771,544 762,530" fill="rgb(65.998%, 19.0455%, 8.9487%)" fill-rule="evenodd" fill-opacity="0.388936"/>
		<polygon points="694,561 697,541 696,546 701,550 702,561 709,572 712,585 711,584" fill="rgb(76.5908%, 74.4436%, 55.5423%)" fill-rule="evenodd" fill-opacity="0.251281"/>
		<polygon points="858,507 879,498 877,495 893,502 876,509 874,506 870,509 862,513 866,502" fill="rgb(30.3187%, 61.8148%, 72.9769%)" fill-rule="evenodd" fill-opacity="0.100000"/>
		<polygon points="907,496 904,493 901,503 894,495 905,490" fill="rgb(88.639%, 89.1053%, 73.7485%)" fill-rule="evenodd" fill-opacity="0.375261"/>
		<polygon points="930,526 933,526 931,531 928,530" fill="rgb(93.6455%, 62.9853%, 40.8686%)" fill-rule="evenodd" fill-opacity="0.366515"/>
		<polygon points="732,520 731,518 778,519 796,518 785,525 769,528 772,547 764,546 763,543 752,536 726,544 732,534 727,534 728,530 700,537 721,522" fill="rgb(37.7113%, 29.5729%, 18.8653%)" fill-rule="evenodd" fill-opacity="0.476140"/>
		<polygon points="708,541 698,542 693,550 700,537 706,553 709,567 714,579 719,579 710,550" fill="rgb(2.78359%, 0%, 0%)" fill-rule="evenodd" fill-opacity="0.504738"/>
		<polygon points="883,497 888,495 888,496 898,490 894,484 901,484 898,493 890,497" fill="rgb(66.5953%, 81.1377%, 50.6275%)" fill-rule="evenodd" fill-opacity="0.144769"/>
		<polygon points="808,539 810,535 813,541 814,549 815,546 812,550" fill="rgb(84.6705%, 59.7776%, 40.6419%)" fill-rule="evenodd" fill-opacity="0.335298"/>
		<polygon points="819,551 822,558 837,539 879,515 900,507 949,550 942,529 933,505 918,498 898,484 889,484 809,514 808,544 806,535 757,567" fill="rgb(83.9725%, 62.5956%, 54.7271%)" fill-rule="evenodd" fill-opacity="0.190556"/>
		<polygon points="929,534 930,535 929,529 922,521 936,529" fill="rgb(77.9042%, 61.4073%, 61.1066%)" fill-rule="evenodd" fill-opacity="0.190964"/>
	</g>
	<g id="G10">
		<polygon points="142,357 118,347 93,338 96,330 107,330 117,333 118,335 119,333 137,346 155,358 179,363 190,372" fill="rgb(73.2297%, 78.8101%, 57.5816%)" fill-rule="evenodd" fill-opacity="0.365140"/>
		<polygon points="174,349 144,346 133,344 151,341 190,331 226,349 229,350 242,350 279,349 322,366 222,366" fill="rgb(72.5086%, 58.4989%, 73.5142%)" fill-rule="evenodd" fill-opacity="0.435179"/>
		<polygon points="207,377 155,372 123,352 184,362 210,362 257,371 263,360 204,350 192,343 159,343 165,340 184,334 237,348 269,349 282,348 312,359 324,371 311,381 309,389 246,371 284,394" fill="rgb(57.7635%, 48.4799%, 48.9823%)" fill-rule="evenodd" fill-opacity="0.287475"/>
		<polygon points="316,372 313,367 229,371 70,360 38,359 78,334 105,330 133,340 168,339 182,334 193,334 208,343 245,352 279,350 287,353 299,358 330,365" fill="rgb(80.5674%, 68.857%, 49.1924%)" fill-rule="evenodd" fill-opacity="0.414142"/>
		<polygon points="213,387 193,385 157,383 157,380 128,380 40,381 79,384 76,388 95,390" fill="rgb(80.4586%, 61.2959%, 30.6143%)" fill-rule="evenodd" fill-opacity="0.265970"/>
		<polygon points="1,380 0,391 16,389 100,393 295,396 311,395 309,382 313,376 327,368 318,361 302,357 282,350 259,351 302,365 220,366 218,364 175,349 138,345 133,343 154,342 131,342 103,330 93,331 93,334 79,337" fill="rgb(63.1499%, 49.2797%, 54.9786%)" fill-rule="evenodd" fill-opacity="0.409327"/>
		<polygon points="227,345 241,347 243,347 265,351 246,351 235,348 218,347 202,338 192,335 199,334" fill="rgb(7.78652%, 9.51192%, 3.43506%)" fill-rule="evenodd" fill-opacity="0.350521"/>
		<polygon points="64,344 87,343 127,353 147,360 161,352 180,353 183,356 218,350 145,346 135,344 116,332 114,332 78,335 74,337 69,341 73,350 58,348" fill="rgb(57.0689%, 47.7979%, 44.2008%)" fill-rule="evenodd" fill-opacity="0.361926"/>
		<polygon points="20,364 33,362 33,363 0,381 0,371" fill="rgb(78.3783%, 71.7937%, 74.5814%)" fill-rule="evenodd" fill-opacity="0.288699"/>
		<polygon points="0,392 15,389 133,394 110,393 79,394 0,393" fill="rgb(51.5877%, 42.989%, 46.0095%)" fill-rule="evenodd" fill-opacity="0.251330"/>
		<polygon points="40,381 79,384 76,388 66,392 60,392 1,391 0,378" fill="rgb(86.1601%, 70.5704%, 46.767%)" fill-rule="evenodd" fill-opacity="0.174320"/>
		<polygon points="206,387 223,388 271,394 288,398 239,393 201,392 243,395 138,393 128,393 126,395 277,398 148,389" fill="rgb(75.5091%, 62.1978%, 37.1618%)" fill-rule="evenodd" fill-opacity="0.142048"/>
		<polygon points="237,373 229,376 230,376 243,380 239,380 258,385 267,386 261,380" fill="rgb(58.7678%, 61.0665%, 55.323%)" fill-rule="evenodd" fill-opacity="0.127620"/>
		<polygon points="74,350 81,348 106,359 159,372 79,367 75,362 84,361 45,360 37,361 33,358 39,356 79,332 92,335 88,335 88,332 72,340" fill="rgb(30.2537%, 25.376%, 24.6942%)" fill-rule="evenodd" fill-opacity="0.277305"/>
		<polygon points="331,367 316,363 315,376" fill="rgb(57.7499%, 60.3625%, 48.5323%)" fill-rule="evenodd" fill-opacity="0.263564"/>
		<polygon points="261,395 269,398 312,398 315,375 316,367 161,374 156,383 188,385 227,389 275,395 259,397" fill="rgb(83.3138%, 68.0221%, 51.3746%)" fill-rule="evenodd" fill-opacity="0.251764"/>
		<polygon points="330,363 309,360 275,350 270,352 257,354 272,362 282,362 286,364 290,368 274,370 297,374 307,378 321,370" fill="rgb(72.4582%, 60.56%, 46.1858%)" fill-rule="evenodd" fill-opacity="0.318333"/>
		<polygon points="155,340 128,340 164,336 162,336 167,336 173,333 187,330 193,332 192,330 196,332 191,331" fill="rgb(57.5587%, 41.9807%, 61.0101%)" fill-rule="evenodd" fill-opacity="0.119306"/>
		<polygon points="263,383 239,371 209,370 215,372 227,373 230,374" fill="rgb(70.9174%, 62.3076%, 54.2015%)" fill-rule="evenodd" fill-opacity="0.248303"/>
		<polygon points="93,387 110,388 145,391 133,395 105,395 76,393 48,393 31,393 43,391 27,390 32,390 46,390 70,384" fill="rgb(24.2586%, 19.4258%, 15.7185%)" fill-rule="evenodd" fill-opacity="0.266678"/>
		<polygon points="224,360 180,368 67,360 35,359 14,364 3,371 0,378 40,381 156,380 163,374 240,371" fill="rgb(69.698%, 57.2582%, 45.6923%)" fill-rule="evenodd" fill-opacity="0.330881"/>
		<polygon points="0,394 0,389 26,385 65,389 83,384 106,386 166,386 194,386 192,389 274,394 285,397 242,398 191,397" fill="rgb(17.6034%, 12.075%, 6.65086%)" fill-rule="evenodd" fill-opacity="0.217165"/>
		<polygon points="222,347 213,346 209,343 223,346" fill="rgb(41.4656%, 66.2337%, 45.1975%)" fill-rule="evenodd" fill-opacity="0.177939"/>
	</g>
	<g id="G11">
		<polygon points="932,480 932,468 923,493 921,474 910,481 908,475 905,473 903,474 902,483 919,498 931,503 939,477" fill="rgb(73.8169%, 36.064%, 30.8336%)" fill-rule="evenodd" fill-opacity="0.282949"/>
		<polygon points="947,407 947,437 930,425 877,423 879,420 873,418 865,422 862,426 860,426 854,414 858,412 861,413 874,407" fill="rgb(65.428%, 59.2239%, 51.1063%)" fill-rule="evenodd" fill-opacity="0.582333"/>
		<polygon points="899,505 915,520 915,523 864,533 839,547 830,546 842,536" fill="rgb(80.7207%, 52.7346%, 44.768%)" fill-rule="evenodd" fill-opacity="0.195766"/>
		<polygon points="947,442 945,454 928,502 917,495 898,482 869,491 859,469 870,461 858,410 877,408 902,407 916,407 949,408 948,431" fill="rgb(77.689%, 56.1401%, 40.7538%)" fill-rule="evenodd" fill-opacity="0.300760"/>
		<polygon points="866,487 884,474 888,476 904,471 903,485 897,481 869,491 859,496 854,497 846,500 797,518 774,517 790,509 823,502 831,498 855,491 862,483" fill="rgb(85.8747%, 95.591%, 78.2132%)" fill-rule="evenodd" fill-opacity="0.151003"/>
		<polygon points="941,471 929,503 884,474 894,468 890,440 889,424 884,436 881,446 873,440 862,430 853,416 861,412 869,407 908,407 946,436" fill="rgb(87.8386%, 49.2023%, 31.4739%)" fill-rule="evenodd" fill-opacity="0.291284"/>
		<polygon points="929,504 942,471 937,469 927,493 927,482 931,458 939,429 941,419 937,419 936,416 931,438 915,492 908,488 909,438 904,450 902,466 898,482" fill="rgb(0%, 35.1374%, 32.6655%)" fill-rule="evenodd" fill-opacity="0.267871"/>
		<polygon points="907,463 912,463 909,485 911,484 907,483 901,484 901,462 910,463 925,420 923,416 909,417" fill="rgb(32.1702%, 39.2477%, 19.6663%)" fill-rule="evenodd" fill-opacity="0.443602"/>
		<polygon points="899,460 900,465 896,483 887,482 895,422 916,413 896,414 901,411 903,409 916,409" fill="rgb(71.8218%, 11.6302%, 9.05537%)" fill-rule="evenodd" fill-opacity="0.258107"/>
		<polygon points="880,488 874,488 873,485 878,479 875,466 875,469 866,477 864,482 858,469 851,474 853,477 853,482 812,490 789,492 779,501 757,517 785,518 803,517" fill="rgb(43.7375%, 25.9998%, 19.1289%)" fill-rule="evenodd" fill-opacity="0.342164"/>
		<polygon points="945,414 938,409 934,411 885,415 886,412 876,412 867,418 859,419 853,416 872,407 945,407" fill="rgb(82.0137%, 76.7316%, 61.0627%)" fill-rule="evenodd" fill-opacity="0.418766"/>
		<polygon points="859,469 867,481 875,475 882,463 880,445 895,441 892,445 866,434 877,443 869,449 868,441 865,433 865,464 868,459" fill="rgb(23.9606%, 6.44814%, 4.11458%)" fill-rule="evenodd" fill-opacity="0.361396"/>
		<polygon points="928,407 925,408 927,416 945,426 948,408" fill="rgb(89.4608%, 63.7432%, 52.0807%)" fill-rule="evenodd" fill-opacity="0.290578"/>
		<polygon points="893,407 891,412 889,414 884,430 882,460 882,467 885,475 893,448 897,430 897,407" fill="rgb(2.25266%, 66.4794%, 53.3314%)" fill-rule="evenodd" fill-opacity="0.135587"/>
		<polygon points="844,500 847,491 863,477 868,492" fill="rgb(45.2977%, 74.0729%, 57.631%)" fill-rule="evenodd" fill-opacity="0.143033"/>
		<polygon points="904,518 910,523 899,526 889,530 873,529 861,533 853,540 835,547 837,543 844,538 879,521" fill="rgb(80.3463%, 51.6134%, 44.3355%)" fill-rule="evenodd" fill-opacity="0.107872"/>
		<polygon points="939,472 935,485 941,432 947,436 943,463" fill="rgb(31.1477%, 63.8938%, 54.9011%)" fill-rule="evenodd" fill-opacity="0.328682"/>
		<polygon points="942,407 941,419 936,424 937,418 935,410" fill="rgb(41.0885%, 72.2847%, 63.3987%)" fill-rule="evenodd" fill-opacity="0.252179"/>
		<polygon points="936,443 938,426 932,435 925,469 923,474 923,477 922,479 923,480 926,480 931,466" fill="rgb(0%, 3.08769%, 16.9528%)" fill-rule="evenodd" fill-opacity="0.335825"/>
		<polygon points="875,455 878,455 882,449 877,453 885,446 883,441 881,445 864,434" fill="rgb(94.0675%, 31.6489%, 10.2984%)" fill-rule="evenodd" fill-opacity="0.100000"/>
		<polygon points="943,438 941,448 936,458 934,455 936,449 936,444 937,444 938,437 937,430 941,418" fill="rgb(68.3524%, 24.2221%, 25.4982%)" fill-rule="evenodd" fill-opacity="0.291092"/>
		<polygon points="886,425 892,426 891,422 892,422 896,412 891,410" fill="rgb(25.7468%, 34.6688%, 46.998%)" fill-rule="evenodd" fill-opacity="0.342354"/>
	</g>
	<g id="G12">
		<polygon points="517,349 474,349 456,345 446,341 434,341 417,361 414,363 425,364 443,365 527,384 529,376" fill="rgb(82.158%, 72.5507%, 66.6378%)" fill-rule="evenodd" fill-opacity="0.474904"/>
		<polygon points="438,365 424,363 420,363 416,359 406,368 408,373 435,367 456,368 417,376 437,376 443,374 465,374 487,381 487,375 442,365" fill="rgb(55.3994%, 51.824%, 53.542%)" fill-rule="evenodd" fill-opacity="0.287974"/>
		<polygon points="485,389 493,386 467,379 474,379 461,378 457,386 447,381 407,381 406,392 396,379 456,368 525,383 529,381 528,393 477,394" fill="rgb(39.0304%, 35.0115%, 37.7234%)" fill-rule="evenodd" fill-opacity="0.299982"/>
		<polygon points="522,355 517,348 470,349 467,349 455,347 449,348 443,341 443,343 434,341 400,376 394,378 398,378 398,379 406,378" fill="rgb(93.5746%, 76.4162%, 72.1499%)" fill-rule="evenodd" fill-opacity="0.287206"/>
		<polygon points="522,355 518,356 521,360 522,363 527,374 528,378 532,409 506,411 497,416 476,416 396,379 436,341 466,346 496,347 520,349" fill="rgb(93.5869%, 77.7929%, 60.7215%)" fill-rule="evenodd" fill-opacity="0.304922"/>
		<polygon points="347,391 350,389 351,396 366,395 371,397 365,385 364,378" fill="rgb(65.8672%, 45.225%, 45.1002%)" fill-rule="evenodd" fill-opacity="0.402325"/>
		<polygon points="534,410 510,411 498,415 455,416 434,411 437,409 464,406 471,407 484,404 527,401 532,397" fill="rgb(47.4197%, 66.6115%, 57.8684%)" fill-rule="evenodd" fill-opacity="0.246278"/>
		<polygon points="395,426 396,419 389,411 383,411 354,413 363,420 369,418 370,419 378,421 385,433" fill="rgb(39.3104%, 46.6752%, 40.8509%)" fill-rule="evenodd" fill-opacity="0.498449"/>
		<polygon points="450,416 436,413 426,406 441,407 438,403 449,403 458,408 460,408 464,409 460,409 469,412 476,416" fill="rgb(55.2973%, 61.6333%, 60.1461%)" fill-rule="evenodd" fill-opacity="0.264931"/>
		<polygon points="521,351 518,354 481,354 462,356 447,355 448,353 431,347 430,341 446,341 449,345 472,348 485,348 489,346 497,347 496,347 473,347 485,347" fill="rgb(70.7769%, 87.8976%, 95.2607%)" fill-rule="evenodd" fill-opacity="0.150745"/>
		<polygon points="426,347 423,350 417,356 416,355 423,355 428,349 432,347 433,341" fill="rgb(23.8443%, 16.6913%, 17.7053%)" fill-rule="evenodd" fill-opacity="0.250851"/>
		<polygon points="497,417 492,414 504,413 505,411 470,410 462,409 398,379 399,388 408,406 455,417" fill="rgb(45.6498%, 47.3812%, 36.6473%)" fill-rule="evenodd" fill-opacity="0.461633"/>
		<polygon points="400,388 394,378 406,369 414,359 427,350 432,357 431,355 444,360 474,361 476,357 508,358 481,363 519,366 527,367 529,388" fill="rgb(51.7314%, 40.5038%, 36.6507%)" fill-rule="evenodd" fill-opacity="0.402346"/>
		<polygon points="367,377 367,386 369,391 372,396 397,422 388,430 376,421 359,420 350,410 348,400 348,392 350,385" fill="rgb(85.1694%, 76.2597%, 57.9589%)" fill-rule="evenodd" fill-opacity="0.277266"/>
		<polygon points="468,370 491,379 497,380 503,389 503,384 507,389 514,388 512,389 507,390 519,390 524,391 530,389 529,384" fill="rgb(72.6583%, 65.3705%, 50.9229%)" fill-rule="evenodd" fill-opacity="0.126338"/>
		<polygon points="567,412 571,413 585,397 574,371 575,369 572,370 570,376" fill="rgb(80.9728%, 70.0398%, 55.6247%)" fill-rule="evenodd" fill-opacity="0.348261"/>
		<polygon points="578,402 575,407 572,413 566,411 567,401 571,408 569,408 569,401" fill="rgb(64.609%, 75.0766%, 62.1157%)" fill-rule="evenodd" fill-opacity="0.152972"/>
		<polygon points="571,377 571,373 575,373 576,379 584,389 574,394 571,389 569,391 568,378" fill="rgb(94.2486%, 69.7938%, 52.8668%)" fill-rule="evenodd" fill-opacity="0.252815"/>
		<polygon points="494,418 482,412 468,414 475,413 441,408 438,402 412,405 407,407 453,418" fill="rgb(55.0683%, 67.8197%, 59.2882%)" fill-rule="evenodd" fill-opacity="0.141664"/>
		<polygon points="461,386 467,383 477,384 477,384 491,387 487,389 486,393 498,391 517,388 524,390 531,395 520,397 443,393 427,390 438,387" fill="rgb(40.6394%, 22.3611%, 10.0189%)" fill-rule="evenodd" fill-opacity="0.212758"/>
		<polygon points="520,404 530,404 529,408 508,408 491,416 473,409 484,405 450,408 435,408 430,412 453,404 520,398" fill="rgb(15.0544%, 55.7985%, 43.5936%)" fill-rule="evenodd" fill-opacity="0.133205"/>
		<polygon points="349,411 361,421 365,421 383,414 387,415 391,412 381,403 367,405 365,407" fill="rgb(27.4849%, 29.8729%, 23.4226%)" fill-rule="evenodd" fill-opacity="0.455544"/>
		<polygon points="530,386 520,383 501,378 510,376 509,379 521,380 531,376 530,384" fill="rgb(34.264%, 30.3256%, 18.5436%)" fill-rule="evenodd" fill-opacity="0.128616"/>
		<polygon points="468,370 464,367 471,365 462,364 448,365 448,365 454,369 451,368" fill="rgb(46.4081%, 30.2579%, 32.8939%)" fill-rule="evenodd" fill-opacity="0.125172"/>
		<polygon points="569,411 569,409 574,412 576,410" fill="rgb(71.3753%, 50.9231%, 40.0207%)" fill-rule="evenodd" fill-opacity="0.120908"/>
	</g>
	<g id="G13">
		<polygon points="825,461 832,461 829,459 835,459 852,482 817,489 804,490 788,492 783,485 794,473 782,470 782,469 766,463 802,463 810,461 822,459 835,452 827,454 817,455 834,446" fill="rgb(100%, 81.9972%, 61.0011%)" fill-rule="evenodd" fill-opacity="0.156708"/>
		<polygon points="794,372 760,371 744,377 729,378 702,379 745,384 703,388 738,389 742,388 800,389 811,394 831,391 823,381 826,380 828,383 824,380 847,390 835,378 832,377 822,368 803,368" fill="rgb(55.6447%, 47.2581%, 45.476%)" fill-rule="evenodd" fill-opacity="0.378246"/>
		<polygon points="842,435 846,472 823,478 813,485 786,486 788,476 781,466 771,464 821,461 817,460 823,457 807,458 767,456 753,451 752,450 773,451 781,446 798,449 811,448 833,445" fill="rgb(74.3662%, 72.1132%, 62.2526%)" fill-rule="evenodd" fill-opacity="0.233769"/>
		<polygon points="787,396 799,394 802,394 807,390 781,394 768,393 755,391 757,393 757,390 746,392 765,395" fill="rgb(55.3553%, 52.8574%, 57.3134%)" fill-rule="evenodd" fill-opacity="0.280369"/>
		<polygon points="824,446 753,451 753,452 773,462 759,456 765,462 779,469 788,470 825,471 849,463 850,461 848,463 854,444" fill="rgb(95.0208%, 59.5273%, 56.5002%)" fill-rule="evenodd" fill-opacity="0.424372"/>
		<polygon points="862,432 855,423 845,412 830,389 842,401 852,414 844,398 844,397 853,403 854,414 864,435" fill="rgb(66.5439%, 59.1925%, 51.5962%)" fill-rule="evenodd" fill-opacity="0.297770"/>
		<polygon points="822,388 770,407 760,405 733,404 725,397 716,394 703,383 702,377 737,377 765,370 774,370 792,370 804,368 820,368 827,371" fill="rgb(100%, 57.8391%, 52.5938%)" fill-rule="evenodd" fill-opacity="0.375963"/>
		<polygon points="814,485 825,477 785,472 764,462 750,449 775,449 758,450 770,452 784,446 822,447 837,441 841,437 842,434 845,406 847,425 853,416 860,424 866,438 868,462 851,474 851,479" fill="rgb(85.4103%, 48.1618%, 43.68%)" fill-rule="evenodd" fill-opacity="0.148671"/>
		<polygon points="836,473 842,471 845,470 845,472 845,465 823,472 823,472 794,471 795,468 784,468 781,470 788,474 788,480" fill="rgb(64.8518%, 7.13063%, 0.298551%)" fill-rule="evenodd" fill-opacity="0.364493"/>
		<polygon points="747,399 740,395 759,395 765,392 735,390 749,401 765,400 791,397 775,409 750,411 746,409 742,409 737,408 729,401" fill="rgb(57.77%, 40.3005%, 39.2942%)" fill-rule="evenodd" fill-opacity="0.378949"/>
		<polygon points="855,413 850,444 840,444 832,448 844,433 846,412 841,404 823,386 826,371 840,385 846,389 850,396 853,403" fill="rgb(94.942%, 61.8596%, 57.7019%)" fill-rule="evenodd" fill-opacity="0.469007"/>
		<polygon points="788,397 785,397 793,399 790,401 780,407 776,406 767,408 757,407 776,401 758,403 766,400 777,398 758,393 740,394 743,393 747,389 775,394 808,390" fill="rgb(70.9686%, 60.285%, 58.5457%)" fill-rule="evenodd" fill-opacity="0.108036"/>
		<polygon points="752,386 746,387 745,389 747,386 752,383 758,383 760,382 740,380 750,377 765,385 753,386 742,384 745,387" fill="rgb(75.0743%, 59.4019%, 60.3656%)" fill-rule="evenodd" fill-opacity="0.144985"/>
		<polygon points="844,444 837,446 836,446 836,447 831,452 841,445 835,454 803,456 820,450 836,451 826,449 819,450 809,448 814,445" fill="rgb(99.1589%, 54.8328%, 56.2593%)" fill-rule="evenodd" fill-opacity="0.149745"/>
		<polygon points="811,450 792,452 798,449 809,448 826,447 813,447 813,448 820,449" fill="rgb(85.7868%, 74.5876%, 65.7684%)" fill-rule="evenodd" fill-opacity="0.287665"/>
		<polygon points="765,382 780,384 783,386 764,384 752,384 725,387 708,385 717,389 743,392 717,394 705,386 702,380 719,383 735,385 735,382 728,382 728,383 727,382" fill="rgb(28.4498%, 8.0571%, 3.47874%)" fill-rule="evenodd" fill-opacity="0.309676"/>
		<polygon points="806,387 804,385 808,387 809,386 825,386 833,395 821,392 825,393 817,392 816,393 804,392 816,390 774,388" fill="rgb(31.7107%, 21.1396%, 21.1418%)" fill-rule="evenodd" fill-opacity="0.452427"/>
		<polygon points="809,485 827,481 841,476 839,475 853,484 852,473 847,476 847,463 849,461 852,441 853,450 851,459 843,460 844,461 832,468 826,470" fill="rgb(31.5972%, 26.3573%, 17.6852%)" fill-rule="evenodd" fill-opacity="0.316400"/>
		<polygon points="794,463 790,464 782,464 778,465 805,467 816,467 812,465 809,466 808,464 821,461 808,461 809,461 801,464" fill="rgb(99.3843%, 100%, 87.7245%)" fill-rule="evenodd" fill-opacity="0.142586"/>
		<polygon points="794,447 797,449 801,450 797,450 782,449 776,449 781,447" fill="rgb(84.9887%, 64.7632%, 56.919%)" fill-rule="evenodd" fill-opacity="0.408877"/>
		<polygon points="837,441 837,445 847,436 853,433 847,434 853,442 850,425" fill="rgb(88.1316%, 63.7067%, 59.0456%)" fill-rule="evenodd" fill-opacity="0.313570"/>
		<polygon points="761,404 739,402 733,406 738,409 738,410 747,410 749,413 766,411 773,411 779,409 790,399" fill="rgb(29.508%, 8.7567%, 6.51585%)" fill-rule="evenodd" fill-opacity="0.507556"/>
		<polygon points="819,471 820,469 812,469 789,467 768,465 787,474" fill="rgb(29.1076%, 18.0123%, 15.6622%)" fill-rule="evenodd" fill-opacity="0.310406"/>
		<polygon points="727,394 739,392 752,392 740,394 722,396 716,394" fill="rgb(67.7646%, 48.347%, 54.7867%)" fill-rule="evenodd" fill-opacity="0.259972"/>
		<polygon points="803,455 799,458 801,458 797,456 798,455 828,451 825,454 829,457 831,454 805,457" fill="rgb(98.9755%, 69.3175%, 58.104%)" fill-rule="evenodd" fill-opacity="0.143594"/>
		<polygon points="774,453 778,450 809,452 811,450 811,451 826,450 824,453 820,453 818,454" fill="rgb(31.1693%, 9.89333%, 4.72714%)" fill-rule="evenodd" fill-opacity="0.348701"/>
		<polygon points="734,406 732,400 726,400 728,400 726,400 727,398 725,398 731,400 736,399 741,401 750,400 756,401 786,397 761,406" fill="rgb(77.7318%, 59.8396%, 61.8875%)" fill-rule="evenodd" fill-opacity="0.126270"/>
		<polygon points="837,379 844,385 834,380 824,370 822,368 824,368" fill="rgb(18.0173%, 18.2513%, 14.5564%)" fill-rule="evenodd" fill-opacity="0.311931"/>
		<polygon points="770,452 762,450 756,449 752,450 752,451 777,456 778,456 773,457 785,459 796,459 802,460 792,451 800,448 793,447 792,446 782,447 780,450 780,445" fill="rgb(95.7366%, 82.0335%, 85.5918%)" fill-rule="evenodd" fill-opacity="0.103935"/>
		<polygon points="745,386 729,386 735,388 737,388 743,387" fill="rgb(45.0063%, 50.6307%, 91.6632%)" fill-rule="evenodd" fill-opacity="0.100000"/>
		<polygon points="753,450 758,454 762,450 763,451 759,451 757,450" fill="rgb(65.1979%, 50.9028%, 43.6869%)" fill-rule="evenodd" fill-opacity="0.387535"/>
	</g>
	<g id="G14">
		<polygon points="974,469 973,467 971,458 967,453 986,453 996,462 990,481 988,498 993,518 1005,538 1008,550 1005,563 976,551" fill="rgb(98.4048%, 38.5557%, 21.635%)" fill-rule="evenodd" fill-opacity="0.380841"/>
		<polygon points="968,453 959,458 961,474 968,479 974,463 977,453" fill="rgb(91.9235%, 38.4186%, 21.5364%)" fill-rule="evenodd" fill-opacity="0.382947"/>
		<polygon points="1004,564 1013,566 1008,549" fill="rgb(76.7951%, 35.8036%, 22.0739%)" fill-rule="evenodd" fill-opacity="0.482712"/>
		<polygon points="959,539 952,563 952,593 948,588 946,581 946,579 949,552 959,521 963,512 966,512 969,513" fill="rgb(27.6528%, 26.4947%, 27.1831%)" fill-rule="evenodd" fill-opacity="0.336069"/>
		<polygon points="960,605 976,558 974,469 973,466 968,479 962,475 963,489 965,505 947,562 947,567 946,571 948,587" fill="rgb(97.0018%, 39.7043%, 21.472%)" fill-rule="evenodd" fill-opacity="0.396536"/>
		<polygon points="1014,584 1014,567 976,551 976,558 960,606 966,611 971,613 983,613 999,611 1005,608 1010,594" fill="rgb(99.2329%, 38.8262%, 22.0948%)" fill-rule="evenodd" fill-opacity="0.367393"/>
		<polygon points="983,465 977,465 970,463 966,453 976,453 981,462 996,462" fill="rgb(53.5959%, 42.1274%, 38.2569%)" fill-rule="evenodd" fill-opacity="0.279765"/>
		<polygon points="951,578 950,585 946,582 947,573 946,575 946,565 950,566" fill="rgb(67.2514%, 74.807%, 69.4736%)" fill-rule="evenodd" fill-opacity="0.111526"/>
		<polygon points="969,453 965,459 974,461 966,463 957,458" fill="rgb(84.3366%, 73.835%, 66.7148%)" fill-rule="evenodd" fill-opacity="0.172231"/>
		<polygon points="1014,569 1013,587 1007,606 1002,613 966,613 974,602 996,591 996,575 998,539 1004,544 1001,530 1005,537 1012,561" fill="rgb(22.7314%, 15.4083%, 9.60729%)" fill-rule="evenodd" fill-opacity="0.350980"/>
		<polygon points="990,455 988,465 989,463 992,464 996,462" fill="rgb(74.2434%, 69.4855%, 58.9997%)" fill-rule="evenodd" fill-opacity="0.169398"/>
		<polygon points="982,490 982,473 988,473 989,466 994,464 987,507" fill="rgb(20.8035%, 14.6672%, 9.15541%)" fill-rule="evenodd" fill-opacity="0.294558"/>
		<polygon points="967,458 970,454 977,457 981,461 970,461" fill="rgb(24.406%, 6.36277%, 0.783493%)" fill-rule="evenodd" fill-opacity="0.409142"/>
		<polygon points="964,477 965,504 963,489 962,484 961,473 958,457 962,468" fill="rgb(16.4628%, 7.16043%, 9.7703%)" fill-rule="evenodd" fill-opacity="0.385858"/>
		<polygon points="985,462 973,463 979,464 993,463 998,459" fill="rgb(98.9964%, 68.3923%, 59.1443%)" fill-rule="evenodd" fill-opacity="0.230025"/>
		<polygon points="952,553 951,554 949,549 948,551 960,521 964,514 966,512 963,525" fill="rgb(52.09%, 34.8103%, 29.7446%)" fill-rule="evenodd" fill-opacity="0.235989"/>
		<polygon points="963,604 958,601 956,601 955,598 951,594 952,581 965,603" fill="rgb(77.5877%, 56.0829%, 51.6675%)" fill-rule="evenodd" fill-opacity="0.104107"/>
		<polygon points="987,494 991,494 989,488 985,488 982,492 985,498" fill="rgb(48.8195%, 14.6028%, 13.7657%)" fill-rule="evenodd" fill-opacity="0.174729"/>
		<polygon points="966,507 965,500 966,499 966,502 964,496 964,485 967,494 967,497 968,500" fill="rgb(66.7214%, 45.0936%, 36.0782%)" fill-rule="evenodd" fill-opacity="0.157317"/>
		<polygon points="979,458 992,459 986,453 976,453" fill="rgb(60.2396%, 44.5812%, 36.3522%)" fill-rule="evenodd" fill-opacity="0.417503"/>
		<polygon points="968,512 965,513 964,501 965,497 963,497 964,487 962,481 962,478 960,455 964,469 963,471 966,488" fill="rgb(52.2233%, 37.3307%, 31.8425%)" fill-rule="evenodd" fill-opacity="0.207237"/>
		<polygon points="955,549 956,545 957,540 959,539 956,530 951,546 949,550 948,566 948,574" fill="rgb(85.4708%, 50.7715%, 46.1942%)" fill-rule="evenodd" fill-opacity="0.139669"/>
		<polygon points="971,462 969,455 970,454 966,453 958,456 960,461 966,461 968,468" fill="rgb(77.1281%, 40.0311%, 34.536%)" fill-rule="evenodd" fill-opacity="0.152401"/>
		<polygon points="947,581 950,591 960,606 958,572 959,554 961,545 959,543 961,542 959,535 953,549 948,573" fill="rgb(49.2387%, 19.5383%, 14.3105%)" fill-rule="evenodd" fill-opacity="0.300881"/>
	</g>
	<g id="G15">
		<polygon points="597,416 601,430 608,447 604,448 600,437 590,432 591,433 593,428 589,422 579,429 580,431 579,433" fill="rgb(69.9673%, 40.7966%, 32.3025%)" fill-rule="evenodd" fill-opacity="0.100000"/>
		<polygon points="637,513 638,507 638,501 640,496 631,472 651,497 646,489 649,504 655,513 656,518 650,522 644,530 640,530 632,515" fill="rgb(56.773%, 39.092%, 32.0533%)" fill-rule="evenodd" fill-opacity="0.227526"/>
		<polygon points="636,497 645,499 647,508 651,512 650,494 635,479 626,443 623,445 625,452 627,473 628,484" fill="rgb(60.8735%, 53.726%, 47.1204%)" fill-rule="evenodd" fill-opacity="0.327552"/>
		<polygon points="632,469 627,446 624,439 620,433 615,434 620,446 622,474 636,488 647,497" fill="rgb(64.8459%, 64.0853%, 62.9209%)" fill-rule="evenodd" fill-opacity="0.239984"/>
		<polygon points="641,513 641,512 640,510 640,507 645,515" fill="rgb(31.2438%, 30.6443%, 30.7469%)" fill-rule="evenodd" fill-opacity="0.256384"/>
		<polygon points="616,424 623,420 640,415 640,408 635,393 627,380 615,380 596,388 589,395 600,392 606,387 604,393 607,391 618,382 599,411" fill="rgb(36.4767%, 16.9511%, 15.4932%)" fill-rule="evenodd" fill-opacity="0.226483"/>
		<polygon points="593,392 606,384 609,383 609,384 612,383 597,392 582,408 578,412 572,412" fill="rgb(65.2528%, 69.7377%, 55.5085%)" fill-rule="evenodd" fill-opacity="0.338471"/>
		<polygon points="574,408 585,414 590,403 594,401 597,395 619,380 599,387" fill="rgb(57.0247%, 55.0611%, 52.573%)" fill-rule="evenodd" fill-opacity="0.227602"/>
		<polygon points="613,381 601,385 594,392 591,393 575,406 575,408 572,411 572,417 579,428 588,423 594,419 620,380" fill="rgb(66.7872%, 46.3976%, 37.9173%)" fill-rule="evenodd" fill-opacity="0.199528"/>
		<polygon points="589,399 592,394 581,401 576,407 577,411 578,409" fill="rgb(97.3093%, 92.0231%, 88.829%)" fill-rule="evenodd" fill-opacity="0.198801"/>
		<polygon points="636,544 640,543 638,527 637,513 640,494 625,437 614,425 602,425 598,420 594,418 582,430 581,439 593,462 599,470 612,492 616,501 615,508 617,513 619,516 621,525" fill="rgb(85.554%, 47.4301%, 38.5528%)" fill-rule="evenodd" fill-opacity="0.122544"/>
		<polygon points="625,516 632,531 635,531 638,536 637,539 639,543 634,519 635,518 644,527 646,525 641,522 635,512" fill="rgb(29.2129%, 25.5095%, 26.0149%)" fill-rule="evenodd" fill-opacity="0.284528"/>
		<polygon points="573,412 574,408 578,405 577,409 595,392 607,386 590,418 588,414 580,415" fill="rgb(39.5607%, 26.4618%, 22.9955%)" fill-rule="evenodd" fill-opacity="0.191301"/>
		<polygon points="628,478 627,484 636,497 627,497 620,487 619,474 596,416 599,410 615,424 625,440" fill="rgb(40.0267%, 26.2971%, 22.202%)" fill-rule="evenodd" fill-opacity="0.301919"/>
		<polygon points="642,510 647,517 651,522 649,522 639,511" fill="rgb(60.5649%, 54.9523%, 54.8409%)" fill-rule="evenodd" fill-opacity="0.142406"/>
		<polygon points="640,543 641,538 631,521 637,543" fill="rgb(61.5817%, 53.0639%, 43.6637%)" fill-rule="evenodd" fill-opacity="0.142453"/>
		<polygon points="637,537 634,539 636,543 639,541" fill="rgb(97.321%, 85.5624%, 77.0432%)" fill-rule="evenodd" fill-opacity="0.264137"/>
		<polygon points="651,496 652,500 656,499" fill="rgb(29.1013%, 21.7191%, 37.8407%)" fill-rule="evenodd" fill-opacity="0.226677"/>
		<polygon points="650,495 650,501 656,502 656,499 651,495" fill="rgb(36.3271%, 25.7293%, 17.0291%)" fill-rule="evenodd" fill-opacity="0.432770"/>
		<polygon points="607,451 605,448 601,443 602,436 607,440 610,444 611,449" fill="rgb(7.67705%, 5.52502%, 4.66167%)" fill-rule="evenodd" fill-opacity="0.285307"/>
	</g>
	<g id="G16">
		<polygon points="297,473 298,481 310,494 321,488 328,490 326,489 333,491 342,501 347,506 354,517 362,511 354,501 346,491 334,482 329,481 323,483 330,487 315,484 311,476 307,473 303,468 297,469" fill="rgb(58.5381%, 27.1609%, 22.1163%)" fill-rule="evenodd" fill-opacity="0.119553"/>
		<polygon points="345,491 337,484 338,485 333,481 322,470 326,480 321,481 323,483 335,488 345,496 350,505 355,504" fill="rgb(42.3963%, 44.842%, 42.0733%)" fill-rule="evenodd" fill-opacity="0.477684"/>
		<polygon points="368,500 356,503 351,499 353,499 342,488 338,483 329,479 323,469 319,469 316,466 324,480 320,481 313,480 308,474 306,478 316,491 309,494 328,523 386,529" fill="rgb(65.6753%, 29.8951%, 17.2763%)" fill-rule="evenodd" fill-opacity="0.100000"/>
		<polygon points="342,497 330,487 312,483 306,478 300,475 300,472 297,471 305,466 312,466 314,468 318,467 320,468 356,502 360,502 368,498 364,505 362,510 360,509 355,513 354,512" fill="rgb(60.0934%, 42.2125%, 36.0998%)" fill-rule="evenodd" fill-opacity="0.316521"/>
		<polygon points="310,521 309,523 330,524 385,529 384,532 386,532 389,538 390,543 380,558 378,556 378,558 375,561 360,558 338,552 323,554 300,556 297,552 292,550 291,543 288,541 289,521" fill="rgb(39.6931%, 21.4884%, 17.3487%)" fill-rule="evenodd" fill-opacity="0.199784"/>
		<polygon points="287,534 295,547 300,554 311,548 304,547 296,552 307,537 292,537 293,529 299,525 298,521 297,519 291,520 289,528 287,530" fill="rgb(70.7089%, 51.198%, 30.0556%)" fill-rule="evenodd" fill-opacity="0.241498"/>
		<polygon points="343,489 340,488 341,490 352,502 351,508 358,502 362,502 360,504 358,505 345,493" fill="rgb(80.6477%, 66.158%, 56.5195%)" fill-rule="evenodd" fill-opacity="0.270727"/>
		<polygon points="300,544 301,542 307,543 306,544 295,544 293,548 299,547" fill="rgb(79.1183%, 65.4267%, 59.4003%)" fill-rule="evenodd" fill-opacity="0.283586"/>
		<polygon points="376,515 379,518 384,527 388,540" fill="rgb(69.1518%, 60.2764%, 36.5409%)" fill-rule="evenodd" fill-opacity="0.264314"/>
		<polygon points="314,470 319,471 313,468 307,471 304,468 313,466 321,466 319,466 323,471" fill="rgb(100%, 83.6169%, 62.8564%)" fill-rule="evenodd" fill-opacity="0.227309"/>
		<polygon points="324,525 330,523 323,530 314,531 308,539 305,533 297,530 287,532 309,531 309,529 308,528 304,528 303,522 322,524 311,527 315,529" fill="rgb(67.1695%, 48.5391%, 31.8369%)" fill-rule="evenodd" fill-opacity="0.127404"/>
		<polygon points="302,548 302,549 299,551 299,554 306,549" fill="rgb(93.474%, 96.0818%, 87.3679%)" fill-rule="evenodd" fill-opacity="0.203020"/>
		<polygon points="294,532 294,533 288,534 288,530 289,530 299,529 307,534 305,534" fill="rgb(98.2937%, 80.1185%, 63.9975%)" fill-rule="evenodd" fill-opacity="0.282667"/>
		<polygon points="331,480 326,481 325,483 327,482 336,487 344,492 339,485" fill="rgb(64.393%, 46.9883%, 42.4819%)" fill-rule="evenodd" fill-opacity="0.442398"/>
		<polygon points="363,513 369,502 368,499 367,499 353,503 344,495 334,484 325,474 321,481 310,469 311,472 333,495 341,506 345,508 356,522" fill="rgb(27.1356%, 19.9004%, 19.8234%)" fill-rule="evenodd" fill-opacity="0.269224"/>
		<polygon points="367,501 361,502 365,500" fill="rgb(66.1838%, 54.0127%, 31.2322%)" fill-rule="evenodd" fill-opacity="0.292462"/>
		<polygon points="309,475 309,474 307,474 306,472 302,469 299,470 298,474" fill="rgb(94.7903%, 76.5955%, 61.7929%)" fill-rule="evenodd" fill-opacity="0.316644"/>
		<polygon points="353,502 354,505 354,502 365,501 359,508" fill="rgb(67.2789%, 61.1405%, 50.8257%)" fill-rule="evenodd" fill-opacity="0.187031"/>
		<polygon points="315,481 316,483 310,485 316,485 321,487 319,481 319,480" fill="rgb(31.2562%, 27.0815%, 25.3165%)" fill-rule="evenodd" fill-opacity="0.268853"/>
		<polygon points="295,536 298,536 300,538 298,538 293,541 292,541 290,538" fill="rgb(71.3368%, 69.6226%, 54.9212%)" fill-rule="evenodd" fill-opacity="0.320180"/>
		<polygon points="326,523 309,522 304,520 292,519 290,523 291,526 300,524 316,529 329,523" fill="rgb(97.13%, 79.1025%, 72.119%)" fill-rule="evenodd" fill-opacity="0.261311"/>
	</g>
	<g id="G17">
		<polygon points="768,430 771,431 771,433 762,438 759,437 754,437 755,439 752,440 748,438" fill="rgb(61.9316%, 52.6101%, 42.492%)" fill-rule="evenodd" fill-opacity="0.210262"/>
		<polygon points="790,404 783,407 790,405 793,403 799,404 803,407 804,409 803,423 796,412 785,406 778,408 784,403 785,404 786,403" fill="rgb(39.8373%, 24.2651%, 22.1006%)" fill-rule="evenodd" fill-opacity="0.206304"/>
		<polygon points="783,436 783,436 769,430 768,430 744,440 742,439 746,442 747,444 751,447" fill="rgb(67.827%, 50.0604%, 37.742%)" fill-rule="evenodd" fill-opacity="0.199799"/>
		<polygon points="764,425 764,426 762,423 764,423 762,418 758,419 756,421 750,417 746,418 746,423 741,423 744,424 747,424" fill="rgb(76.0068%, 70.4101%, 65.7889%)" fill-rule="evenodd" fill-opacity="0.117711"/>
		<polygon points="821,415 818,415 814,417 808,417 808,417 812,413 828,412" fill="rgb(41.3576%, 54.6766%, 56.3545%)" fill-rule="evenodd" fill-opacity="0.281489"/>
		<polygon points="823,444 822,440 826,428 830,434 827,433 828,433 831,439 831,439 832,437 834,442 829,445" fill="rgb(51.2101%, 53.6074%, 46.815%)" fill-rule="evenodd" fill-opacity="0.362451"/>
		<polygon points="837,400 822,397 822,403 822,400 817,396 817,395 831,395" fill="rgb(90.7821%, 77.3585%, 60.2619%)" fill-rule="evenodd" fill-opacity="0.132471"/>
		<polygon points="821,402 820,400 820,402 822,405 822,407 824,406" fill="rgb(71.0527%, 81.4247%, 91.9859%)" fill-rule="evenodd" fill-opacity="0.177598"/>
		<polygon points="784,403 798,396 799,396 803,395 816,395 786,405 785,406 785,406 781,411 783,412 774,429 775,416" fill="rgb(98.3835%, 73.6926%, 59.4147%)" fill-rule="evenodd" fill-opacity="0.127696"/>
		<polygon points="846,413 837,400 817,396 811,402 813,406 810,414 798,430 799,437 803,437 804,437 802,440 805,442 814,440 821,447 822,447 834,444 843,435" fill="rgb(51.8739%, 40.6315%, 35.3973%)" fill-rule="evenodd" fill-opacity="0.222575"/>
		<polygon points="744,424 768,425 766,418 770,411 773,411 771,410 761,411 749,412 746,416 743,426" fill="rgb(57.6102%, 42.7715%, 34.115%)" fill-rule="evenodd" fill-opacity="0.304591"/>
		<polygon points="740,437 742,438 746,439 741,441 770,429 769,430 768,425 741,424" fill="rgb(85.5718%, 66.5344%, 58.5444%)" fill-rule="evenodd" fill-opacity="0.321789"/>
		<polygon points="800,438 799,428 803,423 805,422 810,419 825,416 829,412 830,410 817,395 770,411 766,418 767,425 769,430 794,441" fill="rgb(53.1422%, 38.2883%, 31.7717%)" fill-rule="evenodd" fill-opacity="0.271834"/>
		<polygon points="820,419 824,417 831,416 837,416 832,400 817,395 822,404 816,403 816,408 822,412 824,413 805,418 801,423 814,422 814,421" fill="rgb(22.6888%, 20.9536%, 19.6533%)" fill-rule="evenodd" fill-opacity="0.215221"/>
		<polygon points="834,439 830,432 824,430 822,433 820,426 817,422 820,419 820,426 818,425 818,424 807,426 808,427 811,427 815,430 817,434 812,438" fill="rgb(30.8983%, 30.9773%, 16.4923%)" fill-rule="evenodd" fill-opacity="0.119457"/>
		<polygon points="752,447 752,448 757,450 753,449 770,450 776,449 781,446 794,446 794,441 787,438 783,436" fill="rgb(60.5387%, 41.368%, 31.2784%)" fill-rule="evenodd" fill-opacity="0.224186"/>
		<polygon points="836,427 842,437 843,436 838,438 835,442 825,446 816,447 816,446 804,448 794,447 793,441 808,434 815,442 817,442 820,439 822,427 826,424" fill="rgb(48.9543%, 39.7801%, 32.0336%)" fill-rule="evenodd" fill-opacity="0.245557"/>
		<polygon points="798,431 795,422 795,420 798,422 798,421" fill="rgb(50.1892%, 46.3178%, 46.1023%)" fill-rule="evenodd" fill-opacity="0.505108"/>
		<polygon points="826,432 829,432 829,430 834,428 836,430 835,434 823,433 825,436 825,436 828,440" fill="rgb(4.39535%, 6.37623%, 3.8131%)" fill-rule="evenodd" fill-opacity="0.237414"/>
		<polygon points="747,442 746,443 744,440 740,436 741,435 750,437 763,436 766,433 768,432 768,431 772,430 765,419 761,419 763,432 772,430 773,435 771,440 753,441" fill="rgb(20.5173%, 15.2223%, 12.2259%)" fill-rule="evenodd" fill-opacity="0.513364"/>
		<polygon points="756,424 752,422 754,426 746,427 746,426 741,426 747,434 759,432 758,429 756,430" fill="rgb(34.9476%, 30.5977%, 24.9995%)" fill-rule="evenodd" fill-opacity="0.264895"/>
		<polygon points="819,445 816,443 810,441 799,445 792,447 796,445 786,443 789,442 792,443 794,433 799,438 803,441 802,447" fill="rgb(38.9451%, 22.5623%, 19.3351%)" fill-rule="evenodd" fill-opacity="0.184934"/>
		<polygon points="750,436 751,436 751,435 748,435 743,434 744,433 740,430 740,431 742,427 742,425 743,426 744,425 757,429" fill="rgb(45.1757%, 36.0364%, 35.2247%)" fill-rule="evenodd" fill-opacity="0.134427"/>
		<polygon points="805,407 813,412 812,407" fill="rgb(39.6553%, 57.5996%, 43.2691%)" fill-rule="evenodd" fill-opacity="0.138495"/>
	</g>
	<g id="G18">
		<polygon points="181,211 180,209 182,192 178,179 168,168 160,168 171,201" fill="rgb(94.5186%, 81.6138%, 61.4447%)" fill-rule="evenodd" fill-opacity="0.501642"/>
		<polygon points="181,213 161,194 171,189 172,186 179,185 183,202 175,194 178,202 182,207 202,215 268,251 273,253 295,255 266,247 263,251 251,244 235,245" fill="rgb(55.9341%, 51.8807%, 38.151%)" fill-rule="evenodd" fill-opacity="0.222817"/>
		<polygon points="235,240 191,211 250,241 277,250 293,252 316,254 347,248 340,254 331,256 326,259 300,257 284,257 267,252 254,249" fill="rgb(79.5124%, 60.0323%, 39.488%)" fill-rule="evenodd" fill-opacity="0.303632"/>
		<polygon points="253,245 259,246 222,229 220,224 191,211 168,211 183,218 195,218 259,250" fill="rgb(96.0098%, 81.9208%, 65.2964%)" fill-rule="evenodd" fill-opacity="0.189655"/>
		<polygon points="273,253 268,255 254,254 255,253 250,252 248,248 241,250 241,245 223,235 231,238" fill="rgb(31.144%, 14.8025%, 8.16743%)" fill-rule="evenodd" fill-opacity="0.220744"/>
		<polygon points="254,256 284,266 287,265 276,258 312,260 332,259 300,257 301,258 325,255 303,253 253,244 235,245" fill="rgb(58.1202%, 53.8985%, 34.3796%)" fill-rule="evenodd" fill-opacity="0.164883"/>
		<polygon points="235,236 195,217 183,215 169,206 168,203 164,200 212,221" fill="rgb(100%, 91.3484%, 71.1714%)" fill-rule="evenodd" fill-opacity="0.294674"/>
		<polygon points="181,207 181,211 168,210 162,205 161,193 163,174 180,204 180,197 181,186" fill="rgb(23.1995%, 19.1443%, 16.2281%)" fill-rule="evenodd" fill-opacity="0.595732"/>
		<polygon points="346,245 334,250 334,252 323,253 284,252 254,245 287,265 308,268 324,272 333,270 350,254" fill="rgb(75.0332%, 53.6012%, 30.3688%)" fill-rule="evenodd" fill-opacity="0.151494"/>
		<polygon points="170,168 160,169 163,172 167,171 181,195 176,176" fill="rgb(94.6564%, 83.8321%, 64.2135%)" fill-rule="evenodd" fill-opacity="0.216821"/>
		<polygon points="163,168 160,168 162,181" fill="rgb(22.2079%, 19.8738%, 22.4162%)" fill-rule="evenodd" fill-opacity="0.436977"/>
	</g>
	<g id="G19">
		<polygon points="701,358 702,356 707,362 710,363 718,369 715,362 711,360 709,359 704,346 707,343 707,347 709,345 707,337 716,349 715,356 718,359 720,364 715,374 708,374 709,377 702,377 697,369 699,353" fill="rgb(94.4506%, 52.5532%, 29.347%)" fill-rule="evenodd" fill-opacity="0.224656"/>
		<polygon points="701,323 701,323 700,309 700,303 698,299 686,299 687,307 685,312 680,321 683,325 683,323 682,321 683,318 684,317 689,324 693,332 701,330 703,329 704,328" fill="rgb(90.1784%, 50.3782%, 34.1021%)" fill-rule="evenodd" fill-opacity="0.190936"/>
		<polygon points="687,339 689,342 689,343 674,344 673,356 674,357 675,360 684,360 681,361 690,362 694,365 697,368 699,351 696,329" fill="rgb(89.0149%, 41.6433%, 34.6888%)" fill-rule="evenodd" fill-opacity="0.158410"/>
		<polygon points="716,357 721,364 720,367 719,368 712,359 712,356 713,353 713,345 712,345 713,344 716,348" fill="rgb(65.1485%, 64.396%, 68.3592%)" fill-rule="evenodd" fill-opacity="0.310176"/>
		<polygon points="695,343 695,347 700,356 700,354 697,337 694,326 694,332 693,331 684,317 685,316 690,318 687,315 685,312 670,335 671,340 674,344" fill="rgb(41.971%, 22.6866%, 16.6571%)" fill-rule="evenodd" fill-opacity="0.374379"/>
		<polygon points="705,371 706,369 708,365 702,356 708,347 712,342 716,349 715,357 721,365 717,372 714,377 710,377" fill="rgb(69.4276%, 45.0196%, 26.0753%)" fill-rule="evenodd" fill-opacity="0.383864"/>
		<polygon points="688,303 687,303 688,299 690,302 688,303" fill="rgb(27.2851%, 59.2427%, 72.5815%)" fill-rule="evenodd" fill-opacity="0.210433"/>
		<polygon points="715,376 703,377 704,374" fill="rgb(69.0566%, 58.6244%, 59.3602%)" fill-rule="evenodd" fill-opacity="0.172857"/>
		<polygon points="715,372 713,368 716,367 716,367 717,367 718,368 717,371 715,373" fill="rgb(75.7823%, 70.1264%, 76.7716%)" fill-rule="evenodd" fill-opacity="0.148233"/>
		<polygon points="710,322 707,335 703,330 698,331 701,327 696,324 700,325 699,323 700,321 700,301 703,306 705,310" fill="rgb(86.8394%, 65.3216%, 52.7494%)" fill-rule="evenodd" fill-opacity="0.215571"/>
		<polygon points="700,370 698,371 699,373 701,372 702,373 700,373 701,375 702,373 705,372 708,366 705,360 704,367" fill="rgb(96.0216%, 65.1883%, 32.9605%)" fill-rule="evenodd" fill-opacity="0.127938"/>
		<polygon points="694,301 690,298 692,301" fill="rgb(76.6191%, 84.1925%, 59.4236%)" fill-rule="evenodd" fill-opacity="0.189701"/>
		<polygon points="686,300 686,303 690,308 692,305 695,306 692,301 703,307 698,300 696,297 695,297 692,300 690,299 690,300" fill="rgb(78.9719%, 65.9966%, 54.8693%)" fill-rule="evenodd" fill-opacity="0.117934"/>
		<polygon points="704,309 703,311 707,318 708,315 707,315 706,313 705,314 706,311" fill="rgb(64.183%, 79.1666%, 94.6155%)" fill-rule="evenodd" fill-opacity="0.192698"/>
		<polygon points="690,311 687,313 686,315 684,315 687,307 687,307 689,310" fill="rgb(65.2253%, 67.8815%, 61.7862%)" fill-rule="evenodd" fill-opacity="0.128979"/>
		<polygon points="697,337 695,325 695,326 697,324 700,323 704,326 702,330 705,333" fill="rgb(87.9092%, 47.3497%, 28.725%)" fill-rule="evenodd" fill-opacity="0.272439"/>
		<polygon points="715,375 716,372 717,371 720,365 719,364 718,359 715,357 716,367 712,363 711,368 714,377 714,377 711,375" fill="rgb(56.6838%, 50.0961%, 53.2099%)" fill-rule="evenodd" fill-opacity="0.270925"/>
		<polygon points="697,337 705,333 708,336 712,342 704,353 700,358" fill="rgb(93.0975%, 46.0229%, 22.8384%)" fill-rule="evenodd" fill-opacity="0.300972"/>
		<polygon points="708,318 709,321 709,325 709,324" fill="rgb(53.5904%, 72.8824%, 54.1653%)" fill-rule="evenodd" fill-opacity="0.212907"/>
		<polygon points="703,325 702,329 700,331 701,327 698,324 701,324 702,324" fill="rgb(92.5075%, 91.8823%, 90.8485%)" fill-rule="evenodd" fill-opacity="0.257237"/>
		<polygon points="694,364 689,349 681,344 690,343 692,342 698,344 700,354 701,359 698,358 697,369 692,365" fill="rgb(40.1346%, 18.7242%, 8.31085%)" fill-rule="evenodd" fill-opacity="0.214589"/>
		<polygon points="702,330 703,326 701,325 698,323 699,325 701,327 701,330" fill="rgb(100%, 100%, 84.4922%)" fill-rule="evenodd" fill-opacity="0.239690"/>
		<polygon points="710,324 708,324 708,319 708,320 707,321 709,321 710,320 709,325" fill="rgb(34.4352%, 65.8985%, 81.592%)" fill-rule="evenodd" fill-opacity="0.176755"/>
		<polygon points="696,325 696,328 696,328 697,330 698,331 701,330 700,330 697,328 700,323" fill="rgb(95.0342%, 87.8108%, 68.5512%)" fill-rule="evenodd" fill-opacity="0.353763"/>
		<polygon points="716,366 717,367 718,369 719,370 719,368 722,366" fill="rgb(26.6664%, 18.2946%, 18.1751%)" fill-rule="evenodd" fill-opacity="0.244706"/>
		<polygon points="712,358 713,355 713,345 707,363" fill="rgb(65.1597%, 51.5982%, 32.0416%)" fill-rule="evenodd" fill-opacity="0.150850"/>
		<polygon points="675,352 675,354 676,359 675,361 674,358 673,352 674,350" fill="rgb(80.3975%, 83.6784%, 66.01%)" fill-rule="evenodd" fill-opacity="0.135246"/>
		<polygon points="700,326 700,328 701,327 701,329 702,327 699,327" fill="rgb(50.0952%, 39.9729%, 40.0841%)" fill-rule="evenodd" fill-opacity="0.212328"/>
	</g>
</svg>