<?xml version="1.0" encoding="UTF-8" standalone="no"?>
<svg xmlns:svg="http://www.w3.org/2000/svg" xmlns="http://www.w3.org/2000/svg" width="1024" height="667">
	<rect width = "1024" height="667" fill="rgb(0%, 0%, 0%)"/>
	<g id="G0">
		<polygon points="481,229 506,234 527,229 538,198 450,179 413,185 415,177 560,54 319,118 194,147 166,215 54,214 3,119 2,364 117,329 252,358 266,346 348,359 329,320 335,297 341,246 394,231" fill="rgb(60.1984%, 70.1912%, 82.23%)" fill-rule="evenodd" fill-opacity="0.112353"/>
		<polygon points="36,39 59,40 86,65 81,109 138,138 57,146 0,149 0,0" fill="rgb(56.8109%, 74.9021%, 56.7062%)" fill-rule="evenodd" fill-opacity="0.112770"/>
		<polygon points="933,89 868,115 895,120 783,155 730,173 755,146 792,126 832,109 822,78 837,30 874,31 1019,3 1024,73" fill="rgb(63.567%, 50.4385%, 51.3576%)" fill-rule="evenodd" fill-opacity="0.229272"/>
		<polygon points="817,326 729,341 697,301 692,286 615,212 858,131 880,121 883,65 867,50 825,86 827,38 864,21 896,57 876,114 908,95 1019,73 1024,350" fill="rgb(75.5161%, 82.611%, 80.2883%)" fill-rule="evenodd" fill-opacity="0.354550"/>
		<polygon points="1016,216 1014,272 1021,341 704,329 703,292" fill="rgb(84.929%, 99.9648%, 90.8282%)" fill-rule="evenodd" fill-opacity="0.264944"/>
		<polygon points="621,0 1024,0 1024,361 978,331 954,345 871,342 798,321 758,334 717,338 693,273 622,233 557,199 513,225 448,224 360,226" fill="rgb(51.1859%, 75.8436%, 88.2253%)" fill-rule="evenodd" fill-opacity="0.436687"/>
		<polygon points="326,366 281,348 217,347 187,319 248,311 329,308 337,355" fill="rgb(62.5823%, 74.5004%, 69.4715%)" fill-rule="evenodd" fill-opacity="0.191773"/>
		<polygon points="287,0 262,8 78,54 199,215 276,249 339,249 423,171 621,0" fill="rgb(36.5029%, 74.5565%, 92.8349%)" fill-rule="evenodd" fill-opacity="0.320554"/>
		<polygon points="824,81 878,96 888,60 881,27 831,29" fill="rgb(100%, 98.6306%, 77.0007%)" fill-rule="evenodd" fill-opacity="0.411692"/>
		<polygon points="417,89 497,4 530,0 566,3 614,1 592,30 534,66" fill="rgb(65.7499%, 64.059%, 55.5734%)" fill-rule="evenodd" fill-opacity="0.107372"/>
		<polygon points="0,372 93,332 129,344 194,341 334,369 334,273 284,264 262,268 215,255 148,281 122,283 90,269 66,272 45,261 4,211" fill="rgb(72.7899%, 74.4684%, 86.2481%)" fill-rule="evenodd" fill-opacity="0.129638"/>
		<polygon points="990,281 878,285 713,315 699,312 701,284 684,297 1024,214" fill="rgb(8.29206%, 25.5861%, 31.114%)" fill-rule="evenodd" fill-opacity="0.152764"/>
		<polygon points="822,53 820,60 838,96 863,102 885,84 883,37 845,32" fill="rgb(100%, 100%, 96.7176%)" fill-rule="evenodd" fill-opacity="0.600000"/>
		<polygon points="333,363 171,332 147,346 90,326 41,361 0,372 0,150 137,140 156,156 165,210 274,267 331,274" fill="rgb(43.0398%, 72.0304%, 84.8715%)" fill-rule="evenodd" fill-opacity="0.405812"/>
		<polygon points="600,216 720,178 748,159 661,163 712,130 666,130 630,137 619,155 547,187" fill="rgb(37.7841%, 57.9536%, 67.3487%)" fill-rule="evenodd" fill-opacity="0.157127"/>
		<polygon points="437,161 377,212 372,232 344,250 321,256 271,249 264,250 179,206" fill="rgb(26.7946%, 44.1944%, 53.331%)" fill-rule="evenodd" fill-opacity="0.282529"/>
		<polygon points="465,134 469,161 496,157 504,145 539,108 578,104 630,88 696,33 792,0 619,0" fill="rgb(0.979199%, 21.187%, 19.8091%)" fill-rule="evenodd" fill-opacity="0.129167"/>
		<polygon points="0,0 278,0 263,8 79,54 141,139 0,151" fill="rgb(27.633%, 49.1172%, 65.7751%)" fill-rule="evenodd" fill-opacity="0.413824"/>
		<polygon points="459,181 564,207 668,267 730,255 840,172 920,174 925,148 951,140 959,166 919,170 859,183 825,210 945,208 1024,159 1024,43 963,34 934,46 787,146 812,130 855,113 813,49" fill="rgb(29.4732%, 41.3616%, 48.2668%)" fill-rule="evenodd" fill-opacity="0.246138"/>
		<polygon points="875,93 923,51 1001,30 1024,78 1024,125 955,128 932,117 813,171 737,196 731,200 644,240 627,232 580,198 804,87" fill="rgb(29.652%, 41.9905%, 47.3239%)" fill-rule="evenodd" fill-opacity="0.470410"/>
		<polygon points="719,331 697,330 725,343 765,341 821,325" fill="rgb(26.0192%, 29.4361%, 32.0617%)" fill-rule="evenodd" fill-opacity="0.360181"/>
		<polygon points="257,334 283,325 287,315 255,304 215,325" fill="rgb(20.2456%, 30.2996%, 49.266%)" fill-rule="evenodd" fill-opacity="0.114822"/>
	</g>
	<g id="G1">
		<polygon points="6,613 0,575 82,554 109,569 109,574 179,577 220,584 222,581 304,602 322,617 327,617 295,603 418,645 411,661 414,661 0,662" fill="rgb(86.5914%, 74.0343%, 61.0233%)" fill-rule="evenodd" fill-opacity="0.317635"/>
		<polygon points="709,620 755,631 752,666 504,664 407,628 380,621 349,608 535,638 544,597 606,563 630,582 685,519 712,526 692,551 696,583" fill="rgb(67.0099%, 32.2788%, 22.154%)" fill-rule="evenodd" fill-opacity="0.212691"/>
		<polygon points="107,572 188,579 247,588 155,590 88,613 215,616 215,647 186,661 246,656 307,654 282,608 345,607 457,647 490,662 494,665 430,663 633,663 546,652 532,650 538,655 455,634 415,623 376,600 306,571 89,549" fill="rgb(89.9402%, 85.9818%, 55.0607%)" fill-rule="evenodd" fill-opacity="0.162560"/>
		<polygon points="70,561 136,534 212,488 296,463 292,559 321,605 270,615 216,615 213,656 126,663 201,664 2,664 0,578" fill="rgb(87.455%, 75.289%, 56.6398%)" fill-rule="evenodd" fill-opacity="0.506031"/>
		<polygon points="295,514 278,529 246,545 346,561 357,565 402,554 425,576 439,615 475,622 561,626 688,628 760,649 757,667 441,667 141,659 160,667 185,641 126,623 92,630 290,626 285,614 242,602 74,599 35,581 0,574 141,533" fill="rgb(49.2709%, 41.2285%, 30.6372%)" fill-rule="evenodd" fill-opacity="0.365655"/>
		<polygon points="11,662 0,652 0,627 14,612 72,632 178,642 281,633 338,645 350,657 225,661 303,665" fill="rgb(98.0922%, 98.4316%, 81.9078%)" fill-rule="evenodd" fill-opacity="0.156507"/>
		<polygon points="203,494 208,492 265,478 265,481 270,472 323,464 359,505 364,483 397,483 407,485 564,433 555,436 569,434 566,431 529,427 477,434 390,446 362,446 341,444 344,443 257,474 206,487" fill="rgb(31.3166%, 29.7726%, 24.0248%)" fill-rule="evenodd" fill-opacity="0.494083"/>
		<polygon points="498,661 364,615 345,605 288,609 299,607 277,614 115,615 0,591 0,667 382,667" fill="rgb(99.6438%, 86.1537%, 63.7655%)" fill-rule="evenodd" fill-opacity="0.410793"/>
		<polygon points="445,583 455,583 485,599 545,594 533,639 582,636 718,643 755,656 760,663 582,667 399,667 493,660 301,592 384,596 434,605 426,574" fill="rgb(80.7334%, 57.3707%, 28.4106%)" fill-rule="evenodd" fill-opacity="0.160256"/>
		<polygon points="109,614 213,615 216,627 214,625 213,633 95,622 66,620 50,617 28,605 7,607 0,592 0,592" fill="rgb(3.10792%, 13.7983%, 0.531278%)" fill-rule="evenodd" fill-opacity="0.127750"/>
		<polygon points="474,456 403,481 370,491 354,504 315,464 318,444 382,432 429,415 469,419 485,418 517,411 558,411 576,420 583,442 571,447 563,444 554,448 503,446" fill="rgb(94.7614%, 56.5783%, 33.0281%)" fill-rule="evenodd" fill-opacity="0.383206"/>
		<polygon points="330,441 348,431 378,437 372,434 325,441" fill="rgb(80.768%, 39.6216%, 29.8826%)" fill-rule="evenodd" fill-opacity="0.236622"/>
		<polygon points="336,596 299,569 324,612 324,620 412,649 453,645 499,667 531,662 521,656 490,648 479,649 403,623 384,611" fill="rgb(54.5404%, 47.2094%, 35.2068%)" fill-rule="evenodd" fill-opacity="0.355020"/>
		<polygon points="509,631 513,640 431,622 420,602 472,616 523,615 511,631 511,644 518,644 760,646 747,632 714,630 677,624 685,622 528,616" fill="rgb(26.6429%, 13.0785%, 2.82546%)" fill-rule="evenodd" fill-opacity="0.293260"/>
		<polygon points="614,611 625,608 657,602 684,599 722,630 478,623 425,612 583,606" fill="rgb(55.389%, 34.9304%, 34.6218%)" fill-rule="evenodd" fill-opacity="0.100000"/>
		<polygon points="149,522 106,541 95,547 96,550 111,549 219,493 226,493 238,495 272,492 286,533 313,515 299,484 302,473 332,466 318,449 196,490" fill="rgb(32.2704%, 24.8593%, 16.6406%)" fill-rule="evenodd" fill-opacity="0.413930"/>
		<polygon points="360,439 424,417 424,412 512,455 588,446 584,433 543,420 435,411 424,411" fill="rgb(49.4542%, 27.072%, 15.7652%)" fill-rule="evenodd" fill-opacity="0.273708"/>
		<polygon points="299,481 312,498 323,521 302,525 305,515 309,513 296,524" fill="rgb(72.8769%, 55.8197%, 37.0322%)" fill-rule="evenodd" fill-opacity="0.245900"/>
		<polygon points="379,438 401,435 422,433 477,433 385,448 323,444 351,424" fill="rgb(64.2962%, 50.6669%, 39.7833%)" fill-rule="evenodd" fill-opacity="0.150621"/>
		<polygon points="276,514 281,574 303,597 278,600 324,633 333,632 365,637 404,648 340,666 506,665 760,661 595,649 590,633 494,631 467,625 482,630 389,602 453,599 374,583 314,570 284,530" fill="rgb(46.3207%, 31.6594%, 15.6922%)" fill-rule="evenodd" fill-opacity="0.233680"/>
		<polygon points="6,625 34,633 81,641 147,648 128,657 113,660 4,658" fill="rgb(95.0895%, 85.6417%, 71.2226%)" fill-rule="evenodd" fill-opacity="0.337765"/>
		<polygon points="410,485 426,480 420,477 439,473 490,442 373,465 363,464 322,473 332,485 365,492 358,488 393,478" fill="rgb(87.1917%, 56.1536%, 45.9089%)" fill-rule="evenodd" fill-opacity="0.153043"/>
		<polygon points="558,411 556,412 578,417 571,411" fill="rgb(99.9518%, 17.5244%, 41.7432%)" fill-rule="evenodd" fill-opacity="0.112256"/>
	</g>
	<g id="G2">
		<polygon points="49,520 56,519 67,534 55,535 54,533 58,559 97,551 131,534 155,520 176,504 84,528 55,535 58,556 55,560 0,576 3,520" fill="rgb(39.0481%, 36.3572%, 38.0413%)" fill-rule="evenodd" fill-opacity="0.343978"/>
		<polygon points="5,576 0,576 0,418 19,431 70,437 75,435 19,487 50,481 102,479 123,492 206,487 164,517 82,555" fill="rgb(76.7828%, 73.9932%, 48.5437%)" fill-rule="evenodd" fill-opacity="0.274155"/>
		<polygon points="154,481 187,474 212,472 216,469 238,462 247,447 330,439 305,456 227,483 217,482 211,486 135,491" fill="rgb(81.007%, 66.3888%, 29.1594%)" fill-rule="evenodd" fill-opacity="0.136849"/>
		<polygon points="68,437 77,430 87,427 32,428 12,420 6,396 0,416 5,422 23,434" fill="rgb(61.2114%, 39.186%, 29.3019%)" fill-rule="evenodd" fill-opacity="0.138378"/>
		<polygon points="0,575 0,504 57,451 114,429 130,425 146,419 180,419 184,416 236,475 123,539 59,560" fill="rgb(92.2997%, 52.717%, 34.2074%)" fill-rule="evenodd" fill-opacity="0.279529"/>
		<polygon points="336,431 324,414 290,416 259,414 256,410 210,407 233,414 186,418 240,480 329,444" fill="rgb(73.0112%, 39.3772%, 21.5314%)" fill-rule="evenodd" fill-opacity="0.369107"/>
		<polygon points="313,396 328,411 337,439 295,462 226,481 222,472 240,466 265,460 305,445 272,442 293,434 326,431 245,417 289,398" fill="rgb(35.36%, 25.215%, 14.1505%)" fill-rule="evenodd" fill-opacity="0.460133"/>
		<polygon points="189,497 170,514 145,531 122,540 113,431 65,446 69,437 72,432 118,421 73,420 0,415 87,411 139,411 180,408 218,402 215,426 204,425 166,433 121,431 106,457 248,443 242,458 309,452" fill="rgb(51.3345%, 44.0725%, 27.1014%)" fill-rule="evenodd" fill-opacity="0.160522"/>
		<polygon points="268,397 168,396 264,422 334,428 324,407" fill="rgb(51.3632%, 65.4217%, 57.0222%)" fill-rule="evenodd" fill-opacity="0.227278"/>
		<polygon points="0,437 2,480 0,484 8,489 20,466 59,446 128,428 141,419 114,419 100,421 10,417" fill="rgb(69.6827%, 83.055%, 72.9007%)" fill-rule="evenodd" fill-opacity="0.228328"/>
		<polygon points="315,396 160,396 188,400 212,404 215,413 171,417 204,423 239,421 245,422 273,407 327,408" fill="rgb(13.9382%, 10.2688%, 6.43285%)" fill-rule="evenodd" fill-opacity="0.345674"/>
		<polygon points="116,534 117,532 63,550 51,552 26,543 27,539 0,540 2,573 26,567 101,546" fill="rgb(76.5712%, 60.3389%, 42.1623%)" fill-rule="evenodd" fill-opacity="0.183680"/>
		<polygon points="47,404 34,402 1,402 0,417 2,422 31,414 65,412" fill="rgb(70.0871%, 46.866%, 30.9839%)" fill-rule="evenodd" fill-opacity="0.109815"/>
		<polygon points="324,409 301,402 269,399 271,396 249,397 242,396 318,399" fill="rgb(24.9177%, 33.8095%, 27.7829%)" fill-rule="evenodd" fill-opacity="0.187618"/>
		<polygon points="0,466 11,450 5,444 32,444 12,481 24,481 2,502" fill="rgb(64.169%, 53.926%, 51.1234%)" fill-rule="evenodd" fill-opacity="0.260618"/>
		<polygon points="230,413 237,415 231,417 261,420 293,427 333,424 329,412 315,410" fill="rgb(29.5698%, 60.5953%, 56.8068%)" fill-rule="evenodd" fill-opacity="0.162032"/>
		<polygon points="249,402 226,404 214,409 143,417 128,429 153,430 177,429 207,421 224,422 249,420 273,407" fill="rgb(29.4876%, 43.4807%, 40.4737%)" fill-rule="evenodd" fill-opacity="0.219419"/>
		<polygon points="78,440 49,458 56,476 83,473 90,476 23,492 0,493 1,482 11,485 18,464 32,457" fill="rgb(54.829%, 10.1629%, 4.97184%)" fill-rule="evenodd" fill-opacity="0.214659"/>
		<polygon points="164,496 165,497 190,491 190,489 205,487 123,491 102,480 69,481 88,503 150,503" fill="rgb(27.6666%, 11.4714%, 0%)" fill-rule="evenodd" fill-opacity="0.243538"/>
		<polygon points="332,422 324,419 272,421 330,427 334,427" fill="rgb(45.8256%, 46.6605%, 43.5617%)" fill-rule="evenodd" fill-opacity="0.407385"/>
		<polygon points="158,396 176,398 247,418 185,426 166,431 147,429 118,434 96,436 65,448 40,455 21,463 0,496 0,396" fill="rgb(48.7487%, 53.6403%, 43.573%)" fill-rule="evenodd" fill-opacity="0.353005"/>
		<polygon points="70,446 55,454 63,460 121,450 216,443 177,463 80,502 22,501 0,499 0,488 17,480 51,448" fill="rgb(28.0697%, 19.7336%, 9.29268%)" fill-rule="evenodd" fill-opacity="0.420393"/>
		<polygon points="133,536 127,534 147,525 150,526" fill="rgb(63.6934%, 53.4454%, 40.2993%)" fill-rule="evenodd" fill-opacity="0.261964"/>
		<polygon points="5,429 24,441 38,439 54,442 72,439 15,429 12,415 0,420" fill="rgb(27.6328%, 30.6479%, 28.4012%)" fill-rule="evenodd" fill-opacity="0.286562"/>
		<polygon points="24,569 15,569 21,571 16,573 30,571" fill="rgb(31.7878%, 41.7102%, 34.2125%)" fill-rule="evenodd" fill-opacity="0.118307"/>
	</g>
	<g id="G3">
		<polygon points="371,419 380,423 385,431 360,429" fill="rgb(76.9892%, 75.0834%, 66.437%)" fill-rule="evenodd" fill-opacity="0.397040"/>
		<polygon points="390,392 388,369 393,381 414,410 435,409 407,416 404,413" fill="rgb(78.623%, 42.9022%, 14.4604%)" fill-rule="evenodd" fill-opacity="0.205824"/>
		<polygon points="365,421 375,420 382,422 384,432 341,429 338,391 336,405" fill="rgb(46.2506%, 33.317%, 22.2435%)" fill-rule="evenodd" fill-opacity="0.289574"/>
		<polygon points="405,406 395,394 393,383 390,373 426,349 397,379" fill="rgb(90.7675%, 63.0567%, 35.6739%)" fill-rule="evenodd" fill-opacity="0.178162"/>
		<polygon points="382,226 366,234 423,233 427,228 473,231 481,227 475,226" fill="rgb(80.0188%, 69.1992%, 61.1039%)" fill-rule="evenodd" fill-opacity="0.259880"/>
		<polygon points="360,420 361,429 352,427 342,403" fill="rgb(65.9556%, 95.4802%, 86.8213%)" fill-rule="evenodd" fill-opacity="0.234601"/>
		<polygon points="376,421 357,419 347,403 350,381 345,380 339,399 349,430 378,434 385,427" fill="rgb(100%, 70.1598%, 42.0778%)" fill-rule="evenodd" fill-opacity="0.368812"/>
		<polygon points="436,226 505,226 456,237 404,230 417,226" fill="rgb(68.0608%, 55.2068%, 44.0575%)" fill-rule="evenodd" fill-opacity="0.272933"/>
		<polygon points="361,375 377,364 379,359 381,361 389,357 365,379 345,387 349,379" fill="rgb(51.4023%, 49.9927%, 39.0382%)" fill-rule="evenodd" fill-opacity="0.506291"/>
		<polygon points="554,394 557,374 558,386 557,416 568,377 569,412 555,409 546,409 546,402" fill="rgb(68.778%, 50.0238%, 32.1635%)" fill-rule="evenodd" fill-opacity="0.256551"/>
		<polygon points="528,231 477,226 469,236 478,234 506,244" fill="rgb(41.7839%, 29.91%, 23.6738%)" fill-rule="evenodd" fill-opacity="0.270832"/>
		<polygon points="547,387 562,384 568,370 569,416 543,396" fill="rgb(73.1529%, 59.5744%, 30.678%)" fill-rule="evenodd" fill-opacity="0.100000"/>
		<polygon points="340,393 340,374 361,374 387,350 387,358 382,360 381,368" fill="rgb(66.6333%, 47.2629%, 27.9488%)" fill-rule="evenodd" fill-opacity="0.278059"/>
		<polygon points="550,382 557,411 559,386 561,369" fill="rgb(100%, 68.7362%, 48.0136%)" fill-rule="evenodd" fill-opacity="0.121665"/>
		<polygon points="353,243 367,236 361,235 346,245 354,256 393,241" fill="rgb(60.6094%, 56.2049%, 46.1128%)" fill-rule="evenodd" fill-opacity="0.117087"/>
		<polygon points="406,347 388,338 382,349 349,385" fill="rgb(44.2855%, 27.4184%, 5.29418%)" fill-rule="evenodd" fill-opacity="0.273431"/>
		<polygon points="516,230 489,233 474,226 485,226" fill="rgb(60.9904%, 76.6434%, 80.9432%)" fill-rule="evenodd" fill-opacity="0.225375"/>
		<polygon points="383,360 410,344 408,344 416,333 428,327 417,316" fill="rgb(85.1841%, 54.4887%, 20.389%)" fill-rule="evenodd" fill-opacity="0.178820"/>
		<polygon points="407,408 433,410 430,415 398,410" fill="rgb(75.3061%, 41.2531%, 21.1583%)" fill-rule="evenodd" fill-opacity="0.210868"/>
		<polygon points="414,323 414,341 404,347 388,337 388,334 398,328 395,304 416,309" fill="rgb(67.5831%, 28.7%, 10.141%)" fill-rule="evenodd" fill-opacity="0.119337"/>
		<polygon points="412,417 431,411 410,406 399,393 398,403" fill="rgb(81.4376%, 67.6205%, 37.8259%)" fill-rule="evenodd" fill-opacity="0.226020"/>
		<polygon points="348,245 344,259 330,276 334,322 343,367 400,424 410,417 410,405 401,397 400,378 435,340 464,266 473,265 493,253 525,254 528,241 535,238 534,228 444,226 370,229" fill="rgb(88.6566%, 45.5639%, 28.2444%)" fill-rule="evenodd" fill-opacity="0.120056"/>
		<polygon points="344,247 350,254 345,262 434,330 421,311 426,300 424,295 423,261 451,267 462,243 350,241" fill="rgb(73.1863%, 48.2523%, 36.3851%)" fill-rule="evenodd" fill-opacity="0.100000"/>
		<polygon points="350,376 350,405 369,435 347,431 336,438 331,423 311,387 311,378 317,374 334,359 339,353" fill="rgb(31.8357%, 16.6583%, 8.68661%)" fill-rule="evenodd" fill-opacity="0.252901"/>
		<polygon points="391,228 429,226 536,227 475,241 424,243 355,241 375,227" fill="rgb(81.4923%, 59.8669%, 34.8543%)" fill-rule="evenodd" fill-opacity="0.307191"/>
		<polygon points="449,337 440,328 426,321 424,324 441,339 460,347 496,347" fill="rgb(48.6889%, 25.9021%, 10.0171%)" fill-rule="evenodd" fill-opacity="0.248445"/>
		<polygon points="520,324 514,328 496,349 519,349 525,369 531,406 567,413 572,369 556,309" fill="rgb(56.8964%, 29.2774%, 19.4543%)" fill-rule="evenodd" fill-opacity="0.173882"/>
		<polygon points="468,347 504,347 500,345 514,327 563,306 564,270 550,252 550,246 532,227 486,239 449,243 425,243 433,247 457,248 460,275 435,339" fill="rgb(69.5576%, 45.1321%, 31.2653%)" fill-rule="evenodd" fill-opacity="0.120818"/>
		<polygon points="350,394 341,398 341,404 346,407 351,405 346,398" fill="rgb(36.6822%, 70.3643%, 86.7632%)" fill-rule="evenodd" fill-opacity="0.113377"/>
	</g>
	<g id="G4">
		<polygon points="885,575 917,524 950,551 945,574 925,557 913,584 841,602" fill="rgb(58.9816%, 46.9981%, 46.4371%)" fill-rule="evenodd" fill-opacity="0.100000"/>
		<polygon points="938,667 854,654 874,649 889,646 904,646 921,647 929,644 933,636 942,637 947,632 964,619 1024,650 1024,667" fill="rgb(46.2714%, 53.5112%, 52.4264%)" fill-rule="evenodd" fill-opacity="0.199897"/>
		<polygon points="1024,667 1024,608 970,614 954,600 840,600 862,620 859,633 776,658 801,666" fill="rgb(100%, 71.4228%, 48.6264%)" fill-rule="evenodd" fill-opacity="0.303485"/>
		<polygon points="989,452 967,429 959,437 963,450" fill="rgb(77.4265%, 66.2959%, 44.2714%)" fill-rule="evenodd" fill-opacity="0.120119"/>
		<polygon points="958,488 962,488 929,502 946,540 954,521 953,537 961,519 965,497" fill="rgb(61.0969%, 60.9587%, 34.385%)" fill-rule="evenodd" fill-opacity="0.136381"/>
		<polygon points="991,474 989,507 1009,546 1014,580 1006,609 1024,610 1024,489 1003,482" fill="rgb(94.208%, 72.7331%, 51.1774%)" fill-rule="evenodd" fill-opacity="0.435370"/>
		<polygon points="971,423 979,423 956,441 952,416" fill="rgb(39.117%, 42.7154%, 29.908%)" fill-rule="evenodd" fill-opacity="0.119125"/>
		<polygon points="910,662 846,662 847,659 820,658 830,650" fill="rgb(62.1987%, 81.0599%, 71.3447%)" fill-rule="evenodd" fill-opacity="0.110098"/>
		<polygon points="948,548 948,589 953,596 956,597 961,605 952,600 866,599 875,590 908,588 914,582 934,540" fill="rgb(80.0571%, 75.2183%, 49.924%)" fill-rule="evenodd" fill-opacity="0.145370"/>
		<polygon points="993,639 954,635 925,634 893,638 858,638 863,620 855,615 831,592 813,582 805,603 787,623 749,629 754,647 761,667 819,665 910,667 958,662 1003,662" fill="rgb(64.2767%, 48.6383%, 34.9851%)" fill-rule="evenodd" fill-opacity="0.274937"/>
		<polygon points="958,458 962,473 933,497 946,451 949,415 987,416 979,425 971,427 979,449" fill="rgb(91.6579%, 56.5002%, 44.5834%)" fill-rule="evenodd" fill-opacity="0.214719"/>
		<polygon points="852,588 876,611 903,606 893,642 883,644 819,646 807,657 801,628 809,617 833,606 837,577" fill="rgb(23.3294%, 14.7659%, 5.91814%)" fill-rule="evenodd" fill-opacity="0.271919"/>
		<polygon points="785,666 789,650 772,646 763,648 752,644 757,662 759,667" fill="rgb(61.0963%, 44.2129%, 21.4254%)" fill-rule="evenodd" fill-opacity="0.188615"/>
		<polygon points="963,514 939,522 931,499 964,471" fill="rgb(90.0516%, 55.2245%, 45.3996%)" fill-rule="evenodd" fill-opacity="0.234929"/>
		<polygon points="1023,514 987,499 995,453 988,455 991,458 978,451 986,448 981,442 983,440 997,446 994,441 1024,444" fill="rgb(27.7696%, 23.0396%, 12.3564%)" fill-rule="evenodd" fill-opacity="0.369133"/>
		<polygon points="791,661 802,661 826,647 863,636 861,620 851,613 854,616 837,633 808,626 769,660 759,666 781,667 811,666 821,667 826,663" fill="rgb(31.9732%, 23.7036%, 13.8235%)" fill-rule="evenodd" fill-opacity="0.359753"/>
		<polygon points="833,579 833,582 841,600 844,604 862,620 859,633 796,653 782,656 774,657 751,644 793,632 823,581" fill="rgb(65.0664%, 23.6533%, 11.4509%)" fill-rule="evenodd" fill-opacity="0.134304"/>
		<polygon points="761,651 753,653 757,651 758,666 779,667 800,667" fill="rgb(98.9581%, 72.8685%, 55.8345%)" fill-rule="evenodd" fill-opacity="0.152381"/>
		<polygon points="939,522 955,517 951,549" fill="rgb(71.7534%, 56.7012%, 45.8257%)" fill-rule="evenodd" fill-opacity="0.389138"/>
		<polygon points="873,625 868,628 921,625 972,639 922,645 920,640 903,639 894,641 859,636 806,651 789,654 804,638 850,613" fill="rgb(39.9031%, 28.0756%, 16.852%)" fill-rule="evenodd" fill-opacity="0.265745"/>
		<polygon points="956,600 944,578 967,490 964,508 942,544 916,521 891,530 871,541 859,543 821,561 813,582 834,594 840,600" fill="rgb(76.8494%, 46.6727%, 37.2208%)" fill-rule="evenodd" fill-opacity="0.264737"/>
		<polygon points="993,475 995,460 981,449 980,450 971,429 986,419 1005,420 1023,419 1024,489 999,481" fill="rgb(72.4303%, 50.8949%, 41.4229%)" fill-rule="evenodd" fill-opacity="0.343253"/>
		<polygon points="872,530 854,538 871,538 863,540 866,542 884,534 893,528" fill="rgb(68.0496%, 50.0102%, 37.1017%)" fill-rule="evenodd" fill-opacity="0.183639"/>
		<polygon points="951,642 954,649 960,643 955,624 965,645 965,638 983,641 1010,666 992,660 985,661 986,638 1019,633 1009,610 971,611 959,626 936,637" fill="rgb(23.3516%, 13.877%, 9.44389%)" fill-rule="evenodd" fill-opacity="0.245111"/>
		<polygon points="844,544 827,548 825,555 826,559 872,538 853,539" fill="rgb(66.6973%, 47.2708%, 35.9623%)" fill-rule="evenodd" fill-opacity="0.176277"/>
		<polygon points="946,557 945,581 934,578 940,562 936,552 951,544" fill="rgb(41.8147%, 32.7069%, 30.7238%)" fill-rule="evenodd" fill-opacity="0.360677"/>
		<polygon points="963,502 936,512 942,534 946,539 960,530" fill="rgb(58.0328%, 45.9744%, 30.9493%)" fill-rule="evenodd" fill-opacity="0.208968"/>
	</g>
	<g id="G5">
		<polygon points="456,517 451,515 460,513 473,507 482,502 449,511 479,488 499,488 521,483 515,480 526,476 563,474 562,472 555,476 571,470 583,478 580,476 586,474 583,480 503,506" fill="rgb(1.66576%, 62.7086%, 100%)" fill-rule="evenodd" fill-opacity="0.503770"/>
		<polygon points="370,506 368,501 363,498 368,487 418,478 486,452 499,453 508,447 524,446 462,459 459,460 458,465 526,470 471,486 518,490 437,527 410,538 397,545 409,541 418,542 421,548 428,549 399,554" fill="rgb(71.3725%, 48.7045%, 46.8278%)" fill-rule="evenodd" fill-opacity="0.282667"/>
		<polygon points="578,541 552,550 542,558 540,558 573,546 584,543 621,520 586,503" fill="rgb(100%, 89.5227%, 63.2266%)" fill-rule="evenodd" fill-opacity="0.427385"/>
		<polygon points="431,530 455,522 494,515 503,508 477,512 466,512 478,505 498,501 569,480 577,479 588,477 586,467 578,468 571,469 544,475 537,474 554,458 551,452 559,449 507,446 475,455 424,477 386,486 365,485 364,495 370,502 380,522 393,548" fill="rgb(55.7014%, 43.9922%, 33.79%)" fill-rule="evenodd" fill-opacity="0.405269"/>
		<polygon points="391,520 387,512 378,514 376,516 394,537 394,535 397,534 425,526 482,515 568,498 570,510 565,523 589,516 581,504 598,509 603,514 620,518 604,477 581,446 509,446 443,466 546,471 412,518" fill="rgb(86.1769%, 67.1365%, 54.7409%)" fill-rule="evenodd" fill-opacity="0.269614"/>
		<polygon points="512,446 552,447 563,446 574,447 570,454 557,469 590,462 584,466 576,471 576,472 584,471 593,469 575,479 404,528 392,534 388,537 373,507 363,486 403,484 431,473 441,468" fill="rgb(100%, 52.3949%, 32.4691%)" fill-rule="evenodd" fill-opacity="0.311516"/>
		<polygon points="603,478 603,490 627,541 602,554 578,557 595,547 581,548 619,530 621,524 582,542 560,550 552,552 603,527 598,524 578,525 513,548 495,539 501,535 501,538 488,523 494,525 530,527 582,515 594,467" fill="rgb(96.8468%, 73.3293%, 42.3773%)" fill-rule="evenodd" fill-opacity="0.221920"/>
		<polygon points="393,552 400,555 404,553 428,576 502,545 465,552 513,538 548,530 588,509 569,505 575,502 569,506 552,514 473,531 478,523 564,503 578,488 534,499 515,490 513,489 502,492 481,488 380,516" fill="rgb(42.0968%, 97.4192%, 100%)" fill-rule="evenodd" fill-opacity="0.218725"/>
		<polygon points="595,462 400,509 379,515 395,549 435,581 457,583 474,590 541,562 565,549 561,550 560,552 577,545" fill="rgb(100%, 87.4273%, 55.5372%)" fill-rule="evenodd" fill-opacity="0.463904"/>
		<polygon points="625,558 638,545 623,527 612,489 608,483 492,516 433,533 398,549 426,546 491,527 497,541 497,540 507,545 492,600" fill="rgb(33.3746%, 25.3767%, 21.6901%)" fill-rule="evenodd" fill-opacity="0.437909"/>
		<polygon points="493,552 479,555 504,542 568,524 574,523 569,519 465,544 412,564 427,577 438,584 451,575 427,581 497,557 548,543 564,537 556,539 567,535 592,523 578,525 594,517 589,523" fill="rgb(100%, 20.5294%, 8.37829%)" fill-rule="evenodd" fill-opacity="0.267690"/>
		<polygon points="586,569 578,572 577,573 629,543 605,548 603,555 561,558 511,580 504,584 501,585 516,583 486,597 524,595 547,592 562,585 576,577" fill="rgb(52.2719%, 27.7772%, 13.6557%)" fill-rule="evenodd" fill-opacity="0.443628"/>
		<polygon points="618,541 631,532 615,535 594,544 579,552 556,561 534,573 529,577 518,582 467,590 452,593 433,606 430,609 432,607 443,601 460,595 476,591 488,599 514,596 547,585" fill="rgb(50.1033%, 82.1363%, 54.9035%)" fill-rule="evenodd" fill-opacity="0.237770"/>
		<polygon points="375,506 373,510 372,508 378,513 467,487 465,487 449,489" fill="rgb(27.7604%, 82.2434%, 57.7022%)" fill-rule="evenodd" fill-opacity="0.240014"/>
		<polygon points="436,603 438,605 431,609 454,595 456,596 458,594 446,594 450,593 449,599 451,600 443,599 438,600" fill="rgb(59.1752%, 96.0361%, 66.1384%)" fill-rule="evenodd" fill-opacity="0.176462"/>
		<polygon points="432,501 379,516 382,520 379,515 385,522 419,511 482,494 550,482 561,474 561,472 537,475 480,488" fill="rgb(99.2712%, 95.375%, 45.8526%)" fill-rule="evenodd" fill-opacity="0.417321"/>
		<polygon points="462,491 502,480 525,473 537,475 549,471 569,461 525,467 459,485 440,492 439,494 429,499 438,499 436,497" fill="rgb(9.2872%, 65.273%, 45.8776%)" fill-rule="evenodd" fill-opacity="0.165752"/>
		<polygon points="367,484 394,483 418,480 461,462 474,456 489,454 459,471 453,473 419,485 416,488 400,489 368,490" fill="rgb(82.6754%, 95.3876%, 64.2627%)" fill-rule="evenodd" fill-opacity="0.344825"/>
		<polygon points="469,569 488,561 509,555 539,546 546,546 527,556 495,572 445,585 434,583 435,583 433,581" fill="rgb(6.63362%, 41.9889%, 69.4554%)" fill-rule="evenodd" fill-opacity="0.356910"/>
		<polygon points="478,584 493,586 486,576 476,594 470,598 467,596 469,597 437,610 436,600 432,603" fill="rgb(95.8973%, 52.861%, 43.2056%)" fill-rule="evenodd" fill-opacity="0.162424"/>
		<polygon points="448,601 443,603 447,602 437,608 440,607 432,603 461,589 477,588" fill="rgb(100%, 79.2188%, 65.4639%)" fill-rule="evenodd" fill-opacity="0.293445"/>
		<polygon points="432,532 404,545 393,545 390,545 391,541 423,528 481,510 496,508 509,507 552,493 584,486 580,492 569,496 555,502 516,513 455,524" fill="rgb(99.4305%, 91.4926%, 14.3113%)" fill-rule="evenodd" fill-opacity="0.143956"/>
		<polygon points="483,588 496,584 494,580 496,583 494,587 496,582 523,570 524,564 512,570 473,585" fill="rgb(88.8842%, 83.1824%, 66.4763%)" fill-rule="evenodd" fill-opacity="0.202251"/>
		<polygon points="584,492 583,498 579,489 553,501 572,501 574,498 579,497 581,490 590,483 604,475 596,488" fill="rgb(15.779%, 67.9919%, 54.9039%)" fill-rule="evenodd" fill-opacity="0.209749"/>
		<polygon points="396,548 409,538 410,538 436,529 450,523 456,524 454,525 458,531 448,534 450,535 443,536 432,540 422,542 407,548" fill="rgb(1.68936%, 44.8247%, 46.9229%)" fill-rule="evenodd" fill-opacity="0.207034"/>
		<polygon points="496,514 456,522 449,532 456,531 472,526 539,511 566,503 552,497 541,503 543,501" fill="rgb(22.1285%, 56.5049%, 51.8528%)" fill-rule="evenodd" fill-opacity="0.276755"/>
		<polygon points="547,481 507,495 492,491 498,502 511,499 528,494 533,490 539,489 540,489 542,487 548,487 550,487 548,488 558,485 551,484 571,480 582,473" fill="rgb(100%, 59.6563%, 40.0442%)" fill-rule="evenodd" fill-opacity="0.246025"/>
		<polygon points="463,495 436,501 450,498 448,496 473,489 499,482 441,494 382,509 375,512 374,516 393,510 402,511 403,508 413,505 413,505 420,506" fill="rgb(27.5119%, 28.1126%, 9.68778%)" fill-rule="evenodd" fill-opacity="0.286166"/>
		<polygon points="588,492 599,498 606,497 596,505 602,507 616,506 612,514 582,504 585,506 585,503 577,510 589,508 586,501 591,493" fill="rgb(55.9249%, 86.0269%, 82.2073%)" fill-rule="evenodd" fill-opacity="0.158206"/>
		<polygon points="543,565 583,548 575,556 568,562 548,570 540,576 497,587" fill="rgb(1.72451%, 13.2316%, 28.3884%)" fill-rule="evenodd" fill-opacity="0.312116"/>
		<polygon points="557,546 534,554 546,546 546,545 573,534 607,516 604,515 612,511 615,512 616,511 608,518 608,519 602,523 594,528 594,528" fill="rgb(0%, 39.2632%, 51.8962%)" fill-rule="evenodd" fill-opacity="0.230334"/>
		<polygon points="375,501 418,492 404,488 430,483 442,478 462,470 490,461 453,479 408,494 407,496 369,507" fill="rgb(79.2359%, 0%, 0.721948%)" fill-rule="evenodd" fill-opacity="0.262395"/>
		<polygon points="539,446 557,446 573,446 565,449 565,450 539,450 516,449 466,465 510,446 529,446 524,447" fill="rgb(45.7473%, 85.1626%, 58.9007%)" fill-rule="evenodd" fill-opacity="0.209175"/>
		<polygon points="552,450 542,450 529,450 501,450 516,446 534,446 540,446" fill="rgb(75.7109%, 86.8229%, 67.4875%)" fill-rule="evenodd" fill-opacity="0.256535"/>
		<polygon points="432,609 450,598 456,600 485,586 488,585 491,582 489,581 467,592" fill="rgb(36.2585%, 20.4705%, 23.1435%)" fill-rule="evenodd" fill-opacity="0.390297"/>
		<polygon points="393,483 392,483 395,480 391,484 386,482 396,484 373,482 364,483 363,493 363,490 369,484 370,485 389,485" fill="rgb(31.424%, 21.4761%, 16.1712%)" fill-rule="evenodd" fill-opacity="0.431507"/>
		<polygon points="381,491 394,490 389,489 393,488 409,487 407,492 394,491 395,493 392,492 377,495 370,490 367,491 363,501 371,499 369,499" fill="rgb(76.3037%, 18.1484%, 16.2402%)" fill-rule="evenodd" fill-opacity="0.285310"/>
		<polygon points="595,475 595,471 589,474 582,476 564,486 564,492 569,486 576,483 584,483 582,481" fill="rgb(21.1911%, 49.3825%, 55.716%)" fill-rule="evenodd" fill-opacity="0.214572"/>
		<polygon points="468,477 466,479 452,481 425,494 453,486 504,472 504,473 516,463" fill="rgb(85.631%, 0%, 1.1842%)" fill-rule="evenodd" fill-opacity="0.265149"/>
		<polygon points="538,575 550,571 558,566 566,566 548,577 546,576 543,578 549,576 535,580 531,581 527,576 533,577 537,573" fill="rgb(64.0486%, 82.5719%, 55.6228%)" fill-rule="evenodd" fill-opacity="0.100185"/>
		<polygon points="510,459 504,459 503,461 480,467 473,470 465,476 468,478 479,474 496,467 525,459" fill="rgb(32.6695%, 90.1183%, 43.6232%)" fill-rule="evenodd" fill-opacity="0.193711"/>
		<polygon points="604,537 614,535 612,536 603,540 602,536 606,539" fill="rgb(28.0709%, 64.7063%, 80.3569%)" fill-rule="evenodd" fill-opacity="0.100000"/>
		<polygon points="504,446 503,446 508,455 512,451 514,451" fill="rgb(64.9958%, 6.00565%, 25.3532%)" fill-rule="evenodd" fill-opacity="0.132450"/>
	</g>
	<g id="G6">
		<polygon points="685,361 699,370 704,376 698,386 680,402 644,409 659,392 635,397 626,376 623,378 627,367 644,362 675,361" fill="rgb(76.6191%, 62.7896%, 48.1993%)" fill-rule="evenodd" fill-opacity="0.460753"/>
		<polygon points="709,458 692,458 679,462 649,478 647,485 642,488 635,476 652,466 664,453 680,443 707,440 690,396 656,391 652,382 658,380 663,374 623,370 659,362 678,361 695,364 703,380 700,381 742,410 749,410 729,465 716,465 715,470 715,474 729,484 709,490 693,481" fill="rgb(96.5758%, 99.2112%, 72.3114%)" fill-rule="evenodd" fill-opacity="0.460930"/>
		<polygon points="740,434 771,472 771,469 778,474 714,473 658,505 640,482 630,463 654,411 655,411 646,425 633,386 621,372 639,364 691,362 701,373 703,385 746,414" fill="rgb(100%, 79.007%, 61.9595%)" fill-rule="evenodd" fill-opacity="0.547400"/>
		<polygon points="642,415 680,396 698,415 689,399 693,384 684,385 661,396 655,400 638,406" fill="rgb(100%, 76.187%, 30.8083%)" fill-rule="evenodd" fill-opacity="0.291006"/>
		<polygon points="762,505 787,494 786,486 788,480 787,473 761,464 712,458 704,460 709,462 697,472 655,480 649,485 651,512 670,516 676,514 699,516" fill="rgb(17.7704%, 14.9434%, 9.96133%)" fill-rule="evenodd" fill-opacity="0.600000"/>
		<polygon points="693,492 663,509 647,527 633,550 625,558 614,565 617,581 632,576 643,569 662,546 675,519 728,520 750,517 725,509 720,492 743,493 706,481 754,447 729,445 710,452 709,449 705,460 680,476" fill="rgb(74.9123%, 46.5209%, 28.3441%)" fill-rule="evenodd" fill-opacity="0.194250"/>
		<polygon points="697,452 722,480 728,482 695,484 734,490 769,488 789,477 782,472 761,460" fill="rgb(97.3102%, 76.1899%, 57.6359%)" fill-rule="evenodd" fill-opacity="0.468926"/>
		<polygon points="614,425 624,435 630,462 652,440 645,492 631,468 636,472 638,484 649,493 656,491 650,452 651,439 643,437 654,440 681,407 640,414" fill="rgb(52.3512%, 28.7362%, 23.4043%)" fill-rule="evenodd" fill-opacity="0.448634"/>
		<polygon points="626,443 631,432 635,430 646,429 642,445 630,469 665,452 671,465 673,464 690,457 665,475 690,472 655,484 647,492 635,478" fill="rgb(69.7316%, 43.5681%, 29.6464%)" fill-rule="evenodd" fill-opacity="0.452285"/>
		<polygon points="688,459 666,467 646,480 692,482 722,499 727,510 753,517 782,499 784,487 788,473 781,470 757,456 725,448 709,450" fill="rgb(64.8707%, 36.5204%, 21.0005%)" fill-rule="evenodd" fill-opacity="0.329002"/>
		<polygon points="696,391 655,440 637,447 625,445 647,420 642,419 636,415 655,395 653,383" fill="rgb(46.3548%, 4.19199%, 0%)" fill-rule="evenodd" fill-opacity="0.202946"/>
		<polygon points="708,440 725,436 731,439 708,453 721,454 734,456 735,417 728,419 727,419 721,422 712,428 708,420 708,404 713,407 710,406 713,413 696,410" fill="rgb(3.76236%, 1.937%, 10.3535%)" fill-rule="evenodd" fill-opacity="0.210364"/>
		<polygon points="639,397 683,381 691,387 659,397 645,404 639,406" fill="rgb(53.7371%, 64.976%, 45.011%)" fill-rule="evenodd" fill-opacity="0.517706"/>
		<polygon points="628,454 649,451 648,444 650,446 683,418 695,412 658,452 672,443 679,438 694,424 703,409 690,410 687,418 700,388" fill="rgb(23.6891%, 52.817%, 58.0755%)" fill-rule="evenodd" fill-opacity="0.379337"/>
		<polygon points="684,412 690,400 699,407 704,398 711,391 701,413 688,426 684,416" fill="rgb(62.1933%, 68.5445%, 58.7071%)" fill-rule="evenodd" fill-opacity="0.476981"/>
		<polygon points="665,507 666,515 661,514" fill="rgb(80.4024%, 49.1298%, 43.0332%)" fill-rule="evenodd" fill-opacity="0.290680"/>
		<polygon points="643,478 686,454 677,454 667,456" fill="rgb(30.1916%, 59.2686%, 52.91%)" fill-rule="evenodd" fill-opacity="0.376149"/>
		<polygon points="637,534 645,537 619,567 635,561 646,553 657,538 673,514 664,517 651,521 650,525 636,529" fill="rgb(44.0022%, 16.5009%, 9.90367%)" fill-rule="evenodd" fill-opacity="0.302760"/>
		<polygon points="641,464 633,463 639,461 646,464 647,463 661,448 648,453" fill="rgb(48.6327%, 67.2415%, 78.5776%)" fill-rule="evenodd" fill-opacity="0.297747"/>
		<polygon points="698,478 687,482 651,503 649,506 650,508 658,502 665,499" fill="rgb(80.709%, 78.5837%, 73.0922%)" fill-rule="evenodd" fill-opacity="0.375085"/>
		<polygon points="683,421 687,416 684,417 700,401 696,413 685,427 647,455 642,447 645,450 651,447" fill="rgb(95.1623%, 25.3094%, 21.8975%)" fill-rule="evenodd" fill-opacity="0.305524"/>
		<polygon points="710,449 689,452 683,449 690,447 702,446 698,443 737,437 736,426 747,446" fill="rgb(91.6674%, 88.1564%, 74.4111%)" fill-rule="evenodd" fill-opacity="0.486587"/>
		<polygon points="717,444 713,442 722,438 716,437 722,414 719,419 715,433 698,443 704,448 707,446 716,444 709,440 708,440 720,409 730,409 721,442" fill="rgb(87.436%, 45.7009%, 12.246%)" fill-rule="evenodd" fill-opacity="0.195219"/>
		<polygon points="630,456 629,449 628,443 632,442 638,444 632,457 628,461" fill="rgb(76.042%, 76.5729%, 80.2684%)" fill-rule="evenodd" fill-opacity="0.232940"/>
		<polygon points="725,496 717,497 715,493 751,494 750,491 742,497 727,497" fill="rgb(40.1563%, 80.2994%, 50.3408%)" fill-rule="evenodd" fill-opacity="0.125321"/>
		<polygon points="712,491 718,496 691,504 681,504 672,505 677,509 673,502" fill="rgb(35.705%, 67.6269%, 55.0191%)" fill-rule="evenodd" fill-opacity="0.205778"/>
		<polygon points="774,478 776,475 783,475 765,468 693,468 687,470 680,471 661,480 660,483 668,483 682,478" fill="rgb(83.9163%, 16.0446%, 0%)" fill-rule="evenodd" fill-opacity="0.297866"/>
	</g>
	<g id="G7">
		<polygon points="609,257 566,234 552,235 529,225 522,225 535,210 544,203 564,203 633,239 643,243 656,255" fill="rgb(83.7146%, 74.0281%, 62.8937%)" fill-rule="evenodd" fill-opacity="0.349127"/>
		<polygon points="658,274 649,267 650,266 641,283 634,278 628,274 632,280 614,248 621,257 635,240 651,249 662,264 674,266 680,272" fill="rgb(78.2205%, 68.7612%, 61.2715%)" fill-rule="evenodd" fill-opacity="0.342766"/>
		<polygon points="621,244 563,218 546,218 537,215 521,225 535,209 547,203 563,203 612,227 614,231 625,235 651,249 658,256 664,266" fill="rgb(56.8763%, 82.6905%, 85.4143%)" fill-rule="evenodd" fill-opacity="0.293858"/>
		<polygon points="642,351 651,349 650,345 659,345 660,350 662,349 670,337 675,361 643,362" fill="rgb(86.5776%, 80.6043%, 63.1302%)" fill-rule="evenodd" fill-opacity="0.334736"/>
		<polygon points="650,302 650,309 660,314 670,326 640,317 635,311 633,302 643,317 642,326 614,364 599,385 623,378 623,369 647,362 647,349 661,353 699,286" fill="rgb(56.2958%, 50.7115%, 38.2264%)" fill-rule="evenodd" fill-opacity="0.405756"/>
		<polygon points="580,365 591,367 594,352 602,352 606,359 608,330 614,349 612,305 640,334 637,333 593,394 585,399" fill="rgb(44.7465%, 35.7451%, 21.3214%)" fill-rule="evenodd" fill-opacity="0.255494"/>
		<polygon points="606,277 650,320 670,327 687,297 679,293 677,299 685,300 705,296 704,293 698,290 690,274 680,271 661,261 604,222 582,213 559,203 526,222 547,242 555,261 562,265 567,278" fill="rgb(100%, 70.3593%, 45.7824%)" fill-rule="evenodd" fill-opacity="0.302232"/>
		<polygon points="577,379 561,336 563,277 578,277 604,278 666,330 675,346 673,361 635,365 611,379 585,398" fill="rgb(94.2415%, 49.5811%, 26.7966%)" fill-rule="evenodd" fill-opacity="0.185916"/>
		<polygon points="568,227 587,213 616,232 670,265 678,269 692,274 669,274 665,275 650,282 648,289 705,291 705,298 687,297 678,322 677,319 671,316 669,361 600,293 603,269 600,266 547,239" fill="rgb(83.6193%, 67.6771%, 43.5737%)" fill-rule="evenodd" fill-opacity="0.182214"/>
		<polygon points="667,302 675,296 684,288 691,293 674,316 667,330 671,337 674,349 668,343 664,343 653,313" fill="rgb(78.5822%, 68.5446%, 57.0094%)" fill-rule="evenodd" fill-opacity="0.255326"/>
		<polygon points="642,262 634,256 652,268 659,269 678,273 678,267 672,264 648,262" fill="rgb(76.4363%, 85.4244%, 80.2835%)" fill-rule="evenodd" fill-opacity="0.240864"/>
		<polygon points="590,289 582,274 582,282 578,274 578,276 602,277 605,283 595,283 606,293 596,290 596,310" fill="rgb(87.2591%, 66.9746%, 56.3974%)" fill-rule="evenodd" fill-opacity="0.131144"/>
		<polygon points="559,254 569,256 579,260 586,267 588,277 567,277 564,276 561,269 562,270 552,256 547,247 541,234" fill="rgb(16.4761%, 3.65776%, 0%)" fill-rule="evenodd" fill-opacity="0.465663"/>
		<polygon points="702,296 687,299 684,295 693,283 687,283 678,292 665,299 670,285 677,281 687,278 684,270 696,280" fill="rgb(64.1422%, 55.5421%, 48.2597%)" fill-rule="evenodd" fill-opacity="0.247666"/>
		<polygon points="686,313 680,319 678,317 672,321 678,286 684,282" fill="rgb(46.6353%, 40.9291%, 33.1073%)" fill-rule="evenodd" fill-opacity="0.329394"/>
		<polygon points="564,203 547,207 544,211 547,210 550,214 556,213 554,210 570,208 573,205" fill="rgb(38.2047%, 60.3495%, 68.8773%)" fill-rule="evenodd" fill-opacity="0.303152"/>
		<polygon points="674,320 676,325 677,326 667,331 671,322" fill="rgb(84.7525%, 61.3874%, 58.3985%)" fill-rule="evenodd" fill-opacity="0.147507"/>
		<polygon points="642,273 641,282 650,277 656,290 666,290 658,292 655,294 651,295" fill="rgb(25.3616%, 19.3372%, 10.6072%)" fill-rule="evenodd" fill-opacity="0.354203"/>
		<polygon points="616,328 620,334 612,303 616,313 619,324" fill="rgb(64.4154%, 60.8458%, 47.9992%)" fill-rule="evenodd" fill-opacity="0.261558"/>
		<polygon points="620,253 603,250 599,254 606,259 617,274 618,266" fill="rgb(55.654%, 40.6988%, 28.7695%)" fill-rule="evenodd" fill-opacity="0.397732"/>
	</g>
	<g id="G8">
		<polygon points="962,339 980,336 987,337 991,342 1011,350 1021,354 994,361 1010,357 968,346 990,359 992,363 966,354 969,350 959,346" fill="rgb(57.0698%, 54.5349%, 57.7882%)" fill-rule="evenodd" fill-opacity="0.357040"/>
		<polygon points="814,349 815,346 788,339 785,341 798,348 815,352 815,353 805,354 826,361 876,370 872,367 849,361 843,360 820,351 856,355 960,357 970,351 1013,360 1000,345 977,338 918,348 931,349 936,349 931,343 927,338 864,338" fill="rgb(62.4148%, 70.209%, 62.8148%)" fill-rule="evenodd" fill-opacity="0.209765"/>
		<polygon points="923,371 925,372 942,380 992,407 996,418 947,414 945,404 883,404 881,404 884,405 878,404 854,415 852,408 853,405 851,394 897,379 926,370" fill="rgb(94.7902%, 83.5018%, 73.0197%)" fill-rule="evenodd" fill-opacity="0.354576"/>
		<polygon points="879,341 871,337 818,348 815,349 817,348 815,354 831,355 818,354 802,352 782,348 743,346 734,345 733,344 722,344 710,340 708,332 713,332 732,336 785,332 787,329 796,330 820,329" fill="rgb(63.3058%, 65.5072%, 55.1082%)" fill-rule="evenodd" fill-opacity="0.283789"/>
		<polygon points="992,340 984,338 976,335 954,345 952,347 970,348 999,365 993,362 1000,366 1018,365 1021,354 1011,353" fill="rgb(97.3094%, 84.6122%, 56.3525%)" fill-rule="evenodd" fill-opacity="0.250860"/>
		<polygon points="1002,348 982,337 939,345 923,339 887,341 871,339 917,363 922,371 945,382 992,407 996,420 1023,418 1024,354" fill="rgb(91.9229%, 76.8449%, 69.9376%)" fill-rule="evenodd" fill-opacity="0.447249"/>
		<polygon points="896,387 888,372 899,375 903,379 931,380 932,373 940,365 948,366 1009,389 1019,386 1021,369 1020,356 1024,352 980,343 878,340 821,329 812,329 793,329 752,334 748,335 734,339 718,335 709,333 712,333 708,337 727,358 802,357" fill="rgb(75.3557%, 65.5111%, 56.1998%)" fill-rule="evenodd" fill-opacity="0.299814"/>
		<polygon points="922,371 917,362 860,334 823,329 784,329 782,333 712,339 721,375 743,372 766,370 784,370 793,370 806,366 818,365 829,373 851,394" fill="rgb(85.8939%, 70.3982%, 63.7498%)" fill-rule="evenodd" fill-opacity="0.445843"/>
		<polygon points="845,333 835,334 817,329 819,330 827,330 821,329 790,329 784,332 788,334 846,338 848,338" fill="rgb(94.4558%, 93.1165%, 74.3916%)" fill-rule="evenodd" fill-opacity="0.217584"/>
		<polygon points="957,340 970,344 970,339 973,336 993,343 993,344 1002,347 991,351 995,349" fill="rgb(91.3033%, 89.3522%, 83.7011%)" fill-rule="evenodd" fill-opacity="0.250277"/>
		<polygon points="902,384 903,391 856,380 839,384 824,372 822,370 814,365 796,356 807,357 886,378 883,372 876,366 881,360 901,360 905,365 919,366 928,362 941,361 992,382 993,383 958,382 956,384 919,383" fill="rgb(41.1598%, 30.7259%, 31.7913%)" fill-rule="evenodd" fill-opacity="0.242194"/>
		<polygon points="822,365 819,368 812,367 795,371 760,371 757,373 744,377 718,375 717,367" fill="rgb(31.7078%, 22.8132%, 19.867%)" fill-rule="evenodd" fill-opacity="0.439625"/>
		<polygon points="966,403 971,403 977,404 1000,402 1021,413 1020,420 1005,421 992,421 965,416 951,413 973,415 967,416 947,416 950,411 949,405" fill="rgb(40.3696%, 61.6095%, 49.2198%)" fill-rule="evenodd" fill-opacity="0.370356"/>
		<polygon points="833,377 839,379 838,380 863,385 866,388 863,392 873,400 899,400 873,404 871,405 941,405 946,406 945,400 887,397 856,401 852,405 852,407 848,395 834,378" fill="rgb(20.2914%, 19.7681%, 14.5616%)" fill-rule="evenodd" fill-opacity="0.324850"/>
		<polygon points="709,339 729,339 723,343 730,339 730,336 708,333" fill="rgb(72.8019%, 65.6023%, 56.338%)" fill-rule="evenodd" fill-opacity="0.513819"/>
		<polygon points="883,342 900,338 928,341 930,344 947,345 943,342 970,350 952,351 806,338 766,340 758,339 791,329 821,330 836,333 874,337" fill="rgb(69.7586%, 61.9066%, 55.376%)" fill-rule="evenodd" fill-opacity="0.372283"/>
		<polygon points="1023,373 1021,393 1007,394 1006,397 993,394 978,391 972,403 974,401 967,404 976,402 946,405 976,409 984,407 1024,418" fill="rgb(22.156%, 21.071%, 15.5794%)" fill-rule="evenodd" fill-opacity="0.289413"/>
		<polygon points="719,368 715,371 715,374 717,375 718,375 714,374 718,378 720,377 737,377 754,372 762,370 721,374" fill="rgb(84.0449%, 61.8327%, 53.8157%)" fill-rule="evenodd" fill-opacity="0.228511"/>
		<polygon points="955,345 933,345 927,339 935,340 924,341 903,341 888,338 910,335 924,337 938,342 963,339 965,336 972,334 973,335 980,335" fill="rgb(13.3404%, 12.1333%, 11.245%)" fill-rule="evenodd" fill-opacity="0.255520"/>
		<polygon points="717,357 717,354 714,358 721,359" fill="rgb(81.0383%, 65.6522%, 55.1282%)" fill-rule="evenodd" fill-opacity="0.363762"/>
		<polygon points="720,358 716,358 716,352 714,357 717,361 724,365 716,369" fill="rgb(9.27702%, 6.59683%, 3.34083%)" fill-rule="evenodd" fill-opacity="0.383276"/>
		<polygon points="896,379 932,379 933,371 941,364 988,381 983,383 951,384 951,383 964,393 954,400 969,395 967,393 959,395 960,391 957,392 955,389 931,389 914,391 914,399 896,396 879,386" fill="rgb(82.5482%, 61.4014%, 60.4868%)" fill-rule="evenodd" fill-opacity="0.104596"/>
		<polygon points="732,344 730,344 726,344 720,347 762,351 773,354 769,354 826,353 818,351 804,344 791,342 799,344 789,340 708,337" fill="rgb(69.3833%, 57.7746%, 46.2123%)" fill-rule="evenodd" fill-opacity="0.218236"/>
		<polygon points="804,369 793,373 761,373 738,379 726,380 716,379 721,371 751,371 760,369 760,368 756,367" fill="rgb(17.2875%, 13.4369%, 11.6061%)" fill-rule="evenodd" fill-opacity="0.213014"/>
		<polygon points="894,343 908,341 909,339 911,339 900,339 884,341 891,345 925,344 934,343 932,339" fill="rgb(73.9369%, 76.8465%, 78.9533%)" fill-rule="evenodd" fill-opacity="0.151078"/>
		<polygon points="749,337 735,338 731,338 733,336 740,339 735,336 722,336 765,331" fill="rgb(8.55704%, 10.5167%, 9.78894%)" fill-rule="evenodd" fill-opacity="0.407891"/>
		<polygon points="724,337 743,345 742,337 708,339 708,339 714,340 711,336 708,335 708,331 727,333" fill="rgb(68.8668%, 68.9884%, 66.68%)" fill-rule="evenodd" fill-opacity="0.119806"/>
		<polygon points="790,357 801,358 805,358 842,369 815,364 808,362 796,362 766,362 751,363 718,361 724,360 720,357 716,354 717,348 720,352 729,358 733,358" fill="rgb(69.86%, 61.1409%, 52.4817%)" fill-rule="evenodd" fill-opacity="0.143915"/>
		<polygon points="836,369 834,367 831,367 829,366 825,368 845,376 888,384" fill="rgb(84.7238%, 58.452%, 48.7801%)" fill-rule="evenodd" fill-opacity="0.100000"/>
		<polygon points="709,342 710,340 712,343 710,346 714,344 715,345" fill="rgb(95.2661%, 68.01%, 36.436%)" fill-rule="evenodd" fill-opacity="0.211648"/>
	</g>
	<g id="G9">
		<polygon points="803,555 813,551 802,569 785,587 777,580 770,573 779,567 796,557" fill="rgb(77.6697%, 89.9544%, 77.6842%)" fill-rule="evenodd" fill-opacity="0.497975"/>
		<polygon points="707,615 723,625 766,627 778,623 790,620 803,606 829,544 765,547 766,551 767,569 762,574 744,573 772,562 744,568 742,572 733,574 728,572 744,565 751,562 712,570 693,562 712,581 698,585 699,593" fill="rgb(100%, 52.1964%, 39.7781%)" fill-rule="evenodd" fill-opacity="0.124843"/>
		<polygon points="715,538 715,538 726,533 721,536 724,541 732,539 734,565 714,548 712,549 707,539" fill="rgb(100%, 67.4933%, 47.9094%)" fill-rule="evenodd" fill-opacity="0.357666"/>
		<polygon points="711,598 712,597 705,593 700,588 697,578 693,563 699,570 704,573 714,591 722,586 764,579 763,585 804,571 781,586 785,586 782,588 786,588 774,597 758,600 731,605" fill="rgb(80.7873%, 76.3749%, 59.0241%)" fill-rule="evenodd" fill-opacity="0.304762"/>
		<polygon points="731,603 759,600 775,595 796,578 746,576 709,544 715,565 720,582 719,596 713,585 704,551 699,544 693,559 693,557 696,581 710,596" fill="rgb(94.0351%, 87.2558%, 65.1651%)" fill-rule="evenodd" fill-opacity="0.470025"/>
		<polygon points="912,515 912,512 910,508 934,529 935,530 929,533 933,540 925,524 915,521" fill="rgb(47.1429%, 51.2992%, 47.6473%)" fill-rule="evenodd" fill-opacity="0.231899"/>
		<polygon points="815,545 815,551 807,538 787,534 781,536 769,534 730,518 719,523 714,526 694,548 698,559 695,558 693,571 698,587 704,593 711,599 746,606 777,599 794,583 802,574 819,544" fill="rgb(76.4831%, 54.2196%, 40.6457%)" fill-rule="evenodd" fill-opacity="0.212195"/>
		<polygon points="816,544 801,519 757,518 760,517 734,519 734,518 763,534 771,553 763,586 770,585 752,591 755,590 747,592 722,599 743,605 763,599 780,590 791,585" fill="rgb(95.4093%, 79.7961%, 58.6332%)" fill-rule="evenodd" fill-opacity="0.415546"/>
		<polygon points="898,493 894,496 900,503 909,491 897,484" fill="rgb(81.6371%, 79.4676%, 62.0168%)" fill-rule="evenodd" fill-opacity="0.360807"/>
		<polygon points="725,541 749,529 767,545 764,534 754,528 742,523 733,518 704,533 703,538 700,539 693,556" fill="rgb(59.9474%, 38.535%, 26.797%)" fill-rule="evenodd" fill-opacity="0.444376"/>
		<polygon points="873,519 843,535 833,543 831,546 827,548 830,543 818,548 802,520 790,517 756,518 788,519 835,507 841,510 837,511 875,516" fill="rgb(74.4505%, 49.5125%, 42.8805%)" fill-rule="evenodd" fill-opacity="0.213402"/>
		<polygon points="714,585 719,573 708,572 710,569 714,564 723,537 725,538 729,532 708,534 700,538 697,544 706,571 713,589" fill="rgb(33.9555%, 27.3391%, 26.0976%)" fill-rule="evenodd" fill-opacity="0.407002"/>
		<polygon points="729,551 730,568 745,580 758,581 764,579 773,569 772,561 752,577 741,569 739,567" fill="rgb(63.0206%, 8.99765%, 1.68153%)" fill-rule="evenodd" fill-opacity="0.431107"/>
		<polygon points="781,562 755,565 771,560 766,564 786,558 795,552 815,549 809,558 804,557 797,562 776,575 778,577 791,578 782,584 776,579 741,585" fill="rgb(61.7961%, 51.0421%, 39.7693%)" fill-rule="evenodd" fill-opacity="0.380908"/>
		<polygon points="853,500 874,490 897,484 911,493 884,507 872,511 851,503 827,506 840,503 836,508 857,521 842,514 823,512 826,518 837,521 845,526 861,519 870,512" fill="rgb(37.3034%, 40.6606%, 34.9747%)" fill-rule="evenodd" fill-opacity="0.151670"/>
		<polygon points="744,600 755,603 766,599 775,593 777,594 787,586 753,586 728,591 715,591 716,603" fill="rgb(100%, 92.6959%, 83.186%)" fill-rule="evenodd" fill-opacity="0.187230"/>
		<polygon points="947,548 926,530 919,523 919,521 933,527 944,535" fill="rgb(83.3245%, 64.6183%, 54.8781%)" fill-rule="evenodd" fill-opacity="0.237574"/>
		<polygon points="765,530 762,529 776,537 769,542 774,546 795,546 777,553 775,562 773,571 788,562 808,554 819,549 816,550 820,548 811,544 804,532 808,517" fill="rgb(73.4298%, 60.9257%, 51.52%)" fill-rule="evenodd" fill-opacity="0.216926"/>
		<polygon points="719,580 712,579 715,573" fill="rgb(8.7948%, 0%, 0%)" fill-rule="evenodd" fill-opacity="0.391622"/>
		<polygon points="720,545 739,566 734,570 712,557 715,553 705,536 708,535 723,524 743,522 755,525 733,535 743,539" fill="rgb(45.5253%, 40.7337%, 31.3367%)" fill-rule="evenodd" fill-opacity="0.399516"/>
		<polygon points="919,498 926,501 913,495 911,494 912,501 925,502" fill="rgb(62.0147%, 67.0718%, 49.8786%)" fill-rule="evenodd" fill-opacity="0.380973"/>
		<polygon points="927,511 931,519 936,513 935,512 937,515" fill="rgb(57.3313%, 98.065%, 71.6311%)" fill-rule="evenodd" fill-opacity="0.310370"/>
		<polygon points="753,567 750,570 736,575 741,575 734,571 738,573 747,567 747,568" fill="rgb(70.0288%, 68.7851%, 64.3221%)" fill-rule="evenodd" fill-opacity="0.145066"/>
		<polygon points="830,506 840,512 868,515 876,517 897,507 922,522 944,535 933,505 932,505 900,484 888,484" fill="rgb(72.7948%, 54.2627%, 46.6715%)" fill-rule="evenodd" fill-opacity="0.196513"/>
		<polygon points="717,592 722,598 726,600 726,601 732,606 787,581 745,579 721,570" fill="rgb(69.0936%, 58.9884%, 45.2026%)" fill-rule="evenodd" fill-opacity="0.211436"/>
		<polygon points="930,506 926,502 925,503 925,507" fill="rgb(100%, 88.7829%, 81.8708%)" fill-rule="evenodd" fill-opacity="0.492507"/>
		<polygon points="720,589 725,582 734,571 737,582 740,581 745,583 740,584 734,589 732,589" fill="rgb(65.1182%, 54.0472%, 41.5698%)" fill-rule="evenodd" fill-opacity="0.350350"/>
	</g>
	<g id="G10">
		<polygon points="119,346 138,357 125,360 131,361 139,362 186,377 196,380 322,369 327,365 284,352 229,349 211,344 206,341 190,333 113,347" fill="rgb(100%, 81.8331%, 76.1975%)" fill-rule="evenodd" fill-opacity="0.486986"/>
		<polygon points="53,352 0,371 4,392 76,373 144,364 174,373 164,373 150,368 146,368 144,369 143,365 153,356 125,339 103,330 75,340 97,342 100,342 121,352 108,351 111,348 111,350 62,346" fill="rgb(41.2235%, 35.9797%, 46.976%)" fill-rule="evenodd" fill-opacity="0.445922"/>
		<polygon points="0,379 73,380 67,375 54,367 52,367 50,367 31,363 23,361 3,369" fill="rgb(86.8406%, 71.5256%, 47.4146%)" fill-rule="evenodd" fill-opacity="0.296099"/>
		<polygon points="136,343 116,346 114,347 105,350 109,350 65,346 70,341 78,336 91,335 96,331 105,330" fill="rgb(83.1554%, 68.8506%, 69.8998%)" fill-rule="evenodd" fill-opacity="0.430379"/>
		<polygon points="77,333 103,341 108,344 123,346 138,356 165,366 189,369 157,367 156,371 233,376 239,381 236,382 213,378 203,380 219,383 196,389 164,380 141,373 95,367 84,350 46,353" fill="rgb(33.7858%, 27.4613%, 29.6603%)" fill-rule="evenodd" fill-opacity="0.306482"/>
		<polygon points="172,337 170,335 170,336 179,336 159,341 185,344 176,343 177,341 222,346 212,343 200,337 192,331 195,331 183,331" fill="rgb(60.1945%, 55.6172%, 50.8684%)" fill-rule="evenodd" fill-opacity="0.288221"/>
		<polygon points="70,380 71,380 54,380 0,379 0,386 0,393 100,393 108,393 133,392 148,393 147,393 114,387 72,379" fill="rgb(76.5499%, 56.723%, 39.7572%)" fill-rule="evenodd" fill-opacity="0.254286"/>
		<polygon points="121,355 122,353 106,350 114,347 148,343 122,346 95,333 122,335 138,348 150,355 210,370 186,369 172,368 156,367 193,379 208,393 166,394 115,388 72,378 56,368 33,363" fill="rgb(66.0446%, 51.8738%, 41.589%)" fill-rule="evenodd" fill-opacity="0.464511"/>
		<polygon points="163,336 148,339 156,339 184,335 176,338 163,339 137,346 176,348 187,354 219,355 219,358 244,360 263,364 272,367 282,365 275,365 258,357 214,342 190,332" fill="rgb(69.2733%, 63.8803%, 52.887%)" fill-rule="evenodd" fill-opacity="0.203573"/>
		<polygon points="145,364 193,379 200,386 185,384 181,383 182,384 190,383 175,386 154,386 128,386 107,387 173,395 156,395 142,394 118,394 106,394 89,392 99,388 99,386 76,385 79,385 68,387 69,390 27,388 22,387 75,374" fill="rgb(59.5195%, 45.2195%, 51.4929%)" fill-rule="evenodd" fill-opacity="0.275157"/>
		<polygon points="267,351 265,351 283,349 296,354 293,355 298,358 307,360 319,365 323,367 275,358 275,359 265,349 226,350 253,350 236,350 250,350 252,351" fill="rgb(64.8386%, 57.4422%, 49.1416%)" fill-rule="evenodd" fill-opacity="0.356825"/>
		<polygon points="135,388 143,389 144,393 128,390 142,389 103,387 92,388 85,386 143,387 187,386 208,386 163,388" fill="rgb(46.5744%, 32.7402%, 33.6032%)" fill-rule="evenodd" fill-opacity="0.230148"/>
		<polygon points="209,362 186,364 217,371 221,371 232,374 239,382 259,386 268,388 270,386 266,386 264,382 243,373 224,358" fill="rgb(76.9294%, 70.2027%, 59.1375%)" fill-rule="evenodd" fill-opacity="0.232799"/>
		<polygon points="268,398 263,397 256,396 244,396 230,396 228,396 204,395 194,395 177,395 173,395 164,394 173,394 209,393 294,398" fill="rgb(71.0142%, 59.1214%, 44.7039%)" fill-rule="evenodd" fill-opacity="0.275512"/>
		<polygon points="114,358 116,360 126,359 138,358 159,359 178,363 175,366 154,361 138,343 156,339 130,340 122,334 107,330 96,330 93,332 80,334 77,335 32,363 121,355" fill="rgb(59.8427%, 50.7551%, 42.027%)" fill-rule="evenodd" fill-opacity="0.517744"/>
		<polygon points="284,378 281,378 285,380 293,379 307,383 332,366 320,367 328,369 327,368 305,370 281,365 257,362 243,361 250,362 259,366 280,373 270,373" fill="rgb(72.4824%, 54.3461%, 47.8839%)" fill-rule="evenodd" fill-opacity="0.219248"/>
		<polygon points="239,356 233,355 212,349 209,345 209,349 202,348 195,344 209,341 259,358" fill="rgb(73.6698%, 64.5078%, 58.4743%)" fill-rule="evenodd" fill-opacity="0.181176"/>
		<polygon points="203,380 288,396 287,394 268,381 268,384 312,392 313,376 322,369 332,368 193,380" fill="rgb(68.8664%, 57.2924%, 62.5525%)" fill-rule="evenodd" fill-opacity="0.242988"/>
		<polygon points="256,353 245,353 268,361 274,365 285,366 305,370 295,371 236,376 194,380 208,393 294,398 314,397 310,381 330,364 274,348" fill="rgb(76.5307%, 61.8486%, 52.9668%)" fill-rule="evenodd" fill-opacity="0.443601"/>
		<polygon points="166,367 159,368 143,363 114,358 125,352 115,352 115,351 116,352 126,354" fill="rgb(16.7897%, 14.8289%, 29.2395%)" fill-rule="evenodd" fill-opacity="0.142029"/>
		<polygon points="41,391 26,390 7,390 31,381 45,388 45,387 49,387 59,387 54,389 57,390" fill="rgb(37.9513%, 37.4164%, 29.7222%)" fill-rule="evenodd" fill-opacity="0.293535"/>
		<polygon points="102,368 119,367 123,367 174,383 159,384 150,380 119,381 87,392 58,392 47,393 35,393 22,391 1,392 0,370 4,379 42,380" fill="rgb(43.8184%, 34.918%, 31.9053%)" fill-rule="evenodd" fill-opacity="0.414697"/>
		<polygon points="177,389 158,388 172,390 177,383 194,383 210,380 194,378 197,386 196,385 193,388 187,390 219,381 224,386 211,392 224,397 186,392" fill="rgb(38.8433%, 27.4105%, 31.4%)" fill-rule="evenodd" fill-opacity="0.187503"/>
		<polygon points="166,391 170,392 189,391 238,396 135,396 67,394 18,394 0,394 0,391 55,392 80,391 153,391" fill="rgb(14.8126%, 12.2551%, 8.09825%)" fill-rule="evenodd" fill-opacity="0.394063"/>
		<polygon points="207,393 209,391 213,392 215,392 223,392 196,397 311,397 268,395 265,394 251,395 251,395 210,395 260,395 251,392" fill="rgb(17.2612%, 14.9222%, 10.3129%)" fill-rule="evenodd" fill-opacity="0.278896"/>
		<polygon points="12,386 0,391 0,391 0,395 83,395 89,395 94,397 149,396 159,398 169,398 285,397 256,394 217,391 133,389 108,389 41,387 34,381" fill="rgb(14.8077%, 9.79121%, 9.55086%)" fill-rule="evenodd" fill-opacity="0.210089"/>
		<polygon points="274,351 258,354 253,354 235,351 218,348 284,348 296,353 318,359 332,363 318,367 292,354" fill="rgb(36.0597%, 43.5352%, 41.3067%)" fill-rule="evenodd" fill-opacity="0.126390"/>
		<polygon points="131,389 111,392 138,392 144,394 141,394 149,393 157,394 173,389 159,389 141,389" fill="rgb(27.8058%, 17.5493%, 13.0658%)" fill-rule="evenodd" fill-opacity="0.255652"/>
		<polygon points="222,394 230,394 239,395 226,394 214,393 208,395 200,393 211,393 214,395" fill="rgb(33.4681%, 29.6655%, 34.4857%)" fill-rule="evenodd" fill-opacity="0.119240"/>
	</g>
	<g id="G11">
		<polygon points="876,427 872,428 868,432 859,425 856,413 866,409 874,407 947,407 943,423 941,419 939,420 932,418 924,412 905,415 904,423 904,423 911,423 902,428 909,431 890,424" fill="rgb(75.4432%, 66.034%, 58.1431%)" fill-rule="evenodd" fill-opacity="0.390952"/>
		<polygon points="864,433 854,417 859,411 870,407 914,408 934,448 938,431 945,445 943,455 938,454 934,472 936,484 928,503 897,482 839,502 868,458" fill="rgb(84.4432%, 53.475%, 38.8841%)" fill-rule="evenodd" fill-opacity="0.250365"/>
		<polygon points="923,407 947,407 946,446 935,429 929,438 925,429 923,430 917,425 893,420 882,412 857,421 855,415 873,407" fill="rgb(86.2978%, 78.2833%, 61.7311%)" fill-rule="evenodd" fill-opacity="0.378501"/>
		<polygon points="801,510 805,503 805,515 805,512 812,511 803,510 828,509 819,509 815,512 815,511 802,517 757,517 776,512 793,506" fill="rgb(58.5185%, 57.2663%, 43.7827%)" fill-rule="evenodd" fill-opacity="0.117559"/>
		<polygon points="915,418 930,422 949,432 948,407 911,407 872,407 854,417 883,419 886,421 892,410 906,419 915,416" fill="rgb(98.9346%, 92.4465%, 72.4062%)" fill-rule="evenodd" fill-opacity="0.227410"/>
		<polygon points="943,459 938,480 936,481 935,467 941,443 943,432 946,419 946,441" fill="rgb(22.0028%, 58.4632%, 52.4748%)" fill-rule="evenodd" fill-opacity="0.600000"/>
		<polygon points="880,469 877,471 877,480 890,470 889,446 887,421 889,415 896,411 898,424 893,421 900,430 910,424 940,422 901,434 890,450 880,447" fill="rgb(0%, 75.8785%, 55.2253%)" fill-rule="evenodd" fill-opacity="0.128270"/>
		<polygon points="941,473 929,503 889,476 892,455 888,460 890,453 891,453 863,431 866,430 866,431 870,415 880,407 883,407 883,410 891,410 890,417 922,409 944,414 947,441" fill="rgb(65.2349%, 42.4585%, 27.9285%)" fill-rule="evenodd" fill-opacity="0.392107"/>
		<polygon points="843,542 835,542 840,547 855,539 859,536 858,540 860,535 858,536 863,530 843,538" fill="rgb(62.563%, 21.4672%, 20.7542%)" fill-rule="evenodd" fill-opacity="0.156651"/>
		<polygon points="859,484 857,486 861,485 860,484 882,480 882,476 888,468 887,470 889,473 896,473 906,481 921,476 917,491 921,492 894,482 870,490 856,496" fill="rgb(98.5322%, 71.5561%, 57.6267%)" fill-rule="evenodd" fill-opacity="0.162778"/>
		<polygon points="876,517 861,526 843,536 837,540 831,546 838,547 864,533 911,524 915,520 900,506" fill="rgb(90.2048%, 57.1418%, 45.9319%)" fill-rule="evenodd" fill-opacity="0.183340"/>
		<polygon points="926,500 924,480 915,487 912,492" fill="rgb(39.0244%, 51.2342%, 63.8991%)" fill-rule="evenodd" fill-opacity="0.361729"/>
		<polygon points="809,514 854,497 851,489 846,496 837,494 831,500 818,502 826,503 814,503 811,506 801,505 787,516 788,517" fill="rgb(48.1738%, 40.5371%, 31.5199%)" fill-rule="evenodd" fill-opacity="0.251979"/>
		<polygon points="860,427 861,425 868,425 867,425 869,423 876,419 868,428 863,423 866,424 876,413 881,411 873,449" fill="rgb(34.6631%, 31.7426%, 20.5687%)" fill-rule="evenodd" fill-opacity="0.391559"/>
		<polygon points="762,512 780,500 787,492 815,489 853,482 839,501 842,501 863,494 843,499 860,490 868,485 862,481 876,472 880,487 867,493 804,516 793,518 757,517" fill="rgb(56.193%, 34.8477%, 25.486%)" fill-rule="evenodd" fill-opacity="0.254038"/>
		<polygon points="925,472 913,464 911,453 916,436 916,422 930,424 924,454 922,475 922,470 909,461 907,488 914,493 918,493 919,494 920,475" fill="rgb(65.012%, 9.63658%, 0%)" fill-rule="evenodd" fill-opacity="0.338362"/>
		<polygon points="913,493 927,503 931,501 937,483 935,472 930,477 924,451 915,483 915,484 910,486 923,421 917,414 915,416 904,449 898,461 895,481 874,490 871,490 877,480 884,474 892,478" fill="rgb(26.1913%, 47.2738%, 32.8101%)" fill-rule="evenodd" fill-opacity="0.318199"/>
		<polygon points="900,414 897,414 905,407 905,410 913,409 913,421 904,446 903,458 898,480 887,484 889,460 893,454 892,441" fill="rgb(87.5137%, 6.69884%, 5.95324%)" fill-rule="evenodd" fill-opacity="0.200536"/>
		<polygon points="932,476 926,481 935,462 935,469 933,479 931,479 935,480 940,483 937,474" fill="rgb(49.0337%, 29.4085%, 16.6347%)" fill-rule="evenodd" fill-opacity="0.131913"/>
		<polygon points="844,500 848,500 854,497 862,495 862,495 863,481 855,483 847,493" fill="rgb(0%, 49.6183%, 40.9861%)" fill-rule="evenodd" fill-opacity="0.152296"/>
		<polygon points="895,424 885,420 892,415 889,418 887,414 892,409 893,407 896,407 896,414" fill="rgb(14.4692%, 39.0659%, 67.2829%)" fill-rule="evenodd" fill-opacity="0.154916"/>
		<polygon points="896,527 908,523 902,519 884,521 875,522 863,528 860,535 863,534 868,531" fill="rgb(37.8451%, 28.4564%, 27.4218%)" fill-rule="evenodd" fill-opacity="0.230737"/>
	</g>
	<g id="G12">
		<polygon points="411,363 433,343 434,341 446,341 456,346 486,348 520,349 521,362 475,363 451,373 399,382 401,381 396,380" fill="rgb(66.9639%, 54.7319%, 54.2426%)" fill-rule="evenodd" fill-opacity="0.418616"/>
		<polygon points="502,388 531,390 524,394 525,393 513,393 506,392 475,396 478,389 437,392 429,389 409,391 409,393 402,391 399,382 452,373 457,370" fill="rgb(52.6028%, 33.7899%, 39.4269%)" fill-rule="evenodd" fill-opacity="0.347905"/>
		<polygon points="505,380 525,374 527,370 515,349 476,349 435,341 428,350 406,367 406,371 396,376 394,378 409,407 415,409" fill="rgb(85.7436%, 76.6652%, 56.5453%)" fill-rule="evenodd" fill-opacity="0.307899"/>
		<polygon points="527,375 526,382 516,382 487,373 454,365 468,365 491,358 480,357 476,363 455,361 458,362 437,360 426,352 435,341 478,348 497,345 499,348 516,347 520,353 520,354 501,357 471,363 522,361" fill="rgb(96.4186%, 92.62%, 79.2238%)" fill-rule="evenodd" fill-opacity="0.135769"/>
		<polygon points="419,408 451,417 464,416 476,417 533,407 529,390 529,378 527,373" fill="rgb(87.9274%, 84.1823%, 62.2879%)" fill-rule="evenodd" fill-opacity="0.284875"/>
		<polygon points="580,390 584,389 579,385 573,372 569,381 569,386 573,394" fill="rgb(71.2594%, 45.4046%, 34.0567%)" fill-rule="evenodd" fill-opacity="0.350370"/>
		<polygon points="425,351 411,366 413,367 469,365 458,370 504,388 528,390 528,372 517,349 509,349 465,348 446,344 445,341 433,341" fill="rgb(84.9707%, 66.5434%, 61.6496%)" fill-rule="evenodd" fill-opacity="0.354929"/>
		<polygon points="530,400 534,410 517,411 507,410 496,417 451,416 433,410 429,409" fill="rgb(44.1332%, 54.9653%, 47.9375%)" fill-rule="evenodd" fill-opacity="0.379232"/>
		<polygon points="404,368 409,368 404,369 401,374 409,375 429,372 451,370 451,373 444,373 424,378 429,379 431,382 457,379 473,379 495,374 507,374 482,364" fill="rgb(73.4606%, 56.8085%, 61.4039%)" fill-rule="evenodd" fill-opacity="0.110254"/>
		<polygon points="386,430 383,428 380,423 352,413 385,412 394,416 395,426 385,433" fill="rgb(58.3861%, 62.0866%, 52.8646%)" fill-rule="evenodd" fill-opacity="0.299811"/>
		<polygon points="574,414 565,411 566,403 577,401 575,408" fill="rgb(55.6057%, 66.8809%, 62.7616%)" fill-rule="evenodd" fill-opacity="0.181809"/>
		<polygon points="365,419 356,415 351,413 359,421 369,421" fill="rgb(66.9012%, 63.9203%, 56.8003%)" fill-rule="evenodd" fill-opacity="0.162804"/>
		<polygon points="459,404 474,405 433,408 455,409 508,412 498,417 492,419 498,416 497,415 493,417 455,418 429,412 416,409 412,405 421,405 439,403" fill="rgb(59.6481%, 76.8251%, 67.4682%)" fill-rule="evenodd" fill-opacity="0.129197"/>
		<polygon points="451,354 447,348 433,348 428,344 446,341 458,344 466,348 524,351 485,354" fill="rgb(48.4867%, 82.895%, 86.6281%)" fill-rule="evenodd" fill-opacity="0.125922"/>
		<polygon points="494,349 456,350 427,345 454,358 474,355 496,355 506,355 500,358 508,359 516,359 521,355 520,350" fill="rgb(91.4862%, 91.6845%, 87.8079%)" fill-rule="evenodd" fill-opacity="0.133549"/>
		<polygon points="568,398 569,368 570,375 573,368 585,398 578,404 574,410 567,414" fill="rgb(94.305%, 81.8493%, 63.9015%)" fill-rule="evenodd" fill-opacity="0.289306"/>
		<polygon points="368,384 368,396 359,394 351,395 349,385 367,377" fill="rgb(94.8396%, 63.1351%, 61.3793%)" fill-rule="evenodd" fill-opacity="0.279399"/>
		<polygon points="462,364 461,368 452,368 442,366 451,360 475,356 526,358 490,365 493,369 502,374 466,363" fill="rgb(62.4689%, 52.6185%, 46.7877%)" fill-rule="evenodd" fill-opacity="0.290327"/>
		<polygon points="397,425 385,432 384,427 379,422 373,420 359,420 350,409 348,388 365,379 366,386 374,398 389,412" fill="rgb(78.7862%, 73.914%, 58.2871%)" fill-rule="evenodd" fill-opacity="0.317275"/>
		<polygon points="415,385 409,385 398,389 402,398 419,403 425,401 428,398 424,399 437,397 458,401 467,401 477,396 493,386" fill="rgb(25.3171%, 16.414%, 10.5513%)" fill-rule="evenodd" fill-opacity="0.300327"/>
		<polygon points="411,374 398,375 397,382 392,377 398,374" fill="rgb(14.0535%, 10.5988%, 9.22735%)" fill-rule="evenodd" fill-opacity="0.453052"/>
		<polygon points="349,408 350,408 354,405 384,403 371,397 378,398 354,397 348,397 349,398" fill="rgb(9.02392%, 5.14284%, 0%)" fill-rule="evenodd" fill-opacity="0.334617"/>
		<polygon points="372,412 372,406 383,408 391,410 386,413" fill="rgb(59.973%, 64.9859%, 64.4288%)" fill-rule="evenodd" fill-opacity="0.100000"/>
	</g>
	<g id="G13">
		<polygon points="825,446 800,449 828,450 819,453 795,455 829,458 838,451 837,440 846,431 842,425 845,423 850,423 853,418 853,441 849,448 836,445" fill="rgb(96.3201%, 68.3321%, 62.0803%)" fill-rule="evenodd" fill-opacity="0.360331"/>
		<polygon points="856,410 849,394 836,380 819,368 802,368 802,370 821,370 831,378 823,385 821,385 836,400 854,424" fill="rgb(75.3361%, 53.4388%, 56.0745%)" fill-rule="evenodd" fill-opacity="0.406885"/>
		<polygon points="787,483 791,474 791,469 790,471 780,470 777,466 778,464 799,464 839,455 846,469 848,476" fill="rgb(72.8954%, 24.5376%, 26.8328%)" fill-rule="evenodd" fill-opacity="0.239683"/>
		<polygon points="838,446 852,448 852,451 846,463 826,471 783,469 766,464 762,457 750,449 769,451 782,447" fill="rgb(74.3381%, 63.061%, 74.1615%)" fill-rule="evenodd" fill-opacity="0.357117"/>
		<polygon points="847,478 847,465 853,451 851,438 813,448 786,448 793,446 781,446 773,450 749,449 762,461 773,466 789,474 784,487 784,486 790,491 840,484" fill="rgb(88.8143%, 49.9278%, 35.6155%)" fill-rule="evenodd" fill-opacity="0.350161"/>
		<polygon points="843,484 853,481 847,471 839,474 818,479 826,479 826,481 830,479 824,483 808,486 784,486 788,492 803,491" fill="rgb(17.4022%, 12.2473%, 9.18668%)" fill-rule="evenodd" fill-opacity="0.600000"/>
		<polygon points="844,435 846,412 840,403 829,390 836,388 843,387 843,388 845,385 845,388 854,407 853,412 859,427 829,450" fill="rgb(100%, 72.5729%, 60.6386%)" fill-rule="evenodd" fill-opacity="0.313723"/>
		<polygon points="740,399 761,401 771,399 778,403 734,404 728,401" fill="rgb(83.7538%, 79.8541%, 82.6193%)" fill-rule="evenodd" fill-opacity="0.294047"/>
		<polygon points="836,389 840,391 811,394 808,391 821,386 806,386 771,388 777,384 782,385 825,383 818,377 802,376 799,372 755,376 763,379 764,377 754,374 759,371 786,371 812,368 823,368 843,385" fill="rgb(39.2017%, 33.1838%, 36.347%)" fill-rule="evenodd" fill-opacity="0.425149"/>
		<polygon points="843,435 852,452 849,456 842,483 851,482 853,473 867,463 866,439 861,426 851,433 851,428 844,429 857,413 845,407" fill="rgb(71.3623%, 49.0339%, 49.8792%)" fill-rule="evenodd" fill-opacity="0.136517"/>
		<polygon points="702,378 754,378 752,376 780,381 769,382 767,380 764,382 742,382 720,381" fill="rgb(57.7943%, 52.0061%, 51.1131%)" fill-rule="evenodd" fill-opacity="0.444908"/>
		<polygon points="732,380 764,380 755,383 744,384 706,388 743,390 720,395 759,394 780,402 822,386 833,380 822,368 803,368 794,371 766,371 757,372" fill="rgb(59.5054%, 41.5965%, 47.8591%)" fill-rule="evenodd" fill-opacity="0.384671"/>
		<polygon points="786,484 788,482 795,480 804,478 844,471 844,475 845,473 841,476 810,485" fill="rgb(23.7669%, 47.7962%, 31.8893%)" fill-rule="evenodd" fill-opacity="0.288908"/>
		<polygon points="730,400 734,407 751,411 777,410 789,401 800,395 844,387 822,368 802,368 793,370 761,371 763,370 739,377 703,376 704,382 708,388" fill="rgb(77.3436%, 45.9428%, 39.2924%)" fill-rule="evenodd" fill-opacity="0.440236"/>
		<polygon points="847,406 840,398 823,381 822,380 829,382 837,385 850,396 854,401 845,400 848,406" fill="rgb(30.7816%, 4.88002%, 6.44387%)" fill-rule="evenodd" fill-opacity="0.245405"/>
		<polygon points="803,463 809,460 825,460 824,461 815,463 811,466 831,464 844,455 835,466 829,469 793,468 789,466 774,465 768,463 786,463" fill="rgb(86.9234%, 71.09%, 59.7875%)" fill-rule="evenodd" fill-opacity="0.313461"/>
		<polygon points="865,437 856,417 855,414 854,415 861,440 862,443 865,449 868,449" fill="rgb(40.9406%, 29.5263%, 27.4155%)" fill-rule="evenodd" fill-opacity="0.227664"/>
		<polygon points="827,478 840,474 798,478 785,482 793,484 802,484" fill="rgb(12.9456%, 38.5871%, 40.0146%)" fill-rule="evenodd" fill-opacity="0.248418"/>
		<polygon points="773,398 760,403 774,400 777,401 787,398" fill="rgb(76.4757%, 71.8289%, 64.1295%)" fill-rule="evenodd" fill-opacity="0.203727"/>
		<polygon points="782,447 769,452 765,451 755,450 751,451 778,457 795,458 804,456 799,454 775,453 776,452 785,450 806,452 799,448" fill="rgb(82.0137%, 59.7456%, 55.2464%)" fill-rule="evenodd" fill-opacity="0.364394"/>
		<polygon points="775,407 791,399 799,396 782,406 777,410 761,413 741,410 733,407 746,406" fill="rgb(18.3753%, 3.87842%, 3.8182%)" fill-rule="evenodd" fill-opacity="0.459574"/>
		<polygon points="843,462 848,454 844,452 839,445 846,440 846,439 818,450 826,452 816,457 832,465" fill="rgb(65.1411%, 39.3048%, 41.268%)" fill-rule="evenodd" fill-opacity="0.245471"/>
	</g>
	<g id="G14">
		<polygon points="986,453 966,453 959,456 966,510 974,492 988,501 990,492 990,485 996,460" fill="rgb(51.199%, 26.7286%, 23.8435%)" fill-rule="evenodd" fill-opacity="0.331639"/>
		<polygon points="984,464 965,463 958,459 961,457 967,453 968,453 984,453 989,456 979,458 969,456 965,459" fill="rgb(71.7855%, 67.2234%, 57.2231%)" fill-rule="evenodd" fill-opacity="0.318824"/>
		<polygon points="962,516 964,512 969,513 954,553 951,570 951,577 955,591 950,589 949,586 946,581 946,570 949,558 952,544" fill="rgb(79.3113%, 71.9221%, 65.6132%)" fill-rule="evenodd" fill-opacity="0.206391"/>
		<polygon points="974,493 988,501 991,474 996,461 984,453 967,453 958,458 960,463 966,502 962,517" fill="rgb(77.2124%, 24.5286%, 8.67467%)" fill-rule="evenodd" fill-opacity="0.329539"/>
		<polygon points="950,550 961,520 973,492 990,502 1002,574 1008,598 1006,607 1001,610 988,613 969,613 962,608 948,588 947,582 946,572" fill="rgb(82.1162%, 32.7977%, 19.0243%)" fill-rule="evenodd" fill-opacity="0.442545"/>
		<polygon points="968,501 968,502 959,535 956,548 951,552 948,572 947,563 948,560 951,546 952,547 958,530 962,516 964,508 963,473" fill="rgb(69.4722%, 79.9647%, 66.4588%)" fill-rule="evenodd" fill-opacity="0.100564"/>
		<polygon points="993,518 1004,536 1007,545 1011,558 1014,572 1013,587 1008,599 1001,571" fill="rgb(98.6283%, 46.7633%, 26.3932%)" fill-rule="evenodd" fill-opacity="0.326969"/>
		<polygon points="951,594 952,588 951,573 946,574 946,566 947,563 949,550 956,531 959,535 956,564 959,564 958,566 959,588 963,599 963,610" fill="rgb(59.7301%, 27.6366%, 20.577%)" fill-rule="evenodd" fill-opacity="0.252607"/>
		<polygon points="988,454 997,462 984,466 968,462 985,462 984,453" fill="rgb(64.5704%, 47.6645%, 44.0192%)" fill-rule="evenodd" fill-opacity="0.284532"/>
		<polygon points="965,498 965,520 964,514 968,500 963,489" fill="rgb(59.8574%, 36.9331%, 30.5505%)" fill-rule="evenodd" fill-opacity="0.195177"/>
		<polygon points="949,570 952,550 955,547 957,541 960,520 965,503 968,505 975,505 973,507 993,538 979,541 976,534 975,553" fill="rgb(44.7412%, 19.1822%, 12.0471%)" fill-rule="evenodd" fill-opacity="0.311842"/>
		<polygon points="1004,612 993,613 966,612 963,608 967,610 976,609 972,603 976,600 992,596 1001,571 1002,575 1006,591 1010,587 1013,585 1012,593" fill="rgb(14.0471%, 12.7327%, 10.0395%)" fill-rule="evenodd" fill-opacity="0.218361"/>
		<polygon points="1008,547 1008,547 1005,537 1002,531 1000,529 995,526 997,539 1000,541" fill="rgb(85.9711%, 40.9922%, 29.658%)" fill-rule="evenodd" fill-opacity="0.100000"/>
	</g>
	<g id="G15">
		<polygon points="640,535 641,541 635,542 634,539" fill="rgb(58.5446%, 49.2837%, 39.0621%)" fill-rule="evenodd" fill-opacity="0.379584"/>
		<polygon points="624,438 629,451 629,460 638,482 649,493 637,495 623,483 620,459 622,447 621,436" fill="rgb(45.3139%, 48.6082%, 44.5027%)" fill-rule="evenodd" fill-opacity="0.276258"/>
		<polygon points="631,515 634,520 646,529 635,512" fill="rgb(29.0957%, 30.8775%, 32.2267%)" fill-rule="evenodd" fill-opacity="0.235779"/>
		<polygon points="639,484 649,494 648,497 650,508 656,515 651,514 633,482 630,480 627,475 628,461" fill="rgb(60.2951%, 55.5187%, 52.2752%)" fill-rule="evenodd" fill-opacity="0.347559"/>
		<polygon points="628,453 632,467 631,480 624,493 620,490 613,460 606,445 602,442 616,429 624,436" fill="rgb(22.7518%, 17.542%, 16.2607%)" fill-rule="evenodd" fill-opacity="0.401768"/>
		<polygon points="625,441 620,442 620,441 625,453 630,454 625,457 625,466 629,464 631,466" fill="rgb(64.5451%, 64.9118%, 58.0932%)" fill-rule="evenodd" fill-opacity="0.130336"/>
		<polygon points="624,462 625,472 635,479 627,446 624,444 626,449" fill="rgb(84.2006%, 81.3384%, 82.2678%)" fill-rule="evenodd" fill-opacity="0.104730"/>
		<polygon points="619,428 601,422 597,432 612,447 601,441 575,422 579,430 585,447 588,453 590,458 600,473 612,490 617,504 624,493 638,500 647,511 651,514 634,484 640,487 640,486" fill="rgb(97.9705%, 47.539%, 38.2225%)" fill-rule="evenodd" fill-opacity="0.100000"/>
		<polygon points="636,544 639,543 636,528 645,530 656,518 655,513 649,504 656,499 633,476 615,508 616,511 621,519 620,523 620,524" fill="rgb(65.2839%, 41.5063%, 34.9831%)" fill-rule="evenodd" fill-opacity="0.171946"/>
		<polygon points="624,474 624,468 629,478 631,466 635,477 635,483 633,477 632,480 639,493 637,492" fill="rgb(50.089%, 35.9714%, 36.1167%)" fill-rule="evenodd" fill-opacity="0.234761"/>
		<polygon points="602,442 612,433 617,428 617,425 614,421 613,422 611,418 627,380 615,380 600,386 578,404 572,412 572,417 574,421" fill="rgb(73.0854%, 44.4568%, 36.3893%)" fill-rule="evenodd" fill-opacity="0.146266"/>
		<polygon points="610,382 610,390 598,408 601,420 595,438 597,433 591,433 593,428 592,424 578,416 574,412 572,412 594,390 601,384" fill="rgb(52.2079%, 37.352%, 36.6892%)" fill-rule="evenodd" fill-opacity="0.109572"/>
		<polygon points="638,401 632,387 626,380 611,418 615,428 616,424 619,422 638,415 641,415" fill="rgb(76.768%, 34.2891%, 28.8502%)" fill-rule="evenodd" fill-opacity="0.103960"/>
		<polygon points="619,380 609,383 600,387 575,408 575,410 581,410 596,392" fill="rgb(100%, 96.9299%, 85.2888%)" fill-rule="evenodd" fill-opacity="0.255056"/>
		<polygon points="618,380 622,380 609,389 604,388" fill="rgb(49.054%, 49.2803%, 41.9791%)" fill-rule="evenodd" fill-opacity="0.232527"/>
		<polygon points="619,434 623,436 627,445 624,448 627,449 626,470 621,468 617,459 614,445 618,439 618,444 615,433" fill="rgb(27.8237%, 19.6186%, 16.7229%)" fill-rule="evenodd" fill-opacity="0.417835"/>
		<polygon points="621,448 606,429 616,428 623,434 630,452 629,454 631,461 633,472" fill="rgb(64.4835%, 57.4495%, 47.4089%)" fill-rule="evenodd" fill-opacity="0.100000"/>
		<polygon points="580,403 595,390 603,384 605,387 603,389 607,388 597,396 597,398 586,413 572,412" fill="rgb(50.5294%, 43.7272%, 36.3%)" fill-rule="evenodd" fill-opacity="0.274411"/>
		<polygon points="627,516 629,523 637,535 640,536 638,531 632,522 629,516" fill="rgb(90.6207%, 85.8541%, 74.2443%)" fill-rule="evenodd" fill-opacity="0.114931"/>
	</g>
	<g id="G16">
		<polygon points="381,521 368,500 368,498 360,501 358,502 358,504 349,508 352,518 351,516 358,516 357,515 386,534" fill="rgb(75.8648%, 34.4412%, 28.3046%)" fill-rule="evenodd" fill-opacity="0.100987"/>
		<polygon points="388,538 384,529 384,526 379,520 381,520 377,516 391,545" fill="rgb(89.5699%, 82.914%, 50.2262%)" fill-rule="evenodd" fill-opacity="0.175624"/>
		<polygon points="309,482 308,480 299,475 299,469 310,474 304,468 310,467 310,466 316,467 318,466 317,466 321,469 360,506 364,502 359,501 352,507 340,489 329,486 318,486" fill="rgb(66.13%, 53.0711%, 47.4191%)" fill-rule="evenodd" fill-opacity="0.334582"/>
		<polygon points="390,542 381,557 377,558 375,560 373,560 357,557 337,552 319,553 306,555 319,529 307,522 300,520 308,524 326,522 329,515 335,500 334,495 316,490 313,488 309,486 316,480 333,493 356,514 386,534" fill="rgb(74.9226%, 41.8503%, 33.2643%)" fill-rule="evenodd" fill-opacity="0.100000"/>
		<polygon points="322,528 315,529 287,521 328,523" fill="rgb(71.0415%, 60.5738%, 58.8922%)" fill-rule="evenodd" fill-opacity="0.235136"/>
		<polygon points="308,522 309,521 293,519 289,523 290,527 289,531 287,529 287,531 288,541 293,550 300,553 298,554 302,556 306,555 318,531 323,530 330,522" fill="rgb(47.3432%, 26.8603%, 16.7022%)" fill-rule="evenodd" fill-opacity="0.252746"/>
		<polygon points="320,473 324,479 323,485 356,515 363,509 364,505 367,499 355,503 352,500 351,497 325,474" fill="rgb(80.4857%, 59.5603%, 49.8233%)" fill-rule="evenodd" fill-opacity="0.239887"/>
		<polygon points="287,532 289,530 294,530 293,532 292,534 289,533 289,533 287,530" fill="rgb(94.6619%, 61.0246%, 44.3939%)" fill-rule="evenodd" fill-opacity="0.269554"/>
		<polygon points="301,477 303,474 302,473 306,475 307,475 306,472 307,471 319,466 327,475 312,469 313,468 313,466 306,466 297,470" fill="rgb(100%, 66.6775%, 53.8545%)" fill-rule="evenodd" fill-opacity="0.256788"/>
		<polygon points="336,484 333,482 326,484 320,482 319,484 310,480 333,481 330,483 332,485 333,489 339,494 346,498 351,507 348,505 344,499 344,494 349,501 359,507 359,502 354,502 350,496 338,484" fill="rgb(88.9148%, 75.5922%, 68.2148%)" fill-rule="evenodd" fill-opacity="0.194183"/>
		<polygon points="304,551 301,553 300,554 298,551 304,548 311,549" fill="rgb(69.0543%, 63.1548%, 46.1672%)" fill-rule="evenodd" fill-opacity="0.333962"/>
		<polygon points="329,489 327,484 324,472 313,469 301,472 297,466 298,483 306,490 324,518 329,527 328,518 338,493" fill="rgb(14.5135%, 4.7345%, 3.12476%)" fill-rule="evenodd" fill-opacity="0.390822"/>
		<polygon points="312,472 312,473 319,480 315,475" fill="rgb(45.008%, 43.0297%, 75.5059%)" fill-rule="evenodd" fill-opacity="0.143531"/>
		<polygon points="387,535 385,536 386,533 384,527 383,525 380,530 381,533 377,540 383,540 383,541 385,542 390,544 389,538 388,535" fill="rgb(31.1141%, 44.2558%, 30.8008%)" fill-rule="evenodd" fill-opacity="0.100955"/>
		<polygon points="341,497 346,502 345,495" fill="rgb(62.3479%, 26.3858%, 17.8001%)" fill-rule="evenodd" fill-opacity="0.103166"/>
		<polygon points="297,536 302,538 296,538 299,537 293,542 291,540 291,537" fill="rgb(96.4562%, 84.159%, 64.1925%)" fill-rule="evenodd" fill-opacity="0.327046"/>
		<polygon points="302,521 294,527 291,527 291,525 291,519" fill="rgb(72.3124%, 56.8401%, 42.0928%)" fill-rule="evenodd" fill-opacity="0.380840"/>
		<polygon points="290,525 293,526 297,523 298,520 290,521" fill="rgb(88.7382%, 74.834%, 63.4511%)" fill-rule="evenodd" fill-opacity="0.221727"/>
		<polygon points="340,506 339,503 335,497 332,485 333,484 351,503 345,506 341,505 343,507 344,507 344,509 356,520 364,511 371,503 368,500 360,504" fill="rgb(18.9401%, 10.8191%, 10.001%)" fill-rule="evenodd" fill-opacity="0.319399"/>
		<polygon points="305,538 307,537 304,540 299,539 295,537 308,538" fill="rgb(43.2624%, 36.2849%, 31.4294%)" fill-rule="evenodd" fill-opacity="0.438204"/>
		<polygon points="361,507 356,512 350,507 351,505 348,507 352,507 351,498" fill="rgb(58.3179%, 44.9724%, 38.4772%)" fill-rule="evenodd" fill-opacity="0.175452"/>
		<polygon points="317,523 311,523 303,520 291,529 298,526 300,522 304,524 311,526 323,525 326,521 324,523" fill="rgb(100%, 91.968%, 86.5242%)" fill-rule="evenodd" fill-opacity="0.147678"/>
		<polygon points="294,547 294,547 296,543 302,543 297,549" fill="rgb(82.3207%, 57.0827%, 55.0193%)" fill-rule="evenodd" fill-opacity="0.315596"/>
		<polygon points="293,544 295,547 301,545 306,544" fill="rgb(60.8067%, 47.8073%, 46.6288%)" fill-rule="evenodd" fill-opacity="0.347321"/>
		<polygon points="292,535 295,532 307,534 301,530 299,529 291,529 288,529 288,535" fill="rgb(93.4055%, 74.0722%, 54.507%)" fill-rule="evenodd" fill-opacity="0.270473"/>
		<polygon points="310,480 305,475 298,473 301,468 307,474 310,475 312,481" fill="rgb(100%, 91.3671%, 76.89%)" fill-rule="evenodd" fill-opacity="0.180269"/>
	</g>
	<g id="G17">
		<polygon points="838,438 842,437 839,436 842,431 840,432 838,431 836,426 832,427 828,424 824,425 822,429 820,437 821,439 816,444 821,446 824,446 835,441" fill="rgb(34.3251%, 34.3572%, 29.9654%)" fill-rule="evenodd" fill-opacity="0.223468"/>
		<polygon points="753,449 772,451 779,448 767,430 756,431 757,429 755,424 752,426 747,427 743,423 742,424 740,431 741,437 745,443" fill="rgb(82.8188%, 62.1394%, 47.29%)" fill-rule="evenodd" fill-opacity="0.159744"/>
		<polygon points="846,412 844,411 843,408 818,408 817,410 816,411 812,411 805,420 802,421 805,441 816,446 822,447 834,444 844,434" fill="rgb(98.1114%, 74.847%, 62.2241%)" fill-rule="evenodd" fill-opacity="0.128309"/>
		<polygon points="770,432 768,429 752,432 762,427 770,430 768,427 766,427 778,447 781,446 785,445 805,448 815,445 810,443 810,435 808,434 804,431 804,430 802,423" fill="rgb(55.4078%, 38.673%, 32.7186%)" fill-rule="evenodd" fill-opacity="0.241176"/>
		<polygon points="742,428 741,431 750,436 749,436 751,433 761,427 762,426 761,422 748,420 741,426" fill="rgb(34.9552%, 41.0272%, 38.3302%)" fill-rule="evenodd" fill-opacity="0.186609"/>
		<polygon points="740,430 743,426 747,413 785,407 800,424 772,432 771,433 770,435 762,438 756,437 754,439 752,440 742,438" fill="rgb(48.9861%, 34.4582%, 27.968%)" fill-rule="evenodd" fill-opacity="0.322400"/>
		<polygon points="839,402 839,403 843,407 842,408 827,408 824,408 825,409 825,411 815,410 814,407 812,406 811,402 814,399 818,395 824,398 823,401 825,405 828,409 830,405 832,396" fill="rgb(91.9812%, 68.5888%, 65.9433%)" fill-rule="evenodd" fill-opacity="0.121603"/>
		<polygon points="824,444 821,441 823,440 824,432 826,429 835,442 830,445" fill="rgb(52.2828%, 46.9259%, 40.8588%)" fill-rule="evenodd" fill-opacity="0.355329"/>
		<polygon points="804,409 794,403 795,422 797,428 799,435 800,431 797,422 802,425" fill="rgb(68.2977%, 42.0847%, 40.6137%)" fill-rule="evenodd" fill-opacity="0.163463"/>
		<polygon points="813,411 807,407 813,407 814,409" fill="rgb(74.2978%, 78.0138%, 54.7856%)" fill-rule="evenodd" fill-opacity="0.161389"/>
		<polygon points="780,408 784,404 788,401 802,395 833,395 827,415 815,418 810,419 803,423 795,411 794,418 791,413 784,407 777,422 775,432 774,421" fill="rgb(43.6323%, 32.9636%, 28.9016%)" fill-rule="evenodd" fill-opacity="0.323150"/>
		<polygon points="808,438 801,439 792,430 792,433 790,436 795,444 808,446 808,448 811,447 820,446 827,445 827,444 824,443 824,435 814,443 813,438" fill="rgb(30.1095%, 20.6332%, 16.5982%)" fill-rule="evenodd" fill-opacity="0.233722"/>
		<polygon points="821,415 810,417 808,418 810,415 812,414 830,412" fill="rgb(76.2138%, 89.0031%, 84.585%)" fill-rule="evenodd" fill-opacity="0.108562"/>
		<polygon points="755,418 756,417 766,420 765,423 768,427 763,429 762,434 758,435 756,433 753,437 751,437 740,435 740,431 747,415" fill="rgb(66.7731%, 59.3026%, 53.8779%)" fill-rule="evenodd" fill-opacity="0.100000"/>
		<polygon points="795,420 797,422 796,423 798,423 799,432" fill="rgb(80.2275%, 92.565%, 97.3016%)" fill-rule="evenodd" fill-opacity="0.179811"/>
		<polygon points="818,427 817,425 813,426 817,432" fill="rgb(45.2943%, 49.1747%, 42.9698%)" fill-rule="evenodd" fill-opacity="0.119184"/>
		<polygon points="789,422 790,429 793,431 793,427" fill="rgb(35.3794%, 42.1299%, 61.7334%)" fill-rule="evenodd" fill-opacity="0.100000"/>
	</g>
	<g id="G18">
		<polygon points="181,197 178,198 181,192 179,187 181,184 177,182 180,180 176,181 178,177 167,168 164,172 162,170 165,168" fill="rgb(97.163%, 94.4932%, 65.1189%)" fill-rule="evenodd" fill-opacity="0.219167"/>
		<polygon points="232,242 235,247 241,246 245,243 253,245 247,238 244,242 246,245 269,252 254,244 294,253 319,254 318,257 301,257 275,255 200,214 193,211 188,212 188,211 173,203 172,208" fill="rgb(50.5686%, 46.154%, 34.8383%)" fill-rule="evenodd" fill-opacity="0.256256"/>
		<polygon points="203,217 197,214 187,212 245,241 215,224 221,226 214,221" fill="rgb(80.3237%, 71.3601%, 60.7796%)" fill-rule="evenodd" fill-opacity="0.286430"/>
		<polygon points="234,238 228,235 223,230 175,210 185,211 199,215 233,233 257,246 238,242" fill="rgb(87.6428%, 75.6732%, 56.155%)" fill-rule="evenodd" fill-opacity="0.333743"/>
		<polygon points="341,253 322,259 285,257 274,255 247,247 250,246 244,246 245,239 260,246 279,250 299,252 323,252 345,249" fill="rgb(74.6434%, 55.1987%, 39.8038%)" fill-rule="evenodd" fill-opacity="0.341073"/>
		<polygon points="338,253 325,257 300,256 281,255 269,252 250,245 229,235 224,231 213,228 250,251 283,260 308,260 334,260 352,254 345,244" fill="rgb(20.5517%, 10.9056%, 4.47828%)" fill-rule="evenodd" fill-opacity="0.428203"/>
		<polygon points="293,253 329,254 346,246 349,254 332,272 281,264 266,261 238,248 243,245 220,231 202,222 240,237 240,238" fill="rgb(75.827%, 58.8646%, 34.5931%)" fill-rule="evenodd" fill-opacity="0.140140"/>
		<polygon points="192,216 200,218 235,235 191,211 162,198 163,176 170,193 173,203 166,200 172,211 185,218" fill="rgb(100%, 93.1276%, 69.0428%)" fill-rule="evenodd" fill-opacity="0.201805"/>
		<polygon points="165,181 173,203 180,206 182,194 179,182 170,168 160,168" fill="rgb(99.2683%, 84.4011%, 66.0054%)" fill-rule="evenodd" fill-opacity="0.465287"/>
		<polygon points="160,169 173,192 177,195 177,213 182,216 172,216 162,204" fill="rgb(20.2337%, 16.8356%, 14.0897%)" fill-rule="evenodd" fill-opacity="0.408161"/>
	</g>
	<g id="G19">
		<polygon points="718,368 718,372 715,373 713,377 707,377 701,376 706,375 713,375 712,363" fill="rgb(38.4115%, 48.7071%, 51.6447%)" fill-rule="evenodd" fill-opacity="0.283779"/>
		<polygon points="707,336 708,331 708,332 710,322 707,315 704,309 706,317 704,325 697,323 696,326 688,307 683,315 698,348" fill="rgb(100%, 59.7138%, 40.6691%)" fill-rule="evenodd" fill-opacity="0.213250"/>
		<polygon points="713,354 711,354 712,359 711,359 718,368 712,365 712,364 708,363 710,368 707,373 715,374 720,366 722,366 715,357 715,348 713,345" fill="rgb(52.8841%, 67.2896%, 65.7673%)" fill-rule="evenodd" fill-opacity="0.297937"/>
		<polygon points="707,313 704,325 703,325 704,328 702,331 697,331 687,305 686,300 697,297" fill="rgb(90.272%, 59.008%, 42.4971%)" fill-rule="evenodd" fill-opacity="0.235698"/>
		<polygon points="715,356 720,362 719,367 714,361 707,360 708,356 706,347 708,347 710,346 710,343 711,342 710,341 716,347" fill="rgb(97.2264%, 89.5149%, 57.418%)" fill-rule="evenodd" fill-opacity="0.208214"/>
		<polygon points="692,333 694,330 693,327 694,322 695,325 702,318 698,313 703,308 698,304 687,306 690,322 683,312 687,325 683,328 686,334 689,346 691,355 692,358 694,358 694,365 697,369 697,346" fill="rgb(12.2299%, 3.80672%, 3.18204%)" fill-rule="evenodd" fill-opacity="0.383046"/>
		<polygon points="708,336 708,330 708,327 706,332 704,336 701,332 697,332 701,340 701,343 702,345 705,359 707,361 708,355 707,349 713,343" fill="rgb(70.4067%, 41.0241%, 14.6981%)" fill-rule="evenodd" fill-opacity="0.129615"/>
		<polygon points="697,369 691,363 674,359 673,355 674,344 670,336 670,332 673,331 677,328 676,327 677,323 684,315 697,345" fill="rgb(98.3914%, 52.174%, 36.8933%)" fill-rule="evenodd" fill-opacity="0.153728"/>
		<polygon points="695,327 696,325 699,323 702,324 702,328 701,326 698,326 697,327 699,330 697,330" fill="rgb(100%, 88.3001%, 67.0658%)" fill-rule="evenodd" fill-opacity="0.300579"/>
		<polygon points="697,349 707,336 707,334 712,342 716,348 716,357 721,364 714,376 702,376 697,368" fill="rgb(93.2057%, 44.4412%, 24.3921%)" fill-rule="evenodd" fill-opacity="0.279235"/>
		<polygon points="703,326 701,325 698,324 701,328 699,330 700,331 703,329" fill="rgb(100%, 100%, 83.2137%)" fill-rule="evenodd" fill-opacity="0.319431"/>
		<polygon points="688,306 687,308 689,309 690,310 682,320 684,324 682,328 681,326 682,323 679,323 681,317" fill="rgb(38.1665%, 36.5264%, 32.2708%)" fill-rule="evenodd" fill-opacity="0.211330"/>
		<polygon points="690,308 691,308 686,302 687,299 688,299 690,302 688,306" fill="rgb(62.4038%, 60.8678%, 50.1234%)" fill-rule="evenodd" fill-opacity="0.147248"/>
		<polygon points="674,350 675,355 673,356 675,357 676,360 675,360 675,361" fill="rgb(71.9965%, 70.1404%, 55.9588%)" fill-rule="evenodd" fill-opacity="0.191071"/>
		<polygon points="707,373 708,371 710,368 708,363 710,360 708,361 708,359 701,372" fill="rgb(54.347%, 47.7774%, 29.0249%)" fill-rule="evenodd" fill-opacity="0.234496"/>
		<polygon points="703,309 702,305 695,297 702,309" fill="rgb(39.0191%, 55.3616%, 69.1967%)" fill-rule="evenodd" fill-opacity="0.211475"/>
		<polygon points="710,325 709,322 710,320 708,320 708,324" fill="rgb(46.6185%, 77.1018%, 89.461%)" fill-rule="evenodd" fill-opacity="0.204117"/>
		<polygon points="691,299 690,300 692,301 696,303 699,302 700,305 692,299" fill="rgb(70.9643%, 49.1976%, 44.0665%)" fill-rule="evenodd" fill-opacity="0.156569"/>
	</g>
</svg>