<?xml version="1.0" encoding="UTF-8" standalone="no"?>
<svg xmlns:svg="http://www.w3.org/2000/svg" xmlns="http://www.w3.org/2000/svg" width="1604" height="1202">
	<rect width = "1604" height="1202" fill="rgb(0%, 0%, 0%)"/>
	<g id="G0">
		<polygon points="1220,105 997,102 840,115 824,159 898,222 862,227 876,292 955,380 795,362 658,461 1256,547 1373,519 1532,583 1600,562 1593,78" fill="rgb(79.1062%, 93.6473%, 42.1532%)" fill-rule="evenodd" fill-opacity="0.134855"/>
		<polygon points="1149,168 1157,210 1174,218 994,258 823,205 716,194 432,192 598,152 651,162 809,139 945,102 1373,112 1332,163" fill="rgb(30.2019%, 36.9544%, 42.2966%)" fill-rule="evenodd" fill-opacity="0.377172"/>
		<polygon points="817,320 1364,371 1600,458 1600,84 1526,78 1133,120 1038,95 864,101" fill="rgb(35.36%, 48.1675%, 56.1952%)" fill-rule="evenodd" fill-opacity="0.480908"/>
		<polygon points="831,324 1361,368 1599,458 1309,553 1290,671 1074,636 959,667 858,666 825,634 750,637 681,451" fill="rgb(51.1914%, 74.6896%, 75.5183%)" fill-rule="evenodd" fill-opacity="0.264923"/>
		<polygon points="242,117 173,159 0,98 0,388 47,379 123,220 260,248 495,237 612,250 759,302 871,277 857,213" fill="rgb(47.6869%, 46.6332%, 63.3692%)" fill-rule="evenodd" fill-opacity="0.141444"/>
		<polygon points="1515,624 1532,536 1586,517 1563,495 1519,508 1445,488 1436,510" fill="rgb(65.6722%, 76.0199%, 40.0138%)" fill-rule="evenodd" fill-opacity="0.211533"/>
		<polygon points="499,534 552,492 535,493 663,452 750,400 822,313 853,150 651,167 546,168 0,119 5,618 224,522 330,555 372,610" fill="rgb(59.3339%, 82.1482%, 76.8755%)" fill-rule="evenodd" fill-opacity="0.328819"/>
		<polygon points="805,578 772,616 882,618 930,583" fill="rgb(71.7886%, 49.6016%, 35.5857%)" fill-rule="evenodd" fill-opacity="0.177360"/>
		<polygon points="590,412 515,359 605,357 773,372 811,325 785,256 537,186 840,192 914,334 1036,464 903,542 794,544 780,584" fill="rgb(28.9974%, 39.794%, 30.9489%)" fill-rule="evenodd" fill-opacity="0.337364"/>
		<polygon points="226,532 0,626 0,486 8,378 281,435 482,449 486,496 476,540 410,617 325,560" fill="rgb(25.7243%, 27.6835%, 0.189464%)" fill-rule="evenodd" fill-opacity="0.191501"/>
		<polygon points="1500,539 1447,566 1311,540 1398,495" fill="rgb(0%, 0%, 0%)" fill-rule="evenodd" fill-opacity="0.316278"/>
		<polygon points="21,639 55,639 74,593 35,597" fill="rgb(68.6509%, 70.1736%, 60.121%)" fill-rule="evenodd" fill-opacity="0.234786"/>
		<polygon points="250,146 296,127 217,116 178,153" fill="rgb(90.4707%, 95.7092%, 78.7434%)" fill-rule="evenodd" fill-opacity="0.215195"/>
		<polygon points="1209,225 1289,231 1326,210 1383,207 1454,242 1471,178 1368,148 1229,115 914,105" fill="rgb(59.9994%, 82.6325%, 93.5556%)" fill-rule="evenodd" fill-opacity="0.100000"/>
		<polygon points="1197,123 1286,127 1461,176 1466,234 1444,347 1499,366 1600,177 1600,89 1408,78 1580,78" fill="rgb(66.3941%, 77.0167%, 82.4255%)" fill-rule="evenodd" fill-opacity="0.322919"/>
		<polygon points="1396,522 1461,541 1578,544 1497,494" fill="rgb(33.2202%, 50.2208%, 51.8559%)" fill-rule="evenodd" fill-opacity="0.337347"/>
		<polygon points="970,90 828,128 813,148 1166,128 1022,83" fill="rgb(73.9027%, 59.2594%, 19.0534%)" fill-rule="evenodd" fill-opacity="0.115692"/>
		<polygon points="908,681 1027,623 997,631 997,604 920,613" fill="rgb(79.6195%, 37.0007%, 51.4626%)" fill-rule="evenodd" fill-opacity="0.218444"/>
		<polygon points="902,613 890,656 977,675 1054,650 1053,632" fill="rgb(56.5723%, 60.876%, 36.7915%)" fill-rule="evenodd" fill-opacity="0.320388"/>
		<polygon points="914,654 954,666 889,582 752,600 735,572" fill="rgb(52.3735%, 55.5313%, 40.4457%)" fill-rule="evenodd" fill-opacity="0.309013"/>
		<polygon points="1488,493 1600,456 1600,546" fill="rgb(27.9782%, 41.9275%, 48.6707%)" fill-rule="evenodd" fill-opacity="0.379156"/>
		<polygon points="424,702 407,682 382,617 414,577 506,533 523,696" fill="rgb(49.2295%, 64.8624%, 44.705%)" fill-rule="evenodd" fill-opacity="0.346977"/>
		<polygon points="10,515 103,498 23,466" fill="rgb(67.1616%, 67.107%, 40.8325%)" fill-rule="evenodd" fill-opacity="0.206116"/>
		<polygon points="795,157 945,86 1007,107 1114,128" fill="rgb(25.544%, 42.8101%, 82.46%)" fill-rule="evenodd" fill-opacity="0.153794"/>
		<polygon points="303,139 364,120 440,159 424,189 372,215 282,204 298,189 208,176 200,134" fill="rgb(36.3651%, 44.3853%, 45.3933%)" fill-rule="evenodd" fill-opacity="0.309876"/>
		<polygon points="786,608 859,635 898,627 895,666 940,685 948,669 986,669 1026,623 966,577 820,575" fill="rgb(40.5508%, 60.7975%, 31.0422%)" fill-rule="evenodd" fill-opacity="0.177700"/>
		<polygon points="1600,225 1600,270 1528,354 1480,344 1347,325 1290,326 1304,280 1331,153 1513,174" fill="rgb(43.8662%, 52.3656%, 53.6875%)" fill-rule="evenodd" fill-opacity="0.160566"/>
		<polygon points="1476,521 1460,562 1539,601" fill="rgb(54.3376%, 61.2908%, 57.7951%)" fill-rule="evenodd" fill-opacity="0.263836"/>
		<polygon points="1161,123 987,164 888,164 794,153 953,87" fill="rgb(58.8144%, 79.2557%, 63.7518%)" fill-rule="evenodd" fill-opacity="0.140869"/>
	</g>
	<g id="G1">
		<polygon points="698,87 220,66 126,19 168,3 547,4 1113,1 1600,1 1600,69 1388,110 1269,119 1124,118" fill="rgb(59.2391%, 58.808%, 58.6994%)" fill-rule="evenodd" fill-opacity="0.335703"/>
		<polygon points="460,163 523,180 566,178 602,168 630,180 695,180 713,170 797,163 817,157 865,127 924,98 553,101 401,138 306,135" fill="rgb(86.94%, 94.4882%, 90.6791%)" fill-rule="evenodd" fill-opacity="0.227523"/>
		<polygon points="0,89 16,77 30,42 70,7 139,12 172,18 286,43 498,75 377,97 153,149 119,148" fill="rgb(65.0183%, 67.3216%, 64.7589%)" fill-rule="evenodd" fill-opacity="0.541096"/>
		<polygon points="386,123 234,112 434,80 617,59 853,83 889,117 812,113 929,109 816,147 556,169" fill="rgb(78.1994%, 78.9547%, 75.0645%)" fill-rule="evenodd" fill-opacity="0.341777"/>
		<polygon points="392,7 516,5 1231,7 1600,5 1600,54 1403,101 959,94 927,107 800,131 668,176 584,161 557,157 442,164 419,126 9,107 16,86 6,9" fill="rgb(92.8069%, 90.9158%, 92.8466%)" fill-rule="evenodd" fill-opacity="0.571109"/>
		<polygon points="939,9 1558,8 1600,82 1439,84 1420,94 1304,88 867,93 870,102 847,118 799,135 707,151 673,162 555,157 554,158 449,145 360,123 231,119 155,120 27,106 15,100 13,7" fill="rgb(100%, 99.6548%, 100%)" fill-rule="evenodd" fill-opacity="0.474495"/>
		<polygon points="633,7 1581,6 1594,77 1382,76 1301,96 1161,108 967,79 925,90 823,122 653,158 435,141 441,126 91,125 0,113 12,2" fill="rgb(100%, 100%, 100%)" fill-rule="evenodd" fill-opacity="0.600000"/>
		<polygon points="0,36 18,96 132,147 228,128 305,135 379,137 530,175 605,157 727,151 797,155 936,91 1048,92 1110,113 1234,110 1478,85 1594,71 1600,7 1352,5 2,7" fill="rgb(100%, 100%, 100%)" fill-rule="evenodd" fill-opacity="0.597916"/>
		<polygon points="342,0 924,1 1145,3 1586,2 1581,33 1600,69 1225,108 1169,111 1123,107 1083,98 1096,92 997,89 911,90 814,140 727,145 713,158 645,169 595,160 362,126 278,123 0,120 4,0" fill="rgb(100%, 100%, 100%)" fill-rule="evenodd" fill-opacity="0.567478"/>
		<polygon points="1515,73 1300,106 1189,117 1119,111 1083,110 857,88 919,96 761,151 690,138 523,169 491,158 373,131 57,128 52,116 4,107 0,4 678,0 1600,0 1598,96" fill="rgb(100%, 100%, 100%)" fill-rule="evenodd" fill-opacity="0.557949"/>
		<polygon points="636,159 583,157 510,167 488,153 429,157 418,168 519,180" fill="rgb(50.4269%, 56.7922%, 56.8317%)" fill-rule="evenodd" fill-opacity="0.297640"/>
		<polygon points="1582,79 1600,90 1600,105 1567,97 1550,89 1449,87 1438,79 1531,67" fill="rgb(46.3299%, 46.5629%, 47.8477%)" fill-rule="evenodd" fill-opacity="0.276556"/>
		<polygon points="216,149 219,141 280,131 275,120 126,142 67,155" fill="rgb(17.8996%, 17.7341%, 18.8495%)" fill-rule="evenodd" fill-opacity="0.418989"/>
		<polygon points="298,138 266,120 234,120 207,128" fill="rgb(15.4091%, 24.4727%, 8.73285%)" fill-rule="evenodd" fill-opacity="0.453278"/>
		<polygon points="0,110 57,109 122,137 0,136" fill="rgb(47.4167%, 51.4193%, 49.519%)" fill-rule="evenodd" fill-opacity="0.213326"/>
		<polygon points="195,128 247,136 314,146 260,107" fill="rgb(24.385%, 12.3466%, 25.5334%)" fill-rule="evenodd" fill-opacity="0.302394"/>
		<polygon points="1508,82 1427,78 1409,86 1229,106 1082,110 1061,115 1066,119 1166,124 1399,102" fill="rgb(60.2741%, 66.5009%, 60.9891%)" fill-rule="evenodd" fill-opacity="0.263336"/>
		<polygon points="123,138 111,145 81,144 92,135 0,122 0,114 45,114" fill="rgb(50.3974%, 50.9291%, 48.1491%)" fill-rule="evenodd" fill-opacity="0.380880"/>
		<polygon points="1457,96 1383,96 1405,105 1335,106 1303,120 1356,122 1526,96 1594,97 1600,94 1526,73 1434,84" fill="rgb(7.33147%, 7.09868%, 8.65858%)" fill-rule="evenodd" fill-opacity="0.257470"/>
		<polygon points="1034,121 994,123 930,114 922,103 944,99 1037,97 1084,109" fill="rgb(11.7929%, 9.99929%, 10.4624%)" fill-rule="evenodd" fill-opacity="0.335358"/>
		<polygon points="817,148 795,159 717,157 719,145 722,143 791,150 818,143 876,141" fill="rgb(52.369%, 53.0104%, 53.7215%)" fill-rule="evenodd" fill-opacity="0.462899"/>
		<polygon points="1401,98 1282,91 1252,108 1071,115 1230,116" fill="rgb(66.8374%, 65.9686%, 62.7115%)" fill-rule="evenodd" fill-opacity="0.330915"/>
		<polygon points="296,153 368,133 397,146 389,130 401,126 271,131" fill="rgb(56.0157%, 55.6013%, 53.255%)" fill-rule="evenodd" fill-opacity="0.356966"/>
		<polygon points="899,133 877,129 841,130 810,143" fill="rgb(30.0162%, 34.5209%, 45.1783%)" fill-rule="evenodd" fill-opacity="0.173223"/>
	</g>
	<g id="G2">
		<polygon points="294,656 356,662 371,706 355,726 351,742 381,770 335,764 323,753 231,761 225,727 206,711 233,677 214,651" fill="rgb(98.1215%, 58.5356%, 65.0022%)" fill-rule="evenodd" fill-opacity="0.498796"/>
		<polygon points="285,637 129,614 90,726 176,736 211,761 184,832 173,874 240,895 219,911 203,945 222,953 242,948 246,755 337,763 362,774 370,770 373,733 377,727 380,689" fill="rgb(98.3464%, 60.4968%, 60.4692%)" fill-rule="evenodd" fill-opacity="0.597601"/>
		<polygon points="335,599 308,593 324,578 387,603 404,661 409,723 399,737 366,695 372,665 382,645 341,662" fill="rgb(51.4992%, 61.7647%, 41.4637%)" fill-rule="evenodd" fill-opacity="0.422799"/>
		<polygon points="247,1008 227,1034 209,1047 149,1051 126,1026 204,1012 206,999 158,969 185,956 245,960 271,985" fill="rgb(100%, 78.2459%, 53.3185%)" fill-rule="evenodd" fill-opacity="0.274117"/>
		<polygon points="374,845 370,874 360,886 316,963 289,973 303,910 271,868" fill="rgb(99.2236%, 72.0698%, 41.2781%)" fill-rule="evenodd" fill-opacity="0.600000"/>
		<polygon points="281,1009 330,947 338,917 373,874 386,798 333,819 296,861 271,854 249,838 231,756 168,835 89,832 56,771 51,800 12,794 8,849 46,919 143,1060 218,1072" fill="rgb(100%, 66.1349%, 56.9964%)" fill-rule="evenodd" fill-opacity="0.370687"/>
		<polygon points="107,729 78,730 81,672 120,631 186,632 391,807 408,681 383,608 350,588 338,553 248,535 334,640 224,664 335,760" fill="rgb(100%, 74.1718%, 59.797%)" fill-rule="evenodd" fill-opacity="0.501198"/>
		<polygon points="74,1019 134,1081 175,1082 294,994 327,957 350,898 248,823 238,776 224,770 210,776 185,808 147,846 75,822 69,769 62,753 46,788 20,752 8,854 19,880 37,897 54,990" fill="rgb(98.8928%, 65.2801%, 50.8229%)" fill-rule="evenodd" fill-opacity="0.325228"/>
		<polygon points="104,879 83,903 20,878 8,830 11,770 33,756 29,678 56,616 101,568 194,535 245,525 385,711 383,741 359,765 138,738 113,836 117,859" fill="rgb(100%, 74.0788%, 57.5876%)" fill-rule="evenodd" fill-opacity="0.232881"/>
		<polygon points="54,619 94,579 145,609 156,602 180,614 187,724 75,732 63,725" fill="rgb(66.8018%, 47.3816%, 47.4994%)" fill-rule="evenodd" fill-opacity="0.316862"/>
		<polygon points="219,729 196,827 105,856 89,826 59,750 101,797 135,780 195,779 182,799 153,808 71,724" fill="rgb(31.6757%, 27.4608%, 26.2031%)" fill-rule="evenodd" fill-opacity="0.374739"/>
		<polygon points="341,774 393,809 330,931 296,879 352,836 358,808 369,812 372,801 345,774 275,729 259,713 300,659 330,662 386,706" fill="rgb(100%, 97.8339%, 78.1688%)" fill-rule="evenodd" fill-opacity="0.504587"/>
		<polygon points="233,1018 230,997 242,999 258,962 250,951 232,963 221,956 191,971 210,983 212,1004 220,1004 185,1023 176,1044 195,1043" fill="rgb(100%, 67.9937%, 55.8815%)" fill-rule="evenodd" fill-opacity="0.312030"/>
		<polygon points="58,967 55,968 104,1017 108,1037 123,1031 40,912 41,944" fill="rgb(68.8035%, 63.2921%, 50.7769%)" fill-rule="evenodd" fill-opacity="0.295175"/>
		<polygon points="223,638 199,632 185,637 233,697 285,658" fill="rgb(85.6257%, 60.5219%, 49.7335%)" fill-rule="evenodd" fill-opacity="0.502029"/>
		<polygon points="217,572 235,544 151,559 166,547 253,525 261,550 308,539 343,567 241,568" fill="rgb(69.0338%, 65.2682%, 52.864%)" fill-rule="evenodd" fill-opacity="0.365257"/>
		<polygon points="302,933 302,913 333,922 349,890 328,900 239,824 222,829 287,905" fill="rgb(93.2339%, 50.831%, 44.4141%)" fill-rule="evenodd" fill-opacity="0.394334"/>
		<polygon points="159,915 93,890 93,943 153,961 165,930 175,928 185,912 215,904 155,880" fill="rgb(23.4871%, 10.8829%, 9.06012%)" fill-rule="evenodd" fill-opacity="0.270042"/>
		<polygon points="296,751 261,739 230,738 238,828 301,858 326,825 352,820 371,828 379,799 393,800 399,768 386,777" fill="rgb(36.5289%, 30.4788%, 23.132%)" fill-rule="evenodd" fill-opacity="0.351744"/>
		<polygon points="99,837 133,850 149,859 108,894 95,909 54,851 55,824" fill="rgb(100%, 79.7731%, 67.2968%)" fill-rule="evenodd" fill-opacity="0.124407"/>
		<polygon points="122,620 199,629 260,648 294,636 253,615" fill="rgb(61.5603%, 37.7173%, 26.6299%)" fill-rule="evenodd" fill-opacity="0.404260"/>
		<polygon points="251,956 181,965 218,919 244,901 240,948" fill="rgb(40.2546%, 25.3005%, 8.51131%)" fill-rule="evenodd" fill-opacity="0.249321"/>
		<polygon points="52,803 57,781 52,758 90,772 103,784 95,798 18,866" fill="rgb(60.2257%, 86.8251%, 77.8705%)" fill-rule="evenodd" fill-opacity="0.130202"/>
		<polygon points="114,576 96,581 106,567" fill="rgb(36.2249%, 32.7281%, 60.9822%)" fill-rule="evenodd" fill-opacity="0.185282"/>
	</g>
	<g id="G3">
		<polygon points="391,1171 360,1144 334,1127 333,978 331,956 367,953 380,922 424,914 388,812 521,758 627,838 602,855 611,889 483,913 457,1144 499,1053 501,956 587,970 578,1046 553,1055 519,1044 552,1122 561,1202 391,1201" fill="rgb(89.8236%, 59.071%, 40.367%)" fill-rule="evenodd" fill-opacity="0.479386"/>
		<polygon points="560,1199 524,1125 513,1108 523,1097 552,940 464,1129 449,1198 403,1196 427,1004 365,989 324,970 343,907 369,881 387,813 453,790 529,742 557,791 630,840 708,777 760,803 774,832 787,850 732,915 727,942 718,1202" fill="rgb(78.0901%, 90.5433%, 100%)" fill-rule="evenodd" fill-opacity="0.580220"/>
		<polygon points="541,1117 530,1102 531,1109 510,1128 521,1154 503,1191 464,1182 401,1202 547,1202" fill="rgb(78.2554%, 88.7618%, 93.0036%)" fill-rule="evenodd" fill-opacity="0.585248"/>
		<polygon points="732,1034 757,946 783,951 804,929 793,868 762,802 712,782 687,757 647,891 723,881 742,887 734,926 713,933 710,907 690,1025 671,1020 671,1002 702,922 657,941 658,963 564,949 545,964 587,976 575,982 604,943 591,1044 624,1048 630,954 657,968 660,1009 648,1034" fill="rgb(100%, 100%, 100%)" fill-rule="evenodd" fill-opacity="0.600000"/>
		<polygon points="637,864 715,895 683,900 687,946 711,946 736,966 804,941 792,877 783,852 779,827 746,794 677,757 678,805 631,842" fill="rgb(100%, 100%, 100%)" fill-rule="evenodd" fill-opacity="0.600000"/>
		<polygon points="751,996 732,1032 735,886 695,887 717,927 700,947 617,973 613,947 691,885 751,975" fill="rgb(7.14256%, 9.55183%, 0%)" fill-rule="evenodd" fill-opacity="0.256587"/>
		<polygon points="720,1071 750,983 749,968 741,964 727,973 729,959 715,992" fill="rgb(61.3762%, 14.6487%, 0%)" fill-rule="evenodd" fill-opacity="0.447956"/>
		<polygon points="622,837 595,861 609,891 378,921 385,949 404,993 338,980 327,963 368,872 379,836 391,814 477,777 523,747 587,811" fill="rgb(94.5945%, 98.217%, 100%)" fill-rule="evenodd" fill-opacity="0.600000"/>
		<polygon points="603,974 578,948 560,946 581,925 594,940 598,930" fill="rgb(10.9459%, 6.59766%, 2.51276%)" fill-rule="evenodd" fill-opacity="0.397505"/>
		<polygon points="716,1107 708,1163 618,1187 632,1148 656,1129 613,1130 619,1180 590,1191 517,1202 721,1202" fill="rgb(99.5304%, 94.3322%, 99.9972%)" fill-rule="evenodd" fill-opacity="0.521239"/>
		<polygon points="635,1188 566,1194 525,1173 544,1168 586,1147 581,1117 663,1129 690,1168" fill="rgb(49.3284%, 58.0913%, 52.9826%)" fill-rule="evenodd" fill-opacity="0.372699"/>
		<polygon points="532,1023 520,1028 514,1051 474,997 458,1146 445,1169 455,1184 576,1197 561,1133" fill="rgb(8.05019%, 21.7786%, 21.8838%)" fill-rule="evenodd" fill-opacity="0.465185"/>
		<polygon points="523,1145 547,1152 560,1151 546,1139 580,1125 607,1120 634,1124 649,1118 670,1140 564,1174" fill="rgb(72.3746%, 83.3214%, 79.5972%)" fill-rule="evenodd" fill-opacity="0.211103"/>
		<polygon points="616,895 641,880 661,894 696,925 654,958 649,969 620,964 602,903 573,951 564,914 512,959 563,898" fill="rgb(0%, 0%, 0%)" fill-rule="evenodd" fill-opacity="0.517009"/>
		<polygon points="637,1113 578,1099 570,1117 549,1133 551,1110 540,1105 527,1115 512,1112 504,1119 577,1069 613,1029 635,1079 669,1097" fill="rgb(5.22764%, 3.67692%, 0%)" fill-rule="evenodd" fill-opacity="0.573207"/>
		<polygon points="494,1050 507,993 506,976 490,966 541,940 530,929 537,899 509,924 492,945 481,937 479,992 467,1054 485,1049 524,1050 493,1086" fill="rgb(1.63716%, 0%, 0%)" fill-rule="evenodd" fill-opacity="0.600000"/>
		<polygon points="494,1056 528,1038 550,1039 524,1019 510,1020" fill="rgb(68.3336%, 62.0797%, 54.5328%)" fill-rule="evenodd" fill-opacity="0.191080"/>
		<polygon points="628,835 623,842 600,846 600,850 644,895 664,863" fill="rgb(3.34869%, 52.02%, 94.4791%)" fill-rule="evenodd" fill-opacity="0.279457"/>
		<polygon points="516,1120 507,1117 509,1125 532,1154 540,1146 552,1155 550,1145 477,1077" fill="rgb(25.1552%, 9.37707%, 20.303%)" fill-rule="evenodd" fill-opacity="0.301443"/>
		<polygon points="493,897 469,938 460,933 444,948 448,953 441,905 457,896 448,853 457,834 520,899" fill="rgb(72.41%, 79.4785%, 100%)" fill-rule="evenodd" fill-opacity="0.231225"/>
		<polygon points="526,1052 557,1057 540,1043 542,1001 529,958 515,1013 498,1038 463,1059" fill="rgb(10.5885%, 39.1849%, 28.6768%)" fill-rule="evenodd" fill-opacity="0.251055"/>
		<polygon points="452,1175 481,1190 515,1188 594,1201 409,1202 405,1085 466,1040" fill="rgb(73.3288%, 78.3414%, 87.842%)" fill-rule="evenodd" fill-opacity="0.581280"/>
		<polygon points="380,859 376,918 441,915 452,910 440,849" fill="rgb(39.7425%, 16.1618%, 35.9762%)" fill-rule="evenodd" fill-opacity="0.186743"/>
		<polygon points="517,1084 498,1088 514,1046 505,1052 498,1037 508,1010 523,1041" fill="rgb(91.0676%, 96.0595%, 98.4837%)" fill-rule="evenodd" fill-opacity="0.338263"/>
		<polygon points="375,919 381,907 387,914 399,951 412,989 401,983 395,1008 376,957" fill="rgb(52.7592%, 58.6484%, 73.6039%)" fill-rule="evenodd" fill-opacity="0.222732"/>
		<polygon points="768,944 770,906 747,907 729,946 724,964 734,964 729,973 797,946" fill="rgb(61.5401%, 58.1183%, 65.4953%)" fill-rule="evenodd" fill-opacity="0.324132"/>
		<polygon points="719,1062 726,1033 689,1030 698,991 684,985 673,1014 671,1043 633,1024 627,1050 653,1059 652,1076 667,1087 692,1079 693,1113 699,1130" fill="rgb(8.13089%, 8.69782%, 0%)" fill-rule="evenodd" fill-opacity="0.469212"/>
		<polygon points="590,912 579,928 574,918 576,903" fill="rgb(79.0845%, 25.7177%, 80.28%)" fill-rule="evenodd" fill-opacity="0.243854"/>
		<polygon points="457,848 562,853 551,777 526,770 494,803 503,804 449,819 450,833" fill="rgb(66.3522%, 70.5439%, 100%)" fill-rule="evenodd" fill-opacity="0.170572"/>
		<polygon points="685,790 700,785 680,750 659,739" fill="rgb(100%, 92.4181%, 97.7801%)" fill-rule="evenodd" fill-opacity="0.397724"/>
		<polygon points="497,1077 473,1115 487,1112 515,1093" fill="rgb(7.93189%, 40.1731%, 57.5226%)" fill-rule="evenodd" fill-opacity="0.327819"/>
		<polygon points="529,968 528,951 540,965" fill="rgb(29.2768%, 100%, 95.5275%)" fill-rule="evenodd" fill-opacity="0.336452"/>
		<polygon points="658,903 677,929 647,912" fill="rgb(95.8069%, 21.3993%, 15.2711%)" fill-rule="evenodd" fill-opacity="0.326418"/>
	</g>
	<g id="G4">
		<polygon points="1576,799 1489,724 1522,682 1570,717" fill="rgb(75.1739%, 67.617%, 44.604%)" fill-rule="evenodd" fill-opacity="0.196104"/>
		<polygon points="835,733 835,800 881,707 890,739 908,746 906,817 916,809 961,734 999,718 1050,645" fill="rgb(70.8308%, 66.1601%, 61.34%)" fill-rule="evenodd" fill-opacity="0.372034"/>
		<polygon points="1187,696 1287,756 1342,735 1368,754 1366,794 1263,797 1263,834 1214,808" fill="rgb(91.4073%, 81.2178%, 48.3255%)" fill-rule="evenodd" fill-opacity="0.254130"/>
		<polygon points="846,1168 818,1202 740,1197 829,1130" fill="rgb(86.4574%, 70.439%, 62.544%)" fill-rule="evenodd" fill-opacity="0.361560"/>
		<polygon points="831,1202 854,1073 745,1048 728,1062 720,1199" fill="rgb(71.5052%, 79.761%, 38.7199%)" fill-rule="evenodd" fill-opacity="0.505252"/>
		<polygon points="775,639 818,627 834,659 909,667 1006,682 979,820 933,855 835,905 896,829 796,798 761,805 832,856 660,741 669,686 721,637" fill="rgb(63.4531%, 78.6516%, 38.3116%)" fill-rule="evenodd" fill-opacity="0.334170"/>
		<polygon points="793,1057 740,995 718,1095 718,1186 833,1202 839,1130 854,1123 857,1005 845,953" fill="rgb(80.2424%, 86.4075%, 40.6987%)" fill-rule="evenodd" fill-opacity="0.347225"/>
		<polygon points="1378,786 1355,826 1292,851 1259,877 1242,981 1230,924 1215,904 1191,730 1176,675 1278,669" fill="rgb(73.5922%, 77.8003%, 31.6864%)" fill-rule="evenodd" fill-opacity="0.461055"/>
		<polygon points="1600,561 1584,598 1586,526 1557,526 1553,550 1533,542 1494,731 1526,789 1551,755 1598,781" fill="rgb(61.9387%, 71.9111%, 29.9903%)" fill-rule="evenodd" fill-opacity="0.304018"/>
		<polygon points="828,615 838,669 906,673 1036,664 950,845 894,887 820,1000 757,755 685,744 660,730 750,723 743,676" fill="rgb(60.2156%, 70.223%, 34.3199%)" fill-rule="evenodd" fill-opacity="0.340248"/>
		<polygon points="1241,1153 1213,1171 1235,1189 1272,1202 1303,1160 1286,1113 1252,1127" fill="rgb(85.6544%, 92.8163%, 76.0806%)" fill-rule="evenodd" fill-opacity="0.231716"/>
		<polygon points="1231,956 1243,967 1252,1073 1213,1121" fill="rgb(96.4262%, 87.7428%, 57.994%)" fill-rule="evenodd" fill-opacity="0.164531"/>
		<polygon points="750,966 800,933 845,1071 722,1062" fill="rgb(27.2204%, 38.0596%, 14.5012%)" fill-rule="evenodd" fill-opacity="0.330049"/>
		<polygon points="1223,1119 1234,1135 1214,1200 1316,1202 1286,1073 1247,1067" fill="rgb(88.2142%, 93.8067%, 46.6471%)" fill-rule="evenodd" fill-opacity="0.454111"/>
		<polygon points="742,629 783,658 768,667 777,696 679,680" fill="rgb(64.508%, 73.2107%, 39.1014%)" fill-rule="evenodd" fill-opacity="0.343125"/>
		<polygon points="1600,604 1555,622 1487,624 1499,591 1526,618 1535,577 1577,526" fill="rgb(88.3836%, 100%, 49.9385%)" fill-rule="evenodd" fill-opacity="0.369341"/>
		<polygon points="1313,673 1253,659 1182,670 1222,737 1242,748 1251,714 1314,713" fill="rgb(19.006%, 27.4661%, 26.4231%)" fill-rule="evenodd" fill-opacity="0.546456"/>
		<polygon points="712,631 811,713 809,659 754,623" fill="rgb(12.1053%, 13.7799%, 7.92439%)" fill-rule="evenodd" fill-opacity="0.329025"/>
		<polygon points="800,888 823,879 840,908" fill="rgb(17.417%, 27.4119%, 12.4225%)" fill-rule="evenodd" fill-opacity="0.354736"/>
	</g>
	<g id="G5">
		<polygon points="1197,758 1206,782 1206,810 1213,889 1237,922 1238,997 1223,1025 1223,1058 1169,1033 1144,1033 1127,997 1095,888 1102,881 1116,847 1108,846" fill="rgb(98.2537%, 59.3458%, 36.8653%)" fill-rule="evenodd" fill-opacity="0.131296"/>
		<polygon points="1001,1014 1032,922 1042,916 1062,866 1050,839 1116,846 1100,886 1082,885 1108,959 1122,1019" fill="rgb(75.1316%, 53.5859%, 43.7337%)" fill-rule="evenodd" fill-opacity="0.484788"/>
		<polygon points="883,903 895,880 935,851 952,849 918,1105 895,1202 836,1202 855,1092 857,967" fill="rgb(93.7922%, 59.5034%, 46.2368%)" fill-rule="evenodd" fill-opacity="0.334066"/>
		<polygon points="1051,906 1130,960 1109,871 997,785 920,881 886,885 842,985 895,1036 916,1065 904,1072 941,1025 972,997 957,1111" fill="rgb(41.5755%, 27.1278%, 18.1102%)" fill-rule="evenodd" fill-opacity="0.327882"/>
		<polygon points="1013,933 1036,917 1045,927 1098,1016 991,1015 1019,1002 1004,998 990,948 996,927" fill="rgb(94.8527%, 86.7461%, 72.27%)" fill-rule="evenodd" fill-opacity="0.221083"/>
		<polygon points="1146,1021 1166,1048 1234,951 1226,1055 1216,1120 1174,1154 1185,1066 1162,1078" fill="rgb(58.9579%, 38.1163%, 22.7999%)" fill-rule="evenodd" fill-opacity="0.205259"/>
		<polygon points="1082,847 1051,845 1045,893 1000,922 1001,1010 1136,1024" fill="rgb(95.8111%, 63.1154%, 45.4141%)" fill-rule="evenodd" fill-opacity="0.359861"/>
		<polygon points="1206,916 1216,944 1217,1053 1206,1130 1169,1156 1165,1179 1184,1202 1221,1199 1219,1090 1235,979 1235,924 1210,895" fill="rgb(99.3879%, 67.8674%, 43.9892%)" fill-rule="evenodd" fill-opacity="0.433669"/>
		<polygon points="1158,1075 1177,1099 1156,1037 1145,1021" fill="rgb(44.4213%, 28.8783%, 32.5751%)" fill-rule="evenodd" fill-opacity="0.254405"/>
		<polygon points="994,1012 999,993 1008,1000 1063,909 1086,923 1091,953 1112,1011 1102,1024" fill="rgb(100%, 80.3161%, 63.7674%)" fill-rule="evenodd" fill-opacity="0.215165"/>
		<polygon points="917,962 901,1010 907,1039 903,1083 903,1127 888,1202 835,1202 854,1061 864,975 919,943" fill="rgb(100%, 69.6674%, 44.7872%)" fill-rule="evenodd" fill-opacity="0.373651"/>
		<polygon points="1010,706 1036,663 1053,642 1096,672 1066,683 1001,731" fill="rgb(92.6881%, 79.5308%, 49.7494%)" fill-rule="evenodd" fill-opacity="0.165113"/>
		<polygon points="1173,1130 1221,1171 1223,1123 1249,1136 1216,1174 1226,1202 1174,1202" fill="rgb(100%, 75.3073%, 50.9977%)" fill-rule="evenodd" fill-opacity="0.332124"/>
		<polygon points="1029,741 1048,701 1006,710 992,741 982,798 1021,794" fill="rgb(31.4634%, 24.9158%, 16.0418%)" fill-rule="evenodd" fill-opacity="0.250889"/>
		<polygon points="866,1167 886,1125 886,1081 871,1025 861,1034 855,1109 835,1174 836,1202 880,1202" fill="rgb(97.6781%, 64.4941%, 46.9784%)" fill-rule="evenodd" fill-opacity="0.232338"/>
		<polygon points="1146,687 1114,642 1102,642 1106,652 1076,664" fill="rgb(81.4428%, 73.8257%, 55.7536%)" fill-rule="evenodd" fill-opacity="0.405939"/>
		<polygon points="1225,1083 1218,1046 1190,1048 1203,1122" fill="rgb(71.5832%, 52.5497%, 20.6806%)" fill-rule="evenodd" fill-opacity="0.109012"/>
		<polygon points="1178,683 1186,682 1202,774 1154,782 1147,710 1122,680 1167,668" fill="rgb(87.4811%, 60.4141%, 38.8693%)" fill-rule="evenodd" fill-opacity="0.172858"/>
		<polygon points="1174,667 1191,717 1191,746 1174,714 1132,690" fill="rgb(84.7237%, 73.0404%, 51.5516%)" fill-rule="evenodd" fill-opacity="0.287310"/>
	</g>
	<g id="G6">
		<polygon points="1482,892 1424,884 1390,876 1385,842 1385,809 1299,848 1265,870 1259,901 1360,1033 1366,1097 1344,1157 1450,1106 1471,1081 1500,1013 1476,968 1514,876" fill="rgb(25.9559%, 55.8968%, 71.8183%)" fill-rule="evenodd" fill-opacity="0.452415"/>
		<polygon points="1414,883 1499,888 1597,804 1598,973 1598,1002 1577,1024 1560,1059 1550,1044 1547,1034 1520,1004 1509,976 1477,970 1491,994 1502,1019 1468,1086 1421,1121 1406,1134 1364,1134 1352,1070 1337,1064 1326,1075 1309,1000 1282,969 1255,928 1260,886 1278,855 1370,819" fill="rgb(77.3465%, 63.8896%, 66.6983%)" fill-rule="evenodd" fill-opacity="0.457945"/>
		<polygon points="1565,1183 1560,1117 1514,1138 1498,1161 1402,1200 1483,1197 1529,1197 1568,1200" fill="rgb(82.3593%, 66.5017%, 56.5198%)" fill-rule="evenodd" fill-opacity="0.304476"/>
		<polygon points="1262,975 1250,922 1251,1024 1248,1061 1308,1083 1298,1076 1310,1075 1299,1045" fill="rgb(89.2838%, 73.6094%, 65.0766%)" fill-rule="evenodd" fill-opacity="0.415371"/>
		<polygon points="1295,874 1281,878 1282,910 1266,868 1303,847 1387,812 1388,851 1373,830 1367,873 1295,864" fill="rgb(98.4227%, 98.3189%, 100%)" fill-rule="evenodd" fill-opacity="0.551577"/>
		<polygon points="1530,1145 1550,1121 1555,1150 1558,1188 1575,1202 1599,1202 1594,1149 1588,1171 1565,1078 1570,1068 1562,1030 1533,1154" fill="rgb(45.9928%, 55.097%, 55.4494%)" fill-rule="evenodd" fill-opacity="0.331704"/>
		<polygon points="1597,806 1580,798 1567,832 1504,886 1481,886 1451,893 1479,899 1498,911 1480,953 1549,1035 1560,1108 1566,1202 1601,1201" fill="rgb(94.0103%, 88.6538%, 100%)" fill-rule="evenodd" fill-opacity="0.406483"/>
		<polygon points="1601,1200 1458,1202 1371,1202 1401,1197 1461,1181 1510,1152 1525,1137 1559,1080 1548,993 1573,1030 1592,1005 1588,985 1591,971 1599,965" fill="rgb(64.4125%, 67.1023%, 66.8771%)" fill-rule="evenodd" fill-opacity="0.422322"/>
		<polygon points="1559,1046 1493,964 1498,1030 1454,1101 1323,1177 1309,1162 1327,1088 1246,1059 1255,882 1287,849 1384,813 1382,844 1404,867 1453,898 1525,869 1556,844 1586,798 1601,806 1600,997" fill="rgb(91.8407%, 100%, 98.5778%)" fill-rule="evenodd" fill-opacity="0.473416"/>
		<polygon points="1480,975 1488,901 1400,868 1386,851 1383,811 1328,845 1304,857 1266,863 1248,930 1244,1062 1287,1076 1288,1084 1308,1164 1322,1109 1346,1152 1430,1120 1484,1057 1507,1016" fill="rgb(87.3598%, 82.0884%, 79.7395%)" fill-rule="evenodd" fill-opacity="0.433746"/>
		<polygon points="1386,896 1403,909 1470,890 1544,893 1558,910 1548,923 1492,952 1468,937 1378,921" fill="rgb(67.2138%, 64.5511%, 61.5171%)" fill-rule="evenodd" fill-opacity="0.232347"/>
		<polygon points="1343,1165 1329,1117 1322,1096 1321,1080 1285,1077 1304,1162 1317,1189 1341,1202 1360,1191" fill="rgb(47.0292%, 13.3863%, 0%)" fill-rule="evenodd" fill-opacity="0.493281"/>
		<polygon points="1322,1175 1342,1169 1352,1184 1354,1178 1378,1202 1320,1201 1311,1181 1309,1164" fill="rgb(87.4214%, 70.6022%, 50.5232%)" fill-rule="evenodd" fill-opacity="0.346252"/>
		<polygon points="1347,1171 1363,1202 1340,1202 1313,1193 1316,1196 1321,1175 1353,1161" fill="rgb(45.3383%, 30.7802%, 25.102%)" fill-rule="evenodd" fill-opacity="0.434890"/>
		<polygon points="1342,1201 1355,1177 1341,1188 1333,1189 1431,1193 1493,1160 1516,1143 1535,1118 1550,1093 1561,1041 1598,1002 1597,1202" fill="rgb(98.5791%, 100%, 100%)" fill-rule="evenodd" fill-opacity="0.519840"/>
		<polygon points="1284,1027 1269,996 1250,946 1248,905 1257,916 1276,960 1308,986 1315,1009 1318,1058 1300,1066" fill="rgb(73.7159%, 58.3175%, 37.5819%)" fill-rule="evenodd" fill-opacity="0.204941"/>
		<polygon points="1535,1176 1548,1147 1506,1150" fill="rgb(79.2863%, 79.7182%, 82.405%)" fill-rule="evenodd" fill-opacity="0.119931"/>
	</g>
	<g id="G7">
		<polygon points="177,1202 250,1200 393,1202 390,1167 329,1126 269,1117 210,1087 208,1131 141,1149 83,1161 75,1200" fill="rgb(10.2276%, 60.4034%, 91.7726%)" fill-rule="evenodd" fill-opacity="0.469771"/>
		<polygon points="0,1114 1,1073 62,1062 77,1096 60,1202 0,1202" fill="rgb(13.4981%, 71.3729%, 99.9929%)" fill-rule="evenodd" fill-opacity="0.462655"/>
		<polygon points="207,1093 199,1101 206,1119 177,1202 291,1199 344,1164 346,1171 325,1198 388,1199 390,1175 366,1146 337,1136 314,1122 292,1123 280,1120" fill="rgb(14.9634%, 67.4454%, 100%)" fill-rule="evenodd" fill-opacity="0.474854"/>
		<polygon points="7,1061 22,1092 41,1120 50,1141 109,1200 128,1199 121,1167 144,1141 102,1116 89,1124 63,1173 77,1108 170,1087 120,1084 39,1055" fill="rgb(35.7084%, 51.1039%, 43.6991%)" fill-rule="evenodd" fill-opacity="0.527325"/>
		<polygon points="253,1037 190,1097 198,1136 173,1165 171,1200 230,1202 212,1145" fill="rgb(100%, 96.818%, 73.3262%)" fill-rule="evenodd" fill-opacity="0.600000"/>
		<polygon points="5,1071 77,1060 85,1055 109,1074 134,1083 205,1083 228,1098 225,1146 247,1165 251,1182 246,1200 103,1202 47,1167 0,1086" fill="rgb(85.1619%, 15.9852%, 0%)" fill-rule="evenodd" fill-opacity="0.343832"/>
		<polygon points="19,966 5,1028 38,992 40,953 44,950 37,910" fill="rgb(83.0869%, 92.2633%, 54.9091%)" fill-rule="evenodd" fill-opacity="0.267007"/>
		<polygon points="52,1020 44,950 37,928 26,963 12,998 0,1015 2,1038 11,1061 44,1052" fill="rgb(88.0583%, 70.1058%, 55.6273%)" fill-rule="evenodd" fill-opacity="0.316140"/>
		<polygon points="54,980 75,1043 86,1058 4,1073 0,1090 0,1017 39,919" fill="rgb(78.5424%, 58.4781%, 51.1585%)" fill-rule="evenodd" fill-opacity="0.473486"/>
		<polygon points="203,1078 226,1070 243,1057 213,1139 234,1202 106,1200 65,1174 74,1110 89,1104 162,1089" fill="rgb(100%, 81.7995%, 66.3548%)" fill-rule="evenodd" fill-opacity="0.448702"/>
		<polygon points="31,1014 18,992 0,1006 0,1072 4,1058 9,1060 31,1031" fill="rgb(89.6712%, 66.7457%, 60.875%)" fill-rule="evenodd" fill-opacity="0.198312"/>
		<polygon points="100,1196 103,1187 84,1185 148,1150 173,1148 196,1114 198,1151 186,1166 192,1180 172,1201" fill="rgb(79.1223%, 53.9235%, 41.9874%)" fill-rule="evenodd" fill-opacity="0.206564"/>
		<polygon points="176,1174 178,1158 156,1160 167,1187" fill="rgb(84.0101%, 63.8433%, 45.5931%)" fill-rule="evenodd" fill-opacity="0.278786"/>
		<polygon points="68,1064 83,1057 87,1073" fill="rgb(53.319%, 97.1204%, 86.6664%)" fill-rule="evenodd" fill-opacity="0.125756"/>
		<polygon points="150,1132 143,1144 128,1155 108,1132 74,1202 60,1200 73,1115 66,1045 205,1123 200,1133" fill="rgb(19.6091%, 35.3196%, 45.8163%)" fill-rule="evenodd" fill-opacity="0.223014"/>
	</g>
	<g id="G8">
		<polygon points="1150,1193 1163,1196 1169,1161 1180,1121 1151,1057 1119,1059 1175,1113 1157,1154 1154,1188 1124,1195 1062,1200 1055,1199 1026,1202 956,1183 927,1185 997,1201 1131,1200" fill="rgb(72.1875%, 66.7888%, 62.8751%)" fill-rule="evenodd" fill-opacity="0.337663"/>
		<polygon points="953,953 951,989 925,1009 922,1036 937,1019 917,1091 931,1111 941,1120 968,1118 960,1080 978,1007 962,1000 937,1029 940,978" fill="rgb(90.6701%, 76.2679%, 74.2198%)" fill-rule="evenodd" fill-opacity="0.409906"/>
		<polygon points="955,1202 901,1165 978,1199 1028,1202 1046,1202 1010,1195 1018,1184 983,1177 966,1172 1138,1172 1073,1166 1052,1158 976,1146 937,1125 999,1141 1099,1149 1144,1148 1163,1145 1171,1131 1076,1128 914,1114 911,1120 910,1202" fill="rgb(83.4616%, 85.9454%, 68.6427%)" fill-rule="evenodd" fill-opacity="0.460191"/>
		<polygon points="1032,1165 1031,1176 1003,1172 952,1154 973,1180 966,1184 970,1199 903,1153" fill="rgb(90.9466%, 88.3833%, 94.1714%)" fill-rule="evenodd" fill-opacity="0.229523"/>
		<polygon points="1001,1033 994,1025 992,1019 999,1023 1028,1028 1065,1032 1076,1041" fill="rgb(64.841%, 77.1975%, 60.4192%)" fill-rule="evenodd" fill-opacity="0.420738"/>
		<polygon points="1153,1045 1152,1048 1162,1078 1147,1084 1079,1084 1110,1050 1020,1048 985,1036 1052,1016 1143,1024" fill="rgb(77.1745%, 54.0932%, 55.7235%)" fill-rule="evenodd" fill-opacity="0.390880"/>
		<polygon points="1007,1043 1010,1071 1013,1070 1068,1078 1035,1096 1050,1096 1065,1098 1072,1101 1073,1109 1079,1106 994,1096 1020,1091 1011,1086 977,1069 986,1049 1011,1055 991,1022 1042,1015 1117,1020 1081,1025 1119,1040" fill="rgb(82.5574%, 64.4749%, 77.8722%)" fill-rule="evenodd" fill-opacity="0.366276"/>
		<polygon points="1165,1177 1171,1175 1173,1113 1180,1106 1167,1094 1059,1096 1058,1087 1162,1081 1128,1064 987,1055 1007,1071 969,1059 965,1099 959,1072 967,1043 947,1033 934,1034 895,1202 1177,1201" fill="rgb(100%, 86.0505%, 96.258%)" fill-rule="evenodd" fill-opacity="0.359704"/>
		<polygon points="1178,1202 1164,1167 1176,1141 1156,1157 1082,1157 1041,1156 1140,1185 1069,1185 991,1185 1020,1192 989,1201" fill="rgb(98.8639%, 88.4895%, 81.1451%)" fill-rule="evenodd" fill-opacity="0.382988"/>
		<polygon points="1031,1116 1084,1119 1141,1119 1176,1112 1133,1073 1125,1066 1107,1057 1112,1050 1118,1034 1021,1028 1049,1016 998,1015 977,1066 987,1098 968,1098 977,1107" fill="rgb(97.7141%, 100%, 100%)" fill-rule="evenodd" fill-opacity="0.448217"/>
		<polygon points="1090,1081 1085,1083 1059,1085 1064,1072" fill="rgb(90.304%, 98.0855%, 100%)" fill-rule="evenodd" fill-opacity="0.427692"/>
		<polygon points="911,1171 899,1159 904,1190 950,1194" fill="rgb(82.0509%, 91.8882%, 93.2265%)" fill-rule="evenodd" fill-opacity="0.362942"/>
		<polygon points="964,1080 931,1063 930,1053 920,1036 943,1057 971,1070 972,1052 982,1074 1039,1084 1039,1089 1066,1090 1058,1092 1009,1090" fill="rgb(14.5447%, 2.51859%, 5.06456%)" fill-rule="evenodd" fill-opacity="0.505079"/>
		<polygon points="1034,1091 1054,1096 1131,1079 1168,1060 1159,1052 1160,1036 1158,1014 1176,1047 1160,1082 1185,1063 1184,1119 1158,1171 1165,1202 1131,1200 1143,1193 1121,1195 1126,1174 1153,1159 1160,1139 1150,1103 1163,1099 1009,1078" fill="rgb(38.767%, 27.7419%, 24.9396%)" fill-rule="evenodd" fill-opacity="0.361798"/>
		<polygon points="935,1100 961,1114 985,1117 1000,1113 982,1109 979,1112 957,1101 914,1074" fill="rgb(19.8184%, 8.31572%, 0%)" fill-rule="evenodd" fill-opacity="0.410223"/>
		<polygon points="1158,1068 1149,1065 1131,1068 1098,1069 1018,1067 1075,1077 1092,1077" fill="rgb(10.0476%, 12.8183%, 16.6957%)" fill-rule="evenodd" fill-opacity="0.388638"/>
		<polygon points="955,1138 940,1137 959,1151 997,1164 974,1166 956,1155 934,1147 924,1136 912,1117" fill="rgb(97.727%, 100%, 97.2919%)" fill-rule="evenodd" fill-opacity="0.247955"/>
		<polygon points="1090,1032 1119,1044 1127,1032 1152,1031 1112,1069 1167,1063 1174,1077 1108,1086 1173,1066 1171,1053 1139,1064 1120,1043 1105,1040 1023,1034" fill="rgb(86.8255%, 93.2584%, 100%)" fill-rule="evenodd" fill-opacity="0.272981"/>
		<polygon points="1067,1053 1057,1062 1034,1054 1042,1052 1071,1047" fill="rgb(50.6791%, 10.2014%, 15.0817%)" fill-rule="evenodd" fill-opacity="0.190796"/>
		<polygon points="1030,1032 999,1020 1004,1031" fill="rgb(47.2318%, 94.6865%, 98.4515%)" fill-rule="evenodd" fill-opacity="0.100840"/>
		<polygon points="989,1104 974,1100 1000,1095 1091,1095 1093,1087 1027,1080 1014,1086 1020,1091" fill="rgb(19.5708%, 12.6604%, 18.833%)" fill-rule="evenodd" fill-opacity="0.382371"/>
		<polygon points="899,1112 933,1141 949,1153 990,1170 978,1174 954,1168 916,1137" fill="rgb(17.4249%, 0%, 4.39326%)" fill-rule="evenodd" fill-opacity="0.405093"/>
		<polygon points="994,1022 996,1015 1009,1012 1042,1015 1051,1032" fill="rgb(40.6871%, 20.5016%, 20.446%)" fill-rule="evenodd" fill-opacity="0.450408"/>
		<polygon points="949,1075 961,1073 961,1089 972,1108 932,1090 923,1057 941,1066 936,1065" fill="rgb(84.6674%, 96.8964%, 88.1841%)" fill-rule="evenodd" fill-opacity="0.238242"/>
		<polygon points="964,1058 961,1063 951,1063 930,1042 936,1041" fill="rgb(91.0012%, 97.2913%, 95.425%)" fill-rule="evenodd" fill-opacity="0.445356"/>
		<polygon points="1016,1173 998,1165 1070,1166 1113,1174 1046,1175" fill="rgb(88.2588%, 89.1786%, 91.6984%)" fill-rule="evenodd" fill-opacity="0.563745"/>
		<polygon points="984,1069 997,1078 1000,1076 1032,1078 996,1065" fill="rgb(85.2223%, 100%, 100%)" fill-rule="evenodd" fill-opacity="0.336166"/>
		<polygon points="1171,1202 1176,1196 1166,1182 1168,1177 1166,1150 1151,1170" fill="rgb(98.252%, 100%, 80.6936%)" fill-rule="evenodd" fill-opacity="0.315161"/>
		<polygon points="1111,1061 1106,1048 1086,1054 1085,1049 1072,1049 1068,1060" fill="rgb(29.9563%, 14.895%, 12.782%)" fill-rule="evenodd" fill-opacity="0.500808"/>
		<polygon points="969,1048 970,1038 950,1019 961,1005 978,1009 975,1025" fill="rgb(74.3925%, 26.6568%, 44.2883%)" fill-rule="evenodd" fill-opacity="0.204313"/>
		<polygon points="1149,1173 1151,1164 1158,1163 1157,1169" fill="rgb(54.6233%, 77.5576%, 70.3282%)" fill-rule="evenodd" fill-opacity="0.300780"/>
	</g>
	<g id="G9">
		<polygon points="1421,819 1411,821 1405,811 1428,798 1449,789 1439,820" fill="rgb(44.2592%, 39.1646%, 33.7398%)" fill-rule="evenodd" fill-opacity="0.257787"/>
		<polygon points="1440,752 1425,755 1402,758 1405,767 1433,769 1445,773 1472,767 1490,747 1486,728 1430,712 1424,718" fill="rgb(66.7631%, 56.9701%, 80.7416%)" fill-rule="evenodd" fill-opacity="0.327352"/>
		<polygon points="1335,690 1347,711 1393,838 1439,809 1443,827 1483,870 1515,866 1524,870 1532,858 1527,848 1539,810 1564,797 1514,774 1501,735 1505,630 1452,671 1419,658 1401,633 1384,697 1345,688 1331,675" fill="rgb(100%, 77.1861%, 63.2386%)" fill-rule="evenodd" fill-opacity="0.291869"/>
		<polygon points="1398,634 1424,612 1484,616 1455,575 1440,564 1416,560 1342,583 1326,592 1329,651 1366,629" fill="rgb(100%, 79.121%, 67.6245%)" fill-rule="evenodd" fill-opacity="0.600000"/>
		<polygon points="1404,566 1382,575 1322,593 1322,621 1348,633 1386,634 1390,639 1400,683 1432,686 1453,765 1478,755 1456,694 1418,651 1411,636 1413,623 1448,611 1482,619 1449,565" fill="rgb(100%, 79.986%, 72.6973%)" fill-rule="evenodd" fill-opacity="0.600000"/>
		<polygon points="1317,693 1313,707 1329,729 1340,734 1350,707" fill="rgb(75.065%, 55.4793%, 48.4905%)" fill-rule="evenodd" fill-opacity="0.447505"/>
		<polygon points="1385,681 1392,674 1389,646 1374,631 1385,623 1401,652 1397,697" fill="rgb(34.9469%, 38.3466%, 20.896%)" fill-rule="evenodd" fill-opacity="0.327853"/>
		<polygon points="1309,678 1337,698 1454,670 1508,637 1517,671 1517,691 1483,697 1477,706 1486,737 1493,749 1497,733 1514,782 1471,775 1434,781 1401,767 1388,756 1347,728 1330,735 1309,703" fill="rgb(89.3521%, 53.3048%, 39.5251%)" fill-rule="evenodd" fill-opacity="0.464780"/>
		<polygon points="1535,786 1507,768 1501,738 1499,769 1494,790 1531,857 1540,856 1567,831 1581,805" fill="rgb(100%, 93.7136%, 81.6361%)" fill-rule="evenodd" fill-opacity="0.600000"/>
		<polygon points="1400,863 1387,844 1385,818 1398,835 1437,809 1449,795 1483,772 1483,759 1454,763 1460,744 1463,744 1444,729 1479,706 1479,631 1501,658 1500,675 1500,724 1511,776 1581,806 1532,863 1490,886 1453,888 1429,880" fill="rgb(100%, 68.6943%, 54.9234%)" fill-rule="evenodd" fill-opacity="0.502860"/>
		<polygon points="1500,645 1489,645 1484,639 1464,673 1499,768 1500,688 1514,690 1516,665" fill="rgb(100%, 86.8535%, 71.0419%)" fill-rule="evenodd" fill-opacity="0.600000"/>
		<polygon points="1389,721 1374,725 1380,696 1380,685 1393,673" fill="rgb(44.9602%, 19.8748%, 13.1953%)" fill-rule="evenodd" fill-opacity="0.430490"/>
		<polygon points="1331,681 1332,701 1334,710 1363,691" fill="rgb(63.7951%, 47.8126%, 38.2221%)" fill-rule="evenodd" fill-opacity="0.256495"/>
		<polygon points="1403,709 1400,698 1406,688 1415,697 1429,694 1412,709" fill="rgb(23.6607%, 11.0133%, 5.96752%)" fill-rule="evenodd" fill-opacity="0.434544"/>
		<polygon points="1382,596 1344,594 1357,576 1324,590 1318,603 1328,669 1340,632 1391,641 1416,636 1419,625 1428,619 1365,618" fill="rgb(65.3281%, 37.3607%, 27.1909%)" fill-rule="evenodd" fill-opacity="0.429023"/>
		<polygon points="1504,632 1512,652 1512,668 1516,684 1493,696 1485,682 1455,674" fill="rgb(100%, 89.6538%, 78.066%)" fill-rule="evenodd" fill-opacity="0.578387"/>
		<polygon points="1340,687 1358,695 1369,700 1352,714 1331,690" fill="rgb(70.9938%, 50.2904%, 35.9072%)" fill-rule="evenodd" fill-opacity="0.269008"/>
		<polygon points="1379,796 1366,754 1357,734 1385,755 1407,796 1424,795 1459,786 1433,813 1395,836" fill="rgb(84.9943%, 43.2725%, 30.2916%)" fill-rule="evenodd" fill-opacity="0.320734"/>
		<polygon points="1415,723 1421,715 1429,698 1400,689 1375,729 1414,737" fill="rgb(13.1656%, 4.04725%, 0%)" fill-rule="evenodd" fill-opacity="0.259095"/>
		<polygon points="1488,745 1482,764 1456,778 1426,680 1469,709" fill="rgb(24.4571%, 72.7393%, 83.0319%)" fill-rule="evenodd" fill-opacity="0.100000"/>
		<polygon points="1490,888 1506,880 1500,855 1490,861 1475,820 1463,858 1479,888" fill="rgb(64.2446%, 32.7563%, 25.402%)" fill-rule="evenodd" fill-opacity="0.180302"/>
		<polygon points="1481,628 1482,613 1477,624" fill="rgb(9.94026%, 95.8316%, 23.1745%)" fill-rule="evenodd" fill-opacity="0.151555"/>
	</g>
	<g id="G10">
		<polygon points="27,953 0,940 0,1013" fill="rgb(75.4971%, 84.0848%, 40.9125%)" fill-rule="evenodd" fill-opacity="0.326413"/>
		<polygon points="332,1081 336,1127 279,1120 235,1104 229,1085 291,1065 284,1055 327,1020 335,999" fill="rgb(83.2947%, 87.3672%, 46.6094%)" fill-rule="evenodd" fill-opacity="0.322654"/>
		<polygon points="38,632 2,617 0,676 26,696" fill="rgb(68.9956%, 87.4212%, 46.3019%)" fill-rule="evenodd" fill-opacity="0.130567"/>
		<polygon points="273,1110 254,1093 226,1095 272,1117 298,1101 329,1131 331,1106 279,1084" fill="rgb(100%, 98.3899%, 58.1599%)" fill-rule="evenodd" fill-opacity="0.356103"/>
		<polygon points="412,698 486,714 466,729 445,711 448,732 408,717" fill="rgb(85.5846%, 83.3831%, 54.9064%)" fill-rule="evenodd" fill-opacity="0.176603"/>
		<polygon points="229,1091 262,1025 297,990 325,948 341,990 335,1038" fill="rgb(61.0846%, 76.3858%, 36.2895%)" fill-rule="evenodd" fill-opacity="0.196322"/>
		<polygon points="426,711 406,729 405,690 436,713 514,690 542,701 515,710 500,721 458,733" fill="rgb(62.3273%, 68.4242%, 35.7912%)" fill-rule="evenodd" fill-opacity="0.332792"/>
		<polygon points="39,640 2,617 0,726 29,765" fill="rgb(81.9625%, 94.4858%, 39.6193%)" fill-rule="evenodd" fill-opacity="0.338787"/>
		<polygon points="476,778 557,722 560,685 438,703 417,693 406,697 391,815" fill="rgb(80.1158%, 96.6013%, 49.9448%)" fill-rule="evenodd" fill-opacity="0.303579"/>
		<polygon points="0,728 18,740 7,850 35,897 42,894 8,1005 0,1002" fill="rgb(65.8144%, 72.1297%, 35.4531%)" fill-rule="evenodd" fill-opacity="0.242837"/>
	</g>
	<g id="G11">
		<polygon points="619,834 635,836 672,807 679,793 679,788 672,774 673,760 656,735 654,752 654,772 656,781 661,781 641,773 623,785 599,782 550,773 557,784" fill="rgb(72.5923%, 43.1041%, 70.7176%)" fill-rule="evenodd" fill-opacity="0.509494"/>
		<polygon points="621,591 623,602 650,596 674,600 682,637 695,642 685,647 682,643 670,684 652,762 645,767 677,787 671,808 664,817 647,795 638,807 633,778 631,746 634,745 617,710 634,678 622,645 610,598" fill="rgb(60.4697%, 56.7562%, 50.1805%)" fill-rule="evenodd" fill-opacity="0.433785"/>
		<polygon points="669,749 664,746 659,733 663,702 653,700 636,724 643,753 631,804 598,785 600,821 630,839 648,827 676,801 677,772" fill="rgb(100%, 81.6395%, 62.2746%)" fill-rule="evenodd" fill-opacity="0.600000"/>
		<polygon points="549,639 555,621 562,611 547,614 550,649 540,649 539,646" fill="rgb(50.0756%, 37.3262%, 25.4306%)" fill-rule="evenodd" fill-opacity="0.553580"/>
		<polygon points="624,592 684,609 684,631 675,674 667,677 663,656 665,654 647,623 647,610 628,619 629,617 633,633 602,637 595,635 598,651 557,656 550,614 568,584 604,583" fill="rgb(81.1622%, 55.7139%, 51.3569%)" fill-rule="evenodd" fill-opacity="0.334678"/>
		<polygon points="536,743 555,725 557,717 559,698 627,723 607,782 612,809 600,806 600,821 554,783 532,752" fill="rgb(100%, 71.608%, 49.038%)" fill-rule="evenodd" fill-opacity="0.573172"/>
		<polygon points="549,637 551,647 546,651 535,644" fill="rgb(96.1005%, 59.6614%, 42.0275%)" fill-rule="evenodd" fill-opacity="0.335397"/>
		<polygon points="681,788 672,803 660,819 646,830 627,838 565,792 567,795 602,793 632,710 633,716 635,704 649,703" fill="rgb(100%, 84.9882%, 63.3739%)" fill-rule="evenodd" fill-opacity="0.420346"/>
		<polygon points="536,758 532,744 544,740 541,735 547,732 547,743 554,763 584,772 627,797 606,799 593,790 584,809 552,783" fill="rgb(50.1195%, 66.4059%, 56.5985%)" fill-rule="evenodd" fill-opacity="0.217293"/>
		<polygon points="623,679 624,660 602,590 662,585 684,616 679,662 672,675 670,676 661,725 663,757 666,767 664,786 658,787 653,802 600,801 625,727 609,689" fill="rgb(98.9578%, 61.8384%, 38.5184%)" fill-rule="evenodd" fill-opacity="0.355587"/>
		<polygon points="535,756 533,755 532,744 545,734 557,720 615,746 643,777 586,812" fill="rgb(75.5112%, 55.168%, 42.1053%)" fill-rule="evenodd" fill-opacity="0.291671"/>
		<polygon points="656,796 641,783 659,782 659,758 663,746 675,763 673,778 677,797 665,812" fill="rgb(100%, 100%, 86.6214%)" fill-rule="evenodd" fill-opacity="0.576424"/>
		<polygon points="629,603 636,606 664,588 676,604 664,583 647,583 636,583 625,595" fill="rgb(17.3448%, 12.1127%, 11.4538%)" fill-rule="evenodd" fill-opacity="0.518917"/>
		<polygon points="556,664 549,639 553,623 565,608 606,606 617,596 639,615 653,605 656,597 678,605 683,619 679,651 659,721 657,701 629,706 624,699 617,709 622,721 559,699" fill="rgb(100%, 70.7163%, 50.438%)" fill-rule="evenodd" fill-opacity="0.585733"/>
		<polygon points="547,647 564,658 590,669 558,633 559,628 566,614 598,612 600,619 592,641 605,629 619,592 548,611" fill="rgb(57.1641%, 39.8268%, 28.9079%)" fill-rule="evenodd" fill-opacity="0.452234"/>
		<polygon points="613,641 598,643 604,633" fill="rgb(19.1168%, 4.0874%, 8.97601%)" fill-rule="evenodd" fill-opacity="0.317388"/>
		<polygon points="656,632 677,655 680,647 677,629 674,605 668,608 618,606 608,631 629,635 635,624" fill="rgb(91.141%, 71.1048%, 70.417%)" fill-rule="evenodd" fill-opacity="0.377668"/>
		<polygon points="680,645 689,645 700,638 663,635 663,629 657,609 657,603 681,609" fill="rgb(100%, 81.212%, 62.5825%)" fill-rule="evenodd" fill-opacity="0.556136"/>
		<polygon points="621,645 624,640 632,640 626,631 616,635" fill="rgb(28.7867%, 23.0417%, 17.8481%)" fill-rule="evenodd" fill-opacity="0.231109"/>
		<polygon points="609,799 597,791 595,774 604,769 624,791 629,807" fill="rgb(76.1442%, 65.0233%, 48.8832%)" fill-rule="evenodd" fill-opacity="0.189369"/>
		<polygon points="599,803 594,800 596,795 604,793 612,798" fill="rgb(83.9249%, 86.8545%, 85.2519%)" fill-rule="evenodd" fill-opacity="0.188281"/>
	</g>
	<g id="G12">
		<polygon points="710,538 716,553 692,538 663,540 686,564 681,521 669,501 666,513 653,492 632,469 646,464 699,495 702,506 715,524" fill="rgb(84.6555%, 75.0765%, 57.2375%)" fill-rule="evenodd" fill-opacity="0.401974"/>
		<polygon points="713,514 692,511 699,502 669,595 695,628 706,643 733,611 740,593 711,527" fill="rgb(85.9623%, 69.3067%, 52.1694%)" fill-rule="evenodd" fill-opacity="0.156904"/>
		<polygon points="575,482 587,479 592,489 555,512 529,515 524,509 530,503 571,479" fill="rgb(88.0257%, 62.315%, 59.891%)" fill-rule="evenodd" fill-opacity="0.225862"/>
		<polygon points="706,641 685,658 678,671 698,667 708,653" fill="rgb(42.8166%, 49.9582%, 38.4989%)" fill-rule="evenodd" fill-opacity="0.259840"/>
		<polygon points="681,519 666,518 663,511 655,529 601,504 656,465 683,475 687,512" fill="rgb(38.5271%, 29.7409%, 24.2949%)" fill-rule="evenodd" fill-opacity="0.380458"/>
		<polygon points="713,542 725,563 741,587 735,601 721,603 725,591 720,571 710,558 697,529" fill="rgb(87.1171%, 74.6176%, 63.4805%)" fill-rule="evenodd" fill-opacity="0.223328"/>
		<polygon points="535,496 545,499 566,472 590,466 628,471 582,497 562,511 555,522 544,519 535,527 528,525 530,517 518,521 519,511" fill="rgb(71.1944%, 71.1355%, 56.6489%)" fill-rule="evenodd" fill-opacity="0.369182"/>
		<polygon points="711,517 691,505 658,489 642,492 625,486 618,495 586,498 581,483 632,464 640,464 678,470" fill="rgb(71.1931%, 66.9026%, 55.1666%)" fill-rule="evenodd" fill-opacity="0.370572"/>
		<polygon points="521,506 545,501 543,509 560,508 593,487 593,494 622,484 640,486 588,511 605,527 528,536 510,541" fill="rgb(21.0783%, 16.0031%, 16.5985%)" fill-rule="evenodd" fill-opacity="0.422273"/>
		<polygon points="726,602 733,573 736,576 739,591" fill="rgb(52.6883%, 46.9395%, 38.3535%)" fill-rule="evenodd" fill-opacity="0.520775"/>
		<polygon points="738,584 696,567 699,584 710,585 708,599 688,602 680,588 642,580 673,561 652,558 656,527 679,471" fill="rgb(97.4216%, 74.5125%, 61.9302%)" fill-rule="evenodd" fill-opacity="0.115718"/>
		<polygon points="627,590 590,581 564,586 541,551 525,550 508,541 535,506 572,469 639,466 668,474 696,497 712,524 729,577 688,576 687,565 673,561" fill="rgb(97.5626%, 80.8234%, 64.1287%)" fill-rule="evenodd" fill-opacity="0.100000"/>
		<polygon points="682,646 699,642 694,635 682,637 685,613 705,641 704,658 670,687 669,677 672,676" fill="rgb(74.5704%, 52.9208%, 32.5118%)" fill-rule="evenodd" fill-opacity="0.147234"/>
		<polygon points="587,501 580,517 596,540 602,540 613,530 625,522 629,511 580,479" fill="rgb(18.3142%, 19.7531%, 16.5721%)" fill-rule="evenodd" fill-opacity="0.170834"/>
		<polygon points="708,565 701,567 692,564 685,550" fill="rgb(73.9457%, 64.4984%, 63.9861%)" fill-rule="evenodd" fill-opacity="0.140229"/>
		<polygon points="546,559 564,586 550,612 545,686 502,606 503,581 512,540 518,517 530,525" fill="rgb(36.5493%, 34.2563%, 21.7334%)" fill-rule="evenodd" fill-opacity="0.180095"/>
	</g>
	<g id="G13">
		<polygon points="1106,640 1104,654 1081,658 1062,651 1055,635 1060,631 1056,629 1092,629 1099,635 1124,636" fill="rgb(100%, 100%, 97.4593%)" fill-rule="evenodd" fill-opacity="0.600000"/>
		<polygon points="1078,676 1043,717 1055,718 1048,716 1081,718 1094,733 1106,727 1139,730 1143,763 1129,760 1119,762 1126,767 1139,790 1149,789 1147,711 1133,691 1120,679" fill="rgb(97.696%, 64.4361%, 56.4278%)" fill-rule="evenodd" fill-opacity="0.575353"/>
		<polygon points="1088,751 1052,745 1041,727 1032,739 1024,777 1032,803 1030,779 1044,789 1108,776 1096,762 1145,779 1132,764 1129,762 1113,757 1109,760" fill="rgb(100%, 70.6373%, 68.0056%)" fill-rule="evenodd" fill-opacity="0.600000"/>
		<polygon points="1112,676 1134,698 1147,783 1148,801 1138,819 1093,840 1072,842 1053,833 1030,806 1025,793 1027,746 1041,715 1053,693 1071,681 1104,672" fill="rgb(100%, 78.2278%, 68.29%)" fill-rule="evenodd" fill-opacity="0.600000"/>
		<polygon points="1171,670 1158,675 1146,673 1137,673 1126,667 1119,654 1126,646 1120,642 1126,638 1106,637 1110,639 1156,644 1177,658" fill="rgb(100%, 100%, 84.7477%)" fill-rule="evenodd" fill-opacity="0.594700"/>
		<polygon points="1133,822 1149,794 1152,774 1150,762 1144,761 1143,754 1107,748 1109,734 1117,728 1086,722 1085,744 1054,760 1029,763 1023,782 1033,811 1054,835 1072,843 1090,845 1126,830" fill="rgb(84.5363%, 57.6197%, 45.4207%)" fill-rule="evenodd" fill-opacity="0.600000"/>
		<polygon points="1084,674 1089,687 1091,698 1128,700 1133,703 1131,698 1106,680 1098,672" fill="rgb(91.2423%, 71.5003%, 62.184%)" fill-rule="evenodd" fill-opacity="0.365444"/>
		<polygon points="1145,811 1149,800 1140,795 1119,783 1116,793 1123,800 1102,796 1097,802 1066,809 1077,817 1088,819 1107,812 1111,820 1108,831 1101,833 1103,842 1131,829" fill="rgb(55.6429%, 32.7968%, 17.7763%)" fill-rule="evenodd" fill-opacity="0.301771"/>
		<polygon points="1150,735 1110,725 1099,743 1109,750 1115,756 1128,759 1151,758" fill="rgb(22.6166%, 9.12881%, 2.26934%)" fill-rule="evenodd" fill-opacity="0.383691"/>
		<polygon points="1078,742 1082,739 1071,727 1081,723 1071,716 1059,717 1073,729 1052,730 1047,734" fill="rgb(8.97379%, 0%, 0.219838%)" fill-rule="evenodd" fill-opacity="0.415174"/>
		<polygon points="1070,718 1092,709 1064,707 1051,712 1051,715" fill="rgb(98.5394%, 100%, 86.1923%)" fill-rule="evenodd" fill-opacity="0.166019"/>
		<polygon points="1073,810 1081,805 1063,797 1064,791 1127,810 1118,777 1102,795 1089,790 1108,785 1118,780 1115,774 1100,779 1058,763 1030,779" fill="rgb(43.5337%, 20.04%, 13.4359%)" fill-rule="evenodd" fill-opacity="0.397509"/>
		<polygon points="1129,694 1127,700 1121,705 1124,714 1128,717 1131,725 1134,726 1131,730 1144,735 1137,698" fill="rgb(70.4812%, 49.7797%, 39.7526%)" fill-rule="evenodd" fill-opacity="0.491535"/>
		<polygon points="1162,645 1133,644 1146,660 1149,659 1164,658" fill="rgb(99.3064%, 96.1095%, 78.3699%)" fill-rule="evenodd" fill-opacity="0.193007"/>
		<polygon points="1054,646 1076,660 1098,656 1106,650 1104,647 1106,640 1099,633 1089,629 1055,629" fill="rgb(100%, 100%, 77.5956%)" fill-rule="evenodd" fill-opacity="0.595839"/>
		<polygon points="1105,733 1103,739 1129,741 1148,750 1137,736" fill="rgb(100%, 70.5517%, 57.6384%)" fill-rule="evenodd" fill-opacity="0.312920"/>
		<polygon points="1093,773 1086,766 1075,768 1083,774 1063,770 1078,762 1092,734 1097,732" fill="rgb(100%, 77.4502%, 75.7162%)" fill-rule="evenodd" fill-opacity="0.483138"/>
		<polygon points="1146,706 1146,707 1151,720 1148,757 1151,748 1141,751 1151,766 1145,741 1141,700" fill="rgb(32.5223%, 24.4448%, 14.3191%)" fill-rule="evenodd" fill-opacity="0.519883"/>
		<polygon points="1078,789 1056,787 1055,781 1065,776" fill="rgb(93.5989%, 72.9538%, 74.6086%)" fill-rule="evenodd" fill-opacity="0.250000"/>
		<polygon points="1089,672 1111,673 1113,678 1100,679 1047,696 1073,677" fill="rgb(50.673%, 34.5523%, 26.4416%)" fill-rule="evenodd" fill-opacity="0.274521"/>
		<polygon points="1134,671 1127,666 1120,659 1122,645 1129,642 1132,643 1138,640 1168,651 1173,664 1156,677" fill="rgb(100%, 100%, 85.8564%)" fill-rule="evenodd" fill-opacity="0.600000"/>
		<polygon points="1098,827 1100,831 1072,834 1043,825 1047,812 1055,797 1062,815 1076,824" fill="rgb(100%, 84.0021%, 80.9602%)" fill-rule="evenodd" fill-opacity="0.143661"/>
		<polygon points="1149,804 1153,785 1152,780 1153,767 1147,779 1151,775 1152,779 1146,785 1146,803 1131,828" fill="rgb(39.408%, 22.6631%, 20.1965%)" fill-rule="evenodd" fill-opacity="0.288817"/>
		<polygon points="1124,679 1128,686 1127,688 1115,686 1109,675" fill="rgb(55.2422%, 38.5947%, 30.2573%)" fill-rule="evenodd" fill-opacity="0.364956"/>
		<polygon points="1081,728 1066,729 1046,725 1062,719" fill="rgb(80.5319%, 97.711%, 87.6382%)" fill-rule="evenodd" fill-opacity="0.171878"/>
		<polygon points="1066,775 1073,775 1076,763 1072,789 1083,773 1082,769 1066,782" fill="rgb(48.1204%, 9.8793%, 38.589%)" fill-rule="evenodd" fill-opacity="0.144477"/>
		<polygon points="1055,734 1033,726 1028,740 1037,741" fill="rgb(53.6189%, 39.0711%, 5.26769%)" fill-rule="evenodd" fill-opacity="0.153251"/>
		<polygon points="1080,837 1071,832 1064,826 1070,821 1099,821 1115,826 1108,830 1092,835" fill="rgb(89.8754%, 66.0141%, 62.1148%)" fill-rule="evenodd" fill-opacity="0.235805"/>
		<polygon points="1039,713 1047,707 1050,709 1029,741" fill="rgb(23.3712%, 11.2704%, 32.2704%)" fill-rule="evenodd" fill-opacity="0.219920"/>
		<polygon points="1052,694 1054,702 1045,700" fill="rgb(9.40485%, 84.8565%, 46.1921%)" fill-rule="evenodd" fill-opacity="0.193742"/>
	</g>
	<g id="G14">
		<polygon points="1322,649 1318,620 1314,610 1329,632" fill="rgb(63.1009%, 30.2264%, 24.9464%)" fill-rule="evenodd" fill-opacity="0.400086"/>
		<polygon points="1375,527 1381,524 1382,519 1375,522 1369,519 1345,524 1332,538 1333,542" fill="rgb(90.4634%, 75.95%, 46.3563%)" fill-rule="evenodd" fill-opacity="0.286848"/>
		<polygon points="1411,561 1380,559 1441,543 1422,531 1410,540 1338,550 1349,564 1356,563 1346,582" fill="rgb(68.684%, 56.0604%, 47.4789%)" fill-rule="evenodd" fill-opacity="0.439340"/>
		<polygon points="1365,559 1420,560 1473,575 1460,547 1424,532 1426,530 1391,521 1386,516 1365,516 1331,535 1316,532 1310,534 1322,559 1314,571 1304,576 1303,591 1310,596 1320,581 1346,562" fill="rgb(94.6008%, 82.6586%, 64.1733%)" fill-rule="evenodd" fill-opacity="0.424963"/>
		<polygon points="1489,621 1500,591 1489,578 1480,574 1456,555 1454,563 1437,554 1433,558 1443,562" fill="rgb(100%, 90.7694%, 61.0923%)" fill-rule="evenodd" fill-opacity="0.491006"/>
		<polygon points="1475,659 1481,646 1482,617 1456,616 1465,627 1474,640 1457,637 1456,647 1461,650 1460,662 1446,669 1452,672" fill="rgb(69.7992%, 54.9358%, 40.5764%)" fill-rule="evenodd" fill-opacity="0.266803"/>
		<polygon points="1495,649 1481,635 1471,628 1466,619 1461,617 1439,615 1460,610 1482,622 1463,570 1494,589" fill="rgb(79.6615%, 64.8231%, 51.2441%)" fill-rule="evenodd" fill-opacity="0.543145"/>
		<polygon points="1327,666 1329,658 1353,635 1332,648 1332,667 1339,685 1328,670 1323,669" fill="rgb(98.1069%, 85.0003%, 61.982%)" fill-rule="evenodd" fill-opacity="0.469835"/>
		<polygon points="1357,546 1308,576 1297,580 1297,611 1287,614 1290,637 1300,625 1307,610 1326,590 1344,583 1355,564 1370,560 1384,541 1370,546 1374,543" fill="rgb(71.6429%, 66.0659%, 55.8862%)" fill-rule="evenodd" fill-opacity="0.401709"/>
		<polygon points="1462,563 1467,551 1460,548 1454,550 1449,547 1445,539 1424,540" fill="rgb(84.0408%, 93.2809%, 84.3234%)" fill-rule="evenodd" fill-opacity="0.290987"/>
		<polygon points="1402,550 1434,563 1451,569 1461,583 1473,599 1489,610 1490,593 1486,581 1493,571 1473,572 1459,538 1423,531 1390,522 1375,516 1395,536 1348,552 1335,561" fill="rgb(96.2325%, 86.1713%, 72.8806%)" fill-rule="evenodd" fill-opacity="0.507833"/>
		<polygon points="1334,680 1351,679 1394,664 1392,641 1374,635 1355,635 1339,641 1328,657 1316,660 1307,666 1306,674 1312,684" fill="rgb(60.6685%, 54.9672%, 48.0654%)" fill-rule="evenodd" fill-opacity="0.199565"/>
		<polygon points="1422,620 1440,613 1414,633" fill="rgb(80.1064%, 73.6228%, 68.0064%)" fill-rule="evenodd" fill-opacity="0.473160"/>
		<polygon points="1354,535 1379,520 1348,529 1337,536 1333,545 1340,552" fill="rgb(94.41%, 64.1689%, 40.3371%)" fill-rule="evenodd" fill-opacity="0.233932"/>
		<polygon points="1320,593 1313,605 1316,612 1321,608" fill="rgb(98.7601%, 74.0828%, 56.0463%)" fill-rule="evenodd" fill-opacity="0.317410"/>
		<polygon points="1392,645 1392,666 1389,651 1384,643 1370,639 1356,640 1348,638 1370,633" fill="rgb(92.3025%, 85.2637%, 77.5212%)" fill-rule="evenodd" fill-opacity="0.489369"/>
		<polygon points="1500,633 1496,640 1492,631 1491,615" fill="rgb(89.1701%, 88.2794%, 68.0565%)" fill-rule="evenodd" fill-opacity="0.315044"/>
		<polygon points="1392,561 1393,558 1355,554 1348,558 1341,558 1346,565 1351,565" fill="rgb(30.5226%, 32.619%, 37.793%)" fill-rule="evenodd" fill-opacity="0.294019"/>
		<polygon points="1357,677 1394,663 1391,677 1382,687 1361,695 1346,689 1332,682 1335,696 1315,684" fill="rgb(55.4374%, 40.3841%, 28.0667%)" fill-rule="evenodd" fill-opacity="0.277191"/>
		<polygon points="1387,680 1381,689 1373,689 1383,681 1387,674" fill="rgb(94.2896%, 87.8447%, 66.0924%)" fill-rule="evenodd" fill-opacity="0.327845"/>
		<polygon points="1380,685 1365,690 1338,686 1360,694 1391,683" fill="rgb(100%, 74.74%, 68.9002%)" fill-rule="evenodd" fill-opacity="0.338639"/>
		<polygon points="1295,579 1297,611 1287,621 1296,629 1290,637 1304,664 1325,656 1326,637 1319,595 1336,587 1323,569 1320,570" fill="rgb(61.421%, 54.4385%, 41.8585%)" fill-rule="evenodd" fill-opacity="0.191796"/>
		<polygon points="1366,575 1363,572 1373,575" fill="rgb(27.0185%, 46.5563%, 36.1527%)" fill-rule="evenodd" fill-opacity="0.325474"/>
		<polygon points="1428,664 1406,638 1431,613 1455,611 1479,620 1475,605 1455,572 1469,571 1483,579 1501,589 1492,621 1500,639 1493,644 1482,644 1478,636 1487,637 1469,664 1454,672" fill="rgb(84.0948%, 75.3386%, 56.1193%)" fill-rule="evenodd" fill-opacity="0.186621"/>
		<polygon points="1335,648 1332,644 1342,644" fill="rgb(32.7581%, 57.5082%, 29.6294%)" fill-rule="evenodd" fill-opacity="0.282657"/>
	</g>
	<g id="G15">
		<polygon points="1415,1124 1419,1121 1434,1114 1423,1126 1420,1138 1374,1155 1355,1161 1354,1153" fill="rgb(66.9066%, 64.9804%, 55.5201%)" fill-rule="evenodd" fill-opacity="0.100000"/>
		<polygon points="1499,1157 1473,1174 1431,1192 1407,1195 1382,1195 1358,1187 1345,1175 1345,1168 1360,1150 1359,1160 1399,1147 1416,1126 1438,1110 1470,1084 1549,1068 1557,1074 1546,1104 1524,1134 1489,1157 1471,1118 1476,1103 1520,1078 1519,1110 1526,1119 1517,1141" fill="rgb(60.7391%, 46.0736%, 27.1482%)" fill-rule="evenodd" fill-opacity="0.188652"/>
		<polygon points="1506,1072 1496,1084 1501,1084 1492,1103 1473,1106 1473,1103 1487,1081 1509,1049 1472,1076 1502,1024 1512,1023 1531,1015 1537,1021 1528,1059 1520,1063 1516,1077" fill="rgb(100%, 63.0389%, 21.2315%)" fill-rule="evenodd" fill-opacity="0.445802"/>
		<polygon points="1442,1129 1443,1134 1468,1110 1485,1112 1452,1139 1464,1137 1471,1135 1497,1115 1520,1087 1529,1066 1550,1073 1549,1089 1535,1080 1529,1095 1542,1100 1529,1121 1525,1113 1515,1125 1518,1139 1503,1152 1485,1163 1423,1183 1434,1145 1406,1152" fill="rgb(100%, 58.1676%, 0%)" fill-rule="evenodd" fill-opacity="0.597680"/>
		<polygon points="1499,1003 1492,990 1480,977 1481,971 1491,971 1511,983 1537,1038 1521,1029 1511,1035 1478,1065 1504,1017" fill="rgb(59.8143%, 60.6844%, 56.8636%)" fill-rule="evenodd" fill-opacity="0.137460"/>
		<polygon points="1554,1080 1550,1030 1520,1011 1504,1035 1482,1055 1464,1086 1459,1092 1477,1098 1469,1107 1461,1106 1444,1117 1451,1128 1477,1140 1495,1159 1522,1137 1535,1122 1544,1105" fill="rgb(50.6133%, 12.0145%, 17.0291%)" fill-rule="evenodd" fill-opacity="0.205938"/>
		<polygon points="1488,1054 1485,1064 1478,1080 1513,1031 1492,1082 1497,1088 1517,1079 1517,1073 1529,1051 1503,1024 1509,1024 1522,1033 1543,1042 1540,1021 1522,1009 1513,999 1516,1022 1503,1028" fill="rgb(84.7474%, 51.8513%, 0%)" fill-rule="evenodd" fill-opacity="0.600000"/>
		<polygon points="1448,1183 1464,1168 1468,1170 1463,1177" fill="rgb(88.7818%, 63.6547%, 14.4401%)" fill-rule="evenodd" fill-opacity="0.408871"/>
		<polygon points="1462,1091 1467,1087 1511,1020 1518,1002 1547,1032 1555,1054 1554,1078 1536,1117 1518,1136 1471,1172 1430,1176 1431,1160 1399,1173 1364,1184 1354,1166 1389,1159 1385,1155 1428,1140 1462,1118 1478,1099" fill="rgb(100%, 78.3823%, 0%)" fill-rule="evenodd" fill-opacity="0.600000"/>
		<polygon points="1536,1041 1528,1043 1527,1069 1528,1071 1535,1067 1557,1067" fill="rgb(0%, 0%, 26.4309%)" fill-rule="evenodd" fill-opacity="0.303925"/>
		<polygon points="1414,1139 1414,1134 1404,1142 1408,1143" fill="rgb(82.7564%, 68.1862%, 18.8749%)" fill-rule="evenodd" fill-opacity="0.488231"/>
		<polygon points="1483,1116 1504,1088 1514,1090 1508,1103 1507,1109 1469,1133" fill="rgb(0%, 0%, 4.65004%)" fill-rule="evenodd" fill-opacity="0.600000"/>
		<polygon points="1551,1037 1533,1014 1547,1037 1542,1044 1557,1053 1554,1053" fill="rgb(3.04572%, 11.4643%, 24.0873%)" fill-rule="evenodd" fill-opacity="0.387500"/>
		<polygon points="1421,1192 1425,1185 1445,1184 1427,1195" fill="rgb(72.4888%, 53.6124%, 35.6628%)" fill-rule="evenodd" fill-opacity="0.285657"/>
		<polygon points="1443,1176 1450,1170 1446,1177" fill="rgb(55.7414%, 97.8305%, 18.3374%)" fill-rule="evenodd" fill-opacity="0.262383"/>
	</g>
</svg>